G04 ================== begin FILE IDENTIFICATION RECORD ==================*
G04 Layout Name:  CC120xEM_868_930.brd*
G04 Film Name:    assembly_top*
G04 File Format:  Gerber RS274X*
G04 File Origin:  Cadence Allegro 16.5-S017*
G04 Origin Date:  Fri Jan 25 12:57:48 2013*
G04 *
G04 Layer:  REF DES/ASSEMBLY_TOP*
G04 Layer:  PACKAGE GEOMETRY/ASSEMBLY_TOP*
G04 Layer:  BOARD GEOMETRY/OUTLINE*
G04 *
G04 Offset:    (0.0000 0.0000)*
G04 Mirror:    No*
G04 Mode:      Positive*
G04 Rotation:  0*
G04 FullContactRelief:  No*
G04 UndefLineWidth:     0.0100*
G04 ================== end FILE IDENTIFICATION RECORD ====================*
%FSLAX25Y25*MOMM*%
%IR0*IPPOS*OFA0.00000B0.00000*MIA0B0*SFA1.00000B1.00000*%
%ADD10C,.1*%
%ADD11C,.15*%
%ADD12C,.003*%
%ADD13C,.03*%
%ADD14C,.05*%
%ADD15C,.01*%
G75*
%LPD*%
G75*
G54D10*
G01X170500Y3475000D02*
Y3521000D01*
X189500D01*
G01X182500Y3498770D02*
X170500D01*
G01X209000Y3521000D02*
X221000D01*
G01X215000D02*
Y3475000D01*
G01X209000D02*
X221000D01*
G01X239000D02*
Y3521000D01*
X249000D01*
X253000Y3518700D01*
X256000Y3515630D01*
X258500Y3511030D01*
X260500Y3505670D01*
X261000Y3498000D01*
X260500Y3490330D01*
X258500Y3484970D01*
X256000Y3480370D01*
X253000Y3477300D01*
X249000Y3475000D01*
X239000D01*
G01X274000Y3521000D02*
Y3488030D01*
X276000Y3481130D01*
X280000Y3476530D01*
X285000Y3475000D01*
X290000Y3476530D01*
X294000Y3481130D01*
X296000Y3488030D01*
Y3521000D01*
G01X310500Y3513330D02*
X313500Y3517930D01*
X317000Y3520230D01*
X321000Y3521000D01*
X326000Y3519470D01*
X329500Y3515630D01*
X330500Y3511030D01*
X330000Y3506430D01*
X328000Y3502600D01*
X318000Y3494930D01*
X313500Y3489570D01*
X310500Y3481900D01*
X309500Y3475000D01*
X330500D01*
G01X1201000Y1197170D02*
X1198000Y1199470D01*
X1194500Y1201000D01*
X1190500D01*
X1186000Y1198700D01*
X1182500Y1194870D01*
X1180000Y1190270D01*
X1178000Y1182600D01*
X1177500Y1175700D01*
X1178500Y1168800D01*
X1180000Y1164200D01*
X1183000Y1159600D01*
X1186500Y1156530D01*
X1190000Y1155000D01*
X1193500D01*
X1197000Y1156530D01*
X1200000Y1158830D01*
X1202500Y1161900D01*
G01X1214000Y1164200D02*
X1217000Y1158830D01*
X1221000Y1155770D01*
X1225500Y1155000D01*
X1229500Y1155770D01*
X1233500Y1159600D01*
X1236000Y1164200D01*
X1236500Y1168800D01*
X1235500Y1174170D01*
X1232000Y1178000D01*
X1228500Y1179530D01*
X1224000D01*
G01X1228500D02*
X1231500Y1181830D01*
X1234000Y1185670D01*
X1235000Y1190270D01*
X1234000Y1194870D01*
X1231500Y1198700D01*
X1227000Y1201000D01*
X1222500Y1200230D01*
X1218000Y1197170D01*
G01X1250500Y1193330D02*
X1253500Y1197930D01*
X1257000Y1200230D01*
X1261000Y1201000D01*
X1266000Y1199470D01*
X1269500Y1195630D01*
X1270500Y1191030D01*
X1270000Y1186430D01*
X1268000Y1182600D01*
X1258000Y1174930D01*
X1253500Y1169570D01*
X1250500Y1161900D01*
X1249500Y1155000D01*
X1270500D01*
G01X1295000D02*
Y1201000D01*
X1289000Y1191800D01*
G01Y1155000D02*
X1301000D01*
G01X897830Y1496000D02*
X895530Y1493000D01*
X894000Y1489500D01*
Y1485500D01*
X896300Y1481000D01*
X900130Y1477500D01*
X904730Y1475000D01*
X912400Y1473000D01*
X919300Y1472500D01*
X926200Y1473500D01*
X930800Y1475000D01*
X935400Y1478000D01*
X938470Y1481500D01*
X940000Y1485000D01*
Y1488500D01*
X938470Y1492000D01*
X936170Y1495000D01*
X933100Y1497500D01*
G01X930800Y1509000D02*
X936170Y1512000D01*
X939230Y1516000D01*
X940000Y1520500D01*
X939230Y1524500D01*
X935400Y1528500D01*
X930800Y1531000D01*
X926200Y1531500D01*
X920830Y1530500D01*
X917000Y1527000D01*
X915470Y1523500D01*
Y1519000D01*
G01Y1523500D02*
X913170Y1526500D01*
X909330Y1529000D01*
X904730Y1530000D01*
X900130Y1529000D01*
X896300Y1526500D01*
X894000Y1522000D01*
X894770Y1517500D01*
X897830Y1513000D01*
G01X894000Y1555000D02*
X895530Y1551000D01*
X899370Y1548000D01*
X903970Y1546000D01*
X910100Y1544500D01*
X917000Y1544000D01*
X923900Y1544500D01*
X930030Y1546000D01*
X934630Y1548000D01*
X938470Y1551000D01*
X940000Y1555000D01*
X938470Y1559000D01*
X934630Y1562000D01*
X930030Y1564000D01*
X923900Y1565500D01*
X917000Y1566000D01*
X910100Y1565500D01*
X903970Y1564000D01*
X899370Y1562000D01*
X895530Y1559000D01*
X894000Y1555000D01*
G01X901670Y1580500D02*
X897070Y1583500D01*
X894770Y1587000D01*
X894000Y1591000D01*
X895530Y1596000D01*
X899370Y1599500D01*
X903970Y1600500D01*
X908570Y1600000D01*
X912400Y1598000D01*
X920070Y1588000D01*
X925430Y1583500D01*
X933100Y1580500D01*
X940000Y1579500D01*
Y1600500D01*
G01X1017830Y1366000D02*
X1015530Y1363000D01*
X1014000Y1359500D01*
Y1355500D01*
X1016300Y1351000D01*
X1020130Y1347500D01*
X1024730Y1345000D01*
X1032400Y1343000D01*
X1039300Y1342500D01*
X1046200Y1343500D01*
X1050800Y1345000D01*
X1055400Y1348000D01*
X1058470Y1351500D01*
X1060000Y1355000D01*
Y1358500D01*
X1058470Y1362000D01*
X1056170Y1365000D01*
X1053100Y1367500D01*
G01X1050800Y1379000D02*
X1056170Y1382000D01*
X1059230Y1386000D01*
X1060000Y1390500D01*
X1059230Y1394500D01*
X1055400Y1398500D01*
X1050800Y1401000D01*
X1046200Y1401500D01*
X1040830Y1400500D01*
X1037000Y1397000D01*
X1035470Y1393500D01*
Y1389000D01*
G01Y1393500D02*
X1033170Y1396500D01*
X1029330Y1399000D01*
X1024730Y1400000D01*
X1020130Y1399000D01*
X1016300Y1396500D01*
X1014000Y1392000D01*
X1014770Y1387500D01*
X1017830Y1383000D01*
G01X1014000Y1425000D02*
X1015530Y1421000D01*
X1019370Y1418000D01*
X1023970Y1416000D01*
X1030100Y1414500D01*
X1037000Y1414000D01*
X1043900Y1414500D01*
X1050030Y1416000D01*
X1054630Y1418000D01*
X1058470Y1421000D01*
X1060000Y1425000D01*
X1058470Y1429000D01*
X1054630Y1432000D01*
X1050030Y1434000D01*
X1043900Y1435500D01*
X1037000Y1436000D01*
X1030100Y1435500D01*
X1023970Y1434000D01*
X1019370Y1432000D01*
X1015530Y1429000D01*
X1014000Y1425000D01*
G01X1060000Y1460000D02*
X1014000D01*
X1023200Y1454000D01*
G01X1060000D02*
Y1466000D01*
G01X1196000Y1282170D02*
X1193000Y1284470D01*
X1189500Y1286000D01*
X1185500D01*
X1181000Y1283700D01*
X1177500Y1279870D01*
X1175000Y1275270D01*
X1173000Y1267600D01*
X1172500Y1260700D01*
X1173500Y1253800D01*
X1175000Y1249200D01*
X1178000Y1244600D01*
X1181500Y1241530D01*
X1185000Y1240000D01*
X1188500D01*
X1192000Y1241530D01*
X1195000Y1243830D01*
X1197500Y1246900D01*
G01X1209000Y1249200D02*
X1212000Y1243830D01*
X1216000Y1240770D01*
X1220500Y1240000D01*
X1224500Y1240770D01*
X1228500Y1244600D01*
X1231000Y1249200D01*
X1231500Y1253800D01*
X1230500Y1259170D01*
X1227000Y1263000D01*
X1223500Y1264530D01*
X1219000D01*
G01X1223500D02*
X1226500Y1266830D01*
X1229000Y1270670D01*
X1230000Y1275270D01*
X1229000Y1279870D01*
X1226500Y1283700D01*
X1222000Y1286000D01*
X1217500Y1285230D01*
X1213000Y1282170D01*
G01X1255000Y1240000D02*
Y1286000D01*
X1249000Y1276800D01*
G01Y1240000D02*
X1261000D01*
G01X1290000D02*
Y1286000D01*
X1284000Y1276800D01*
G01Y1240000D02*
X1296000D01*
G01X1221000Y1947170D02*
X1218000Y1949470D01*
X1214500Y1951000D01*
X1210500D01*
X1206000Y1948700D01*
X1202500Y1944870D01*
X1200000Y1940270D01*
X1198000Y1932600D01*
X1197500Y1925700D01*
X1198500Y1918800D01*
X1200000Y1914200D01*
X1203000Y1909600D01*
X1206500Y1906530D01*
X1210000Y1905000D01*
X1213500D01*
X1217000Y1906530D01*
X1220000Y1908830D01*
X1222500Y1911900D01*
G01X1235500Y1943330D02*
X1238500Y1947930D01*
X1242000Y1950230D01*
X1246000Y1951000D01*
X1251000Y1949470D01*
X1254500Y1945630D01*
X1255500Y1941030D01*
X1255000Y1936430D01*
X1253000Y1932600D01*
X1243000Y1924930D01*
X1238500Y1919570D01*
X1235500Y1911900D01*
X1234500Y1905000D01*
X1255500D01*
G01X1280000D02*
X1283500Y1905770D01*
X1287500Y1908070D01*
X1290000Y1911900D01*
X1291000Y1917270D01*
X1290000Y1922630D01*
X1287000Y1927230D01*
X1282500Y1929530D01*
X1277500D01*
X1274500Y1931070D01*
X1272000Y1934900D01*
X1271000Y1940270D01*
X1272500Y1945630D01*
X1276000Y1949470D01*
X1280000Y1951000D01*
X1284000Y1949470D01*
X1287500Y1945630D01*
X1289000Y1940270D01*
X1288000Y1934900D01*
X1285500Y1931070D01*
X1282500Y1929530D01*
X1277500D01*
X1273000Y1927230D01*
X1270000Y1922630D01*
X1269000Y1917270D01*
X1270000Y1911900D01*
X1272500Y1908070D01*
X1276500Y1905770D01*
X1280000Y1905000D01*
G01X1315000D02*
Y1951000D01*
X1309000Y1941800D01*
G01Y1905000D02*
X1321000D01*
G01X1011000Y1847170D02*
X1008000Y1849470D01*
X1004500Y1851000D01*
X1000500D01*
X996000Y1848700D01*
X992500Y1844870D01*
X990000Y1840270D01*
X988000Y1832600D01*
X987500Y1825700D01*
X988500Y1818800D01*
X990000Y1814200D01*
X993000Y1809600D01*
X996500Y1806530D01*
X1000000Y1805000D01*
X1003500D01*
X1007000Y1806530D01*
X1010000Y1808830D01*
X1012500Y1811900D01*
G01X1025500Y1843330D02*
X1028500Y1847930D01*
X1032000Y1850230D01*
X1036000Y1851000D01*
X1041000Y1849470D01*
X1044500Y1845630D01*
X1045500Y1841030D01*
X1045000Y1836430D01*
X1043000Y1832600D01*
X1033000Y1824930D01*
X1028500Y1819570D01*
X1025500Y1811900D01*
X1024500Y1805000D01*
X1045500D01*
G01X1061500Y1810370D02*
X1065000Y1806530D01*
X1069000Y1805000D01*
X1073000Y1806530D01*
X1076500Y1811130D01*
X1079000Y1818030D01*
X1080000Y1824930D01*
Y1833370D01*
X1079000Y1840270D01*
X1076500Y1846400D01*
X1073500Y1849470D01*
X1070000Y1851000D01*
X1066000Y1849470D01*
X1063000Y1846400D01*
X1061000Y1841800D01*
X1060000Y1835670D01*
X1061000Y1830300D01*
X1063500Y1824930D01*
X1066500Y1821870D01*
X1070000Y1821100D01*
X1074000Y1822630D01*
X1077000Y1826470D01*
X1080000Y1833370D01*
G01X1105000Y1805000D02*
Y1851000D01*
X1099000Y1841800D01*
G01Y1805000D02*
X1111000D01*
G01X855000Y1710000D02*
Y1756000D01*
X867500D01*
X871500Y1753700D01*
X874000Y1750630D01*
X875000Y1744500D01*
X874000Y1738370D01*
X871000Y1734530D01*
X867500Y1732230D01*
X855000D01*
G01X867500D02*
X875000Y1710000D01*
G01X889000Y1719200D02*
X892000Y1713830D01*
X896000Y1710770D01*
X900500Y1710000D01*
X904500Y1710770D01*
X908500Y1714600D01*
X911000Y1719200D01*
X911500Y1723800D01*
X910500Y1729170D01*
X907000Y1733000D01*
X903500Y1734530D01*
X899000D01*
G01X903500D02*
X906500Y1736830D01*
X909000Y1740670D01*
X910000Y1745270D01*
X909000Y1749870D01*
X906500Y1753700D01*
X902000Y1756000D01*
X897500Y1755230D01*
X893000Y1752170D01*
G01X925500Y1748330D02*
X928500Y1752930D01*
X932000Y1755230D01*
X936000Y1756000D01*
X941000Y1754470D01*
X944500Y1750630D01*
X945500Y1746030D01*
X945000Y1741430D01*
X943000Y1737600D01*
X933000Y1729930D01*
X928500Y1724570D01*
X925500Y1716900D01*
X924500Y1710000D01*
X945500D01*
G01X970000D02*
Y1756000D01*
X964000Y1746800D01*
G01Y1710000D02*
X976000D01*
G01X958500Y2742500D02*
Y2788500D01*
X970500D01*
X974500Y2786200D01*
X977500Y2780830D01*
X978500Y2774700D01*
X977500Y2768570D01*
X975000Y2763970D01*
X970500Y2761670D01*
X958500D01*
G01X992500Y2751700D02*
X995500Y2746330D01*
X999500Y2743270D01*
X1004000Y2742500D01*
X1008000Y2743270D01*
X1012000Y2747100D01*
X1014500Y2751700D01*
X1015000Y2756300D01*
X1014000Y2761670D01*
X1010500Y2765500D01*
X1007000Y2767030D01*
X1002500D01*
G01X1007000D02*
X1010000Y2769330D01*
X1012500Y2773170D01*
X1013500Y2777770D01*
X1012500Y2782370D01*
X1010000Y2786200D01*
X1005500Y2788500D01*
X1001000Y2787730D01*
X996500Y2784670D01*
G01X1265000Y1110000D02*
X1311000D01*
Y1097500D01*
X1308700Y1093500D01*
X1305630Y1091000D01*
X1299500Y1090000D01*
X1293370Y1091000D01*
X1289530Y1094000D01*
X1287230Y1097500D01*
Y1110000D01*
G01Y1097500D02*
X1265000Y1090000D01*
G01X1274200Y1076000D02*
X1268830Y1073000D01*
X1265770Y1069000D01*
X1265000Y1064500D01*
X1265770Y1060500D01*
X1269600Y1056500D01*
X1274200Y1054000D01*
X1278800Y1053500D01*
X1284170Y1054500D01*
X1288000Y1058000D01*
X1289530Y1061500D01*
Y1066000D01*
G01Y1061500D02*
X1291830Y1058500D01*
X1295670Y1056000D01*
X1300270Y1055000D01*
X1304870Y1056000D01*
X1308700Y1058500D01*
X1311000Y1063000D01*
X1310230Y1067500D01*
X1307170Y1072000D01*
G01X1303330Y1039500D02*
X1307930Y1036500D01*
X1310230Y1033000D01*
X1311000Y1029000D01*
X1309470Y1024000D01*
X1305630Y1020500D01*
X1301030Y1019500D01*
X1296430Y1020000D01*
X1292600Y1022000D01*
X1284930Y1032000D01*
X1279570Y1036500D01*
X1271900Y1039500D01*
X1265000Y1040500D01*
Y1019500D01*
G01X1303330Y1004500D02*
X1307930Y1001500D01*
X1310230Y998000D01*
X1311000Y994000D01*
X1309470Y989000D01*
X1305630Y985500D01*
X1301030Y984500D01*
X1296430Y985000D01*
X1292600Y987000D01*
X1284930Y997000D01*
X1279570Y1001500D01*
X1271900Y1004500D01*
X1265000Y1005500D01*
Y984500D01*
G01X1239500Y845000D02*
X1260500Y891000D01*
G01X1239500D02*
X1260500Y845000D01*
G01X1275500Y883330D02*
X1278500Y887930D01*
X1282000Y890230D01*
X1286000Y891000D01*
X1291000Y889470D01*
X1294500Y885630D01*
X1295500Y881030D01*
X1295000Y876430D01*
X1293000Y872600D01*
X1283000Y864930D01*
X1278500Y859570D01*
X1275500Y851900D01*
X1274500Y845000D01*
X1295500D01*
G01X1570000Y1430000D02*
X1524000D01*
Y1442500D01*
X1526300Y1446500D01*
X1529370Y1449000D01*
X1535500Y1450000D01*
X1541630Y1449000D01*
X1545470Y1446000D01*
X1547770Y1442500D01*
Y1430000D01*
G01Y1442500D02*
X1570000Y1450000D01*
G01Y1475000D02*
X1524000D01*
X1533200Y1469000D01*
G01X1570000D02*
Y1481000D01*
G01X1531670Y1500500D02*
X1527070Y1503500D01*
X1524770Y1507000D01*
X1524000Y1511000D01*
X1525530Y1516000D01*
X1529370Y1519500D01*
X1533970Y1520500D01*
X1538570Y1520000D01*
X1542400Y1518000D01*
X1550070Y1508000D01*
X1555430Y1503500D01*
X1563100Y1500500D01*
X1570000Y1499500D01*
Y1520500D01*
G01X1246000Y2067170D02*
X1243000Y2069470D01*
X1239500Y2071000D01*
X1235500D01*
X1231000Y2068700D01*
X1227500Y2064870D01*
X1225000Y2060270D01*
X1223000Y2052600D01*
X1222500Y2045700D01*
X1223500Y2038800D01*
X1225000Y2034200D01*
X1228000Y2029600D01*
X1231500Y2026530D01*
X1235000Y2025000D01*
X1238500D01*
X1242000Y2026530D01*
X1245000Y2028830D01*
X1247500Y2031900D01*
G01X1260500Y2063330D02*
X1263500Y2067930D01*
X1267000Y2070230D01*
X1271000Y2071000D01*
X1276000Y2069470D01*
X1279500Y2065630D01*
X1280500Y2061030D01*
X1280000Y2056430D01*
X1278000Y2052600D01*
X1268000Y2044930D01*
X1263500Y2039570D01*
X1260500Y2031900D01*
X1259500Y2025000D01*
X1280500D01*
G01X1304000D02*
X1305000Y2034970D01*
X1306500Y2043400D01*
X1308500Y2051070D01*
X1311000Y2059500D01*
X1315000Y2071000D01*
X1295000D01*
G01X1340000Y2025000D02*
Y2071000D01*
X1334000Y2061800D01*
G01Y2025000D02*
X1346000D01*
G01X1281000Y2332170D02*
X1278000Y2334470D01*
X1274500Y2336000D01*
X1270500D01*
X1266000Y2333700D01*
X1262500Y2329870D01*
X1260000Y2325270D01*
X1258000Y2317600D01*
X1257500Y2310700D01*
X1258500Y2303800D01*
X1260000Y2299200D01*
X1263000Y2294600D01*
X1266500Y2291530D01*
X1270000Y2290000D01*
X1273500D01*
X1277000Y2291530D01*
X1280000Y2293830D01*
X1282500Y2296900D01*
G01X1295500Y2328330D02*
X1298500Y2332930D01*
X1302000Y2335230D01*
X1306000Y2336000D01*
X1311000Y2334470D01*
X1314500Y2330630D01*
X1315500Y2326030D01*
X1315000Y2321430D01*
X1313000Y2317600D01*
X1303000Y2309930D01*
X1298500Y2304570D01*
X1295500Y2296900D01*
X1294500Y2290000D01*
X1315500D01*
G01X1329000Y2296900D02*
X1332000Y2293070D01*
X1335500Y2290770D01*
X1340000Y2290000D01*
X1344500Y2291530D01*
X1348000Y2294600D01*
X1350500Y2299970D01*
X1351000Y2306100D01*
X1350000Y2312230D01*
X1347500Y2316070D01*
X1344000Y2319130D01*
X1340500Y2319900D01*
X1337000Y2319130D01*
X1332500Y2316070D01*
X1334000Y2336000D01*
X1347500D01*
G01X1375000Y2290000D02*
Y2336000D01*
X1369000Y2326800D01*
G01Y2290000D02*
X1381000D01*
G01X1251000Y2202170D02*
X1248000Y2204470D01*
X1244500Y2206000D01*
X1240500D01*
X1236000Y2203700D01*
X1232500Y2199870D01*
X1230000Y2195270D01*
X1228000Y2187600D01*
X1227500Y2180700D01*
X1228500Y2173800D01*
X1230000Y2169200D01*
X1233000Y2164600D01*
X1236500Y2161530D01*
X1240000Y2160000D01*
X1243500D01*
X1247000Y2161530D01*
X1250000Y2163830D01*
X1252500Y2166900D01*
G01X1265500Y2198330D02*
X1268500Y2202930D01*
X1272000Y2205230D01*
X1276000Y2206000D01*
X1281000Y2204470D01*
X1284500Y2200630D01*
X1285500Y2196030D01*
X1285000Y2191430D01*
X1283000Y2187600D01*
X1273000Y2179930D01*
X1268500Y2174570D01*
X1265500Y2166900D01*
X1264500Y2160000D01*
X1285500D01*
G01X1300500Y2179170D02*
X1304000Y2184530D01*
X1307000Y2187600D01*
X1311000Y2189130D01*
X1314500Y2187600D01*
X1317000Y2184530D01*
X1319000Y2179930D01*
X1319500Y2174570D01*
X1319000Y2169970D01*
X1317000Y2165370D01*
X1314000Y2161530D01*
X1310500Y2160000D01*
X1306500Y2161530D01*
X1303000Y2166130D01*
X1301000Y2173030D01*
X1300500Y2180700D01*
X1301500Y2190670D01*
X1303000Y2196030D01*
X1305500Y2201400D01*
X1309000Y2205230D01*
X1312500Y2206000D01*
X1316000Y2204470D01*
X1318500Y2200630D01*
G01X1345000Y2160000D02*
Y2206000D01*
X1339000Y2196800D01*
G01Y2160000D02*
X1351000D01*
G01X1587830Y2531000D02*
X1585530Y2528000D01*
X1584000Y2524500D01*
Y2520500D01*
X1586300Y2516000D01*
X1590130Y2512500D01*
X1594730Y2510000D01*
X1602400Y2508000D01*
X1609300Y2507500D01*
X1616200Y2508500D01*
X1620800Y2510000D01*
X1625400Y2513000D01*
X1628470Y2516500D01*
X1630000Y2520000D01*
Y2523500D01*
X1628470Y2527000D01*
X1626170Y2530000D01*
X1623100Y2532500D01*
G01X1591670Y2545500D02*
X1587070Y2548500D01*
X1584770Y2552000D01*
X1584000Y2556000D01*
X1585530Y2561000D01*
X1589370Y2564500D01*
X1593970Y2565500D01*
X1598570Y2565000D01*
X1602400Y2563000D01*
X1610070Y2553000D01*
X1615430Y2548500D01*
X1623100Y2545500D01*
X1630000Y2544500D01*
Y2565500D01*
G01X1620800Y2579000D02*
X1626170Y2582000D01*
X1629230Y2586000D01*
X1630000Y2590500D01*
X1629230Y2594500D01*
X1625400Y2598500D01*
X1620800Y2601000D01*
X1616200Y2601500D01*
X1610830Y2600500D01*
X1607000Y2597000D01*
X1605470Y2593500D01*
Y2589000D01*
G01Y2593500D02*
X1603170Y2596500D01*
X1599330Y2599000D01*
X1594730Y2600000D01*
X1590130Y2599000D01*
X1586300Y2596500D01*
X1584000Y2592000D01*
X1584770Y2587500D01*
X1587830Y2583000D01*
G01X1630000Y2625000D02*
X1584000D01*
X1593200Y2619000D01*
G01X1630000D02*
Y2631000D01*
G01X1642830Y1221000D02*
X1640530Y1218000D01*
X1639000Y1214500D01*
Y1210500D01*
X1641300Y1206000D01*
X1645130Y1202500D01*
X1649730Y1200000D01*
X1657400Y1198000D01*
X1664300Y1197500D01*
X1671200Y1198500D01*
X1675800Y1200000D01*
X1680400Y1203000D01*
X1683470Y1206500D01*
X1685000Y1210000D01*
Y1213500D01*
X1683470Y1217000D01*
X1681170Y1220000D01*
X1678100Y1222500D01*
G01X1675800Y1234000D02*
X1681170Y1237000D01*
X1684230Y1241000D01*
X1685000Y1245500D01*
X1684230Y1249500D01*
X1680400Y1253500D01*
X1675800Y1256000D01*
X1671200Y1256500D01*
X1665830Y1255500D01*
X1662000Y1252000D01*
X1660470Y1248500D01*
Y1244000D01*
G01Y1248500D02*
X1658170Y1251500D01*
X1654330Y1254000D01*
X1649730Y1255000D01*
X1645130Y1254000D01*
X1641300Y1251500D01*
X1639000Y1247000D01*
X1639770Y1242500D01*
X1642830Y1238000D01*
G01X1646670Y1270500D02*
X1642070Y1273500D01*
X1639770Y1277000D01*
X1639000Y1281000D01*
X1640530Y1286000D01*
X1644370Y1289500D01*
X1648970Y1290500D01*
X1653570Y1290000D01*
X1657400Y1288000D01*
X1665070Y1278000D01*
X1670430Y1273500D01*
X1678100Y1270500D01*
X1685000Y1269500D01*
Y1290500D01*
G01X1646670Y1305500D02*
X1642070Y1308500D01*
X1639770Y1312000D01*
X1639000Y1316000D01*
X1640530Y1321000D01*
X1644370Y1324500D01*
X1648970Y1325500D01*
X1653570Y1325000D01*
X1657400Y1323000D01*
X1665070Y1313000D01*
X1670430Y1308500D01*
X1678100Y1305500D01*
X1685000Y1304500D01*
Y1325500D01*
G01X1862830Y1561000D02*
X1860530Y1558000D01*
X1859000Y1554500D01*
Y1550500D01*
X1861300Y1546000D01*
X1865130Y1542500D01*
X1869730Y1540000D01*
X1877400Y1538000D01*
X1884300Y1537500D01*
X1891200Y1538500D01*
X1895800Y1540000D01*
X1900400Y1543000D01*
X1903470Y1546500D01*
X1905000Y1550000D01*
Y1553500D01*
X1903470Y1557000D01*
X1901170Y1560000D01*
X1898100Y1562500D01*
G01Y1574000D02*
X1901930Y1577000D01*
X1904230Y1580500D01*
X1905000Y1585000D01*
X1903470Y1589500D01*
X1900400Y1593000D01*
X1895030Y1595500D01*
X1888900Y1596000D01*
X1882770Y1595000D01*
X1878930Y1592500D01*
X1875870Y1589000D01*
X1875100Y1585500D01*
X1875870Y1582000D01*
X1878930Y1577500D01*
X1859000Y1579000D01*
Y1592500D01*
G01X1905000Y1620000D02*
X1859000D01*
X1868200Y1614000D01*
G01X1905000D02*
Y1626000D01*
G01X1642830Y1621000D02*
X1640530Y1618000D01*
X1639000Y1614500D01*
Y1610500D01*
X1641300Y1606000D01*
X1645130Y1602500D01*
X1649730Y1600000D01*
X1657400Y1598000D01*
X1664300Y1597500D01*
X1671200Y1598500D01*
X1675800Y1600000D01*
X1680400Y1603000D01*
X1683470Y1606500D01*
X1685000Y1610000D01*
Y1613500D01*
X1683470Y1617000D01*
X1681170Y1620000D01*
X1678100Y1622500D01*
G01X1685000Y1645000D02*
X1639000D01*
X1648200Y1639000D01*
G01X1685000D02*
Y1651000D01*
G01Y1680000D02*
X1639000D01*
X1648200Y1674000D01*
G01X1685000D02*
Y1686000D01*
G01X1955000Y2391000D02*
Y2345000D01*
X1975000D01*
G01X2000000D02*
Y2391000D01*
X1994000Y2381800D01*
G01Y2345000D02*
X2006000D01*
G01X2026500Y2350370D02*
X2030000Y2346530D01*
X2034000Y2345000D01*
X2038000Y2346530D01*
X2041500Y2351130D01*
X2044000Y2358030D01*
X2045000Y2364930D01*
Y2373370D01*
X2044000Y2380270D01*
X2041500Y2386400D01*
X2038500Y2389470D01*
X2035000Y2391000D01*
X2031000Y2389470D01*
X2028000Y2386400D01*
X2026000Y2381800D01*
X2025000Y2375670D01*
X2026000Y2370300D01*
X2028500Y2364930D01*
X2031500Y2361870D01*
X2035000Y2361100D01*
X2039000Y2362630D01*
X2042000Y2366470D01*
X2045000Y2373370D01*
G01X2070000Y2345000D02*
Y2391000D01*
X2064000Y2381800D01*
G01Y2345000D02*
X2076000D01*
G01X1792830Y2636000D02*
X1790530Y2633000D01*
X1789000Y2629500D01*
Y2625500D01*
X1791300Y2621000D01*
X1795130Y2617500D01*
X1799730Y2615000D01*
X1807400Y2613000D01*
X1814300Y2612500D01*
X1821200Y2613500D01*
X1825800Y2615000D01*
X1830400Y2618000D01*
X1833470Y2621500D01*
X1835000Y2625000D01*
Y2628500D01*
X1833470Y2632000D01*
X1831170Y2635000D01*
X1828100Y2637500D01*
G01X1796670Y2650500D02*
X1792070Y2653500D01*
X1789770Y2657000D01*
X1789000Y2661000D01*
X1790530Y2666000D01*
X1794370Y2669500D01*
X1798970Y2670500D01*
X1803570Y2670000D01*
X1807400Y2668000D01*
X1815070Y2658000D01*
X1820430Y2653500D01*
X1828100Y2650500D01*
X1835000Y2649500D01*
Y2670500D01*
G01Y2695000D02*
X1789000D01*
X1798200Y2689000D01*
G01X1835000D02*
Y2701000D01*
G01Y2730000D02*
X1789000D01*
X1798200Y2724000D01*
G01X1835000D02*
Y2736000D01*
G01X1887830Y2706000D02*
X1885530Y2703000D01*
X1884000Y2699500D01*
Y2695500D01*
X1886300Y2691000D01*
X1890130Y2687500D01*
X1894730Y2685000D01*
X1902400Y2683000D01*
X1909300Y2682500D01*
X1916200Y2683500D01*
X1920800Y2685000D01*
X1925400Y2688000D01*
X1928470Y2691500D01*
X1930000Y2695000D01*
Y2698500D01*
X1928470Y2702000D01*
X1926170Y2705000D01*
X1923100Y2707500D01*
G01X1891670Y2720500D02*
X1887070Y2723500D01*
X1884770Y2727000D01*
X1884000Y2731000D01*
X1885530Y2736000D01*
X1889370Y2739500D01*
X1893970Y2740500D01*
X1898570Y2740000D01*
X1902400Y2738000D01*
X1910070Y2728000D01*
X1915430Y2723500D01*
X1923100Y2720500D01*
X1930000Y2719500D01*
Y2740500D01*
G01X1884000Y2765000D02*
X1885530Y2761000D01*
X1889370Y2758000D01*
X1893970Y2756000D01*
X1900100Y2754500D01*
X1907000Y2754000D01*
X1913900Y2754500D01*
X1920030Y2756000D01*
X1924630Y2758000D01*
X1928470Y2761000D01*
X1930000Y2765000D01*
X1928470Y2769000D01*
X1924630Y2772000D01*
X1920030Y2774000D01*
X1913900Y2775500D01*
X1907000Y2776000D01*
X1900100Y2775500D01*
X1893970Y2774000D01*
X1889370Y2772000D01*
X1885530Y2769000D01*
X1884000Y2765000D01*
G01X1930000Y2800000D02*
X1884000D01*
X1893200Y2794000D01*
G01X1930000D02*
Y2806000D01*
G01X1697830Y2636000D02*
X1695530Y2633000D01*
X1694000Y2629500D01*
Y2625500D01*
X1696300Y2621000D01*
X1700130Y2617500D01*
X1704730Y2615000D01*
X1712400Y2613000D01*
X1719300Y2612500D01*
X1726200Y2613500D01*
X1730800Y2615000D01*
X1735400Y2618000D01*
X1738470Y2621500D01*
X1740000Y2625000D01*
Y2628500D01*
X1738470Y2632000D01*
X1736170Y2635000D01*
X1733100Y2637500D01*
G01X1701670Y2650500D02*
X1697070Y2653500D01*
X1694770Y2657000D01*
X1694000Y2661000D01*
X1695530Y2666000D01*
X1699370Y2669500D01*
X1703970Y2670500D01*
X1708570Y2670000D01*
X1712400Y2668000D01*
X1720070Y2658000D01*
X1725430Y2653500D01*
X1733100Y2650500D01*
X1740000Y2649500D01*
Y2670500D01*
G01X1701670Y2685500D02*
X1697070Y2688500D01*
X1694770Y2692000D01*
X1694000Y2696000D01*
X1695530Y2701000D01*
X1699370Y2704500D01*
X1703970Y2705500D01*
X1708570Y2705000D01*
X1712400Y2703000D01*
X1720070Y2693000D01*
X1725430Y2688500D01*
X1733100Y2685500D01*
X1740000Y2684500D01*
Y2705500D01*
G01Y2730000D02*
X1694000D01*
X1703200Y2724000D01*
G01X1740000D02*
Y2736000D01*
G01X1954000Y2700000D02*
X2000000D01*
Y2720000D01*
G01X1961670Y2735500D02*
X1957070Y2738500D01*
X1954770Y2742000D01*
X1954000Y2746000D01*
X1955530Y2751000D01*
X1959370Y2754500D01*
X1963970Y2755500D01*
X1968570Y2755000D01*
X1972400Y2753000D01*
X1980070Y2743000D01*
X1985430Y2738500D01*
X1993100Y2735500D01*
X2000000Y2734500D01*
Y2755500D01*
G01X1954000Y2780000D02*
X1955530Y2776000D01*
X1959370Y2773000D01*
X1963970Y2771000D01*
X1970100Y2769500D01*
X1977000Y2769000D01*
X1983900Y2769500D01*
X1990030Y2771000D01*
X1994630Y2773000D01*
X1998470Y2776000D01*
X2000000Y2780000D01*
X1998470Y2784000D01*
X1994630Y2787000D01*
X1990030Y2789000D01*
X1983900Y2790500D01*
X1977000Y2791000D01*
X1970100Y2790500D01*
X1963970Y2789000D01*
X1959370Y2787000D01*
X1955530Y2784000D01*
X1954000Y2780000D01*
G01X2000000Y2815000D02*
X1954000D01*
X1963200Y2809000D01*
G01X2000000D02*
Y2821000D01*
G01X2332830Y861000D02*
X2330530Y858000D01*
X2329000Y854500D01*
Y850500D01*
X2331300Y846000D01*
X2335130Y842500D01*
X2339730Y840000D01*
X2347400Y838000D01*
X2354300Y837500D01*
X2361200Y838500D01*
X2365800Y840000D01*
X2370400Y843000D01*
X2373470Y846500D01*
X2375000Y850000D01*
Y853500D01*
X2373470Y857000D01*
X2371170Y860000D01*
X2368100Y862500D01*
G01X2375000Y885000D02*
X2329000D01*
X2338200Y879000D01*
G01X2375000D02*
Y891000D01*
G01X2336670Y910500D02*
X2332070Y913500D01*
X2329770Y917000D01*
X2329000Y921000D01*
X2330530Y926000D01*
X2334370Y929500D01*
X2338970Y930500D01*
X2343570Y930000D01*
X2347400Y928000D01*
X2355070Y918000D01*
X2360430Y913500D01*
X2368100Y910500D01*
X2375000Y909500D01*
Y930500D01*
G01X2292830Y1131000D02*
X2290530Y1128000D01*
X2289000Y1124500D01*
Y1120500D01*
X2291300Y1116000D01*
X2295130Y1112500D01*
X2299730Y1110000D01*
X2307400Y1108000D01*
X2314300Y1107500D01*
X2321200Y1108500D01*
X2325800Y1110000D01*
X2330400Y1113000D01*
X2333470Y1116500D01*
X2335000Y1120000D01*
Y1123500D01*
X2333470Y1127000D01*
X2331170Y1130000D01*
X2328100Y1132500D01*
G01Y1144000D02*
X2331930Y1147000D01*
X2334230Y1150500D01*
X2335000Y1155000D01*
X2333470Y1159500D01*
X2330400Y1163000D01*
X2325030Y1165500D01*
X2318900Y1166000D01*
X2312770Y1165000D01*
X2308930Y1162500D01*
X2305870Y1159000D01*
X2305100Y1155500D01*
X2305870Y1152000D01*
X2308930Y1147500D01*
X2289000Y1149000D01*
Y1162500D01*
G01X2296670Y1180500D02*
X2292070Y1183500D01*
X2289770Y1187000D01*
X2289000Y1191000D01*
X2290530Y1196000D01*
X2294370Y1199500D01*
X2298970Y1200500D01*
X2303570Y1200000D01*
X2307400Y1198000D01*
X2315070Y1188000D01*
X2320430Y1183500D01*
X2328100Y1180500D01*
X2335000Y1179500D01*
Y1200500D01*
G01X2235000Y1036000D02*
Y990000D01*
X2255000D01*
G01X2280000D02*
Y1036000D01*
X2274000Y1026800D01*
G01Y990000D02*
X2286000D01*
G01X2121000Y1682170D02*
X2118000Y1684470D01*
X2114500Y1686000D01*
X2110500D01*
X2106000Y1683700D01*
X2102500Y1679870D01*
X2100000Y1675270D01*
X2098000Y1667600D01*
X2097500Y1660700D01*
X2098500Y1653800D01*
X2100000Y1649200D01*
X2103000Y1644600D01*
X2106500Y1641530D01*
X2110000Y1640000D01*
X2113500D01*
X2117000Y1641530D01*
X2120000Y1643830D01*
X2122500Y1646900D01*
G01X2135500Y1659170D02*
X2139000Y1664530D01*
X2142000Y1667600D01*
X2146000Y1669130D01*
X2149500Y1667600D01*
X2152000Y1664530D01*
X2154000Y1659930D01*
X2154500Y1654570D01*
X2154000Y1649970D01*
X2152000Y1645370D01*
X2149000Y1641530D01*
X2145500Y1640000D01*
X2141500Y1641530D01*
X2138000Y1646130D01*
X2136000Y1653030D01*
X2135500Y1660700D01*
X2136500Y1670670D01*
X2138000Y1676030D01*
X2140500Y1681400D01*
X2144000Y1685230D01*
X2147500Y1686000D01*
X2151000Y1684470D01*
X2153500Y1680630D01*
G01X2180000Y1640000D02*
Y1686000D01*
X2174000Y1676800D01*
G01Y1640000D02*
X2186000D01*
G01X2246000Y2182170D02*
X2243000Y2184470D01*
X2239500Y2186000D01*
X2235500D01*
X2231000Y2183700D01*
X2227500Y2179870D01*
X2225000Y2175270D01*
X2223000Y2167600D01*
X2222500Y2160700D01*
X2223500Y2153800D01*
X2225000Y2149200D01*
X2228000Y2144600D01*
X2231500Y2141530D01*
X2235000Y2140000D01*
X2238500D01*
X2242000Y2141530D01*
X2245000Y2143830D01*
X2247500Y2146900D01*
G01X2270000Y2140000D02*
Y2186000D01*
X2264000Y2176800D01*
G01Y2140000D02*
X2276000D01*
G01X2294000Y2146900D02*
X2297000Y2143070D01*
X2300500Y2140770D01*
X2305000Y2140000D01*
X2309500Y2141530D01*
X2313000Y2144600D01*
X2315500Y2149970D01*
X2316000Y2156100D01*
X2315000Y2162230D01*
X2312500Y2166070D01*
X2309000Y2169130D01*
X2305500Y2169900D01*
X2302000Y2169130D01*
X2297500Y2166070D01*
X2299000Y2186000D01*
X2312500D01*
G01X2340000Y2140000D02*
Y2186000D01*
X2334000Y2176800D01*
G01Y2140000D02*
X2346000D01*
G01X2135000Y2351000D02*
Y2305000D01*
X2155000D01*
G01X2180000D02*
Y2351000D01*
X2174000Y2341800D01*
G01Y2305000D02*
X2186000D01*
G01X2214000D02*
X2215000Y2314970D01*
X2216500Y2323400D01*
X2218500Y2331070D01*
X2221000Y2339500D01*
X2225000Y2351000D01*
X2205000D01*
G01X2250000Y2305000D02*
Y2351000D01*
X2244000Y2341800D01*
G01Y2305000D02*
X2256000D01*
G01X2241000Y2827170D02*
X2238000Y2829470D01*
X2234500Y2831000D01*
X2230500D01*
X2226000Y2828700D01*
X2222500Y2824870D01*
X2220000Y2820270D01*
X2218000Y2812600D01*
X2217500Y2805700D01*
X2218500Y2798800D01*
X2220000Y2794200D01*
X2223000Y2789600D01*
X2226500Y2786530D01*
X2230000Y2785000D01*
X2233500D01*
X2237000Y2786530D01*
X2240000Y2788830D01*
X2242500Y2791900D01*
G01X2265000Y2785000D02*
Y2831000D01*
X2259000Y2821800D01*
G01Y2785000D02*
X2271000D01*
G01X2300000D02*
X2303500Y2785770D01*
X2307500Y2788070D01*
X2310000Y2791900D01*
X2311000Y2797270D01*
X2310000Y2802630D01*
X2307000Y2807230D01*
X2302500Y2809530D01*
X2297500D01*
X2294500Y2811070D01*
X2292000Y2814900D01*
X2291000Y2820270D01*
X2292500Y2825630D01*
X2296000Y2829470D01*
X2300000Y2831000D01*
X2304000Y2829470D01*
X2307500Y2825630D01*
X2309000Y2820270D01*
X2308000Y2814900D01*
X2305500Y2811070D01*
X2302500Y2809530D01*
X2297500D01*
X2293000Y2807230D01*
X2290000Y2802630D01*
X2289000Y2797270D01*
X2290000Y2791900D01*
X2292500Y2788070D01*
X2296500Y2785770D01*
X2300000Y2785000D01*
G01X2335000D02*
Y2831000D01*
X2329000Y2821800D01*
G01Y2785000D02*
X2341000D01*
G01X2261000Y2527170D02*
X2258000Y2529470D01*
X2254500Y2531000D01*
X2250500D01*
X2246000Y2528700D01*
X2242500Y2524870D01*
X2240000Y2520270D01*
X2238000Y2512600D01*
X2237500Y2505700D01*
X2238500Y2498800D01*
X2240000Y2494200D01*
X2243000Y2489600D01*
X2246500Y2486530D01*
X2250000Y2485000D01*
X2253500D01*
X2257000Y2486530D01*
X2260000Y2488830D01*
X2262500Y2491900D01*
G01X2285000Y2485000D02*
Y2531000D01*
X2279000Y2521800D01*
G01Y2485000D02*
X2291000D01*
G01X2319000D02*
X2320000Y2494970D01*
X2321500Y2503400D01*
X2323500Y2511070D01*
X2326000Y2519500D01*
X2330000Y2531000D01*
X2310000D01*
G01X2361000Y2485000D02*
Y2531000D01*
X2342500Y2498030D01*
X2367500D01*
G01X2127830Y2436000D02*
X2125530Y2433000D01*
X2124000Y2429500D01*
Y2425500D01*
X2126300Y2421000D01*
X2130130Y2417500D01*
X2134730Y2415000D01*
X2142400Y2413000D01*
X2149300Y2412500D01*
X2156200Y2413500D01*
X2160800Y2415000D01*
X2165400Y2418000D01*
X2168470Y2421500D01*
X2170000Y2425000D01*
Y2428500D01*
X2168470Y2432000D01*
X2166170Y2435000D01*
X2163100Y2437500D01*
G01X2170000Y2460000D02*
X2124000D01*
X2133200Y2454000D01*
G01X2170000D02*
Y2466000D01*
G01X2164630Y2486500D02*
X2168470Y2490000D01*
X2170000Y2494000D01*
X2168470Y2498000D01*
X2163870Y2501500D01*
X2156970Y2504000D01*
X2150070Y2505000D01*
X2141630D01*
X2134730Y2504000D01*
X2128600Y2501500D01*
X2125530Y2498500D01*
X2124000Y2495000D01*
X2125530Y2491000D01*
X2128600Y2488000D01*
X2133200Y2486000D01*
X2139330Y2485000D01*
X2144700Y2486000D01*
X2150070Y2488500D01*
X2153130Y2491500D01*
X2153900Y2495000D01*
X2152370Y2499000D01*
X2148530Y2502000D01*
X2141630Y2505000D01*
G01X2170000Y2530000D02*
X2124000D01*
X2133200Y2524000D01*
G01X2170000D02*
Y2536000D01*
G01X2314000Y2550000D02*
X2360000D01*
Y2570000D01*
G01Y2595000D02*
X2314000D01*
X2323200Y2589000D01*
G01X2360000D02*
Y2601000D01*
G01Y2629000D02*
X2350030Y2630000D01*
X2341600Y2631500D01*
X2333930Y2633500D01*
X2325500Y2636000D01*
X2314000Y2640000D01*
Y2620000D01*
G01X2321670Y2655500D02*
X2317070Y2658500D01*
X2314770Y2662000D01*
X2314000Y2666000D01*
X2315530Y2671000D01*
X2319370Y2674500D01*
X2323970Y2675500D01*
X2328570Y2675000D01*
X2332400Y2673000D01*
X2340070Y2663000D01*
X2345430Y2658500D01*
X2353100Y2655500D01*
X2360000Y2654500D01*
Y2675500D01*
G01X2234000Y2550000D02*
X2280000D01*
Y2570000D01*
G01Y2595000D02*
X2234000D01*
X2243200Y2589000D01*
G01X2280000D02*
Y2601000D01*
G01X2274630Y2621500D02*
X2278470Y2625000D01*
X2280000Y2629000D01*
X2278470Y2633000D01*
X2273870Y2636500D01*
X2266970Y2639000D01*
X2260070Y2640000D01*
X2251630D01*
X2244730Y2639000D01*
X2238600Y2636500D01*
X2235530Y2633500D01*
X2234000Y2630000D01*
X2235530Y2626000D01*
X2238600Y2623000D01*
X2243200Y2621000D01*
X2249330Y2620000D01*
X2254700Y2621000D01*
X2260070Y2623500D01*
X2263130Y2626500D01*
X2263900Y2630000D01*
X2262370Y2634000D01*
X2258530Y2637000D01*
X2251630Y2640000D01*
G01X2241670Y2655500D02*
X2237070Y2658500D01*
X2234770Y2662000D01*
X2234000Y2666000D01*
X2235530Y2671000D01*
X2239370Y2674500D01*
X2243970Y2675500D01*
X2248570Y2675000D01*
X2252400Y2673000D01*
X2260070Y2663000D01*
X2265430Y2658500D01*
X2273100Y2655500D01*
X2280000Y2654500D01*
Y2675500D01*
G01X2311000Y2949000D02*
Y2995000D01*
X2291000D01*
G01X2266000D02*
Y2949000D01*
X2272000Y2958200D01*
G01Y2995000D02*
X2260000D01*
G01X2232000D02*
X2231000Y2985030D01*
X2229500Y2976600D01*
X2227500Y2968930D01*
X2225000Y2960500D01*
X2221000Y2949000D01*
X2241000D01*
G01X2190000Y2995000D02*
Y2949000D01*
X2208500Y2981970D01*
X2183500D01*
G01X2055000Y2861000D02*
Y2815000D01*
X2075000D01*
G01X2100000D02*
Y2861000D01*
X2094000Y2851800D01*
G01Y2815000D02*
X2106000D01*
G01X2126500Y2820370D02*
X2130000Y2816530D01*
X2134000Y2815000D01*
X2138000Y2816530D01*
X2141500Y2821130D01*
X2144000Y2828030D01*
X2145000Y2834930D01*
Y2843370D01*
X2144000Y2850270D01*
X2141500Y2856400D01*
X2138500Y2859470D01*
X2135000Y2861000D01*
X2131000Y2859470D01*
X2128000Y2856400D01*
X2126000Y2851800D01*
X2125000Y2845670D01*
X2126000Y2840300D01*
X2128500Y2834930D01*
X2131500Y2831870D01*
X2135000Y2831100D01*
X2139000Y2832630D01*
X2142000Y2836470D01*
X2145000Y2843370D01*
G01X2159000Y2824200D02*
X2162000Y2818830D01*
X2166000Y2815770D01*
X2170500Y2815000D01*
X2174500Y2815770D01*
X2178500Y2819600D01*
X2181000Y2824200D01*
X2181500Y2828800D01*
X2180500Y2834170D01*
X2177000Y2838000D01*
X2173500Y2839530D01*
X2169000D01*
G01X2173500D02*
X2176500Y2841830D01*
X2179000Y2845670D01*
X2180000Y2850270D01*
X2179000Y2854870D01*
X2176500Y2858700D01*
X2172000Y2861000D01*
X2167500Y2860230D01*
X2163000Y2857170D01*
G01X2299000Y3182830D02*
X2302000Y3180530D01*
X2305500Y3179000D01*
X2309500D01*
X2314000Y3181300D01*
X2317500Y3185130D01*
X2320000Y3189730D01*
X2322000Y3197400D01*
X2322500Y3204300D01*
X2321500Y3211200D01*
X2320000Y3215800D01*
X2317000Y3220400D01*
X2313500Y3223470D01*
X2310000Y3225000D01*
X2306500D01*
X2303000Y3223470D01*
X2300000Y3221170D01*
X2297500Y3218100D01*
G01X2275000Y3225000D02*
Y3179000D01*
X2281000Y3188200D01*
G01Y3225000D02*
X2269000D01*
G01X2241000D02*
X2240000Y3215030D01*
X2238500Y3206600D01*
X2236500Y3198930D01*
X2234000Y3190500D01*
X2230000Y3179000D01*
X2250000D01*
G01X2206000Y3225000D02*
X2205000Y3215030D01*
X2203500Y3206600D01*
X2201500Y3198930D01*
X2199000Y3190500D01*
X2195000Y3179000D01*
X2215000D01*
G01X2544000Y1341000D02*
Y1308030D01*
X2546000Y1301130D01*
X2550000Y1296530D01*
X2555000Y1295000D01*
X2560000Y1296530D01*
X2564000Y1301130D01*
X2566000Y1308030D01*
Y1341000D01*
G01X2580500Y1333330D02*
X2583500Y1337930D01*
X2587000Y1340230D01*
X2591000Y1341000D01*
X2596000Y1339470D01*
X2599500Y1335630D01*
X2600500Y1331030D01*
X2600000Y1326430D01*
X2598000Y1322600D01*
X2588000Y1314930D01*
X2583500Y1309570D01*
X2580500Y1301900D01*
X2579500Y1295000D01*
X2600500D01*
G01X2516000Y1997170D02*
X2513000Y1999470D01*
X2509500Y2001000D01*
X2505500D01*
X2501000Y1998700D01*
X2497500Y1994870D01*
X2495000Y1990270D01*
X2493000Y1982600D01*
X2492500Y1975700D01*
X2493500Y1968800D01*
X2495000Y1964200D01*
X2498000Y1959600D01*
X2501500Y1956530D01*
X2505000Y1955000D01*
X2508500D01*
X2512000Y1956530D01*
X2515000Y1958830D01*
X2517500Y1961900D01*
G01X2540000Y1955000D02*
Y2001000D01*
X2534000Y1991800D01*
G01Y1955000D02*
X2546000D01*
G01X2564000Y1964200D02*
X2567000Y1958830D01*
X2571000Y1955770D01*
X2575500Y1955000D01*
X2579500Y1955770D01*
X2583500Y1959600D01*
X2586000Y1964200D01*
X2586500Y1968800D01*
X2585500Y1974170D01*
X2582000Y1978000D01*
X2578500Y1979530D01*
X2574000D01*
G01X2578500D02*
X2581500Y1981830D01*
X2584000Y1985670D01*
X2585000Y1990270D01*
X2584000Y1994870D01*
X2581500Y1998700D01*
X2577000Y2001000D01*
X2572500Y2000230D01*
X2568000Y1997170D01*
G01X2610000Y1955000D02*
Y2001000D01*
X2604000Y1991800D01*
G01Y1955000D02*
X2616000D01*
G01X2556000Y1867170D02*
X2553000Y1869470D01*
X2549500Y1871000D01*
X2545500D01*
X2541000Y1868700D01*
X2537500Y1864870D01*
X2535000Y1860270D01*
X2533000Y1852600D01*
X2532500Y1845700D01*
X2533500Y1838800D01*
X2535000Y1834200D01*
X2538000Y1829600D01*
X2541500Y1826530D01*
X2545000Y1825000D01*
X2548500D01*
X2552000Y1826530D01*
X2555000Y1828830D01*
X2557500Y1831900D01*
G01X2580000Y1825000D02*
Y1871000D01*
X2574000Y1861800D01*
G01Y1825000D02*
X2586000D01*
G01X2605500Y1863330D02*
X2608500Y1867930D01*
X2612000Y1870230D01*
X2616000Y1871000D01*
X2621000Y1869470D01*
X2624500Y1865630D01*
X2625500Y1861030D01*
X2625000Y1856430D01*
X2623000Y1852600D01*
X2613000Y1844930D01*
X2608500Y1839570D01*
X2605500Y1831900D01*
X2604500Y1825000D01*
X2625500D01*
G01X2650000D02*
Y1871000D01*
X2644000Y1861800D01*
G01Y1825000D02*
X2656000D01*
G01X2726000Y2267170D02*
X2723000Y2269470D01*
X2719500Y2271000D01*
X2715500D01*
X2711000Y2268700D01*
X2707500Y2264870D01*
X2705000Y2260270D01*
X2703000Y2252600D01*
X2702500Y2245700D01*
X2703500Y2238800D01*
X2705000Y2234200D01*
X2708000Y2229600D01*
X2711500Y2226530D01*
X2715000Y2225000D01*
X2718500D01*
X2722000Y2226530D01*
X2725000Y2228830D01*
X2727500Y2231900D01*
G01X2750000Y2225000D02*
Y2271000D01*
X2744000Y2261800D01*
G01Y2225000D02*
X2756000D01*
G01X2784000D02*
X2785000Y2234970D01*
X2786500Y2243400D01*
X2788500Y2251070D01*
X2791000Y2259500D01*
X2795000Y2271000D01*
X2775000D01*
G01X2810500Y2263330D02*
X2813500Y2267930D01*
X2817000Y2270230D01*
X2821000Y2271000D01*
X2826000Y2269470D01*
X2829500Y2265630D01*
X2830500Y2261030D01*
X2830000Y2256430D01*
X2828000Y2252600D01*
X2818000Y2244930D01*
X2813500Y2239570D01*
X2810500Y2231900D01*
X2809500Y2225000D01*
X2830500D01*
G01X2495000Y2075000D02*
Y2121000D01*
X2507500D01*
X2511500Y2118700D01*
X2514000Y2115630D01*
X2515000Y2109500D01*
X2514000Y2103370D01*
X2511000Y2099530D01*
X2507500Y2097230D01*
X2495000D01*
G01X2507500D02*
X2515000Y2075000D01*
G01X2540000D02*
Y2121000D01*
X2534000Y2111800D01*
G01Y2075000D02*
X2546000D01*
G01X2581000D02*
Y2121000D01*
X2562500Y2088030D01*
X2587500D01*
G01X2610000Y2075000D02*
Y2121000D01*
X2604000Y2111800D01*
G01Y2075000D02*
X2616000D01*
G01X2525000Y2225000D02*
Y2271000D01*
X2537500D01*
X2541500Y2268700D01*
X2544000Y2265630D01*
X2545000Y2259500D01*
X2544000Y2253370D01*
X2541000Y2249530D01*
X2537500Y2247230D01*
X2525000D01*
G01X2537500D02*
X2545000Y2225000D01*
G01X2570000D02*
Y2271000D01*
X2564000Y2261800D01*
G01Y2225000D02*
X2576000D01*
G01X2604000D02*
X2605000Y2234970D01*
X2606500Y2243400D01*
X2608500Y2251070D01*
X2611000Y2259500D01*
X2615000Y2271000D01*
X2595000D01*
G01X2640000Y2225000D02*
Y2271000D01*
X2634000Y2261800D01*
G01Y2225000D02*
X2646000D01*
G01X2741000Y2542170D02*
X2738000Y2544470D01*
X2734500Y2546000D01*
X2730500D01*
X2726000Y2543700D01*
X2722500Y2539870D01*
X2720000Y2535270D01*
X2718000Y2527600D01*
X2717500Y2520700D01*
X2718500Y2513800D01*
X2720000Y2509200D01*
X2723000Y2504600D01*
X2726500Y2501530D01*
X2730000Y2500000D01*
X2733500D01*
X2737000Y2501530D01*
X2740000Y2503830D01*
X2742500Y2506900D01*
G01X2765000Y2500000D02*
Y2546000D01*
X2759000Y2536800D01*
G01Y2500000D02*
X2771000D01*
G01X2799000D02*
X2800000Y2509970D01*
X2801500Y2518400D01*
X2803500Y2526070D01*
X2806000Y2534500D01*
X2810000Y2546000D01*
X2790000D01*
G01X2835000Y2500000D02*
Y2546000D01*
X2829000Y2536800D01*
G01Y2500000D02*
X2841000D01*
G01X2577830Y2596000D02*
X2575530Y2593000D01*
X2574000Y2589500D01*
Y2585500D01*
X2576300Y2581000D01*
X2580130Y2577500D01*
X2584730Y2575000D01*
X2592400Y2573000D01*
X2599300Y2572500D01*
X2606200Y2573500D01*
X2610800Y2575000D01*
X2615400Y2578000D01*
X2618470Y2581500D01*
X2620000Y2585000D01*
Y2588500D01*
X2618470Y2592000D01*
X2616170Y2595000D01*
X2613100Y2597500D01*
G01X2620000Y2620000D02*
X2574000D01*
X2583200Y2614000D01*
G01X2620000D02*
Y2626000D01*
G01Y2654000D02*
X2610030Y2655000D01*
X2601600Y2656500D01*
X2593930Y2658500D01*
X2585500Y2661000D01*
X2574000Y2665000D01*
Y2645000D01*
G01X2600830Y2680500D02*
X2595470Y2684000D01*
X2592400Y2687000D01*
X2590870Y2691000D01*
X2592400Y2694500D01*
X2595470Y2697000D01*
X2600070Y2699000D01*
X2605430Y2699500D01*
X2610030Y2699000D01*
X2614630Y2697000D01*
X2618470Y2694000D01*
X2620000Y2690500D01*
X2618470Y2686500D01*
X2613870Y2683000D01*
X2606970Y2681000D01*
X2599300Y2680500D01*
X2589330Y2681500D01*
X2583970Y2683000D01*
X2578600Y2685500D01*
X2574770Y2689000D01*
X2574000Y2692500D01*
X2575530Y2696000D01*
X2579370Y2698500D01*
G01X2591000Y2537170D02*
X2588000Y2539470D01*
X2584500Y2541000D01*
X2580500D01*
X2576000Y2538700D01*
X2572500Y2534870D01*
X2570000Y2530270D01*
X2568000Y2522600D01*
X2567500Y2515700D01*
X2568500Y2508800D01*
X2570000Y2504200D01*
X2573000Y2499600D01*
X2576500Y2496530D01*
X2580000Y2495000D01*
X2583500D01*
X2587000Y2496530D01*
X2590000Y2498830D01*
X2592500Y2501900D01*
G01X2615000Y2495000D02*
Y2541000D01*
X2609000Y2531800D01*
G01Y2495000D02*
X2621000D01*
G01X2649000D02*
X2650000Y2504970D01*
X2651500Y2513400D01*
X2653500Y2521070D01*
X2656000Y2529500D01*
X2660000Y2541000D01*
X2640000D01*
G01X2674000Y2504200D02*
X2677000Y2498830D01*
X2681000Y2495770D01*
X2685500Y2495000D01*
X2689500Y2495770D01*
X2693500Y2499600D01*
X2696000Y2504200D01*
X2696500Y2508800D01*
X2695500Y2514170D01*
X2692000Y2518000D01*
X2688500Y2519530D01*
X2684000D01*
G01X2688500D02*
X2691500Y2521830D01*
X2694000Y2525670D01*
X2695000Y2530270D01*
X2694000Y2534870D01*
X2691500Y2538700D01*
X2687000Y2541000D01*
X2682500Y2540230D01*
X2678000Y2537170D01*
G01X2531000Y3057170D02*
X2528000Y3059470D01*
X2524500Y3061000D01*
X2520500D01*
X2516000Y3058700D01*
X2512500Y3054870D01*
X2510000Y3050270D01*
X2508000Y3042600D01*
X2507500Y3035700D01*
X2508500Y3028800D01*
X2510000Y3024200D01*
X2513000Y3019600D01*
X2516500Y3016530D01*
X2520000Y3015000D01*
X2523500D01*
X2527000Y3016530D01*
X2530000Y3018830D01*
X2532500Y3021900D01*
G01X2555000Y3015000D02*
Y3061000D01*
X2549000Y3051800D01*
G01Y3015000D02*
X2561000D01*
G01X2589000D02*
X2590000Y3024970D01*
X2591500Y3033400D01*
X2593500Y3041070D01*
X2596000Y3049500D01*
X2600000Y3061000D01*
X2580000D01*
G01X2614000Y3021900D02*
X2617000Y3018070D01*
X2620500Y3015770D01*
X2625000Y3015000D01*
X2629500Y3016530D01*
X2633000Y3019600D01*
X2635500Y3024970D01*
X2636000Y3031100D01*
X2635000Y3037230D01*
X2632500Y3041070D01*
X2629000Y3044130D01*
X2625500Y3044900D01*
X2622000Y3044130D01*
X2617500Y3041070D01*
X2619000Y3061000D01*
X2632500D01*
G01X2931000Y1332170D02*
X2928000Y1334470D01*
X2924500Y1336000D01*
X2920500D01*
X2916000Y1333700D01*
X2912500Y1329870D01*
X2910000Y1325270D01*
X2908000Y1317600D01*
X2907500Y1310700D01*
X2908500Y1303800D01*
X2910000Y1299200D01*
X2913000Y1294600D01*
X2916500Y1291530D01*
X2920000Y1290000D01*
X2923500D01*
X2927000Y1291530D01*
X2930000Y1293830D01*
X2932500Y1296900D01*
G01X2961000Y1290000D02*
Y1336000D01*
X2942500Y1303030D01*
X2967500D01*
G01X2990000Y1290000D02*
Y1336000D01*
X2984000Y1326800D01*
G01Y1290000D02*
X2996000D01*
G01X3379000Y3269900D02*
Y3315900D01*
X3398000D01*
G01X3391000Y3293670D02*
X3379000D01*
G01X3417500Y3315900D02*
X3429500D01*
G01X3423500D02*
Y3269900D01*
G01X3417500D02*
X3429500D01*
G01X3447500D02*
Y3315900D01*
X3457500D01*
X3461500Y3313600D01*
X3464500Y3310530D01*
X3467000Y3305930D01*
X3469000Y3300570D01*
X3469500Y3292900D01*
X3469000Y3285230D01*
X3467000Y3279870D01*
X3464500Y3275270D01*
X3461500Y3272200D01*
X3457500Y3269900D01*
X3447500D01*
G01X3482500Y3315900D02*
Y3282930D01*
X3484500Y3276030D01*
X3488500Y3271430D01*
X3493500Y3269900D01*
X3498500Y3271430D01*
X3502500Y3276030D01*
X3504500Y3282930D01*
Y3315900D01*
G01X3517500Y3279100D02*
X3520500Y3273730D01*
X3524500Y3270670D01*
X3529000Y3269900D01*
X3533000Y3270670D01*
X3537000Y3274500D01*
X3539500Y3279100D01*
X3540000Y3283700D01*
X3539000Y3289070D01*
X3535500Y3292900D01*
X3532000Y3294430D01*
X3527500D01*
G01X3532000D02*
X3535000Y3296730D01*
X3537500Y3300570D01*
X3538500Y3305170D01*
X3537500Y3309770D01*
X3535000Y3313600D01*
X3530500Y3315900D01*
X3526000Y3315130D01*
X3521500Y3312070D01*
G01X3675500Y355000D02*
Y401000D01*
X3694500D01*
G01X3687500Y378770D02*
X3675500D01*
G01X3714000Y401000D02*
X3726000D01*
G01X3720000D02*
Y355000D01*
G01X3714000D02*
X3726000D01*
G01X3744000D02*
Y401000D01*
X3754000D01*
X3758000Y398700D01*
X3761000Y395630D01*
X3763500Y391030D01*
X3765500Y385670D01*
X3766000Y378000D01*
X3765500Y370330D01*
X3763500Y364970D01*
X3761000Y360370D01*
X3758000Y357300D01*
X3754000Y355000D01*
X3744000D01*
G01X3779000Y401000D02*
Y368030D01*
X3781000Y361130D01*
X3785000Y356530D01*
X3790000Y355000D01*
X3795000Y356530D01*
X3799000Y361130D01*
X3801000Y368030D01*
Y401000D01*
G01X3825000Y355000D02*
Y401000D01*
X3819000Y391800D01*
G01Y355000D02*
X3831000D01*
G54D11*
G01X705830Y1614330D02*
X699330Y1606330D01*
X695000Y1597000D01*
Y1586330D01*
X701500Y1574330D01*
X712330Y1565000D01*
X725330Y1558330D01*
X747000Y1553000D01*
X766500Y1551670D01*
X786000Y1554330D01*
X799000Y1558330D01*
X812000Y1566330D01*
X820670Y1575670D01*
X825000Y1585000D01*
Y1594330D01*
X820670Y1603670D01*
X814170Y1611670D01*
X805500Y1618330D01*
G01X705830Y1719330D02*
X699330Y1711330D01*
X695000Y1702000D01*
Y1691330D01*
X701500Y1679330D01*
X712330Y1670000D01*
X725330Y1663330D01*
X747000Y1658000D01*
X766500Y1656670D01*
X786000Y1659330D01*
X799000Y1663330D01*
X812000Y1671330D01*
X820670Y1680670D01*
X825000Y1690000D01*
Y1699330D01*
X820670Y1708670D01*
X814170Y1716670D01*
X805500Y1723330D01*
G01X825000Y1795000D02*
X695000D01*
X721000Y1779000D01*
G01X825000D02*
Y1811000D01*
G01X716670Y1874670D02*
X703670Y1882670D01*
X697170Y1892000D01*
X695000Y1902670D01*
X699330Y1916000D01*
X710170Y1925330D01*
X723160Y1928000D01*
X736170Y1926670D01*
X747000Y1921330D01*
X768670Y1894670D01*
X783830Y1882670D01*
X805500Y1874670D01*
X825000Y1872000D01*
Y1928000D01*
G01X695000Y2005000D02*
X699330Y1994330D01*
X710170Y1986330D01*
X723160Y1981000D01*
X740500Y1977000D01*
X760000Y1975670D01*
X779500Y1977000D01*
X796840Y1981000D01*
X809840Y1986330D01*
X820670Y1994330D01*
X825000Y2005000D01*
X820670Y2015670D01*
X809840Y2023670D01*
X796840Y2029000D01*
X779500Y2033000D01*
X760000Y2034330D01*
X740500Y2033000D01*
X723160Y2029000D01*
X710170Y2023670D01*
X699330Y2015670D01*
X695000Y2005000D01*
G01X738340Y2090000D02*
X825000Y2130000D01*
G01X738340D02*
X825000Y2090000D01*
G01Y2241670D02*
Y2188330D01*
X695000D01*
Y2241670D01*
G01X757830Y2220330D02*
Y2188330D01*
G01X825000Y2285330D02*
X695000D01*
X803330Y2320000D01*
X695000Y2354670D01*
X825000D01*
G01Y2530000D02*
X822830Y2539330D01*
X816340Y2550000D01*
X805500Y2556670D01*
X790330Y2559330D01*
X775170Y2556670D01*
X762170Y2548670D01*
X755670Y2536670D01*
Y2523330D01*
X751330Y2515330D01*
X740500Y2508670D01*
X725330Y2506000D01*
X710170Y2510000D01*
X699330Y2519330D01*
X695000Y2530000D01*
X699330Y2540670D01*
X710170Y2550000D01*
X725330Y2554000D01*
X740500Y2551330D01*
X751330Y2544670D01*
X755670Y2536670D01*
Y2523330D01*
X762170Y2511330D01*
X775170Y2503330D01*
X790330Y2500670D01*
X805500Y2503330D01*
X816340Y2510000D01*
X822830Y2520670D01*
X825000Y2530000D01*
G01X770840Y2609670D02*
X755670Y2619000D01*
X747000Y2627000D01*
X742670Y2637670D01*
X747000Y2647000D01*
X755670Y2653670D01*
X768670Y2659000D01*
X783830Y2660330D01*
X796840Y2659000D01*
X809840Y2653670D01*
X820670Y2645670D01*
X825000Y2636330D01*
X820670Y2625670D01*
X807670Y2616330D01*
X788170Y2611000D01*
X766500Y2609670D01*
X738340Y2612330D01*
X723160Y2616330D01*
X708000Y2623000D01*
X697170Y2632330D01*
X695000Y2641670D01*
X699330Y2651000D01*
X710170Y2657670D01*
G01X825000Y2740000D02*
X822830Y2749330D01*
X816340Y2760000D01*
X805500Y2766670D01*
X790330Y2769330D01*
X775170Y2766670D01*
X762170Y2758670D01*
X755670Y2746670D01*
Y2733330D01*
X751330Y2725330D01*
X740500Y2718670D01*
X725330Y2716000D01*
X710170Y2720000D01*
X699330Y2729330D01*
X695000Y2740000D01*
X699330Y2750670D01*
X710170Y2760000D01*
X725330Y2764000D01*
X740500Y2761330D01*
X751330Y2754670D01*
X755670Y2746670D01*
Y2733330D01*
X762170Y2721330D01*
X775170Y2713330D01*
X790330Y2710670D01*
X805500Y2713330D01*
X816340Y2720000D01*
X822830Y2730670D01*
X825000Y2740000D01*
G01X829330Y2821000D02*
X695000Y2869000D01*
G01X809840Y2927330D02*
X820670Y2936670D01*
X825000Y2947330D01*
X820670Y2958000D01*
X807670Y2967330D01*
X788170Y2974000D01*
X768670Y2976670D01*
X744830D01*
X725330Y2974000D01*
X708000Y2967330D01*
X699330Y2959330D01*
X695000Y2950000D01*
X699330Y2939330D01*
X708000Y2931330D01*
X721000Y2926000D01*
X738340Y2923330D01*
X753500Y2926000D01*
X768670Y2932670D01*
X777340Y2940670D01*
X779500Y2950000D01*
X775170Y2960670D01*
X764330Y2968670D01*
X744830Y2976670D01*
G01X799000Y3025670D02*
X814170Y3033670D01*
X822830Y3044330D01*
X825000Y3056330D01*
X822830Y3067000D01*
X812000Y3077670D01*
X799000Y3084330D01*
X786000Y3085670D01*
X770840Y3083000D01*
X760000Y3073670D01*
X755670Y3064330D01*
Y3052330D01*
G01Y3064330D02*
X749170Y3072330D01*
X738340Y3079000D01*
X725330Y3081670D01*
X712330Y3079000D01*
X701500Y3072330D01*
X695000Y3060330D01*
X697170Y3048330D01*
X705830Y3036330D01*
G01X695000Y3160000D02*
X699330Y3149330D01*
X710170Y3141330D01*
X723160Y3136000D01*
X740500Y3132000D01*
X760000Y3130670D01*
X779500Y3132000D01*
X796840Y3136000D01*
X809840Y3141330D01*
X820670Y3149330D01*
X825000Y3160000D01*
X820670Y3170670D01*
X809840Y3178670D01*
X796840Y3184000D01*
X779500Y3188000D01*
X760000Y3189330D01*
X740500Y3188000D01*
X723160Y3184000D01*
X710170Y3178670D01*
X699330Y3170670D01*
X695000Y3160000D01*
G01X825000Y3335330D02*
X695000D01*
X803330Y3370000D01*
X695000Y3404670D01*
X825000D01*
G01Y3447000D02*
X695000D01*
G01Y3503000D02*
X825000D01*
G01X760000D02*
Y3447000D01*
G01X738340Y3560000D02*
Y3600000D01*
X825000Y3560000D01*
Y3600000D01*
G01X2012000Y4025000D02*
X2047000Y4152000D01*
X2082000Y4025000D01*
G01X2069400Y4069450D02*
X2024600D01*
G01X2144000Y4025000D02*
Y4152000D01*
X2127200Y4126600D01*
G01Y4025000D02*
X2160800D01*
G54D12*
G01X2170250Y3934330D02*
X2170750Y3937000D01*
G01X2171250D02*
X2170750Y3934330D01*
G01X2170000Y3935330D02*
X2171500D01*
G01Y3936000D02*
X2170000D01*
G01X2172050Y3935000D02*
Y3937000D01*
X2172670D01*
X2172870Y3936900D01*
X2173000Y3936770D01*
X2173050Y3936500D01*
X2173000Y3936230D01*
X2172850Y3936070D01*
X2172670Y3935970D01*
X2172050D01*
G01X2172670D02*
X2173050Y3935000D01*
G01X2174850D02*
X2173850D01*
Y3937000D01*
X2174850D01*
G01X2174450Y3936030D02*
X2173850D01*
G01X2175670Y3935000D02*
Y3937000D01*
X2176630D01*
G01X2176270Y3936030D02*
X2175670D01*
G01X2177400Y3935000D02*
Y3937000D01*
X2177900D01*
X2178100Y3936900D01*
X2178250Y3936770D01*
X2178380Y3936570D01*
X2178480Y3936330D01*
X2178500Y3936000D01*
X2178480Y3935670D01*
X2178380Y3935430D01*
X2178250Y3935230D01*
X2178100Y3935100D01*
X2177900Y3935000D01*
X2177400D01*
G01X2180250D02*
X2179250D01*
Y3937000D01*
X2180250D01*
G01X2179850Y3936030D02*
X2179250D01*
G01X2181020Y3935270D02*
X2181230Y3935100D01*
X2181450Y3935000D01*
X2181650D01*
X2181850Y3935100D01*
X2182000Y3935270D01*
X2182080Y3935500D01*
X2182030Y3935730D01*
X2181900Y3935930D01*
X2181670Y3936070D01*
X2181380Y3936130D01*
X2181200Y3936270D01*
X2181120Y3936500D01*
X2181180Y3936730D01*
X2181300Y3936900D01*
X2181470Y3937000D01*
X2181650D01*
X2181830Y3936930D01*
X2181980Y3936770D01*
G01X3350250Y2414330D02*
X3350750Y2417000D01*
G01X3351250D02*
X3350750Y2414330D01*
G01X3350000Y2415330D02*
X3351500D01*
G01Y2416000D02*
X3350000D01*
G01X3352050Y2415000D02*
Y2417000D01*
X3352670D01*
X3352870Y2416900D01*
X3353000Y2416770D01*
X3353050Y2416500D01*
X3353000Y2416230D01*
X3352850Y2416070D01*
X3352670Y2415970D01*
X3352050D01*
G01X3352670D02*
X3353050Y2415000D01*
G01X3354850D02*
X3353850D01*
Y2417000D01*
X3354850D01*
G01X3354450Y2416030D02*
X3353850D01*
G01X3355670Y2415000D02*
Y2417000D01*
X3356630D01*
G01X3356270Y2416030D02*
X3355670D01*
G01X3357400Y2415000D02*
Y2417000D01*
X3357900D01*
X3358100Y2416900D01*
X3358250Y2416770D01*
X3358380Y2416570D01*
X3358480Y2416330D01*
X3358500Y2416000D01*
X3358480Y2415670D01*
X3358380Y2415430D01*
X3358250Y2415230D01*
X3358100Y2415100D01*
X3357900Y2415000D01*
X3357400D01*
G01X3360250D02*
X3359250D01*
Y2417000D01*
X3360250D01*
G01X3359850Y2416030D02*
X3359250D01*
G01X3361020Y2415270D02*
X3361230Y2415100D01*
X3361450Y2415000D01*
X3361650D01*
X3361850Y2415100D01*
X3362000Y2415270D01*
X3362080Y2415500D01*
X3362030Y2415730D01*
X3361900Y2415930D01*
X3361670Y2416070D01*
X3361380Y2416130D01*
X3361200Y2416270D01*
X3361120Y2416500D01*
X3361180Y2416730D01*
X3361300Y2416900D01*
X3361470Y2417000D01*
X3361650D01*
X3361830Y2416930D01*
X3361980Y2416770D01*
G54D13*
G01X2027500Y3090000D02*
Y3070000D01*
X2021250D01*
X2019250Y3071000D01*
X2018000Y3072330D01*
X2017500Y3075000D01*
X2018000Y3077670D01*
X2019500Y3079330D01*
X2021250Y3080330D01*
X2027500D01*
G01X2021250D02*
X2017500Y3090000D01*
G01X2004500D02*
Y3070000D01*
X2007500Y3074000D01*
G01Y3090000D02*
X2001500D01*
G01X1986500D02*
X1984750Y3089670D01*
X1982750Y3088670D01*
X1981500Y3087000D01*
X1981000Y3084670D01*
X1981500Y3082330D01*
X1983000Y3080330D01*
X1985250Y3079330D01*
X1987750D01*
X1989250Y3078670D01*
X1990500Y3077000D01*
X1991000Y3074670D01*
X1990250Y3072330D01*
X1988500Y3070670D01*
X1986500Y3070000D01*
X1984500Y3070670D01*
X1982750Y3072330D01*
X1982000Y3074670D01*
X1982500Y3077000D01*
X1983750Y3078670D01*
X1985250Y3079330D01*
X1987750D01*
X1990000Y3080330D01*
X1991500Y3082330D01*
X1992000Y3084670D01*
X1991500Y3087000D01*
X1990250Y3088670D01*
X1988250Y3089670D01*
X1986500Y3090000D01*
G01X1968500D02*
Y3070000D01*
X1971500Y3074000D01*
G01Y3090000D02*
X1965500D01*
G01X2033750Y3200000D02*
X2027500Y3180000D01*
X2021250Y3200000D01*
G01X2023500Y3193000D02*
X2031500D01*
G01X2015250Y3200000D02*
Y3180000D01*
X2003750Y3200000D01*
Y3180000D01*
G01X1991500D02*
Y3200000D01*
G01X1997250Y3180000D02*
X1985750D01*
G01X1973500Y3200000D02*
Y3180000D01*
X1976500Y3184000D01*
G01Y3200000D02*
X1970500D01*
G01X2120000Y3356250D02*
X2100000Y3362500D01*
X2120000Y3368750D01*
G01X2113000Y3366500D02*
Y3358500D01*
G01X2120000Y3374750D02*
X2100000D01*
X2120000Y3386250D01*
X2100000D01*
G01Y3398500D02*
X2120000D01*
G01X2100000Y3392750D02*
Y3404250D01*
G01X2103330Y3411750D02*
X2101330Y3413250D01*
X2100330Y3415000D01*
X2100000Y3417000D01*
X2100670Y3419500D01*
X2102330Y3421250D01*
X2104330Y3421750D01*
X2106330Y3421500D01*
X2108000Y3420500D01*
X2111330Y3415500D01*
X2113670Y3413250D01*
X2117000Y3411750D01*
X2120000Y3411250D01*
Y3421750D01*
G01X2435000Y2857500D02*
X2455000D01*
Y2867500D01*
G01Y2880500D02*
X2435000D01*
X2439000Y2877500D01*
G01X2455000D02*
Y2883500D01*
G01Y2898000D02*
X2450670Y2898500D01*
X2447000Y2899250D01*
X2443670Y2900250D01*
X2440000Y2901500D01*
X2435000Y2903500D01*
Y2893500D01*
G01X2451000Y2911000D02*
X2453330Y2912500D01*
X2454670Y2914500D01*
X2455000Y2916750D01*
X2454670Y2918750D01*
X2453000Y2920750D01*
X2451000Y2922000D01*
X2449000Y2922250D01*
X2446670Y2921750D01*
X2445000Y2920000D01*
X2444330Y2918250D01*
Y2916000D01*
G01Y2918250D02*
X2443330Y2919750D01*
X2441670Y2921000D01*
X2439670Y2921500D01*
X2437670Y2921000D01*
X2436000Y2919750D01*
X2435000Y2917500D01*
X2435330Y2915250D01*
X2436670Y2913000D01*
G54D14*
G01X1320000Y1664600D02*
X1376000Y1639400D01*
G01Y1664600D02*
X1320000Y1639400D01*
G01Y1611000D02*
X1376000D01*
X1364800Y1618200D01*
G01X1320000D02*
Y1603800D01*
G01X1698000Y189500D02*
Y245500D01*
X1712400D01*
X1717200Y242700D01*
X1720800Y236170D01*
X1722000Y228700D01*
X1720800Y221230D01*
X1717800Y215630D01*
X1712400Y212830D01*
X1698000D01*
G01X1758200Y189500D02*
Y245500D01*
X1736000Y205370D01*
X1766000D01*
G01X1802800Y2028500D02*
Y1988370D01*
X1805200Y1979970D01*
X1810000Y1974370D01*
X1816000Y1972500D01*
X1822000Y1974370D01*
X1826800Y1979970D01*
X1829200Y1988370D01*
Y2028500D01*
G01X1843800Y1983700D02*
X1847400Y1977170D01*
X1852200Y1973430D01*
X1857600Y1972500D01*
X1862400Y1973430D01*
X1867200Y1978100D01*
X1870200Y1983700D01*
X1870800Y1989300D01*
X1869600Y1995830D01*
X1865400Y2000500D01*
X1861200Y2002370D01*
X1855800D01*
G01X1861200D02*
X1864800Y2005170D01*
X1867800Y2009830D01*
X1869000Y2015430D01*
X1867800Y2021030D01*
X1864800Y2025700D01*
X1859400Y2028500D01*
X1854000Y2027570D01*
X1848600Y2023830D01*
G01X2317000Y3575000D02*
X2302000Y3519000D01*
X2287000Y3575000D01*
G01X2292400Y3555400D02*
X2311600D01*
G01X2274800Y3575000D02*
Y3519000D01*
X2247200Y3575000D01*
Y3519000D01*
G01X2220000D02*
Y3575000D01*
G01X2233800Y3519000D02*
X2206200D01*
G01X2192200Y3563800D02*
X2188600Y3570330D01*
X2183800Y3574070D01*
X2178400Y3575000D01*
X2173600Y3574070D01*
X2168800Y3569400D01*
X2165800Y3563800D01*
X2165200Y3558200D01*
X2166400Y3551670D01*
X2170600Y3547000D01*
X2174800Y3545130D01*
X2180200D01*
G01X2174800D02*
X2171200Y3542330D01*
X2168200Y3537670D01*
X2167000Y3532070D01*
X2168200Y3526470D01*
X2171200Y3521800D01*
X2176600Y3519000D01*
X2182000Y3519930D01*
X2187400Y3523670D01*
G54D15*
G01X5000Y10000D02*
X3935000D01*
Y4920000D01*
X5000D01*
Y10000D01*
G01X394000Y3316000D02*
G03I-140000J0D01*
G01X1175000Y1065000D02*
Y1090000D01*
G01D02*
X1225000D01*
G01X1175000Y1020000D02*
Y1060000D01*
G01X1225000Y990000D02*
X1175000D01*
G01D02*
Y1015000D01*
G01Y1060000D02*
Y1065000D01*
G01Y1015000D02*
Y1020000D01*
G01Y1015000D02*
X1225000D01*
G01Y1065000D02*
X1175000D01*
G01X970000Y1565000D02*
Y1590000D01*
G01D02*
X1020000D01*
G01D02*
Y1565000D01*
G01Y1560000D02*
Y1520000D01*
G01X970000D02*
Y1560000D01*
G01X1020000Y1515000D02*
Y1490000D01*
G01D02*
X970000D01*
G01D02*
Y1515000D01*
G01Y1560000D02*
Y1565000D01*
G01Y1515000D02*
Y1520000D01*
G01X1020000D02*
Y1515000D01*
G01Y1565000D02*
Y1560000D01*
G01X970000Y1515000D02*
X1020000D01*
G01Y1565000D02*
X970000D01*
G01X1075000D02*
Y1590000D01*
G01D02*
X1125000D01*
G01D02*
Y1565000D01*
G01Y1560000D02*
Y1520000D01*
G01X1075000D02*
Y1560000D01*
G01X1125000Y1515000D02*
Y1490000D01*
G01D02*
X1075000D01*
G01D02*
Y1515000D01*
G01Y1560000D02*
Y1565000D01*
G01Y1515000D02*
Y1520000D01*
G01X1125000D02*
Y1515000D01*
G01Y1565000D02*
Y1560000D01*
G01X1075000Y1515000D02*
X1125000D01*
G01Y1565000D02*
X1075000D01*
G01X1215000Y1800000D02*
X1175000D01*
G01Y1850000D02*
X1215000D01*
G01X1170000Y1800000D02*
X1145000D01*
G01D02*
Y1850000D01*
G01D02*
X1170000D01*
G01D02*
X1175000D01*
G01Y1800000D02*
X1170000D01*
G01Y1850000D02*
Y1800000D01*
G01X1080000Y1750000D02*
X1105000D01*
G01D02*
Y1700000D01*
G01D02*
X1080000D01*
G01X1075000D02*
X1035000D01*
G01Y1750000D02*
X1075000D01*
G01X1030000Y1700000D02*
X1005000D01*
G01D02*
Y1750000D01*
G01D02*
X1030000D01*
G01X1075000D02*
X1080000D01*
G01X1030000D02*
X1035000D01*
G01Y1700000D02*
X1030000D01*
G01X1080000D02*
X1075000D01*
G01X1030000Y1750000D02*
Y1700000D01*
G01X1080000D02*
Y1750000D01*
G01X1663500Y2847500D02*
X963500D01*
G01D02*
Y3547500D01*
G01X1543500Y3197500D02*
G03I-230000J0D01*
G01X1553500D02*
G03I-240000J0D01*
G01X1587950D02*
G03I-274450J0D01*
G01X963500Y3547500D02*
X1663500D01*
G01X1410000Y1165000D02*
X1435000D01*
G01D02*
Y1115000D01*
G01D02*
X1410000D01*
G01X1405000D02*
X1365000D01*
G01Y1165000D02*
X1405000D01*
G01X1360000Y1115000D02*
X1335000D01*
G01D02*
Y1165000D01*
G01D02*
X1360000D01*
G01X1405000D02*
X1410000D01*
G01X1360000D02*
X1365000D01*
G01Y1115000D02*
X1360000D01*
G01X1410000D02*
X1405000D01*
G01X1360000Y1165000D02*
Y1115000D01*
G01X1410000D02*
Y1165000D01*
G01X1225000Y1090000D02*
Y1065000D01*
G01Y1060000D02*
Y1020000D01*
G01Y1015000D02*
Y990000D01*
G01Y1020000D02*
Y1015000D01*
G01Y1065000D02*
Y1060000D01*
G01X1332500Y1035000D02*
X1567500D01*
G03X1575000Y1027500I7500J0D01*
G01Y842500D01*
G03X1567500Y835000I0J-7500D01*
G01X1332500D01*
G03X1325000Y842500I-7500J0D01*
G01Y1027500D01*
G03X1332500Y1035000I0J7500D01*
G01X1360000Y845000D02*
X1540000D01*
G01X1565000Y870000D02*
Y1000000D01*
G01X1540000Y1025000D02*
X1360000D01*
G01X1335000Y1000000D02*
Y870000D01*
G01D02*
G03X1360000Y845000I25000J0D01*
G01X1540000D02*
G03X1565000Y870000I0J25000D01*
G01Y1000000D02*
G03X1540000Y1025000I-25000J0D01*
G01X1360000D02*
G03X1335000Y1000000I0J-25000D01*
G01X1375000Y867500D02*
G03I-10000J0D01*
G01X1410000Y1285000D02*
X1435000D01*
G01D02*
Y1235000D01*
G01D02*
X1410000D01*
G01X1405000D02*
X1365000D01*
G01Y1285000D02*
X1405000D01*
G01X1360000Y1235000D02*
X1335000D01*
G01D02*
Y1285000D01*
G01D02*
X1360000D01*
G01X1405000D02*
X1410000D01*
G01X1360000D02*
X1365000D01*
G01Y1235000D02*
X1360000D01*
G01X1410000D02*
X1405000D01*
G01X1360000Y1285000D02*
Y1235000D01*
G01X1410000D02*
Y1285000D01*
G01X1605000Y1210000D02*
X1555000D01*
G01D02*
Y1235000D01*
G01Y1240000D02*
Y1280000D01*
G01Y1285000D02*
Y1310000D01*
G01D02*
X1605000D01*
G01X1555000Y1280000D02*
Y1285000D01*
G01Y1235000D02*
Y1240000D01*
G01X1605000Y1285000D02*
X1555000D01*
G01Y1235000D02*
X1605000D01*
G01X1215000Y1392000D02*
Y1658000D01*
G03X1242000Y1685000I0J27000D01*
G01X1438000D01*
G03X1465000Y1658000I27000J0D01*
G01Y1392000D01*
G03X1438000Y1365000I0J-27000D01*
G01X1242000D01*
G03X1215000Y1392000I-27000J0D01*
G01D02*
Y1658000D01*
G03X1242000Y1685000I0J27000D01*
G01X1438000D01*
G03X1465000Y1658000I27000J0D01*
G01Y1392000D01*
G03X1438000Y1365000I0J-27000D01*
G01X1242000D01*
G03X1215000Y1392000I-27000J0D01*
G01D02*
Y1658000D01*
G03X1242000Y1685000I0J27000D01*
G01X1438000D01*
G03X1465000Y1658000I27000J0D01*
G01Y1392000D01*
G03X1438000Y1365000I0J-27000D01*
G01X1242000D01*
G03X1215000Y1392000I-27000J0D01*
G01X1446000Y1394000D02*
Y1656000D01*
G01X1436000Y1384000D02*
G03X1446000Y1394000I0J10000D01*
G01X1244000Y1384000D02*
X1436000D01*
G01X1234000Y1394000D02*
G03X1244000Y1384000I10000J0D01*
G01X1234000Y1656000D02*
Y1394000D01*
G01X1446000D02*
Y1656000D01*
G01X1436000Y1384000D02*
G03X1446000Y1394000I0J10000D01*
G01X1244000Y1384000D02*
X1436000D01*
G01X1234000Y1394000D02*
G03X1244000Y1384000I10000J0D01*
G01X1234000Y1656000D02*
Y1394000D01*
G01X1446000D02*
Y1656000D01*
G01X1436000Y1384000D02*
G03X1446000Y1394000I0J10000D01*
G01X1244000Y1384000D02*
X1436000D01*
G01X1234000Y1394000D02*
G03X1244000Y1384000I10000J0D01*
G01X1234000Y1656000D02*
Y1394000D01*
G01X1430000Y1945000D02*
X1455000D01*
G01D02*
Y1895000D01*
G01D02*
X1430000D01*
G01X1425000D02*
X1385000D01*
G01Y1945000D02*
X1425000D01*
G01X1380000Y1895000D02*
X1355000D01*
G01D02*
Y1945000D01*
G01D02*
X1380000D01*
G01X1425000D02*
X1430000D01*
G01X1380000D02*
X1385000D01*
G01Y1895000D02*
X1380000D01*
G01X1430000D02*
X1425000D01*
G01X1380000Y1945000D02*
Y1895000D01*
G01X1430000D02*
Y1945000D01*
G01X1220000Y1850000D02*
X1245000D01*
G01D02*
Y1800000D01*
G01D02*
X1220000D01*
G01X1215000Y1850000D02*
X1220000D01*
G01Y1800000D02*
X1215000D01*
G01X1220000D02*
Y1850000D01*
G01X1288030Y1630000D02*
G03I-18030J0D01*
G01X1446000Y1656000D02*
G03X1436000Y1666000I-10000J0D01*
G01D02*
X1244000D01*
G01D02*
G03X1234000Y1656000I0J-10000D01*
G01X1446000D02*
G03X1436000Y1666000I-10000J0D01*
G01D02*
X1244000D01*
G01D02*
G03X1234000Y1656000I0J-10000D01*
G01X1446000D02*
G03X1436000Y1666000I-10000J0D01*
G01D02*
X1244000D01*
G01D02*
G03X1234000Y1656000I0J-10000D01*
G01X1460000Y2075000D02*
X1485000D01*
G01D02*
Y2025000D01*
G01D02*
X1460000D01*
G01X1455000D02*
X1415000D01*
G01Y2075000D02*
X1455000D01*
G01X1410000Y2025000D02*
X1385000D01*
G01D02*
Y2075000D01*
G01D02*
X1410000D01*
G01X1455000D02*
X1460000D01*
G01X1410000D02*
X1415000D01*
G01Y2025000D02*
X1410000D01*
G01X1460000D02*
X1455000D01*
G01X1410000Y2075000D02*
Y2025000D01*
G01X1460000D02*
Y2075000D01*
G01X1490000Y2335000D02*
X1515000D01*
G01D02*
Y2285000D01*
G01D02*
X1490000D01*
G01X1485000D02*
X1445000D01*
G01Y2335000D02*
X1485000D01*
G01X1440000Y2285000D02*
X1415000D01*
G01D02*
Y2335000D01*
G01D02*
X1440000D01*
G01X1485000D02*
X1490000D01*
G01X1440000D02*
X1445000D01*
G01Y2285000D02*
X1440000D01*
G01X1490000D02*
X1485000D01*
G01X1440000Y2335000D02*
Y2285000D01*
G01X1490000D02*
Y2335000D01*
G01X1460000Y2205000D02*
X1485000D01*
G01D02*
Y2155000D01*
G01D02*
X1460000D01*
G01X1455000D02*
X1415000D01*
G01Y2205000D02*
X1455000D01*
G01X1410000Y2155000D02*
X1385000D01*
G01D02*
Y2205000D01*
G01D02*
X1410000D01*
G01X1455000D02*
X1460000D01*
G01X1410000D02*
X1415000D01*
G01Y2155000D02*
X1410000D01*
G01X1460000D02*
X1455000D01*
G01X1410000Y2205000D02*
Y2155000D01*
G01X1460000D02*
Y2205000D01*
G01X1630000Y2365000D02*
X1580000D01*
G01D02*
Y2390000D01*
G01Y2395000D02*
Y2435000D01*
G01Y2440000D02*
Y2465000D01*
G01D02*
X1630000D01*
G01X1580000Y2435000D02*
Y2440000D01*
G01Y2390000D02*
Y2395000D01*
G01X1630000Y2440000D02*
X1580000D01*
G01Y2390000D02*
X1630000D01*
G01X1945000Y1555000D02*
Y1595000D01*
G01X1995000Y1525000D02*
X1945000D01*
G01D02*
Y1550000D01*
G01Y1595000D02*
Y1600000D01*
G01Y1550000D02*
Y1555000D01*
G01Y1550000D02*
X1995000D01*
G01X1605000Y1235000D02*
Y1210000D01*
G01Y1280000D02*
Y1240000D01*
G01Y1310000D02*
Y1285000D01*
G01Y1240000D02*
Y1235000D01*
G01Y1285000D02*
Y1280000D01*
G01X1760000Y1595000D02*
Y1555000D01*
G01X1710000D02*
Y1595000D01*
G01X1760000Y1550000D02*
Y1525000D01*
G01D02*
X1710000D01*
G01D02*
Y1550000D01*
G01Y1595000D02*
Y1600000D01*
G01Y1550000D02*
Y1555000D01*
G01X1760000D02*
Y1550000D01*
G01Y1600000D02*
Y1595000D01*
G01X1710000Y1550000D02*
X1760000D01*
G01X1605000Y1495000D02*
Y1520000D01*
G01D02*
X1655000D01*
G01D02*
Y1495000D01*
G01Y1490000D02*
Y1450000D01*
G01X1605000D02*
Y1490000D01*
G01X1655000Y1445000D02*
Y1420000D01*
G01D02*
X1605000D01*
G01D02*
Y1445000D01*
G01Y1490000D02*
Y1495000D01*
G01Y1445000D02*
Y1450000D01*
G01X1655000D02*
Y1445000D01*
G01Y1495000D02*
Y1490000D01*
G01X1605000Y1445000D02*
X1655000D01*
G01Y1495000D02*
X1605000D01*
G01X1945000Y1600000D02*
Y1625000D01*
G01D02*
X1995000D01*
G01Y1600000D02*
X1945000D01*
G01X1710000D02*
Y1625000D01*
G01D02*
X1760000D01*
G01D02*
Y1600000D01*
G01D02*
X1710000D01*
G01X1678000Y1745000D02*
Y2245000D01*
G01X2178000Y1745000D02*
X1678000D01*
G01X1766440Y1803440D02*
G03I-25002J4D01*
G01X1630000Y2390000D02*
Y2365000D01*
G01X1678000Y2245000D02*
X2178000D01*
G01X1840000Y2495000D02*
Y2470000D01*
G01D02*
X1790000D01*
G01D02*
Y2495000D01*
G01Y2500000D02*
Y2540000D01*
G01X1840000D02*
Y2500000D01*
G01X1790000Y2545000D02*
Y2570000D01*
G01D02*
X1840000D01*
G01D02*
Y2545000D01*
G01Y2500000D02*
Y2495000D01*
G01Y2545000D02*
Y2540000D01*
G01X1790000D02*
Y2545000D01*
G01Y2495000D02*
Y2500000D01*
G01X1840000Y2545000D02*
X1790000D01*
G01Y2495000D02*
X1840000D01*
G01X1940000Y2570000D02*
Y2545000D01*
G01D02*
X1890000D01*
G01D02*
Y2570000D01*
G01Y2575000D02*
Y2615000D01*
G01X1940000D02*
Y2575000D01*
G01X1890000Y2620000D02*
Y2645000D01*
G01D02*
X1940000D01*
G01D02*
Y2620000D01*
G01Y2575000D02*
Y2570000D01*
G01Y2620000D02*
Y2615000D01*
G01X1890000D02*
Y2620000D01*
G01Y2570000D02*
Y2575000D01*
G01X1940000Y2620000D02*
X1890000D01*
G01Y2570000D02*
X1940000D01*
G01X1630000Y2435000D02*
Y2395000D01*
G01Y2465000D02*
Y2440000D01*
G01Y2395000D02*
Y2390000D01*
G01Y2440000D02*
Y2435000D01*
G01X1740000Y2495000D02*
Y2470000D01*
G01D02*
X1690000D01*
G01D02*
Y2495000D01*
G01Y2500000D02*
Y2540000D01*
G01X1740000D02*
Y2500000D01*
G01X1690000Y2545000D02*
Y2570000D01*
G01D02*
X1740000D01*
G01D02*
Y2545000D01*
G01Y2500000D02*
Y2495000D01*
G01Y2545000D02*
Y2540000D01*
G01X1690000D02*
Y2545000D01*
G01Y2495000D02*
Y2500000D01*
G01X1740000Y2545000D02*
X1690000D01*
G01Y2495000D02*
X1740000D01*
G01X2034990Y2587500D02*
G03X2035000Y2592490I-2490J2500D01*
G03X2034980Y2597530I-2502J2510D01*
G03X2034930Y2602510I-2480J2465D01*
G03X2034940Y2607470I-2431J2485D01*
G03X2034960Y2612510I-2439J2530D01*
G03X2034940Y2617510I-2462J2490D01*
G03X2034440Y2622890I-2439J2487D01*
G02X2030000Y2631200I5561J8312D01*
G01Y2645000D01*
X1980000D01*
Y2631200D01*
G02X1975560Y2622890I-10001J2D01*
G03X1975060Y2617510I1939J-2893D01*
G03X1975040Y2612510I2442J-2510D01*
G03X1975060Y2607470I2459J-2510D01*
G03X1975070Y2602510I2441J-2475D01*
G03X1975020Y2597530I2430J-2515D01*
G03X1975000Y2592490I2482J-2530D01*
G03X1975010Y2587500I2500J-2490D01*
G01X1975030Y2587480D01*
G03X1975050Y2582510I2469J-2475D01*
G03X1975040Y2577500I2449J-2510D01*
G03X1975050Y2572500I2461J-2495D01*
G03X1975550Y2567090I2450J-2502D01*
G02X1980000Y2558770I-5549J-8318D01*
G01Y2545000D01*
X2030000D01*
Y2558770D01*
G02X2034450Y2567090I9999J2D01*
G03X2034950Y2572500I-1950J2908D01*
G03X2034960Y2577500I-2451J2505D01*
G03X2034950Y2582510I-2459J2500D01*
G03X2034970Y2587480I-2449J2495D01*
G01X2034990Y2587500D01*
G01X1663500Y3547500D02*
Y2847500D01*
G01X2025000Y3010000D02*
X1985000D01*
G01Y3060000D02*
X2025000D01*
G01X1980000Y3010000D02*
X1955000D01*
G01D02*
Y3060000D01*
G01D02*
X1980000D01*
G01D02*
X1985000D01*
G01Y3010000D02*
X1980000D01*
G01Y3060000D02*
Y3010000D01*
G01X2025000Y3210000D02*
X1985000D01*
G01Y3260000D02*
X2025000D01*
G01X1980000Y3210000D02*
X1955000D01*
G01D02*
Y3260000D01*
G01D02*
X1980000D01*
G01D02*
X1985000D01*
G01Y3210000D02*
X1980000D01*
G01Y3260000D02*
Y3210000D01*
G01X1950000Y3750000D02*
Y4791950D01*
G03X1850000I-50000J-4D01*
G01Y3750000D01*
X1950000D01*
G01X2365000Y1230000D02*
X2445000D01*
Y1195000D01*
X2365000D01*
Y1230000D01*
G01Y1105000D02*
X2445000D01*
Y1070000D01*
X2365000D01*
Y1105000D01*
G01X2444000Y1195000D02*
Y1105000D01*
X2366000D01*
Y1195000D01*
X2444000D01*
G01X2290000Y950000D02*
X2315000D01*
G01D02*
Y900000D01*
G01D02*
X2290000D01*
G01X2285000D02*
X2245000D01*
G01Y950000D02*
X2285000D01*
G01X2240000Y900000D02*
X2215000D01*
G01D02*
Y950000D01*
G01D02*
X2240000D01*
G01X2285000D02*
X2290000D01*
G01X2240000D02*
X2245000D01*
G01Y900000D02*
X2240000D01*
G01X2290000D02*
X2285000D01*
G01X2240000Y950000D02*
Y900000D01*
G01X2290000D02*
Y950000D01*
G01X1995000Y1595000D02*
Y1555000D01*
G01Y1550000D02*
Y1525000D01*
G01Y1555000D02*
Y1550000D01*
G01Y1600000D02*
Y1595000D01*
G01X2120000Y1555000D02*
X2095000D01*
G01D02*
Y1605000D01*
G01X2165000Y1555000D02*
X2125000D01*
G01X2195000Y1605000D02*
Y1555000D01*
G01D02*
X2170000D01*
G01X2125000D02*
X2120000D01*
G01X2170000D02*
X2165000D01*
G01X2170000D02*
Y1605000D01*
G01X2120000D02*
Y1555000D01*
G01X1995000Y1625000D02*
Y1600000D01*
G01X2380000Y1950000D02*
X2355000D01*
G01D02*
Y2000000D01*
G01X2385000Y1950000D02*
X2380000D01*
G01Y2000000D02*
Y1950000D01*
G01X2095000Y1605000D02*
X2120000D01*
G01X2125000D02*
X2165000D01*
G01X2170000D02*
X2195000D01*
G01X2165000D02*
X2170000D01*
G01X2120000D02*
X2125000D01*
G01X2178000Y2245000D02*
Y1745000D01*
G01X2355000Y2000000D02*
X2380000D01*
G01D02*
X2385000D01*
G01X2340000Y2200000D02*
X2315000D01*
G01D02*
Y2250000D01*
G01D02*
X2340000D01*
G01X2345000D02*
X2385000D01*
G01Y2200000D02*
X2345000D01*
G01D02*
X2340000D01*
G01Y2250000D02*
X2345000D01*
G01X2340000D02*
Y2200000D01*
G01X2312500Y2305010D02*
G03X2317490Y2305000I2500J2490D01*
G03X2322530Y2305020I2510J2502D01*
G03X2327510Y2305070I2465J2480D01*
G03X2332470Y2305060I2485J2431D01*
G03X2337510Y2305040I2530J2439D01*
G03X2342510Y2305060I2490J2462D01*
G03X2347890Y2305560I2487J2439D01*
G02X2356200Y2310000I8312J-5561D01*
G01X2370000D01*
Y2360000D01*
X2356200D01*
G02X2347890Y2364440I2J10001D01*
G03X2342510Y2364940I-2893J-1939D01*
G03X2337510Y2364960I-2510J-2442D01*
G03X2332470Y2364940I-2510J-2459D01*
G03X2327510Y2364930I-2475J-2441D01*
G03X2322530Y2364980I-2515J-2430D01*
G03X2317490Y2365000I-2530J-2482D01*
G03X2312500Y2364990I-2490J-2500D01*
G01X2312480Y2364970D01*
G03X2307510Y2364950I-2475J-2469D01*
G03X2302500Y2364960I-2510J-2449D01*
G03X2297500Y2364950I-2495J-2461D01*
G03X2292090Y2364450I-2502J-2450D01*
G02X2283770Y2360000I-8318J5549D01*
G01X2270000D01*
Y2310000D01*
X2283770D01*
G02X2292090Y2305550I2J-9999D01*
G03X2297500Y2305050I2908J1950D01*
G03X2302500Y2305040I2505J2451D01*
G03X2307510Y2305050I2500J2459D01*
G03X2312480Y2305030I2495J2449D01*
G01X2312500Y2305010D01*
G01X2380000Y2070000D02*
X2355000D01*
G01D02*
Y2120000D01*
G01D02*
X2380000D01*
G01X2385000Y2070000D02*
X2380000D01*
G01Y2120000D02*
X2385000D01*
G01X2380000D02*
Y2070000D01*
G01X2330000Y2715000D02*
X2305000D01*
G01D02*
Y2765000D01*
G01D02*
X2330000D01*
G01X2335000D02*
X2375000D01*
G01Y2715000D02*
X2335000D01*
G01X2380000Y2765000D02*
X2405000D01*
G01Y2715000D02*
X2380000D01*
G01X2335000D02*
X2330000D01*
G01X2380000D02*
X2375000D01*
G01Y2765000D02*
X2380000D01*
G01X2330000D02*
X2335000D01*
G01X2380000Y2715000D02*
Y2765000D01*
G01X2330000D02*
Y2715000D01*
G01Y2420000D02*
X2305000D01*
G01D02*
Y2470000D01*
G01D02*
X2330000D01*
G01X2335000D02*
X2375000D01*
G01Y2420000D02*
X2335000D01*
G01X2380000Y2470000D02*
X2405000D01*
G01Y2420000D02*
X2380000D01*
G01X2335000D02*
X2330000D01*
G01X2380000D02*
X2375000D01*
G01Y2470000D02*
X2380000D01*
G01X2330000D02*
X2335000D01*
G01X2380000Y2420000D02*
Y2470000D01*
G01X2330000D02*
Y2420000D01*
G01X2130000Y2570000D02*
Y2545000D01*
G01D02*
X2080000D01*
G01D02*
Y2570000D01*
G01Y2575000D02*
Y2615000D01*
G01X2130000D02*
Y2575000D01*
G01X2080000Y2620000D02*
Y2645000D01*
G01D02*
X2130000D01*
G01D02*
Y2620000D01*
G01Y2575000D02*
Y2570000D01*
G01Y2620000D02*
Y2615000D01*
G01X2080000D02*
Y2620000D01*
G01Y2570000D02*
Y2575000D01*
G01X2130000Y2620000D02*
X2080000D01*
G01Y2570000D02*
X2130000D01*
G01X2429990Y2582500D02*
G03X2430000Y2587490I-2490J2500D01*
G03X2429980Y2592530I-2502J2510D01*
G03X2429930Y2597510I-2480J2465D01*
G03X2429940Y2602470I-2431J2485D01*
G03X2429960Y2607510I-2439J2530D01*
G03X2429940Y2612510I-2462J2490D01*
G03X2429440Y2617890I-2439J2487D01*
G02X2425000Y2626200I5561J8312D01*
G01Y2640000D01*
X2375000D01*
Y2626200D01*
G02X2370560Y2617890I-10001J2D01*
G03X2370060Y2612510I1939J-2893D01*
G03X2370040Y2607510I2442J-2510D01*
G03X2370060Y2602470I2459J-2510D01*
G03X2370070Y2597510I2441J-2475D01*
G03X2370020Y2592530I2430J-2515D01*
G03X2370000Y2587490I2482J-2530D01*
G03X2370010Y2582500I2500J-2490D01*
G01X2370030Y2582480D01*
G03X2370050Y2577510I2469J-2475D01*
G03X2370040Y2572500I2449J-2510D01*
G03X2370050Y2567500I2461J-2495D01*
G03X2370550Y2562090I2450J-2502D01*
G02X2375000Y2553770I-5549J-8318D01*
G01Y2540000D01*
X2425000D01*
Y2553770D01*
G02X2429450Y2562090I9999J2D01*
G03X2429950Y2567500I-1950J2908D01*
G03X2429960Y2572500I-2451J2505D01*
G03X2429950Y2577510I-2459J2500D01*
G03X2429970Y2582480I-2449J2495D01*
G01X2429990Y2582500D01*
G01X2062500Y2474990D02*
G03X2057510Y2475000I-2500J-2490D01*
G03X2052470Y2474980I-2510J-2502D01*
G03X2047490Y2474930I-2465J-2480D01*
G03X2042530Y2474940I-2485J-2431D01*
G03X2037490Y2474960I-2530J-2439D01*
G03X2032490Y2474940I-2490J-2462D01*
G03X2027110Y2474440I-2487J-2439D01*
G02X2018800Y2470000I-8312J5561D01*
G01X2005000D01*
Y2420000D01*
X2018800D01*
G02X2027110Y2415560I-2J-10001D01*
G03X2032490Y2415060I2893J1939D01*
G03X2037490Y2415040I2510J2442D01*
G03X2042530Y2415060I2510J2459D01*
G03X2047490Y2415070I2475J2441D01*
G03X2052470Y2415020I2515J2430D01*
G03X2057510Y2415000I2530J2482D01*
G03X2062500Y2415010I2490J2500D01*
G01X2062520Y2415030D01*
G03X2067490Y2415050I2475J2469D01*
G03X2072500Y2415040I2510J2449D01*
G03X2077500Y2415050I2495J2461D01*
G03X2082910Y2415550I2502J2450D01*
G02X2091230Y2420000I8318J-5549D01*
G01X2105000D01*
Y2470000D01*
X2091230D01*
G02X2082910Y2474450I-2J9999D01*
G03X2077500Y2474950I-2908J-1950D01*
G03X2072500Y2474960I-2505J-2451D01*
G03X2067490Y2474950I-2500J-2459D01*
G03X2062520Y2474970I-2495J-2449D01*
G01X2062500Y2474990D01*
G01X2229990Y2587500D02*
G03X2230000Y2592490I-2490J2500D01*
G03X2229980Y2597530I-2502J2510D01*
G03X2229930Y2602510I-2480J2465D01*
G03X2229940Y2607470I-2431J2485D01*
G03X2229960Y2612510I-2439J2530D01*
G03X2229940Y2617510I-2462J2490D01*
G03X2229440Y2622890I-2439J2487D01*
G02X2225000Y2631200I5561J8312D01*
G01Y2645000D01*
X2175000D01*
Y2631200D01*
G02X2170560Y2622890I-10001J2D01*
G03X2170060Y2617510I1939J-2893D01*
G03X2170040Y2612510I2442J-2510D01*
G03X2170060Y2607470I2459J-2510D01*
G03X2170070Y2602510I2441J-2475D01*
G03X2170020Y2597530I2430J-2515D01*
G03X2170000Y2592490I2482J-2530D01*
G03X2170010Y2587500I2500J-2490D01*
G01X2170030Y2587480D01*
G03X2170050Y2582510I2469J-2475D01*
G03X2170040Y2577500I2449J-2510D01*
G03X2170050Y2572500I2461J-2495D01*
G03X2170550Y2567090I2450J-2502D01*
G02X2175000Y2558770I-5549J-8318D01*
G01Y2545000D01*
X2225000D01*
Y2558770D01*
G02X2229450Y2567090I9999J2D01*
G03X2229950Y2572500I-1950J2908D01*
G03X2229960Y2577500I-2451J2505D01*
G03X2229950Y2582510I-2459J2500D01*
G03X2229970Y2587480I-2449J2495D01*
G01X2229990Y2587500D01*
G01X2097500Y2720010D02*
G03X2102490Y2720000I2500J2490D01*
G03X2107530Y2720020I2510J2502D01*
G03X2112510Y2720070I2465J2480D01*
G03X2117470Y2720060I2485J2431D01*
G03X2122510Y2720040I2530J2439D01*
G03X2127510Y2720060I2490J2462D01*
G03X2132890Y2720560I2487J2439D01*
G02X2141200Y2725000I8312J-5561D01*
G01X2155000D01*
Y2775000D01*
X2141200D01*
G02X2132890Y2779440I2J10001D01*
G03X2127510Y2779940I-2893J-1939D01*
G03X2122510Y2779960I-2510J-2442D01*
G03X2117470Y2779940I-2510J-2459D01*
G03X2112510Y2779930I-2475J-2441D01*
G03X2107530Y2779980I-2515J-2430D01*
G03X2102490Y2780000I-2530J-2482D01*
G03X2097500Y2779990I-2490J-2500D01*
G01X2097480Y2779970D01*
G03X2092510Y2779950I-2475J-2469D01*
G03X2087500Y2779960I-2510J-2449D01*
G03X2082500Y2779950I-2495J-2461D01*
G03X2077090Y2779450I-2502J-2450D01*
G02X2068770Y2775000I-8318J5549D01*
G01X2055000D01*
Y2725000D01*
X2068770D01*
G02X2077090Y2720550I2J-9999D01*
G03X2082500Y2720050I2908J1950D01*
G03X2087500Y2720040I2505J2451D01*
G03X2092510Y2720050I2500J2459D01*
G03X2097480Y2720030I2495J2449D01*
G01X2097500Y2720010D01*
G01X2305000Y3170000D02*
Y3120000D01*
G01D02*
X2280000D01*
G01X2275000D02*
X2235000D01*
G01X2230000D02*
X2205000D01*
G01D02*
Y3170000D01*
G01X2235000Y3120000D02*
X2230000D01*
G01X2280000D02*
X2275000D01*
G01X2230000Y3170000D02*
Y3120000D01*
G01X2280000D02*
Y3170000D01*
G01X2425000Y2837500D02*
X2375000D01*
G01D02*
Y2862500D01*
G01Y2867500D02*
Y2907500D01*
G01Y2912500D02*
Y2937500D01*
G01D02*
X2425000D01*
G01X2375000Y2907500D02*
Y2912500D01*
G01Y2862500D02*
Y2867500D01*
G01X2425000Y2912500D02*
X2375000D01*
G01Y2862500D02*
X2425000D01*
G01X2263500Y3064990D02*
G03X2258510Y3065000I-2500J-2490D01*
G03X2253470Y3064980I-2510J-2502D01*
G03X2248490Y3064930I-2465J-2480D01*
G03X2243530Y3064940I-2485J-2431D01*
G03X2238490Y3064960I-2530J-2439D01*
G03X2233490Y3064940I-2490J-2462D01*
G03X2228110Y3064440I-2487J-2439D01*
G02X2219800Y3060000I-8312J5561D01*
G01X2206000D01*
Y3010000D01*
X2219800D01*
G02X2228110Y3005560I-2J-10001D01*
G03X2233490Y3005060I2893J1939D01*
G03X2238490Y3005040I2510J2442D01*
G03X2243530Y3005060I2510J2459D01*
G03X2248490Y3005070I2475J2441D01*
G03X2253470Y3005020I2515J2430D01*
G03X2258510Y3005000I2530J2482D01*
G03X2263500Y3005010I2490J2500D01*
G01X2263520Y3005030D01*
G03X2268490Y3005050I2475J2469D01*
G03X2273500Y3005040I2510J2449D01*
G03X2278500Y3005050I2495J2461D01*
G03X2283910Y3005550I2502J2450D01*
G02X2292230Y3010000I8318J-5549D01*
G01X2306000D01*
Y3060000D01*
X2292230D01*
G02X2283910Y3064450I-2J9999D01*
G03X2278500Y3064950I-2908J-1950D01*
G03X2273500Y3064960I-2505J-2451D01*
G03X2268490Y3064950I-2500J-2459D01*
G03X2263520Y3064970I-2495J-2449D01*
G01X2263500Y3064990D01*
G01X2030000Y3060000D02*
X2055000D01*
G01D02*
Y3010000D01*
G01D02*
X2030000D01*
G01X2025000Y3060000D02*
X2030000D01*
G01Y3010000D02*
X2025000D01*
G01X2030000D02*
Y3060000D01*
G01X2280000Y3170000D02*
X2305000D01*
G01X2235000D02*
X2275000D01*
G01X2205000D02*
X2230000D01*
G01X2275000D02*
X2280000D01*
G01X2230000D02*
X2235000D01*
G01X2075000Y3370000D02*
Y3345000D01*
G01D02*
X2025000D01*
G01D02*
Y3370000D01*
G01Y3375000D02*
Y3415000D01*
G01X2075000D02*
Y3375000D01*
G01X2025000Y3420000D02*
Y3445000D01*
G01D02*
X2075000D01*
G01D02*
Y3420000D01*
G01Y3375000D02*
Y3370000D01*
G01Y3420000D02*
Y3415000D01*
G01X2025000D02*
Y3420000D01*
G01Y3370000D02*
Y3375000D01*
G01X2075000Y3420000D02*
X2025000D01*
G01Y3370000D02*
X2075000D01*
G01X2030000Y3260000D02*
X2055000D01*
G01D02*
Y3210000D01*
G01D02*
X2030000D01*
G01X2025000Y3260000D02*
X2030000D01*
G01Y3210000D02*
X2025000D01*
G01X2030000D02*
Y3260000D01*
G01X2103500Y3574990D02*
G03X2098510Y3575000I-2500J-2490D01*
G03X2093470Y3574980I-2510J-2502D01*
G03X2088490Y3574930I-2465J-2480D01*
G03X2083530Y3574940I-2485J-2431D01*
G03X2078490Y3574960I-2530J-2439D01*
G03X2073490Y3574940I-2490J-2462D01*
G03X2068110Y3574440I-2487J-2439D01*
G02X2059800Y3570000I-8312J5561D01*
G01X2046000D01*
Y3520000D01*
X2059800D01*
G02X2068110Y3515560I-2J-10001D01*
G03X2073490Y3515060I2893J1939D01*
G03X2078490Y3515040I2510J2442D01*
G03X2083530Y3515060I2510J2459D01*
G03X2088490Y3515070I2475J2441D01*
G03X2093470Y3515020I2515J2430D01*
G03X2098510Y3515000I2530J2482D01*
G03X2103500Y3515010I2490J2500D01*
G01X2103520Y3515030D01*
G03X2108490Y3515050I2475J2469D01*
G03X2113500Y3515040I2510J2449D01*
G03X2118500Y3515050I2495J2461D01*
G03X2123910Y3515550I2502J2450D01*
G02X2132230Y3520000I8318J-5549D01*
G01X2146000D01*
Y3570000D01*
X2132230D01*
G02X2123910Y3574450I-2J9999D01*
G03X2118500Y3574950I-2908J-1950D01*
G03X2113500Y3574960I-2505J-2451D01*
G03X2108490Y3574950I-2500J-2459D01*
G03X2103520Y3574970I-2495J-2449D01*
G01X2103500Y3574990D01*
G01X2149900Y4292070D02*
Y4791950D01*
G03X2049900I-50000J-3D01*
G01Y4292070D01*
G03X2149900I50000J3D01*
G01X2349800D02*
Y4791950D01*
G03X2249800I-50000J-3D01*
G01Y4292070D01*
G03X2349800I50000J3D01*
G01X2516700Y1013800D02*
X2520950Y1018050D01*
G01Y1169550D02*
X2516700Y1173800D01*
G01X2520950Y1018050D02*
Y1169550D01*
G01X2516700Y1173800D02*
Y1013800D01*
G01X2520950Y1169550D02*
X2802450D01*
G01X2546700Y1173800D02*
X2516700D01*
G01X2736700D02*
X2586700D01*
G01D02*
X2546700D01*
G01X2776700D02*
X2736700D01*
G01X2586700D02*
Y1203800D01*
G01X2546700Y1173800D02*
Y1203800D01*
G01X2736700Y1173800D02*
Y1203800D01*
G01X2546700Y953800D02*
X2586700D01*
G01X2641700D02*
X2681700D01*
G01X2736700D02*
X2776700D01*
G01X2736700Y973800D02*
Y953800D01*
G01X2641700Y973800D02*
Y953800D01*
G01X2546700Y973800D02*
Y953800D01*
G01X2681700Y973800D02*
Y953800D01*
G01X2586700Y973800D02*
Y953800D01*
G01Y1013800D02*
X2641700D01*
G01X2802450Y1018050D02*
X2520950D01*
G01X2516700Y1013800D02*
X2546700D01*
G01X2681700D02*
X2736700D01*
G01X2641700D02*
X2681700D01*
G01X2546700D02*
X2586700D01*
G01X2736700D02*
X2776700D01*
G01X2641700D02*
Y983800D01*
G01X2681700Y1013800D02*
Y983800D01*
G01X2546700Y1013800D02*
Y983800D01*
G01X2586700Y1013800D02*
Y983800D01*
G01X2736700Y1013800D02*
Y983800D01*
G01X2641700Y973800D02*
X2681700D01*
G01X2641700D02*
Y983800D01*
G01X2681700D02*
Y973800D01*
G01X2546700D02*
X2586700D01*
G01X2546700D02*
Y983800D01*
G01X2586700D02*
Y973800D01*
G01X2736700D02*
X2776700D01*
G01X2736700D02*
Y983800D01*
G01X2565950Y1048050D02*
G03I-15000J0D01*
G01X2410000Y905000D02*
Y930000D01*
G01D02*
X2460000D01*
G01D02*
Y905000D01*
G01Y900000D02*
Y860000D01*
G01X2410000D02*
Y900000D01*
G01X2460000Y855000D02*
Y830000D01*
G01D02*
X2410000D01*
G01D02*
Y855000D01*
G01Y900000D02*
Y905000D01*
G01Y855000D02*
Y860000D01*
G01X2460000D02*
Y855000D01*
G01Y905000D02*
Y900000D01*
G01X2410000Y855000D02*
X2460000D01*
G01Y905000D02*
X2410000D01*
G01X2736700Y1233800D02*
X2776700D01*
G01X2586700Y1213800D02*
Y1233800D01*
G01X2546700D02*
X2586700D01*
G01X2546700Y1213800D02*
Y1233800D01*
G01X2736700Y1213800D02*
Y1233800D01*
G01X2586700Y1213800D02*
X2546700D01*
G01X2586700D02*
Y1203800D01*
G01X2546700D02*
Y1213800D01*
G01X2736700Y1203800D02*
Y1213800D01*
G01X2776700D02*
X2736700D01*
G01X2425000Y1950000D02*
X2385000D01*
G01X2455000Y2000000D02*
Y1950000D01*
G01D02*
X2430000D01*
G01D02*
X2425000D01*
G01X2430000D02*
Y2000000D01*
G01X2470000Y1870000D02*
X2495000D01*
G01D02*
Y1820000D01*
G01D02*
X2470000D01*
G01X2465000D02*
X2425000D01*
G01Y1870000D02*
X2465000D01*
G01X2420000Y1820000D02*
X2395000D01*
G01D02*
Y1870000D01*
G01D02*
X2420000D01*
G01X2465000D02*
X2470000D01*
G01X2420000D02*
X2425000D01*
G01Y1820000D02*
X2420000D01*
G01X2470000D02*
X2465000D01*
G01X2420000Y1870000D02*
Y1820000D01*
G01X2470000D02*
Y1870000D01*
G01X2385000Y2000000D02*
X2425000D01*
G01X2430000D02*
X2455000D01*
G01X2425000D02*
X2430000D01*
G01X2390000Y2250000D02*
X2415000D01*
G01D02*
Y2200000D01*
G01D02*
X2390000D01*
G01D02*
X2385000D01*
G01Y2250000D02*
X2390000D01*
G01Y2200000D02*
Y2250000D01*
G01X2750000Y2310000D02*
X2725000D01*
G01D02*
Y2360000D01*
G01D02*
X2750000D01*
G01X2755000D02*
X2795000D01*
G01Y2310000D02*
X2755000D01*
G01D02*
X2750000D01*
G01Y2360000D02*
X2755000D01*
G01X2750000D02*
Y2310000D01*
G01X2385000Y2120000D02*
X2425000D01*
G01Y2070000D02*
X2385000D01*
G01X2430000Y2120000D02*
X2455000D01*
G01D02*
Y2070000D01*
G01D02*
X2430000D01*
G01D02*
X2425000D01*
G01Y2120000D02*
X2430000D01*
G01Y2070000D02*
Y2120000D01*
G01X2555000Y2310000D02*
X2530000D01*
G01D02*
Y2360000D01*
G01D02*
X2555000D01*
G01X2560000D02*
X2600000D01*
G01Y2310000D02*
X2560000D01*
G01X2605000Y2360000D02*
X2630000D01*
G01D02*
Y2310000D01*
G01D02*
X2605000D01*
G01X2560000D02*
X2555000D01*
G01X2605000D02*
X2600000D01*
G01Y2360000D02*
X2605000D01*
G01X2555000D02*
X2560000D01*
G01X2605000Y2310000D02*
Y2360000D01*
G01X2555000D02*
Y2310000D01*
G01X2750000Y2405000D02*
X2725000D01*
G01D02*
Y2455000D01*
G01D02*
X2750000D01*
G01X2755000D02*
X2795000D01*
G01Y2405000D02*
X2755000D01*
G01D02*
X2750000D01*
G01Y2455000D02*
X2755000D01*
G01X2750000D02*
Y2405000D01*
G01X2535000Y2565000D02*
Y2540000D01*
G01D02*
X2485000D01*
G01D02*
Y2565000D01*
G01Y2570000D02*
Y2610000D01*
G01X2535000D02*
Y2570000D01*
G01X2485000Y2615000D02*
Y2640000D01*
G01D02*
X2535000D01*
G01D02*
Y2615000D01*
G01Y2570000D02*
Y2565000D01*
G01Y2615000D02*
Y2610000D01*
G01X2485000D02*
Y2615000D01*
G01Y2565000D02*
Y2570000D01*
G01X2535000Y2615000D02*
X2485000D01*
G01Y2565000D02*
X2535000D01*
G01X2405000Y2765000D02*
Y2715000D01*
G01Y2470000D02*
Y2420000D01*
G01X2605000Y2455000D02*
X2630000D01*
G01D02*
Y2405000D01*
G01D02*
X2605000D01*
G01X2600000D02*
X2560000D01*
G01Y2455000D02*
X2600000D01*
G01X2555000Y2405000D02*
X2530000D01*
G01D02*
Y2455000D01*
G01D02*
X2555000D01*
G01X2600000D02*
X2605000D01*
G01X2555000D02*
X2560000D01*
G01Y2405000D02*
X2555000D01*
G01X2605000D02*
X2600000D01*
G01X2555000Y2455000D02*
Y2405000D01*
G01X2605000D02*
Y2455000D01*
G01X2420000Y3010000D02*
X2395000D01*
G01D02*
Y3060000D01*
G01D02*
X2420000D01*
G01X2425000D02*
X2465000D01*
G01Y3010000D02*
X2425000D01*
G01X2470000Y3060000D02*
X2495000D01*
G01D02*
Y3010000D01*
G01D02*
X2470000D01*
G01X2425000D02*
X2420000D01*
G01X2470000D02*
X2465000D01*
G01Y3060000D02*
X2470000D01*
G01X2420000D02*
X2425000D01*
G01X2470000Y3010000D02*
Y3060000D01*
G01X2420000D02*
Y3010000D01*
G01X2425000Y2862500D02*
Y2837500D01*
G01Y2907500D02*
Y2867500D01*
G01Y2937500D02*
Y2912500D01*
G01Y2867500D02*
Y2862500D01*
G01Y2912500D02*
Y2907500D01*
G01X2749850Y4292070D02*
Y4791950D01*
G03X2649850I-50000J-3D01*
G01Y4292070D01*
G03X2749850I50000J3D01*
G01X2549950D02*
Y4791950D01*
G03X2449950I-50000J-3D01*
G01Y4292070D01*
G03X2549950I50000J3D01*
G01X2802450Y1169550D02*
Y1018050D01*
G01X2806700Y1173800D02*
X2802450Y1169550D01*
G01Y1018050D02*
X2806700Y1013800D01*
G01D02*
Y1173800D01*
G01D02*
X2776700D01*
G01D02*
Y1203800D01*
G01Y973800D02*
Y953800D01*
G01Y1013800D02*
X2806700D01*
G01X2776700D02*
Y983800D01*
G01D02*
Y973800D01*
G01Y1213800D02*
Y1233800D01*
G01Y1213800D02*
Y1203800D01*
G01X2925000Y1205000D02*
X2900000D01*
G01D02*
Y1255000D01*
G01D02*
X2925000D01*
G01X2930000D02*
X2970000D01*
G01Y1205000D02*
X2930000D01*
G01X2975000Y1255000D02*
X3000000D01*
G01D02*
Y1205000D01*
G01D02*
X2975000D01*
G01X2930000D02*
X2925000D01*
G01X2975000D02*
X2970000D01*
G01Y1255000D02*
X2975000D01*
G01X2925000D02*
X2930000D01*
G01X2975000Y1205000D02*
Y1255000D01*
G01X2925000D02*
Y1205000D01*
G01X2800000Y2360000D02*
X2825000D01*
G01D02*
Y2310000D01*
G01D02*
X2800000D01*
G01D02*
X2795000D01*
G01Y2360000D02*
X2800000D01*
G01Y2310000D02*
Y2360000D01*
G01Y2455000D02*
X2825000D01*
G01D02*
Y2405000D01*
G01D02*
X2800000D01*
G01D02*
X2795000D01*
G01Y2455000D02*
X2800000D01*
G01Y2405000D02*
Y2455000D01*
G01X3149900Y4292070D02*
Y4791950D01*
G03X3049900I-50000J-3D01*
G01Y4292070D01*
G03X3149900I50000J3D01*
G01X2949740D02*
Y4791950D01*
G03X2849740I-50000J-3D01*
G01Y4292070D01*
G03X2949740I50000J3D01*
G01X3549950D02*
Y4791950D01*
G03X3449950I-50000J-3D01*
G01Y4292070D01*
G03X3549950I50000J3D01*
G01X3349790D02*
Y4791950D01*
G03X3249790I-50000J-3D01*
G01Y4292070D01*
G03X3349790I50000J3D01*
G01X3891600Y191800D02*
G03I-140000J0D01*
G01X3841500Y3291500D02*
G03I-140000J0D01*
G01X3749840Y4292070D02*
Y4791950D01*
G03X3649840I-50000J-3D01*
G01Y4292070D01*
G03X3749840I50000J3D01*
M02*
