G04 ================== begin FILE IDENTIFICATION RECORD ==================*
G04 Layout Name:  CC120xEM_868_930.brd*
G04 Film Name:    Layer2*
G04 File Format:  Gerber RS274X*
G04 File Origin:  Cadence Allegro 16.5-S017*
G04 Origin Date:  Fri Jan 25 12:57:48 2013*
G04 *
G04 Layer:  VIA CLASS/L2*
G04 Layer:  PIN/L2*
G04 Layer:  ETCH/L2*
G04 *
G04 Offset:    (0.0000 0.0000)*
G04 Mirror:    No*
G04 Mode:      Positive*
G04 Rotation:  0*
G04 FullContactRelief:  No*
G04 UndefLineWidth:     0.0100*
G04 ================== end FILE IDENTIFICATION RECORD ====================*
%FSLAX25Y25*MOMM*%
%IR0*IPPOS*OFA0.00000B0.00000*MIA0B0*SFA1.00000B1.00000*%
%ADD10C,.1001*%
%ADD11C,.5*%
%ADD13C,.8*%
%ADD12C,1.9*%
%ADD14C,.2*%
%ADD15C,1.2004*%
%ADD17C,2.1544*%
%ADD16C,1.907*%
G75*
%LPD*%
G75*
G36*
G01X3932990Y12010D02*
X7010D01*
Y3620000D01*
X3932990D01*
Y12010D01*
G37*
%LPC*%
G75*
G36*
G01X765560Y449310D02*
G02X714440I-25560J-54310D01*
G03Y467690I-4322J9190D01*
G02X714020Y576110I25557J54310D01*
G03X713880Y594490I-4398J9157D01*
G02X764980Y594890I25125J54509D01*
G03X765120Y576510I4398J-9157D01*
G02X765560Y467690I-25119J-54512D01*
G03Y449310I4322J-9190D01*
G37*
G36*
G01X1962320Y749570D02*
G02X1909190Y728780I-7322J-59571D01*
G03X1902680Y745430I-7753J6566D01*
G02X1955810Y766220I7322J59571D01*
G03X1962320Y749570I7753J-6566D01*
G37*
G36*
G01X1328200Y164460D02*
G03X1309800I-9200J-4301D01*
G02Y274540I-117800J55040D01*
G03X1328200I9200J4301D01*
G02X1563800I117800J-55040D01*
G03X1582200I9200J4301D01*
G02X1817800I117800J-55040D01*
G03X1836200I9200J4301D01*
G02X2071800I117800J-55040D01*
G03X2090200I9200J4301D01*
G02X2325800I117800J-55040D01*
G03X2344200I9200J4301D01*
G02X2579800I117800J-55040D01*
G03X2598200I9200J4301D01*
G02Y164460I117800J-55040D01*
G03X2579800I-9200J-4301D01*
G02X2344200I-117800J55040D01*
G03X2325800I-9200J-4301D01*
G02X2090200I-117800J55040D01*
G03X2071800I-9200J-4301D01*
G02X1836200I-117800J55040D01*
G03X1817800I-9200J-4301D01*
G02X1582200I-117800J55040D01*
G03X1563800I-9200J-4301D01*
G02X1328200I-117800J55040D01*
G37*
G36*
G01X1774120Y527610D02*
G02X1863010Y474180I28879J-52613D01*
G02X1792990Y415820I-10007J-59179D01*
G02X1743790Y465150I10007J59181D01*
G03X1728880Y472390I-10022J-1667D01*
G02X1759210Y534850I-28877J52616D01*
G03X1774120Y527610I10022J1667D01*
G37*
G36*
G01X982960Y547720D02*
G03X967040I-7960J-6311D01*
G02Y622280I-47040J37280D01*
G03X982960I7960J6311D01*
G02X987880Y627760I47038J-37282D01*
G03Y642240I-7126J7240D01*
G02X995590Y734180I42119J42761D01*
G03Y750820I-5826J8320D01*
G02X1064410I34410J49180D01*
G03Y734180I5826J-8320D01*
G02X1072120Y642240I-34409J-49179D01*
G03Y627760I7126J-7240D01*
G02X982960Y547720I-42124J-42756D01*
G37*
G36*
G01X2206890Y751430D02*
G03X2194580Y742740I-2224J-9913D01*
G02X2148110Y808570I-59579J7259D01*
G03X2160420Y817260I2224J9913D01*
G02X2206890Y751430I59579J-7259D01*
G37*
G36*
G01X2120730Y1205130D02*
G03X2109870Y1194270I-729J-10131D01*
G02X2054270Y1249870I-59870J-4270D01*
G03X2065130Y1260730I729J10131D01*
G02Y1269270I59870J4270D01*
G03X2054270Y1280130I-10131J729D01*
G02Y1399870I-4270J59870D01*
G03X2065130Y1410730I729J10131D01*
G02Y1419270I59870J4270D01*
G03X2054270Y1430130I-10131J729D01*
G02X2109870Y1485730I-4270J59870D01*
G03X2120730Y1474870I10131J-729D01*
G02X2129270I4270J-59870D01*
G03X2140130Y1485730I729J10131D01*
G02X2259870I59870J4270D01*
G03X2270730Y1474870I10131J-729D01*
G02X2279270I4270J-59870D01*
G03X2290130Y1485730I729J10131D01*
G02X2409870I59870J4270D01*
G03X2420730Y1474870I10131J-729D01*
G02X2429270I4270J-59870D01*
G03X2440130Y1485730I729J10131D01*
G02X2559870I59870J4270D01*
G03X2570730Y1474870I10131J-729D01*
G02Y1355130I4270J-59870D01*
G03X2559870Y1344270I-729J-10131D01*
G02X2440130I-59870J-4270D01*
G03X2429270Y1355130I-10131J729D01*
G02X2420730I-4270J59870D01*
G03X2409870Y1344270I-729J-10131D01*
G02X2345730Y1280130I-59870J-4270D01*
G03X2334870Y1269270I-729J-10131D01*
G02X2270730Y1205130I-59870J-4270D01*
G03X2259870Y1194270I-729J-10131D01*
G02X2140130I-59870J-4270D01*
G03X2129270Y1205130I-10131J729D01*
G02X2120730I-4270J59870D01*
G37*
G36*
G01X2854750Y1595000D02*
G02Y1515000I-44750J-40000D01*
G02X2765250I-44750J-40000D01*
G02Y1595000I44750J40000D01*
G02X2763140Y1672500I44750J39997D01*
G02X2763300Y1747700I46861J37500D01*
G02X2856700I46700J37700D01*
G02X2856860Y1672500I-46701J-37700D01*
G02X2854750Y1595000I-46860J-37503D01*
G37*
G54D15*
X3778000Y522000D03*
X3202000D03*
X3150000Y1030000D03*
X2510000Y2160000D03*
X2730000Y2250000D03*
X2540000Y1770000D03*
X2545000Y1909500D03*
X2460000Y630000D03*
X1635000Y2540000D03*
X1665300Y1620000D03*
X1402500Y2522500D03*
X1310000Y2245000D03*
Y2114500D03*
X1295000Y1984870D03*
X1217500Y2527500D03*
X1200000Y1180000D03*
X1190000Y500000D03*
X795000Y870000D03*
G54D17*
X938000Y219500D03*
G54D16*
X3495670Y1696750D03*
Y236250D03*
X447670Y1696750D03*
Y236250D03*
%LPD*%
G75*
G54D10*
X447670Y236250D03*
Y1696750D03*
X3495670Y236250D03*
Y1696750D03*
G54D11*
X150000Y395000D03*
X162500Y222500D03*
X312500Y122500D03*
X112500Y822500D03*
Y572500D03*
Y1072500D03*
X155000Y1545000D03*
X112500Y1322500D03*
X212500Y1722500D03*
X162500Y1972500D03*
Y2172500D03*
Y2372500D03*
Y2572500D03*
Y2722500D03*
Y2972500D03*
Y3522500D03*
X700000Y90000D03*
X695000Y280000D03*
X795000Y219500D03*
X740000Y395000D03*
X739000Y649000D03*
X740000Y522000D03*
X795000Y870000D03*
X762500Y1522500D03*
Y1272500D03*
X712500Y1722500D03*
X512500Y1972500D03*
X812500D03*
Y2172500D03*
Y2372500D03*
X512500Y2172500D03*
Y2372500D03*
X812500Y2572500D03*
X512500D03*
X812500Y2722500D03*
X512500D03*
Y2972500D03*
X762500D03*
X512500Y3172500D03*
X762500D03*
X512500Y3372500D03*
X762500D03*
X512500Y3522500D03*
X1045000Y350000D03*
Y85000D03*
X1190000Y500000D03*
X1030000Y800000D03*
Y685000D03*
X920000Y585000D03*
X1030000D03*
X1062500Y1222500D03*
X1212500Y872500D03*
X1012500Y922500D03*
X862500Y1072500D03*
X1200000Y1180000D03*
X1012500Y1322500D03*
X1155000Y1310000D03*
X995000Y1410000D03*
X1100000D03*
X1065000Y1825000D03*
X1012500Y1922500D03*
X1225000Y2180000D03*
X1012500Y2372500D03*
Y2172500D03*
X1033500Y2741500D03*
X1222500Y2737500D03*
X1012500Y2572500D03*
X1217500Y2527500D03*
X1222500Y2917500D03*
X1037500Y3097500D03*
X870000Y2917500D03*
X1205000Y3510000D03*
X867500Y3477500D03*
X1032500Y3292500D03*
X1575000Y80000D03*
X1320000D03*
X1255000Y1260000D03*
X1430000Y1765000D03*
X1235000Y1920000D03*
X1295000Y1984870D03*
X1350000Y2375000D03*
X1235000Y2050000D03*
X1310000Y2114500D03*
Y2245000D03*
X1593500Y2741500D03*
X1402500Y2732500D03*
Y2522500D03*
Y2917500D03*
X1420000Y3510000D03*
X1312500Y3422500D03*
X1825000Y85000D03*
X1853000Y415000D03*
X1910000Y805000D03*
X1700000Y525000D03*
X1955000Y690000D03*
X1803000Y475000D03*
X1700000Y1050000D03*
Y950000D03*
X1735000Y1445000D03*
X1970000D03*
X1665300Y1620000D03*
X1915000Y2725000D03*
X1715000Y2650000D03*
X1815000D03*
X1817500Y2797500D03*
X1712500Y2737500D03*
X1635000Y2540000D03*
X1912500Y2877500D03*
X1755000Y2917500D03*
X1745000Y3582300D03*
X1905000Y3290000D03*
X1752500Y3477500D03*
X2340000Y85000D03*
X2080000D03*
X2350000Y835000D03*
X2062500Y822500D03*
X2220000Y810000D03*
X2135000Y750000D03*
X2305000Y1070000D03*
X2062500Y1072500D03*
Y922500D03*
X2200000Y1190000D03*
X2050000D03*
X2260000Y1580000D03*
X2275000Y1265000D03*
Y1415000D03*
X2125000D03*
Y1265000D03*
X2200000Y1340000D03*
X2350000D03*
Y1490000D03*
X2200000D03*
X2050000D03*
Y1340000D03*
X2275000Y2644000D03*
X2227500Y2887500D03*
X2127500D03*
X2027500D03*
X2220000Y3545000D03*
X2222500Y3422500D03*
Y3287500D03*
X2377500D03*
X2362500Y3472500D03*
X2585000Y85000D03*
X2520000Y835000D03*
X2460000Y630000D03*
X2661700Y1063300D03*
X2492710Y1070000D03*
X2575000Y1415000D03*
X2425000D03*
X2500000Y1340000D03*
Y1490000D03*
X2600000Y1845000D03*
X2595000Y1975000D03*
X2545000Y1909500D03*
X2540000Y1770000D03*
X2560000Y2225000D03*
Y2095000D03*
X2730000Y2250000D03*
X2510000Y2160000D03*
X2592500Y2757500D03*
X2607500Y2647500D03*
X2707500Y2657500D03*
X2712500Y2772500D03*
X2575000Y3035000D03*
X2587500Y3162500D03*
Y2912500D03*
X2712500Y2972500D03*
X2527500Y3287500D03*
X2712500Y3472500D03*
Y3222500D03*
X2990000Y125000D03*
X2985000Y315000D03*
X3180000D03*
Y125000D03*
X3162500Y772500D03*
X3150000Y1030000D03*
X3162500Y1422500D03*
X3140000Y1255000D03*
X2810000Y1555000D03*
Y1475000D03*
X2812500Y1922500D03*
X3062500D03*
Y1722500D03*
X3162500Y1622500D03*
X2962500Y1822500D03*
X2810000Y1710000D03*
Y1785400D03*
Y1635000D03*
X2905000Y2335000D03*
X2820000Y2250000D03*
X3062500Y2372500D03*
X2812500Y2122500D03*
X3062500Y2172500D03*
X2962500Y2222500D03*
Y2022500D03*
X2820000Y2515000D03*
X2905000Y2430000D03*
X3062500Y2772500D03*
X2862500Y2622500D03*
X3062500Y2572500D03*
Y2972500D03*
Y3472500D03*
Y3222500D03*
X3435000Y80000D03*
X3202000Y522000D03*
X3412500Y1922500D03*
X3312500Y1722500D03*
X3412500Y2372500D03*
Y2172500D03*
Y2772500D03*
Y2572500D03*
Y2972500D03*
Y3472500D03*
Y3222500D03*
X3812500Y722500D03*
X3778000Y522000D03*
X3812500Y1022500D03*
X3778000Y1538000D03*
X3812500Y1322500D03*
X3712500Y1922500D03*
Y1722500D03*
Y2372500D03*
Y2172500D03*
Y2772500D03*
Y2572500D03*
Y2972500D03*
X3812500Y3472500D03*
X3862500Y3222500D03*
G54D12*
X1192000Y219500D03*
X938000D03*
X1446000D03*
X1954000D03*
X1700000D03*
X2462000D03*
X2208000D03*
X2716000D03*
G54D13*
X1827500Y1995900D03*
X1927500D03*
X2027500D03*
X1827500Y1895900D03*
X1927500D03*
X2027500D03*
X1827500Y2095900D03*
X1927500D03*
X2027500D03*
X1900000Y4791950D03*
X2099900Y4292070D03*
X2299900D03*
Y4791950D03*
X2099900D03*
X2699900Y4292070D03*
X2499900D03*
X2699900Y4791950D03*
X2499900D03*
X3099900Y4292070D03*
X2899900D03*
X3099900Y4791950D03*
X2899900D03*
X3499900Y4292070D03*
X3299900D03*
X3499900Y4791950D03*
X3299900D03*
X3699900Y4292070D03*
Y4791950D03*
G54D14*
G01X938000Y106700D02*
Y219500D01*
G01D02*
Y332300D01*
G01X825200Y219500D02*
X938000D01*
G01D02*
X1050800D01*
M02*
