G04 ================== begin FILE IDENTIFICATION RECORD ==================*
G04 Layout Name:  CC120xEM_868_930.brd*
G04 Film Name:    Layer3*
G04 File Format:  Gerber RS274X*
G04 File Origin:  Cadence Allegro 16.5-S017*
G04 Origin Date:  Fri Jan 25 12:57:48 2013*
G04 *
G04 Layer:  VIA CLASS/L3*
G04 Layer:  PIN/L3*
G04 Layer:  ETCH/L3*
G04 *
G04 Offset:    (0.0000 0.0000)*
G04 Mirror:    No*
G04 Mode:      Positive*
G04 Rotation:  0*
G04 FullContactRelief:  No*
G04 UndefLineWidth:     0.0100*
G04 ================== end FILE IDENTIFICATION RECORD ====================*
%FSLAX25Y25*MOMM*%
%IR0*IPPOS*OFA0.00000B0.00000*MIA0B0*SFA1.00000B1.00000*%
%ADD10C,.1001*%
%ADD11C,.5*%
%ADD13C,.8*%
%ADD12C,1.9*%
%ADD14C,.2*%
%ADD15C,.25*%
%ADD17C,1.2004*%
%ADD18C,2.1544*%
%ADD16C,1.907*%
G75*
%LPD*%
G75*
G36*
G01X3932990Y12010D02*
X7010D01*
Y3620000D01*
X3932990D01*
Y12010D01*
G37*
%LPC*%
G75*
G36*
G01X1196110Y559710D02*
G03X1204330Y577000I1038J10105D01*
G01X1105450Y675890D01*
G03X1088380Y671060I-7185J-7185D01*
G02X1072120Y642240I-58379J13940D01*
G03Y627760I7126J-7240D01*
G02X982960Y547720I-42124J-42756D01*
G03X967040I-7960J-6311D01*
G02Y622280I-47040J37280D01*
G03X982960I7960J6311D01*
G02X987880Y627760I47038J-37282D01*
G03Y642240I-7126J7240D01*
G02X995590Y734180I42119J42761D01*
G03Y750820I-5826J8320D01*
G02X1084900Y824250I34408J49178D01*
G01X1085280Y823390D01*
X1491020Y417650D01*
Y341480D01*
G02X1563800Y274540I-45018J-121980D01*
G03X1582200I9200J4301D01*
G02X1654980Y341480I117798J-55040D01*
G01Y485310D01*
G02X1759210Y534850I45023J39691D01*
G03X1774120Y527610I10022J1667D01*
G02X1863010Y474180I28879J-52613D01*
G02X1892190Y460460I-10010J-59180D01*
G03X1908980Y468160I6630J7698D01*
G01Y651470D01*
G02X1909190Y728780I46020J38530D01*
G03X1902680Y745430I-7753J6566D01*
G02X1955810Y766220I7322J59571D01*
G03X1962140Y749590I7753J-6569D01*
G02X2003760Y725000I-7135J-59594D01*
G01X2066400D01*
G03X2076330Y737310I1J10159D01*
G02X2142080Y809600I58662J12691D01*
G02X2148220Y808550I-7034J-59608D01*
G03X2160420Y817260I2116J9936D01*
G02X2279300Y819290I59581J-7255D01*
G01X2279550Y817650D01*
X2309680Y787520D01*
X2464680D01*
X2763520Y488680D01*
Y340520D01*
G02X2598200Y164460I-47523J-121024D01*
G03X2579800I-9200J-4301D01*
G02X2344200I-117800J55040D01*
G03X2325800I-9200J-4301D01*
G02X2090200I-117800J55040D01*
G03X2071800I-9200J-4301D01*
G02X1836200I-117800J55040D01*
G03X1817800I-9200J-4301D01*
G02X1582200I-117800J55040D01*
G03X1563800I-9200J-4301D01*
G02X1328200I-117800J55040D01*
G03X1309800I-9200J-4301D01*
G02X1146980Y341480I-117797J55042D01*
G01Y458150D01*
G02X1196110Y559710I43021J41852D01*
G37*
G36*
G01X1104980Y2625020D02*
X2815020D01*
Y1845370D01*
X2819310Y1844690D01*
G02X2856700Y1747700I-9311J-59292D01*
G02X2856860Y1672500I-46701J-37700D01*
G02X2854750Y1595000I-46860J-37503D01*
G02Y1515000I-44750J-40000D01*
G02X2819310Y1415710I-44750J-39997D01*
G01X2815020Y1415030D01*
Y1094980D01*
X1104980D01*
Y2625020D01*
G37*
G36*
G01X765560Y449310D02*
G02X714440I-25560J-54310D01*
G03Y467690I-4322J9190D01*
G02X714020Y576110I25557J54310D01*
G03X713880Y594490I-4398J9157D01*
G02X764980Y594890I25125J54509D01*
G03X765120Y576510I4398J-9157D01*
G02X765560Y467690I-25119J-54512D01*
G03Y449310I4322J-9190D01*
G37*
G54D17*
X795000Y870000D03*
X3150000Y1030000D03*
X3202000Y522000D03*
X3778000D03*
G54D18*
X938000Y219500D03*
G54D16*
X447670Y236250D03*
Y1696750D03*
X3495670Y236250D03*
Y1696750D03*
%LPD*%
G75*
G36*
G01X1150860Y1250120D02*
G03X1181530Y1256160I4138J59879D01*
G02X1196010Y1248930I4496J-9110D01*
G03X1228470Y1313840I58990J11071D01*
G02X1213990Y1321070I-4496J9110D01*
G03X1162090Y1369600I-58990J-11070D01*
G02X1154130Y1384080I1203J10089D01*
G03X1140000Y1454750I-54131J25924D01*
G01Y2590000D01*
X1713510D01*
G03X1716490I1490J60000D01*
G01X1813510D01*
G03X1816490I1490J60000D01*
G01X2248800D01*
G03X2301200I26200J54000D01*
G01X2590280D01*
X2590960Y2589800D01*
G03X2624040I16540J57700D01*
G01X2624720Y2590000D01*
X2780000D01*
Y2559750D01*
G03Y2470250I40000J-44750D01*
G01Y2294750D01*
G03Y2205250I40000J-44750D01*
G01Y2172960D01*
G03Y2072040I32500J-50460D01*
G01Y1972960D01*
G03Y1872040I32500J-50460D01*
G01Y1837380D01*
G03X2763300Y1747700I30001J-51982D01*
G03X2763140Y1672500I46701J-37700D01*
G03X2765250Y1595000I46860J-37503D01*
G03Y1515000I44750J-40000D01*
G03X2780000Y1423020I44750J-39996D01*
G01Y1130000D01*
X2494200D01*
G03X2491220I-1490J-60000D01*
G01X2306490D01*
G03X2303510I-1490J-60000D01*
G01X2079720D01*
X2079040Y1130200D01*
G03X2045960I-16540J-57700D01*
G01X2045280Y1130000D01*
X1140000D01*
Y1239990D01*
G02X1150860Y1250120I10159J-4D01*
G37*
%LPC*%
G75*
G36*
G01X2620370Y1901460D02*
G02X2575350Y1899720I-20361J-56460D01*
G03X2574630Y1918540I-4172J9264D01*
G02X2553830Y2018670I20371J56457D01*
G03X2548760Y2036040I-6973J7390D01*
G02X2537370Y2150590I11239J58959D01*
G03Y2169410I-3831J9410D01*
G02X2582630I22630J55590D01*
G03Y2150590I3831J-9410D01*
G02X2601170Y2051330I-22631J-55589D01*
G03X2606240Y2033960I6973J-7390D01*
G02X2619650Y1920280I-11242J-58957D01*
G03X2620370Y1901460I4172J-9264D01*
G37*
G36*
G01X1977500Y1839970D02*
G02X1877500I-50000J55930D01*
G02X1771570Y1945900I-50000J55930D01*
G02Y2045900I55930J50000D01*
G02X1877500Y2151830I55930J50000D01*
G02X1977500I50000J-55930D01*
G02X2083430Y2045900I50000J-55930D01*
G02Y1945900I-55930J-50000D01*
G02X1977500Y1839970I-55930J-50000D01*
G37*
G36*
G01X1257630Y1975590D02*
G02X1212370I-22630J-55590D01*
G03Y1994410I-3831J9410D01*
G02X1257630I22630J55590D01*
G03Y1975590I3831J-9410D01*
G37*
G54D17*
X2260000Y1580000D03*
X1735000Y1445000D03*
X1970000D03*
X1350000Y2375000D03*
X1430000Y1765000D03*
X1225000Y2180000D03*
%LPD*%
G75*
G54D10*
X447670Y236250D03*
Y1696750D03*
X3495670Y236250D03*
Y1696750D03*
G54D11*
X150000Y395000D03*
X162500Y222500D03*
X312500Y122500D03*
X112500Y822500D03*
Y572500D03*
Y1072500D03*
X155000Y1545000D03*
X112500Y1322500D03*
X212500Y1722500D03*
X162500Y1972500D03*
Y2172500D03*
Y2372500D03*
Y2572500D03*
Y2722500D03*
Y2972500D03*
Y3522500D03*
X700000Y90000D03*
X695000Y280000D03*
X795000Y219500D03*
X740000Y395000D03*
X739000Y649000D03*
X740000Y522000D03*
X795000Y870000D03*
X762500Y1522500D03*
Y1272500D03*
X712500Y1722500D03*
X512500Y1972500D03*
X812500D03*
Y2172500D03*
Y2372500D03*
X512500Y2172500D03*
Y2372500D03*
X812500Y2572500D03*
X512500D03*
X812500Y2722500D03*
X512500D03*
Y2972500D03*
X762500D03*
X512500Y3172500D03*
X762500D03*
X512500Y3372500D03*
X762500D03*
X512500Y3522500D03*
X1045000Y350000D03*
Y85000D03*
X1190000Y500000D03*
X1030000Y800000D03*
Y685000D03*
X920000Y585000D03*
X1030000D03*
X1062500Y1222500D03*
X1212500Y872500D03*
X1012500Y922500D03*
X862500Y1072500D03*
X1200000Y1180000D03*
X1012500Y1322500D03*
X1155000Y1310000D03*
X995000Y1410000D03*
X1100000D03*
X1065000Y1825000D03*
X1012500Y1922500D03*
X1225000Y2180000D03*
X1012500Y2372500D03*
Y2172500D03*
X1033500Y2741500D03*
X1222500Y2737500D03*
X1012500Y2572500D03*
X1217500Y2527500D03*
X1222500Y2917500D03*
X1037500Y3097500D03*
X870000Y2917500D03*
X1205000Y3510000D03*
X867500Y3477500D03*
X1032500Y3292500D03*
X1575000Y80000D03*
X1320000D03*
X1255000Y1260000D03*
X1430000Y1765000D03*
X1235000Y1920000D03*
X1295000Y1984870D03*
X1350000Y2375000D03*
X1235000Y2050000D03*
X1310000Y2114500D03*
Y2245000D03*
X1593500Y2741500D03*
X1402500Y2732500D03*
Y2522500D03*
Y2917500D03*
X1420000Y3510000D03*
X1312500Y3422500D03*
X1825000Y85000D03*
X1853000Y415000D03*
X1910000Y805000D03*
X1700000Y525000D03*
X1955000Y690000D03*
X1803000Y475000D03*
X1700000Y1050000D03*
Y950000D03*
X1735000Y1445000D03*
X1970000D03*
X1665300Y1620000D03*
X1915000Y2725000D03*
X1715000Y2650000D03*
X1815000D03*
X1817500Y2797500D03*
X1712500Y2737500D03*
X1635000Y2540000D03*
X1912500Y2877500D03*
X1755000Y2917500D03*
X1745000Y3582300D03*
X1905000Y3290000D03*
X1752500Y3477500D03*
X2340000Y85000D03*
X2080000D03*
X2350000Y835000D03*
X2062500Y822500D03*
X2220000Y810000D03*
X2135000Y750000D03*
X2305000Y1070000D03*
X2062500Y1072500D03*
Y922500D03*
X2200000Y1190000D03*
X2050000D03*
X2260000Y1580000D03*
X2275000Y1265000D03*
Y1415000D03*
X2125000D03*
Y1265000D03*
X2200000Y1340000D03*
X2350000D03*
Y1490000D03*
X2200000D03*
X2050000D03*
Y1340000D03*
X2275000Y2644000D03*
X2227500Y2887500D03*
X2127500D03*
X2027500D03*
X2220000Y3545000D03*
X2222500Y3422500D03*
Y3287500D03*
X2377500D03*
X2362500Y3472500D03*
X2585000Y85000D03*
X2520000Y835000D03*
X2460000Y630000D03*
X2661700Y1063300D03*
X2492710Y1070000D03*
X2575000Y1415000D03*
X2425000D03*
X2500000Y1340000D03*
Y1490000D03*
X2600000Y1845000D03*
X2595000Y1975000D03*
X2545000Y1909500D03*
X2540000Y1770000D03*
X2560000Y2225000D03*
Y2095000D03*
X2730000Y2250000D03*
X2510000Y2160000D03*
X2592500Y2757500D03*
X2607500Y2647500D03*
X2707500Y2657500D03*
X2712500Y2772500D03*
X2575000Y3035000D03*
X2587500Y3162500D03*
Y2912500D03*
X2712500Y2972500D03*
X2527500Y3287500D03*
X2712500Y3472500D03*
Y3222500D03*
X2990000Y125000D03*
X2985000Y315000D03*
X3180000D03*
Y125000D03*
X3162500Y772500D03*
X3150000Y1030000D03*
X3162500Y1422500D03*
X3140000Y1255000D03*
X2810000Y1555000D03*
Y1475000D03*
X2812500Y1922500D03*
X3062500D03*
Y1722500D03*
X3162500Y1622500D03*
X2962500Y1822500D03*
X2810000Y1710000D03*
Y1785400D03*
Y1635000D03*
X2905000Y2335000D03*
X2820000Y2250000D03*
X3062500Y2372500D03*
X2812500Y2122500D03*
X3062500Y2172500D03*
X2962500Y2222500D03*
Y2022500D03*
X2820000Y2515000D03*
X2905000Y2430000D03*
X3062500Y2772500D03*
X2862500Y2622500D03*
X3062500Y2572500D03*
Y2972500D03*
Y3472500D03*
Y3222500D03*
X3435000Y80000D03*
X3202000Y522000D03*
X3412500Y1922500D03*
X3312500Y1722500D03*
X3412500Y2372500D03*
Y2172500D03*
Y2772500D03*
Y2572500D03*
Y2972500D03*
Y3472500D03*
Y3222500D03*
X3812500Y722500D03*
X3778000Y522000D03*
X3812500Y1022500D03*
X3778000Y1538000D03*
X3812500Y1322500D03*
X3712500Y1922500D03*
Y1722500D03*
Y2372500D03*
Y2172500D03*
Y2772500D03*
Y2572500D03*
Y2972500D03*
X3812500Y3472500D03*
X3862500Y3222500D03*
G54D12*
X1192000Y219500D03*
X938000D03*
X1446000D03*
X1954000D03*
X1700000D03*
X2462000D03*
X2208000D03*
X2716000D03*
G54D13*
X1827500Y1995900D03*
X1927500D03*
X2027500D03*
X1827500Y1895900D03*
X1927500D03*
X2027500D03*
X1827500Y2095900D03*
X1927500D03*
X2027500D03*
X1900000Y4791950D03*
X2099900Y4292070D03*
X2299900D03*
Y4791950D03*
X2099900D03*
X2699900Y4292070D03*
X2499900D03*
X2699900Y4791950D03*
X2499900D03*
X3099900Y4292070D03*
X2899900D03*
X3099900Y4791950D03*
X2899900D03*
X3499900Y4292070D03*
X3299900D03*
X3499900Y4791950D03*
X3299900D03*
X3699900Y4292070D03*
Y4791950D03*
G54D14*
G01X938000Y106700D02*
Y219500D01*
G01D02*
Y332300D01*
G01X825200Y219500D02*
X938000D01*
G01D02*
X1050800D01*
G01X1192000D02*
Y498000D01*
X1190000Y500000D01*
G01X1030000Y800000D02*
X1045000D01*
X1446000Y399000D01*
Y219500D01*
G01X1700000D02*
Y525000D01*
G01X1954000Y219500D02*
Y689000D01*
X1955000Y690000D01*
G01X2208000Y219500D02*
Y677000D01*
X2135000Y750000D01*
G01X2462000Y219500D02*
Y628000D01*
X2460000Y630000D01*
G54D15*
G01X2716000Y219500D02*
Y469000D01*
X2445000Y740000D01*
X2290000D01*
X2220000Y810000D01*
M02*
