G04 ================== begin FILE IDENTIFICATION RECORD ==================*
G04 Layout Name:  CC120xEM_868_930.brd*
G04 Film Name:    silk_top*
G04 File Format:  Gerber RS274X*
G04 File Origin:  Cadence Allegro 16.5-S017*
G04 Origin Date:  Fri Jan 25 12:57:48 2013*
G04 *
G04 Layer:  REF DES/SILKSCREEN_TOP*
G04 Layer:  PACKAGE GEOMETRY/SILKSCREEN_TOP*
G04 Layer:  MANUFACTURING/AUTOSILK_TOP*
G04 Layer:  BOARD GEOMETRY/OUTLINE*
G04 *
G04 Offset:    (0.0000 0.0000)*
G04 Mirror:    No*
G04 Mode:      Positive*
G04 Rotation:  0*
G04 FullContactRelief:  No*
G04 UndefLineWidth:     0.0100*
G04 ================== end FILE IDENTIFICATION RECORD ====================*
%FSLAX25Y25*MOMM*%
%IR0*IPPOS*OFA0.00000B0.00000*MIA0B0*SFA1.00000B1.00000*%
%ADD10C,.1*%
%ADD11C,.15*%
%ADD12C,.003*%
%ADD13C,.05*%
%ADD14C,.01*%
G75*
%LPD*%
G75*
G36*
G01X2347150Y4052460D02*
X2324360D01*
Y4120000D01*
X2230000D01*
Y3978870D01*
X2129790D01*
X2130630Y3975310D01*
X2131490Y3971780D01*
X2132420Y3968290D01*
X2133430Y3964870D01*
X2134560Y3961530D01*
X2135850Y3958310D01*
X2137310Y3955220D01*
X2138980Y3952280D01*
X2140890Y3949520D01*
X2141950Y3948210D01*
X2145500Y3944570D01*
X2148120Y3942310D01*
X2150860Y3940140D01*
X2153650Y3938010D01*
X2156440Y3935850D01*
X2159500Y3933320D01*
X2161740Y3931270D01*
X2164210Y3928810D01*
X2166560Y3926260D01*
X2168830Y3923630D01*
X2171040Y3920950D01*
X2173200Y3918230D01*
X2175350Y3915490D01*
X2176350Y3911920D01*
X2177370Y3908360D01*
X2178400Y3904800D01*
X2179470Y3901250D01*
X2180580Y3897710D01*
X2181740Y3894200D01*
X2182960Y3890700D01*
X2184250Y3887230D01*
X2185630Y3883780D01*
X2187100Y3880370D01*
X2189210Y3875880D01*
X2190350Y3873650D01*
X2192210Y3870410D01*
X2194320Y3867350D01*
X2196760Y3864540D01*
X2199710Y3862000D01*
X2202930Y3860030D01*
X2206570Y3858520D01*
X2210350Y3857650D01*
X2214090Y3857530D01*
X2216940Y3858060D01*
X2220800Y3859910D01*
X2223700Y3862220D01*
X2226370Y3865000D01*
X2228820Y3867960D01*
X2231270Y3871100D01*
X2233640Y3874110D01*
X2236070Y3876970D01*
X2238650Y3879590D01*
X2241450Y3881880D01*
X2244660Y3883800D01*
X2248050Y3885110D01*
X2252590Y3885780D01*
X2255410Y3885530D01*
X2258990Y3884480D01*
X2262400Y3882770D01*
X2266450Y3879840D01*
X2268380Y3878070D01*
X2270900Y3875310D01*
X2273160Y3872370D01*
X2275220Y3869290D01*
X2277140Y3866110D01*
X2278330Y3864000D01*
X2280730Y3859610D01*
X2282440Y3856320D01*
X2284120Y3853020D01*
X2285760Y3849700D01*
X2287360Y3846360D01*
X2288930Y3843010D01*
X2290210Y3840230D01*
X2292020Y3836270D01*
X2293540Y3832890D01*
X2295060Y3829510D01*
X2296590Y3826140D01*
X2298140Y3822770D01*
X2299710Y3819420D01*
X2302100Y3814490D01*
X2302960Y3812770D01*
X2304650Y3809490D01*
X2306410Y3806240D01*
X2308240Y3803030D01*
X2310150Y3799860D01*
X2312150Y3796740D01*
X2314250Y3793670D01*
X2316460Y3790650D01*
X2317940Y3788740D01*
X2321230Y3784810D01*
X2323790Y3782010D01*
X2326450Y3779300D01*
X2329180Y3776700D01*
X2331990Y3774220D01*
X2334850Y3771870D01*
X2337750Y3769670D01*
X2341710Y3766950D01*
X2343630Y3765760D01*
X2346610Y3764060D01*
X2349650Y3762550D01*
X2352780Y3761220D01*
X2356020Y3760060D01*
X2359410Y3759090D01*
X2362970Y3758310D01*
X2366740Y3757700D01*
X2370740Y3757290D01*
X2374990Y3757060D01*
X2381320Y3757050D01*
X2384390Y3757170D01*
X2389370Y3757540D01*
X2394160Y3758190D01*
X2398450Y3759170D01*
X2401910Y3760540D01*
X2404230Y3762330D01*
X2405080Y3764970D01*
X2404290Y3767420D01*
X2402210Y3770610D01*
X2399490Y3773980D01*
X2398050Y3783490D01*
X2396890Y3792880D01*
X2396280Y3802000D01*
X2396510Y3810740D01*
X2397510Y3817550D01*
X2400450Y3826600D01*
X2404270Y3833680D01*
X2409180Y3840250D01*
X2415080Y3846360D01*
X2421860Y3852070D01*
X2429400Y3857420D01*
X2437600Y3862460D01*
X2446360Y3867250D01*
X2455550Y3871840D01*
X2465070Y3876270D01*
X2474800Y3880610D01*
X2484650Y3884890D01*
X2502130D01*
Y3965000D01*
X2484300Y3982830D01*
Y4052460D01*
X2403100D01*
X2393200Y3999710D01*
X2416970D01*
X2411030Y3966140D01*
X2389240D01*
X2375870Y3895590D01*
X2393140Y3895690D01*
Y3867430D01*
G02X2385940Y3858240I-8034J-1121D01*
G01X2330360D01*
G02X2313970Y3871030I-1089J15502D01*
G01Y3879020D01*
X2329560Y3966140D01*
X2306370D01*
X2313570Y3999710D01*
X2338360D01*
X2347150Y4052460D01*
G37*
G36*
G01X2355570D02*
X2323880Y3895690D01*
X2365470D01*
X2397160Y4052460D01*
X2355570D01*
G37*
G36*
G01X2347150D02*
X2324360D01*
Y4120000D01*
X2230000D01*
Y3978870D01*
X2129790D01*
X2130630Y3975310D01*
X2131490Y3971780D01*
X2132420Y3968290D01*
X2133430Y3964870D01*
X2134560Y3961530D01*
X2135850Y3958310D01*
X2137310Y3955220D01*
X2138980Y3952280D01*
X2140890Y3949520D01*
X2141950Y3948210D01*
X2145500Y3944570D01*
X2148120Y3942310D01*
X2150860Y3940140D01*
X2153650Y3938010D01*
X2156440Y3935850D01*
X2159500Y3933320D01*
X2161740Y3931270D01*
X2164210Y3928810D01*
X2166560Y3926260D01*
X2168830Y3923630D01*
X2171040Y3920950D01*
X2173200Y3918230D01*
X2175350Y3915490D01*
X2176350Y3911920D01*
X2177370Y3908360D01*
X2178400Y3904800D01*
X2179470Y3901250D01*
X2180580Y3897710D01*
X2181740Y3894200D01*
X2182960Y3890700D01*
X2184250Y3887230D01*
X2185630Y3883780D01*
X2187100Y3880370D01*
X2189210Y3875880D01*
X2190350Y3873650D01*
X2192210Y3870410D01*
X2194320Y3867350D01*
X2196760Y3864540D01*
X2199710Y3862000D01*
X2202930Y3860030D01*
X2206570Y3858520D01*
X2210350Y3857650D01*
X2214090Y3857530D01*
X2216940Y3858060D01*
X2220800Y3859910D01*
X2223700Y3862220D01*
X2226370Y3865000D01*
X2228820Y3867960D01*
X2231270Y3871100D01*
X2233640Y3874110D01*
X2236070Y3876970D01*
X2238650Y3879590D01*
X2241450Y3881880D01*
X2244660Y3883800D01*
X2248050Y3885110D01*
X2252590Y3885780D01*
X2255410Y3885530D01*
X2258990Y3884480D01*
X2262400Y3882770D01*
X2266450Y3879840D01*
X2268380Y3878070D01*
X2270900Y3875310D01*
X2273160Y3872370D01*
X2275220Y3869290D01*
X2277140Y3866110D01*
X2278330Y3864000D01*
X2280730Y3859610D01*
X2282440Y3856320D01*
X2284120Y3853020D01*
X2285760Y3849700D01*
X2287360Y3846360D01*
X2288930Y3843010D01*
X2290210Y3840230D01*
X2292020Y3836270D01*
X2293540Y3832890D01*
X2295060Y3829510D01*
X2296590Y3826140D01*
X2298140Y3822770D01*
X2299710Y3819420D01*
X2302100Y3814490D01*
X2302960Y3812770D01*
X2304650Y3809490D01*
X2306410Y3806240D01*
X2308240Y3803030D01*
X2310150Y3799860D01*
X2312150Y3796740D01*
X2314250Y3793670D01*
X2316460Y3790650D01*
X2317940Y3788740D01*
X2321230Y3784810D01*
X2323790Y3782010D01*
X2326450Y3779300D01*
X2329180Y3776700D01*
X2331990Y3774220D01*
X2334850Y3771870D01*
X2337750Y3769670D01*
X2341710Y3766950D01*
X2343630Y3765760D01*
X2346610Y3764060D01*
X2349650Y3762550D01*
X2352780Y3761220D01*
X2356020Y3760060D01*
X2359410Y3759090D01*
X2362970Y3758310D01*
X2366740Y3757700D01*
X2370740Y3757290D01*
X2374990Y3757060D01*
X2381320Y3757050D01*
X2384390Y3757170D01*
X2389370Y3757540D01*
X2394160Y3758190D01*
X2398450Y3759170D01*
X2401910Y3760540D01*
X2404230Y3762330D01*
X2405080Y3764970D01*
X2404290Y3767420D01*
X2402210Y3770610D01*
X2399490Y3773980D01*
X2398050Y3783490D01*
X2396890Y3792880D01*
X2396280Y3802000D01*
X2396510Y3810740D01*
X2397510Y3817550D01*
X2400450Y3826600D01*
X2404270Y3833680D01*
X2409180Y3840250D01*
X2415080Y3846360D01*
X2421860Y3852070D01*
X2429400Y3857420D01*
X2437600Y3862460D01*
X2446360Y3867250D01*
X2455550Y3871840D01*
X2465070Y3876270D01*
X2474800Y3880610D01*
X2484650Y3884890D01*
X2502130D01*
Y3965000D01*
X2484300Y3982830D01*
Y4052460D01*
X2403100D01*
X2393200Y3999710D01*
X2416970D01*
X2411030Y3966140D01*
X2389240D01*
X2375870Y3895590D01*
X2393140Y3895690D01*
Y3867430D01*
G02X2385940Y3858240I-8034J-1121D01*
G01X2330360D01*
G02X2313970Y3871030I-1089J15502D01*
G01Y3879020D01*
X2329560Y3966140D01*
X2306370D01*
X2313570Y3999710D01*
X2338360D01*
X2347150Y4052460D01*
G37*
G36*
G01X2355570D02*
X2323880Y3895690D01*
X2365470D01*
X2397160Y4052460D01*
X2355570D01*
G37*
G36*
G01Y4058090D02*
X2364710Y4097870D01*
X2406300D01*
X2397160Y4058090D01*
X2355570D01*
G37*
G36*
G01D02*
X2364710Y4097870D01*
X2406300D01*
X2397160Y4058090D01*
X2355570D01*
G37*
G36*
G01X2645170Y3905610D02*
Y3896230D01*
X2593780D01*
Y3905610D01*
X2599490D01*
G03X2604420Y3910540I1J4929D01*
G01Y4024930D01*
G03X2599490Y4029860I-4928J2D01*
G01X2570290D01*
G03X2566810Y4028430I-8J-4931D01*
G01X2553690Y4015360D01*
X2558500Y4046040D01*
X2680450D01*
X2685260Y4015360D01*
X2672140Y4028430D01*
G03X2668660Y4029860I-3472J-3500D01*
G01X2639460D01*
G03X2634530Y4024930I-1J-4929D01*
G01Y3910540D01*
G03X2639460Y3905610I4930J0D01*
G01X2645170D01*
G37*
G36*
G01X2779610Y4000680D02*
X2810380Y3957150D01*
G02X2810400Y3952610I-3234J-2284D01*
G01X2779870Y3908610D01*
G02X2776610Y3906900I-3260J2252D01*
G01X2768880D01*
Y3896230D01*
X2805110D01*
Y3906900D01*
X2798290D01*
X2821260Y3941770D01*
X2845900Y3906900D01*
X2838620D01*
Y3896230D01*
X2879710D01*
Y3906900D01*
X2878510D01*
G02X2875270Y3908600I12J3961D01*
G01X2844450Y3952720D01*
G02X2844360Y3957120I3245J2267D01*
G01X2872090Y4000530D01*
G02X2875430Y4002360I3339J-2131D01*
G01X2884400D01*
Y4015260D01*
X2841720D01*
Y4005980D01*
Y4002360D01*
X2853180D01*
X2832560Y3971050D01*
X2811930Y4002360D01*
X2824540D01*
Y4015260D01*
X2768620D01*
Y4002360D01*
X2776380D01*
G02X2779610Y4000680I-8J-3960D01*
G37*
G36*
G01X2744470Y3971440D02*
X2747330D01*
Y3941830D01*
X2744470D01*
X2740480Y3946920D01*
G03X2737360Y3948430I-3111J-2450D01*
G01X2696890D01*
Y3910120D01*
X2747910D01*
G03X2750770Y3911340I1J3961D01*
G01X2763120Y3924250D01*
X2766540D01*
X2757780Y3898900D01*
G02X2754030Y3896230I-3745J1291D01*
G01X2663370D01*
Y3900480D01*
X2674540Y3906330D01*
G03X2676660Y3909840I-1841J3507D01*
G01Y3998230D01*
G03X2674710Y4001640I-3959J-2D01*
G01X2663370Y4008330D01*
Y4015100D01*
X2749280D01*
G02X2752940Y4012650I-1J-3961D01*
G01X2763690Y3986660D01*
X2757800Y3984230D01*
X2747300Y3995690D01*
G03X2744380Y3996970I-2916J-2681D01*
G01X2696890D01*
Y3966480D01*
X2737700D01*
G03X2740440Y3967580I0J3963D01*
G01X2744470Y3971440D01*
G37*
G36*
G01X2633810Y3737130D02*
G03X2641730Y3729210I7921J1D01*
G01X2645980D01*
Y3720150D01*
X2593780Y3720020D01*
Y3729210D01*
X2598030D01*
G03X2605950Y3737130I-1J7921D01*
G01Y3859910D01*
G03X2598030Y3867840I-7922J8D01*
G01X2593780D01*
Y3874640D01*
X2645170D01*
Y3867840D01*
X2641730D01*
G03X2633810Y3859910I3J-7923D01*
G01Y3737130D01*
G37*
G36*
G01X2652890Y3729210D02*
X2660390D01*
G03X2664360Y3733170I8J3962D01*
G01Y3826150D01*
G03X2660390Y3830110I-3961J-1D01*
G01X2652330D01*
Y3838890D01*
X2688830D01*
G02X2691830Y3837520I4J-3960D01*
G01X2748580Y3771780D01*
Y3825360D01*
G03X2744620Y3829320I-3959J1D01*
G01X2734940D01*
Y3838890D01*
X2774830D01*
Y3829320D01*
X2766430D01*
G03X2762470Y3825360I-1J-3959D01*
G01Y3720150D01*
X2756300D01*
G02X2753310Y3721520I5J3958D01*
G01X2684680Y3801020D01*
Y3733170D01*
G03X2688640Y3729210I3961J1D01*
G01X2694560D01*
Y3720150D01*
X2652890D01*
Y3729210D01*
G37*
G36*
G01X2645170Y3905610D02*
Y3896230D01*
X2593780D01*
Y3905610D01*
X2599490D01*
G03X2604420Y3910540I1J4929D01*
G01Y4024930D01*
G03X2599490Y4029860I-4928J2D01*
G01X2570290D01*
G03X2566810Y4028430I-8J-4931D01*
G01X2553690Y4015360D01*
X2558500Y4046040D01*
X2680450D01*
X2685260Y4015360D01*
X2672140Y4028430D01*
G03X2668660Y4029860I-3472J-3500D01*
G01X2639460D01*
G03X2634530Y4024930I-1J-4929D01*
G01Y3910540D01*
G03X2639460Y3905610I4930J0D01*
G01X2645170D01*
G37*
G36*
G01X2779610Y4000680D02*
X2810380Y3957150D01*
G02X2810400Y3952610I-3234J-2284D01*
G01X2779870Y3908610D01*
G02X2776610Y3906900I-3260J2252D01*
G01X2768880D01*
Y3896230D01*
X2805110D01*
Y3906900D01*
X2798290D01*
X2821260Y3941770D01*
X2845900Y3906900D01*
X2838620D01*
Y3896230D01*
X2879710D01*
Y3906900D01*
X2878510D01*
G02X2875270Y3908600I12J3961D01*
G01X2844450Y3952720D01*
G02X2844360Y3957120I3245J2267D01*
G01X2872090Y4000530D01*
G02X2875430Y4002360I3339J-2131D01*
G01X2884400D01*
Y4015260D01*
X2841720D01*
Y4005980D01*
Y4002360D01*
X2853180D01*
X2832560Y3971050D01*
X2811930Y4002360D01*
X2824540D01*
Y4015260D01*
X2768620D01*
Y4002360D01*
X2776380D01*
G02X2779610Y4000680I-8J-3960D01*
G37*
G36*
G01X2744470Y3971440D02*
X2747330D01*
Y3941830D01*
X2744470D01*
X2740480Y3946920D01*
G03X2737360Y3948430I-3111J-2450D01*
G01X2696890D01*
Y3910120D01*
X2747910D01*
G03X2750770Y3911340I1J3961D01*
G01X2763120Y3924250D01*
X2766540D01*
X2757780Y3898900D01*
G02X2754030Y3896230I-3745J1291D01*
G01X2663370D01*
Y3900480D01*
X2674540Y3906330D01*
G03X2676660Y3909840I-1841J3507D01*
G01Y3998230D01*
G03X2674710Y4001640I-3959J-2D01*
G01X2663370Y4008330D01*
Y4015100D01*
X2749280D01*
G02X2752940Y4012650I-1J-3961D01*
G01X2763690Y3986660D01*
X2757800Y3984230D01*
X2747300Y3995690D01*
G03X2744380Y3996970I-2916J-2681D01*
G01X2696890D01*
Y3966480D01*
X2737700D01*
G03X2740440Y3967580I0J3963D01*
G01X2744470Y3971440D01*
G37*
G36*
G01X2633810Y3737130D02*
G03X2641730Y3729210I7921J1D01*
G01X2645980D01*
Y3720150D01*
X2593780Y3720020D01*
Y3729210D01*
X2598030D01*
G03X2605950Y3737130I-1J7921D01*
G01Y3859910D01*
G03X2598030Y3867840I-7922J8D01*
G01X2593780D01*
Y3874640D01*
X2645170D01*
Y3867840D01*
X2641730D01*
G03X2633810Y3859910I3J-7923D01*
G01Y3737130D01*
G37*
G36*
G01X2652890Y3729210D02*
X2660390D01*
G03X2664360Y3733170I8J3962D01*
G01Y3826150D01*
G03X2660390Y3830110I-3961J-1D01*
G01X2652330D01*
Y3838890D01*
X2688830D01*
G02X2691830Y3837520I4J-3960D01*
G01X2748580Y3771780D01*
Y3825360D01*
G03X2744620Y3829320I-3959J1D01*
G01X2734940D01*
Y3838890D01*
X2774830D01*
Y3829320D01*
X2766430D01*
G03X2762470Y3825360I-1J-3959D01*
G01Y3720150D01*
X2756300D01*
G02X2753310Y3721520I5J3958D01*
G01X2684680Y3801020D01*
Y3733170D01*
G03X2688640Y3729210I3961J1D01*
G01X2694560D01*
Y3720150D01*
X2652890D01*
Y3729210D01*
G37*
G36*
G01X3370000Y2832890D02*
Y2904430D01*
G03Y2405000I-11915J-249715D01*
G01Y2476540D01*
G02Y2832890I-11900J178175D01*
G37*
G36*
G01D02*
Y2904430D01*
G03Y2405000I-11915J-249715D01*
G01Y2476540D01*
G02Y2832890I-11900J178175D01*
G37*
G36*
G01X2945810Y3727560D02*
Y3720150D01*
X2905220D01*
Y3727560D01*
X2909730D01*
G03X2913620Y3731450I-2J3892D01*
G01Y3821820D01*
G03X2909730Y3825720I-3895J5D01*
G01X2886660D01*
G03X2883910Y3824580I4J-3896D01*
G01X2873550Y3814260D01*
X2877350Y3838500D01*
X2973680D01*
X2977480Y3814260D01*
X2967120Y3824580D01*
G03X2964370Y3825720I-2754J-2756D01*
G01X2941300D01*
G03X2937410Y3821820I5J-3895D01*
G01Y3731450D01*
G03X2941300Y3727560I3893J3D01*
G01X2945810D01*
G37*
G36*
G01X2956340Y3896230D02*
Y3906900D01*
X2959740D01*
G03X2963470Y3912200I-2J3964D01*
G01X2935510Y3990400D01*
X2916610Y3941670D01*
X2952310D01*
X2956390Y3930270D01*
X2912150Y3930160D01*
X2905220Y3912300D01*
G03X2908910Y3906900I3693J-1437D01*
G01X2909600D01*
Y3896230D01*
X2882240D01*
Y3906900D01*
X2882780D01*
G03X2886470Y3909440I-7J3961D01*
G01X2927350Y4015260D01*
X2954190D01*
X2992970Y3909500D01*
G03X2996680Y3906900I3720J1361D01*
G01X3001000D01*
Y3896230D01*
X2956340D01*
G37*
G36*
G01X2993960Y3731310D02*
Y3827640D01*
G03X2990000Y3831600I-3960J0D01*
G01X2982690D01*
Y3838290D01*
X3056470D01*
X3058880Y3837940D01*
X3061280Y3837540D01*
X3062470Y3837310D01*
X3063650Y3837040D01*
X3065130Y3836640D01*
X3065980Y3836380D01*
X3067130Y3835980D01*
X3068270Y3835540D01*
X3069390Y3835050D01*
X3070490Y3834510D01*
X3071560Y3833930D01*
X3072620Y3833300D01*
X3073650Y3832630D01*
X3074650Y3831920D01*
X3075620Y3831170D01*
X3076560Y3830370D01*
X3077470Y3829530D01*
X3077980Y3829030D01*
X3079180Y3827730D01*
X3079970Y3826780D01*
X3080720Y3825790D01*
X3081420Y3824770D01*
X3082080Y3823720D01*
X3082680Y3822640D01*
X3083230Y3821540D01*
X3083710Y3820420D01*
X3084140Y3819280D01*
X3084510Y3818130D01*
X3084850Y3816790D01*
X3085040Y3815780D01*
X3085210Y3814600D01*
X3085330Y3813400D01*
X3085410Y3812200D01*
X3085460Y3810990D01*
X3085550Y3806090D01*
X3085590Y3805000D01*
X3085670Y3803620D01*
X3085830Y3801150D01*
X3085880Y3799920D01*
X3085910Y3798700D01*
X3085890Y3797480D01*
X3085810Y3796280D01*
X3085660Y3795090D01*
X3085540Y3794510D01*
X3085410Y3793920D01*
X3085290Y3793510D01*
X3085060Y3792770D01*
X3084840Y3792210D01*
X3084600Y3791650D01*
X3084340Y3791090D01*
X3084050Y3790550D01*
X3083420Y3789480D01*
X3082710Y3788450D01*
X3081940Y3787460D01*
X3081100Y3786520D01*
X3080230Y3785630D01*
X3079310Y3784800D01*
X3078370Y3784030D01*
X3077680Y3783510D01*
X3076440Y3782680D01*
X3075450Y3782090D01*
X3074460Y3781550D01*
X3073450Y3781040D01*
X3072430Y3780560D01*
X3070340Y3779630D01*
X3069270Y3779160D01*
X3068190Y3778670D01*
X3067100Y3778150D01*
X3065980Y3777590D01*
X3064850Y3776990D01*
X3063700Y3776320D01*
X3062540Y3775590D01*
X3061250Y3774700D01*
X3060760Y3774340D01*
X3060480Y3774110D01*
X3060230Y3773880D01*
X3060000Y3773660D01*
X3059820Y3773430D01*
X3059690Y3773210D01*
X3059610Y3772910D01*
X3059620Y3772770D01*
X3059680Y3772570D01*
X3059810Y3772360D01*
X3059990Y3772160D01*
X3060210Y3771970D01*
X3060470Y3771780D01*
X3061080Y3771410D01*
X3062150Y3770820D01*
X3063050Y3770310D01*
X3063650Y3769940D01*
X3064220Y3769580D01*
X3064760Y3769210D01*
X3065270Y3768840D01*
X3065760Y3768460D01*
X3066680Y3767700D01*
X3067530Y3766930D01*
X3068320Y3766130D01*
X3069080Y3765310D01*
X3069950Y3764320D01*
X3070570Y3763590D01*
X3071310Y3762690D01*
X3072060Y3761770D01*
X3072800Y3760810D01*
X3073530Y3759840D01*
X3074960Y3757830D01*
X3075650Y3756800D01*
X3076320Y3755750D01*
X3076970Y3754700D01*
X3077320Y3754110D01*
X3078780Y3751480D01*
X3079910Y3749310D01*
X3081030Y3747170D01*
X3082190Y3745050D01*
X3082810Y3744020D01*
X3083450Y3743000D01*
X3083860Y3742390D01*
X3084830Y3741030D01*
X3085570Y3740080D01*
X3086340Y3739140D01*
X3087140Y3738230D01*
X3087960Y3737330D01*
X3089660Y3735570D01*
X3091800Y3733490D01*
X3093180Y3732200D01*
X3094980Y3730570D01*
X3097470Y3728350D01*
G03X3100110Y3727350I2631J2961D01*
G01X3105070D01*
Y3719940D01*
X3077570D01*
G02X3074630Y3721250I3J3960D01*
G01X3069130Y3727350D01*
X3068220Y3728360D01*
X3067320Y3729370D01*
X3066420Y3730390D01*
X3065530Y3731410D01*
X3064650Y3732450D01*
X3063790Y3733490D01*
X3062950Y3734560D01*
X3062130Y3735640D01*
X3061430Y3736590D01*
X3060570Y3737850D01*
X3059830Y3738990D01*
X3059130Y3740160D01*
X3058450Y3741340D01*
X3057810Y3742530D01*
X3057210Y3743750D01*
X3056640Y3744990D01*
X3056130Y3746170D01*
X3055600Y3747510D01*
X3055120Y3748780D01*
X3054660Y3750060D01*
X3054190Y3751340D01*
X3053710Y3752610D01*
X3053210Y3753860D01*
X3052670Y3755100D01*
X3052360Y3755750D01*
X3051450Y3757490D01*
X3050770Y3758660D01*
X3050060Y3759810D01*
X3049340Y3760960D01*
X3048600Y3762120D01*
X3048090Y3762930D01*
X3047130Y3764460D01*
X3046380Y3765620D01*
X3045590Y3766740D01*
X3044750Y3767810D01*
X3043840Y3768780D01*
X3043080Y3769450D01*
X3041720Y3770390D01*
X3040530Y3771050D01*
X3039300Y3771640D01*
X3038030Y3772210D01*
X3017620D01*
Y3783360D01*
X3041120D01*
X3042490Y3783470D01*
X3043860Y3783600D01*
X3044880Y3783700D01*
X3046600Y3783930D01*
X3047950Y3784180D01*
X3049290Y3784510D01*
X3050010Y3784730D01*
X3051900Y3785500D01*
X3053160Y3786160D01*
X3054370Y3786920D01*
X3055520Y3787770D01*
X3056600Y3788710D01*
X3057610Y3789730D01*
X3058530Y3790810D01*
X3059350Y3791960D01*
X3060060Y3793160D01*
X3060600Y3794290D01*
X3061120Y3795690D01*
X3061470Y3797010D01*
X3061730Y3798350D01*
X3061900Y3799720D01*
X3061990Y3801110D01*
X3062030Y3802510D01*
X3062020Y3803920D01*
X3061970Y3805560D01*
X3061910Y3806760D01*
X3061820Y3808170D01*
X3061690Y3809570D01*
X3061520Y3810950D01*
X3061290Y3812320D01*
X3060990Y3813670D01*
X3060610Y3814990D01*
X3060150Y3816270D01*
X3059590Y3817530D01*
X3059230Y3818200D01*
X3058130Y3819900D01*
X3057250Y3821000D01*
X3056280Y3822020D01*
X3055220Y3822950D01*
X3054090Y3823780D01*
X3052890Y3824480D01*
X3052070Y3824870D01*
X3050340Y3825480D01*
X3049010Y3825800D01*
X3047650Y3826050D01*
X3046270Y3826230D01*
X3044880Y3826400D01*
X3017200D01*
Y3731310D01*
G03X3021160Y3727350I3960J0D01*
G01X3030190D01*
Y3719940D01*
X2982690D01*
Y3727350D01*
X2990000D01*
G03X2993960Y3731310I1J3959D01*
G37*
G36*
G01X3134150Y3720180D02*
X3188470D01*
G03X3208680Y3742180I-2071J22185D01*
G01Y3827640D01*
G02X3212640Y3831600I3960J0D01*
G01X3218510D01*
Y3838870D01*
X3180020D01*
Y3831600D01*
X3188230D01*
G02X3192190Y3827640I-2J-3962D01*
G01Y3748460D01*
G02X3173310Y3733860I-17976J3738D01*
G01X3151610D01*
G02X3134470Y3748460I475J17918D01*
G01Y3827640D01*
G02X3138430Y3831600I3962J-2D01*
G01X3147040D01*
Y3838870D01*
X3094820D01*
Y3831600D01*
X3104990D01*
G02X3108950Y3827640I0J-3960D01*
G01Y3751380D01*
G03X3134150Y3720180I32235J259D01*
G37*
G36*
G01X2787160Y3721290D02*
X2777200Y3757970D01*
X2781800Y3759100D01*
X2783730Y3756470D01*
X2785680Y3753870D01*
X2787670Y3751340D01*
X2789710Y3748910D01*
X2791830Y3746610D01*
X2794050Y3744470D01*
X2796380Y3742540D01*
X2798840Y3740840D01*
X2801560Y3739350D01*
X2804240Y3738250D01*
X2807170Y3737330D01*
X2810200Y3736570D01*
X2813870Y3735790D01*
X2816440Y3735280D01*
X2819600Y3734710D01*
X2822770Y3734240D01*
X2825930Y3733920D01*
X2829070Y3733810D01*
X2832170Y3733940D01*
X2835230Y3734360D01*
X2838220Y3735140D01*
X2841390Y3736440D01*
X2843930Y3737920D01*
X2846480Y3739930D01*
X2848590Y3742310D01*
X2850460Y3746150D01*
X2850790Y3748000D01*
X2850700Y3751150D01*
X2849910Y3754290D01*
X2848520Y3757280D01*
X2845930Y3760720D01*
X2844350Y3762130D01*
X2841760Y3763840D01*
X2838930Y3765150D01*
X2835950Y3766150D01*
X2831680Y3767190D01*
X2829800Y3767560D01*
X2826740Y3768110D01*
X2823700Y3768590D01*
X2820670Y3769030D01*
X2817640Y3769460D01*
X2814610Y3769910D01*
X2811570Y3770390D01*
X2808530Y3770940D01*
X2805470Y3771580D01*
X2803500Y3772040D01*
X2799320Y3773230D01*
X2796300Y3774300D01*
X2793390Y3775570D01*
X2790660Y3777070D01*
X2788160Y3778820D01*
X2786020Y3780780D01*
X2784070Y3783200D01*
X2782510Y3785800D01*
X2781270Y3788630D01*
X2780310Y3791640D01*
X2779610Y3794790D01*
X2779150Y3798020D01*
X2778890Y3802790D01*
X2778900Y3804600D01*
X2779080Y3807860D01*
X2779480Y3811070D01*
X2780110Y3814190D01*
X2780980Y3817190D01*
X2782120Y3820060D01*
X2783530Y3822760D01*
X2785370Y3825450D01*
X2787220Y3827560D01*
X2789490Y3829630D01*
X2791980Y3831500D01*
X2794660Y3833160D01*
X2797480Y3834620D01*
X2800410Y3835890D01*
X2804800Y3837430D01*
X2806430Y3837900D01*
X2809460Y3838650D01*
X2812500Y3839230D01*
X2815550Y3839650D01*
X2818620Y3839910D01*
X2821640Y3840020D01*
X2824840Y3839980D01*
X2827960Y3839770D01*
X2831050Y3839380D01*
X2834100Y3838780D01*
X2837090Y3837950D01*
X2839450Y3837110D01*
X2842780Y3835580D01*
X2845500Y3834120D01*
X2848200Y3832570D01*
Y3840140D01*
X2856900D01*
X2864650Y3806600D01*
X2861800Y3803770D01*
X2859430Y3805630D01*
X2857050Y3807470D01*
X2854640Y3809250D01*
X2852170Y3810960D01*
X2849650Y3812570D01*
X2846900Y3814120D01*
X2844350Y3815370D01*
X2841570Y3816550D01*
X2838730Y3817560D01*
X2835830Y3818430D01*
X2832900Y3819130D01*
X2829940Y3819690D01*
X2828120Y3819950D01*
X2824020Y3820320D01*
X2821040Y3820370D01*
X2818030Y3820230D01*
X2815490Y3819950D01*
X2811900Y3819250D01*
X2809000Y3818230D01*
X2806430Y3816680D01*
X2805120Y3815420D01*
X2803020Y3811620D01*
X2802350Y3808470D01*
X2802440Y3805300D01*
X2803180Y3802790D01*
X2805050Y3800120D01*
X2807400Y3798290D01*
X2810200Y3796870D01*
X2813270Y3795790D01*
X2816130Y3795030D01*
X2819500Y3794310D01*
X2822510Y3793800D01*
X2825460Y3793370D01*
X2828380Y3792980D01*
X2831270Y3792580D01*
X2834270Y3792110D01*
X2837050Y3791590D01*
X2839950Y3790940D01*
X2842860Y3790210D01*
X2845780Y3789390D01*
X2848520Y3788550D01*
X2851600Y3787520D01*
X2854470Y3786430D01*
X2857240Y3785200D01*
X2859890Y3783780D01*
X2862370Y3782130D01*
X2864390Y3780460D01*
X2866660Y3778040D01*
X2868430Y3775620D01*
X2869960Y3772990D01*
X2871250Y3770210D01*
X2872300Y3767310D01*
X2873130Y3764280D01*
X2873700Y3761350D01*
X2874050Y3758340D01*
X2874170Y3755330D01*
X2874070Y3752320D01*
X2873740Y3749330D01*
X2873130Y3746150D01*
X2872400Y3743430D01*
X2871410Y3740560D01*
X2870200Y3737760D01*
X2868780Y3735070D01*
X2867140Y3732510D01*
X2865310Y3730100D01*
X2863090Y3727700D01*
X2861030Y3725840D01*
X2858620Y3724010D01*
X2856050Y3722370D01*
X2853340Y3720940D01*
X2850520Y3719700D01*
X2847600Y3718660D01*
X2844620Y3717820D01*
X2841580Y3717170D01*
X2838510Y3716710D01*
X2835440Y3716440D01*
X2832000Y3716370D01*
X2829350Y3716480D01*
X2826360Y3716760D01*
X2823400Y3717210D01*
X2820470Y3717800D01*
X2817560Y3718520D01*
X2814680Y3719340D01*
X2811820Y3720270D01*
X2808970Y3721270D01*
X2806130Y3722340D01*
X2803310Y3723450D01*
X2800490Y3724600D01*
X2797670Y3725760D01*
Y3721290D01*
X2787160D01*
G37*
G36*
G01X3009210Y3897510D02*
X2999240Y3934190D01*
X3003850Y3935320D01*
X3005780Y3932690D01*
X3007720Y3930090D01*
X3009710Y3927560D01*
X3011750Y3925130D01*
X3013870Y3922830D01*
X3016090Y3920700D01*
X3018420Y3918760D01*
X3020880Y3917060D01*
X3023600Y3915580D01*
X3026290Y3914470D01*
X3029210Y3913550D01*
X3032240Y3912790D01*
X3035910Y3912020D01*
X3038480Y3911510D01*
X3041640Y3910940D01*
X3044810Y3910470D01*
X3047970Y3910150D01*
X3051110Y3910030D01*
X3054220Y3910160D01*
X3057270Y3910590D01*
X3060260Y3911360D01*
X3063440Y3912660D01*
X3065980Y3914140D01*
X3068520Y3916150D01*
X3070630Y3918530D01*
X3072500Y3922370D01*
X3072840Y3924220D01*
X3072750Y3927370D01*
X3071950Y3930520D01*
X3070560Y3933510D01*
X3067970Y3936940D01*
X3066390Y3938360D01*
X3063800Y3940070D01*
X3060970Y3941380D01*
X3057990Y3942380D01*
X3053720Y3943410D01*
X3051850Y3943790D01*
X3048790Y3944330D01*
X3045740Y3944810D01*
X3042710Y3945260D01*
X3039680Y3945690D01*
X3036650Y3946130D01*
X3033620Y3946610D01*
X3030570Y3947160D01*
X3027510Y3947800D01*
X3025550Y3948270D01*
X3021360Y3949450D01*
X3018340Y3950520D01*
X3015430Y3951790D01*
X3012700Y3953290D01*
X3010200Y3955040D01*
X3008060Y3957010D01*
X3006110Y3959420D01*
X3004560Y3962030D01*
X3003310Y3964860D01*
X3002350Y3967870D01*
X3001650Y3971010D01*
X3001200Y3974250D01*
X3000930Y3979020D01*
X3000940Y3980820D01*
X3001120Y3984090D01*
X3001520Y3987290D01*
X3002150Y3990410D01*
X3003020Y3993420D01*
X3004160Y3996290D01*
X3005570Y3998990D01*
X3007410Y4001680D01*
X3009270Y4003790D01*
X3011530Y4005860D01*
X3014020Y4007720D01*
X3016700Y4009380D01*
X3019520Y4010840D01*
X3022450Y4012120D01*
X3026840Y4013650D01*
X3028470Y4014130D01*
X3031500Y4014870D01*
X3034540Y4015450D01*
X3037590Y4015870D01*
X3040670Y4016130D01*
X3043680Y4016240D01*
X3046880Y4016200D01*
X3050000Y4016000D01*
X3053090Y4015600D01*
X3056150Y4015000D01*
X3059130Y4014180D01*
X3061490Y4013330D01*
X3064820Y4011810D01*
X3067550Y4010340D01*
X3070240Y4008800D01*
Y4016360D01*
X3078940D01*
X3086700Y3982830D01*
X3083840Y3979990D01*
X3081470Y3981850D01*
X3079090Y3983690D01*
X3076680Y3985480D01*
X3074220Y3987190D01*
X3071690Y3988790D01*
X3068940Y3990350D01*
X3066390Y3991600D01*
X3063610Y3992770D01*
X3060770Y3993790D01*
X3057870Y3994650D01*
X3054940Y3995360D01*
X3051990Y3995910D01*
X3050160Y3996170D01*
X3046060Y3996540D01*
X3043080Y3996600D01*
X3040070Y3996460D01*
X3037530Y3996170D01*
X3033950Y3995470D01*
X3031040Y3994460D01*
X3028470Y3992900D01*
X3027160Y3991640D01*
X3025060Y3987850D01*
X3024390Y3984690D01*
X3024480Y3981530D01*
X3025220Y3979020D01*
X3027090Y3976350D01*
X3029440Y3974520D01*
X3032240Y3973100D01*
X3035310Y3972010D01*
X3038180Y3971250D01*
X3041540Y3970540D01*
X3044550Y3970020D01*
X3047510Y3969600D01*
X3050420Y3969210D01*
X3053310Y3968810D01*
X3056310Y3968340D01*
X3059090Y3967810D01*
X3061990Y3967170D01*
X3064900Y3966440D01*
X3067820Y3965620D01*
X3070560Y3964780D01*
X3073640Y3963750D01*
X3076510Y3962660D01*
X3079290Y3961420D01*
X3081930Y3960000D01*
X3084410Y3958360D01*
X3086430Y3956680D01*
X3088700Y3954270D01*
X3090470Y3951840D01*
X3092000Y3949210D01*
X3093290Y3946430D01*
X3094340Y3943530D01*
X3095170Y3940500D01*
X3095740Y3937580D01*
X3096090Y3934570D01*
X3096210Y3931560D01*
X3096110Y3928550D01*
X3095780Y3925560D01*
X3095170Y3922370D01*
X3094450Y3919660D01*
X3093450Y3916780D01*
X3092240Y3913990D01*
X3090820Y3911300D01*
X3089190Y3908740D01*
X3087350Y3906330D01*
X3085130Y3903920D01*
X3083070Y3902060D01*
X3080660Y3900230D01*
X3078090Y3898600D01*
X3075380Y3897160D01*
X3072560Y3895930D01*
X3069640Y3894890D01*
X3066660Y3894040D01*
X3063620Y3893390D01*
X3060550Y3892930D01*
X3057480Y3892670D01*
X3054040Y3892600D01*
X3051390Y3892700D01*
X3048400Y3892990D01*
X3045440Y3893430D01*
X3042510Y3894020D01*
X3039610Y3894740D01*
X3036720Y3895570D01*
X3033860Y3896490D01*
X3031010Y3897490D01*
X3028180Y3898560D01*
X3025350Y3899670D01*
X3022530Y3900820D01*
X3019720Y3901980D01*
Y3897510D01*
X3009210D01*
G37*
G36*
G01X2945810Y3727560D02*
Y3720150D01*
X2905220D01*
Y3727560D01*
X2909730D01*
G03X2913620Y3731450I-2J3892D01*
G01Y3821820D01*
G03X2909730Y3825720I-3895J5D01*
G01X2886660D01*
G03X2883910Y3824580I4J-3896D01*
G01X2873550Y3814260D01*
X2877350Y3838500D01*
X2973680D01*
X2977480Y3814260D01*
X2967120Y3824580D01*
G03X2964370Y3825720I-2754J-2756D01*
G01X2941300D01*
G03X2937410Y3821820I5J-3895D01*
G01Y3731450D01*
G03X2941300Y3727560I3893J3D01*
G01X2945810D01*
G37*
G36*
G01X2956340Y3896230D02*
Y3906900D01*
X2959740D01*
G03X2963470Y3912200I-2J3964D01*
G01X2935510Y3990400D01*
X2916610Y3941670D01*
X2952310D01*
X2956390Y3930270D01*
X2912150Y3930160D01*
X2905220Y3912300D01*
G03X2908910Y3906900I3693J-1437D01*
G01X2909600D01*
Y3896230D01*
X2882240D01*
Y3906900D01*
X2882780D01*
G03X2886470Y3909440I-7J3961D01*
G01X2927350Y4015260D01*
X2954190D01*
X2992970Y3909500D01*
G03X2996680Y3906900I3720J1361D01*
G01X3001000D01*
Y3896230D01*
X2956340D01*
G37*
G36*
G01X2993960Y3731310D02*
Y3827640D01*
G03X2990000Y3831600I-3960J0D01*
G01X2982690D01*
Y3838290D01*
X3056470D01*
X3058880Y3837940D01*
X3061280Y3837540D01*
X3062470Y3837310D01*
X3063650Y3837040D01*
X3065130Y3836640D01*
X3065980Y3836380D01*
X3067130Y3835980D01*
X3068270Y3835540D01*
X3069390Y3835050D01*
X3070490Y3834510D01*
X3071560Y3833930D01*
X3072620Y3833300D01*
X3073650Y3832630D01*
X3074650Y3831920D01*
X3075620Y3831170D01*
X3076560Y3830370D01*
X3077470Y3829530D01*
X3077980Y3829030D01*
X3079180Y3827730D01*
X3079970Y3826780D01*
X3080720Y3825790D01*
X3081420Y3824770D01*
X3082080Y3823720D01*
X3082680Y3822640D01*
X3083230Y3821540D01*
X3083710Y3820420D01*
X3084140Y3819280D01*
X3084510Y3818130D01*
X3084850Y3816790D01*
X3085040Y3815780D01*
X3085210Y3814600D01*
X3085330Y3813400D01*
X3085410Y3812200D01*
X3085460Y3810990D01*
X3085550Y3806090D01*
X3085590Y3805000D01*
X3085670Y3803620D01*
X3085830Y3801150D01*
X3085880Y3799920D01*
X3085910Y3798700D01*
X3085890Y3797480D01*
X3085810Y3796280D01*
X3085660Y3795090D01*
X3085540Y3794510D01*
X3085410Y3793920D01*
X3085290Y3793510D01*
X3085060Y3792770D01*
X3084840Y3792210D01*
X3084600Y3791650D01*
X3084340Y3791090D01*
X3084050Y3790550D01*
X3083420Y3789480D01*
X3082710Y3788450D01*
X3081940Y3787460D01*
X3081100Y3786520D01*
X3080230Y3785630D01*
X3079310Y3784800D01*
X3078370Y3784030D01*
X3077680Y3783510D01*
X3076440Y3782680D01*
X3075450Y3782090D01*
X3074460Y3781550D01*
X3073450Y3781040D01*
X3072430Y3780560D01*
X3070340Y3779630D01*
X3069270Y3779160D01*
X3068190Y3778670D01*
X3067100Y3778150D01*
X3065980Y3777590D01*
X3064850Y3776990D01*
X3063700Y3776320D01*
X3062540Y3775590D01*
X3061250Y3774700D01*
X3060760Y3774340D01*
X3060480Y3774110D01*
X3060230Y3773880D01*
X3060000Y3773660D01*
X3059820Y3773430D01*
X3059690Y3773210D01*
X3059610Y3772910D01*
X3059620Y3772770D01*
X3059680Y3772570D01*
X3059810Y3772360D01*
X3059990Y3772160D01*
X3060210Y3771970D01*
X3060470Y3771780D01*
X3061080Y3771410D01*
X3062150Y3770820D01*
X3063050Y3770310D01*
X3063650Y3769940D01*
X3064220Y3769580D01*
X3064760Y3769210D01*
X3065270Y3768840D01*
X3065760Y3768460D01*
X3066680Y3767700D01*
X3067530Y3766930D01*
X3068320Y3766130D01*
X3069080Y3765310D01*
X3069950Y3764320D01*
X3070570Y3763590D01*
X3071310Y3762690D01*
X3072060Y3761770D01*
X3072800Y3760810D01*
X3073530Y3759840D01*
X3074960Y3757830D01*
X3075650Y3756800D01*
X3076320Y3755750D01*
X3076970Y3754700D01*
X3077320Y3754110D01*
X3078780Y3751480D01*
X3079910Y3749310D01*
X3081030Y3747170D01*
X3082190Y3745050D01*
X3082810Y3744020D01*
X3083450Y3743000D01*
X3083860Y3742390D01*
X3084830Y3741030D01*
X3085570Y3740080D01*
X3086340Y3739140D01*
X3087140Y3738230D01*
X3087960Y3737330D01*
X3089660Y3735570D01*
X3091800Y3733490D01*
X3093180Y3732200D01*
X3094980Y3730570D01*
X3097470Y3728350D01*
G03X3100110Y3727350I2631J2961D01*
G01X3105070D01*
Y3719940D01*
X3077570D01*
G02X3074630Y3721250I3J3960D01*
G01X3069130Y3727350D01*
X3068220Y3728360D01*
X3067320Y3729370D01*
X3066420Y3730390D01*
X3065530Y3731410D01*
X3064650Y3732450D01*
X3063790Y3733490D01*
X3062950Y3734560D01*
X3062130Y3735640D01*
X3061430Y3736590D01*
X3060570Y3737850D01*
X3059830Y3738990D01*
X3059130Y3740160D01*
X3058450Y3741340D01*
X3057810Y3742530D01*
X3057210Y3743750D01*
X3056640Y3744990D01*
X3056130Y3746170D01*
X3055600Y3747510D01*
X3055120Y3748780D01*
X3054660Y3750060D01*
X3054190Y3751340D01*
X3053710Y3752610D01*
X3053210Y3753860D01*
X3052670Y3755100D01*
X3052360Y3755750D01*
X3051450Y3757490D01*
X3050770Y3758660D01*
X3050060Y3759810D01*
X3049340Y3760960D01*
X3048600Y3762120D01*
X3048090Y3762930D01*
X3047130Y3764460D01*
X3046380Y3765620D01*
X3045590Y3766740D01*
X3044750Y3767810D01*
X3043840Y3768780D01*
X3043080Y3769450D01*
X3041720Y3770390D01*
X3040530Y3771050D01*
X3039300Y3771640D01*
X3038030Y3772210D01*
X3017620D01*
Y3783360D01*
X3041120D01*
X3042490Y3783470D01*
X3043860Y3783600D01*
X3044880Y3783700D01*
X3046600Y3783930D01*
X3047950Y3784180D01*
X3049290Y3784510D01*
X3050010Y3784730D01*
X3051900Y3785500D01*
X3053160Y3786160D01*
X3054370Y3786920D01*
X3055520Y3787770D01*
X3056600Y3788710D01*
X3057610Y3789730D01*
X3058530Y3790810D01*
X3059350Y3791960D01*
X3060060Y3793160D01*
X3060600Y3794290D01*
X3061120Y3795690D01*
X3061470Y3797010D01*
X3061730Y3798350D01*
X3061900Y3799720D01*
X3061990Y3801110D01*
X3062030Y3802510D01*
X3062020Y3803920D01*
X3061970Y3805560D01*
X3061910Y3806760D01*
X3061820Y3808170D01*
X3061690Y3809570D01*
X3061520Y3810950D01*
X3061290Y3812320D01*
X3060990Y3813670D01*
X3060610Y3814990D01*
X3060150Y3816270D01*
X3059590Y3817530D01*
X3059230Y3818200D01*
X3058130Y3819900D01*
X3057250Y3821000D01*
X3056280Y3822020D01*
X3055220Y3822950D01*
X3054090Y3823780D01*
X3052890Y3824480D01*
X3052070Y3824870D01*
X3050340Y3825480D01*
X3049010Y3825800D01*
X3047650Y3826050D01*
X3046270Y3826230D01*
X3044880Y3826400D01*
X3017200D01*
Y3731310D01*
G03X3021160Y3727350I3960J0D01*
G01X3030190D01*
Y3719940D01*
X2982690D01*
Y3727350D01*
X2990000D01*
G03X2993960Y3731310I1J3959D01*
G37*
G36*
G01X3134150Y3720180D02*
X3188470D01*
G03X3208680Y3742180I-2071J22185D01*
G01Y3827640D01*
G02X3212640Y3831600I3960J0D01*
G01X3218510D01*
Y3838870D01*
X3180020D01*
Y3831600D01*
X3188230D01*
G02X3192190Y3827640I-2J-3962D01*
G01Y3748460D01*
G02X3173310Y3733860I-17976J3738D01*
G01X3151610D01*
G02X3134470Y3748460I475J17918D01*
G01Y3827640D01*
G02X3138430Y3831600I3962J-2D01*
G01X3147040D01*
Y3838870D01*
X3094820D01*
Y3831600D01*
X3104990D01*
G02X3108950Y3827640I0J-3960D01*
G01Y3751380D01*
G03X3134150Y3720180I32235J259D01*
G37*
G36*
G01X2787160Y3721290D02*
X2777200Y3757970D01*
X2781800Y3759100D01*
X2783730Y3756470D01*
X2785680Y3753870D01*
X2787670Y3751340D01*
X2789710Y3748910D01*
X2791830Y3746610D01*
X2794050Y3744470D01*
X2796380Y3742540D01*
X2798840Y3740840D01*
X2801560Y3739350D01*
X2804240Y3738250D01*
X2807170Y3737330D01*
X2810200Y3736570D01*
X2813870Y3735790D01*
X2816440Y3735280D01*
X2819600Y3734710D01*
X2822770Y3734240D01*
X2825930Y3733920D01*
X2829070Y3733810D01*
X2832170Y3733940D01*
X2835230Y3734360D01*
X2838220Y3735140D01*
X2841390Y3736440D01*
X2843930Y3737920D01*
X2846480Y3739930D01*
X2848590Y3742310D01*
X2850460Y3746150D01*
X2850790Y3748000D01*
X2850700Y3751150D01*
X2849910Y3754290D01*
X2848520Y3757280D01*
X2845930Y3760720D01*
X2844350Y3762130D01*
X2841760Y3763840D01*
X2838930Y3765150D01*
X2835950Y3766150D01*
X2831680Y3767190D01*
X2829800Y3767560D01*
X2826740Y3768110D01*
X2823700Y3768590D01*
X2820670Y3769030D01*
X2817640Y3769460D01*
X2814610Y3769910D01*
X2811570Y3770390D01*
X2808530Y3770940D01*
X2805470Y3771580D01*
X2803500Y3772040D01*
X2799320Y3773230D01*
X2796300Y3774300D01*
X2793390Y3775570D01*
X2790660Y3777070D01*
X2788160Y3778820D01*
X2786020Y3780780D01*
X2784070Y3783200D01*
X2782510Y3785800D01*
X2781270Y3788630D01*
X2780310Y3791640D01*
X2779610Y3794790D01*
X2779150Y3798020D01*
X2778890Y3802790D01*
X2778900Y3804600D01*
X2779080Y3807860D01*
X2779480Y3811070D01*
X2780110Y3814190D01*
X2780980Y3817190D01*
X2782120Y3820060D01*
X2783530Y3822760D01*
X2785370Y3825450D01*
X2787220Y3827560D01*
X2789490Y3829630D01*
X2791980Y3831500D01*
X2794660Y3833160D01*
X2797480Y3834620D01*
X2800410Y3835890D01*
X2804800Y3837430D01*
X2806430Y3837900D01*
X2809460Y3838650D01*
X2812500Y3839230D01*
X2815550Y3839650D01*
X2818620Y3839910D01*
X2821640Y3840020D01*
X2824840Y3839980D01*
X2827960Y3839770D01*
X2831050Y3839380D01*
X2834100Y3838780D01*
X2837090Y3837950D01*
X2839450Y3837110D01*
X2842780Y3835580D01*
X2845500Y3834120D01*
X2848200Y3832570D01*
Y3840140D01*
X2856900D01*
X2864650Y3806600D01*
X2861800Y3803770D01*
X2859430Y3805630D01*
X2857050Y3807470D01*
X2854640Y3809250D01*
X2852170Y3810960D01*
X2849650Y3812570D01*
X2846900Y3814120D01*
X2844350Y3815370D01*
X2841570Y3816550D01*
X2838730Y3817560D01*
X2835830Y3818430D01*
X2832900Y3819130D01*
X2829940Y3819690D01*
X2828120Y3819950D01*
X2824020Y3820320D01*
X2821040Y3820370D01*
X2818030Y3820230D01*
X2815490Y3819950D01*
X2811900Y3819250D01*
X2809000Y3818230D01*
X2806430Y3816680D01*
X2805120Y3815420D01*
X2803020Y3811620D01*
X2802350Y3808470D01*
X2802440Y3805300D01*
X2803180Y3802790D01*
X2805050Y3800120D01*
X2807400Y3798290D01*
X2810200Y3796870D01*
X2813270Y3795790D01*
X2816130Y3795030D01*
X2819500Y3794310D01*
X2822510Y3793800D01*
X2825460Y3793370D01*
X2828380Y3792980D01*
X2831270Y3792580D01*
X2834270Y3792110D01*
X2837050Y3791590D01*
X2839950Y3790940D01*
X2842860Y3790210D01*
X2845780Y3789390D01*
X2848520Y3788550D01*
X2851600Y3787520D01*
X2854470Y3786430D01*
X2857240Y3785200D01*
X2859890Y3783780D01*
X2862370Y3782130D01*
X2864390Y3780460D01*
X2866660Y3778040D01*
X2868430Y3775620D01*
X2869960Y3772990D01*
X2871250Y3770210D01*
X2872300Y3767310D01*
X2873130Y3764280D01*
X2873700Y3761350D01*
X2874050Y3758340D01*
X2874170Y3755330D01*
X2874070Y3752320D01*
X2873740Y3749330D01*
X2873130Y3746150D01*
X2872400Y3743430D01*
X2871410Y3740560D01*
X2870200Y3737760D01*
X2868780Y3735070D01*
X2867140Y3732510D01*
X2865310Y3730100D01*
X2863090Y3727700D01*
X2861030Y3725840D01*
X2858620Y3724010D01*
X2856050Y3722370D01*
X2853340Y3720940D01*
X2850520Y3719700D01*
X2847600Y3718660D01*
X2844620Y3717820D01*
X2841580Y3717170D01*
X2838510Y3716710D01*
X2835440Y3716440D01*
X2832000Y3716370D01*
X2829350Y3716480D01*
X2826360Y3716760D01*
X2823400Y3717210D01*
X2820470Y3717800D01*
X2817560Y3718520D01*
X2814680Y3719340D01*
X2811820Y3720270D01*
X2808970Y3721270D01*
X2806130Y3722340D01*
X2803310Y3723450D01*
X2800490Y3724600D01*
X2797670Y3725760D01*
Y3721290D01*
X2787160D01*
G37*
G36*
G01X3009210Y3897510D02*
X2999240Y3934190D01*
X3003850Y3935320D01*
X3005780Y3932690D01*
X3007720Y3930090D01*
X3009710Y3927560D01*
X3011750Y3925130D01*
X3013870Y3922830D01*
X3016090Y3920700D01*
X3018420Y3918760D01*
X3020880Y3917060D01*
X3023600Y3915580D01*
X3026290Y3914470D01*
X3029210Y3913550D01*
X3032240Y3912790D01*
X3035910Y3912020D01*
X3038480Y3911510D01*
X3041640Y3910940D01*
X3044810Y3910470D01*
X3047970Y3910150D01*
X3051110Y3910030D01*
X3054220Y3910160D01*
X3057270Y3910590D01*
X3060260Y3911360D01*
X3063440Y3912660D01*
X3065980Y3914140D01*
X3068520Y3916150D01*
X3070630Y3918530D01*
X3072500Y3922370D01*
X3072840Y3924220D01*
X3072750Y3927370D01*
X3071950Y3930520D01*
X3070560Y3933510D01*
X3067970Y3936940D01*
X3066390Y3938360D01*
X3063800Y3940070D01*
X3060970Y3941380D01*
X3057990Y3942380D01*
X3053720Y3943410D01*
X3051850Y3943790D01*
X3048790Y3944330D01*
X3045740Y3944810D01*
X3042710Y3945260D01*
X3039680Y3945690D01*
X3036650Y3946130D01*
X3033620Y3946610D01*
X3030570Y3947160D01*
X3027510Y3947800D01*
X3025550Y3948270D01*
X3021360Y3949450D01*
X3018340Y3950520D01*
X3015430Y3951790D01*
X3012700Y3953290D01*
X3010200Y3955040D01*
X3008060Y3957010D01*
X3006110Y3959420D01*
X3004560Y3962030D01*
X3003310Y3964860D01*
X3002350Y3967870D01*
X3001650Y3971010D01*
X3001200Y3974250D01*
X3000930Y3979020D01*
X3000940Y3980820D01*
X3001120Y3984090D01*
X3001520Y3987290D01*
X3002150Y3990410D01*
X3003020Y3993420D01*
X3004160Y3996290D01*
X3005570Y3998990D01*
X3007410Y4001680D01*
X3009270Y4003790D01*
X3011530Y4005860D01*
X3014020Y4007720D01*
X3016700Y4009380D01*
X3019520Y4010840D01*
X3022450Y4012120D01*
X3026840Y4013650D01*
X3028470Y4014130D01*
X3031500Y4014870D01*
X3034540Y4015450D01*
X3037590Y4015870D01*
X3040670Y4016130D01*
X3043680Y4016240D01*
X3046880Y4016200D01*
X3050000Y4016000D01*
X3053090Y4015600D01*
X3056150Y4015000D01*
X3059130Y4014180D01*
X3061490Y4013330D01*
X3064820Y4011810D01*
X3067550Y4010340D01*
X3070240Y4008800D01*
Y4016360D01*
X3078940D01*
X3086700Y3982830D01*
X3083840Y3979990D01*
X3081470Y3981850D01*
X3079090Y3983690D01*
X3076680Y3985480D01*
X3074220Y3987190D01*
X3071690Y3988790D01*
X3068940Y3990350D01*
X3066390Y3991600D01*
X3063610Y3992770D01*
X3060770Y3993790D01*
X3057870Y3994650D01*
X3054940Y3995360D01*
X3051990Y3995910D01*
X3050160Y3996170D01*
X3046060Y3996540D01*
X3043080Y3996600D01*
X3040070Y3996460D01*
X3037530Y3996170D01*
X3033950Y3995470D01*
X3031040Y3994460D01*
X3028470Y3992900D01*
X3027160Y3991640D01*
X3025060Y3987850D01*
X3024390Y3984690D01*
X3024480Y3981530D01*
X3025220Y3979020D01*
X3027090Y3976350D01*
X3029440Y3974520D01*
X3032240Y3973100D01*
X3035310Y3972010D01*
X3038180Y3971250D01*
X3041540Y3970540D01*
X3044550Y3970020D01*
X3047510Y3969600D01*
X3050420Y3969210D01*
X3053310Y3968810D01*
X3056310Y3968340D01*
X3059090Y3967810D01*
X3061990Y3967170D01*
X3064900Y3966440D01*
X3067820Y3965620D01*
X3070560Y3964780D01*
X3073640Y3963750D01*
X3076510Y3962660D01*
X3079290Y3961420D01*
X3081930Y3960000D01*
X3084410Y3958360D01*
X3086430Y3956680D01*
X3088700Y3954270D01*
X3090470Y3951840D01*
X3092000Y3949210D01*
X3093290Y3946430D01*
X3094340Y3943530D01*
X3095170Y3940500D01*
X3095740Y3937580D01*
X3096090Y3934570D01*
X3096210Y3931560D01*
X3096110Y3928550D01*
X3095780Y3925560D01*
X3095170Y3922370D01*
X3094450Y3919660D01*
X3093450Y3916780D01*
X3092240Y3913990D01*
X3090820Y3911300D01*
X3089190Y3908740D01*
X3087350Y3906330D01*
X3085130Y3903920D01*
X3083070Y3902060D01*
X3080660Y3900230D01*
X3078090Y3898600D01*
X3075380Y3897160D01*
X3072560Y3895930D01*
X3069640Y3894890D01*
X3066660Y3894040D01*
X3063620Y3893390D01*
X3060550Y3892930D01*
X3057480Y3892670D01*
X3054040Y3892600D01*
X3051390Y3892700D01*
X3048400Y3892990D01*
X3045440Y3893430D01*
X3042510Y3894020D01*
X3039610Y3894740D01*
X3036720Y3895570D01*
X3033860Y3896490D01*
X3031010Y3897490D01*
X3028180Y3898560D01*
X3025350Y3899670D01*
X3022530Y3900820D01*
X3019720Y3901980D01*
Y3897510D01*
X3009210D01*
G37*
G36*
G01X3750950Y2630950D02*
Y2702380D01*
X3614570D01*
G02X3798570Y2832890I172093J-47665D01*
G01Y2904430D01*
G03Y2405000I-11914J-249715D01*
G01Y2476540D01*
G02X3609660Y2631140I-11901J178175D01*
G01X3750950Y2630950D01*
G37*
G36*
G01D02*
Y2702380D01*
X3614570D01*
G02X3798570Y2832890I172093J-47665D01*
G01Y2904430D01*
G03Y2405000I-11914J-249715D01*
G01Y2476540D01*
G02X3609660Y2631140I-11901J178175D01*
G01X3750950Y2630950D01*
G37*
G36*
G01X3224460Y3720000D02*
X3261900D01*
Y3729210D01*
X3253770D01*
G02X3249800Y3733170I-8J3962D01*
G01Y3808780D01*
X3293640Y3720000D01*
X3335650Y3807410D01*
Y3733170D01*
G02X3331690Y3729210I-3962J2D01*
G01X3327120D01*
Y3720150D01*
X3372410D01*
Y3729210D01*
X3370660D01*
G02X3366700Y3733170I0J3960D01*
G01Y3828140D01*
G02X3370660Y3832100I3960J0D01*
G01X3374690D01*
Y3838870D01*
X3335740D01*
G03X3332100Y3836490I-8J-3962D01*
G01X3301630Y3766110D01*
X3269130Y3836570D01*
G03X3265530Y3838870I-3595J-1660D01*
G01X3224460D01*
Y3831600D01*
X3233740D01*
G02X3237700Y3827640I0J-3960D01*
G01Y3733170D01*
G02X3233740Y3729210I-3960J0D01*
G01X3224460D01*
Y3720000D01*
G37*
G36*
G01X3463990Y3795210D02*
X3466860D01*
Y3765600D01*
X3463990D01*
X3460010Y3770690D01*
G03X3456890Y3772210I-3121J-2443D01*
G01X3416420D01*
Y3733890D01*
X3467440D01*
G03X3470300Y3735110I0J3963D01*
G01X3482650Y3748030D01*
X3486070D01*
X3477300Y3722670D01*
G02X3473560Y3720000I-3744J1290D01*
G01X3382890D01*
Y3724250D01*
X3394070Y3730110D01*
G03X3396190Y3733610I-1840J3506D01*
G01Y3822000D01*
G03X3394240Y3825410I-3960J-2D01*
G01X3382890Y3832100D01*
Y3838870D01*
X3468810D01*
G02X3472470Y3836430I2J-3962D01*
G01X3483220Y3810430D01*
X3477330Y3808000D01*
X3466820Y3819460D01*
G03X3463900Y3820750I-2925J-2671D01*
G01X3416420D01*
Y3790260D01*
X3457230D01*
G03X3459970Y3791360I1J3959D01*
G01X3463990Y3795210D01*
G37*
G36*
G01X3487740Y3729210D02*
X3495250D01*
G03X3499210Y3733170I-2J3962D01*
G01Y3826150D01*
G03X3495250Y3830110I-3960J0D01*
G01X3487180D01*
Y3838890D01*
X3523680D01*
G02X3526680Y3837520I5J-3960D01*
G01X3583430Y3771780D01*
Y3825360D01*
G03X3579470Y3829320I-3958J2D01*
G01X3569800D01*
Y3838890D01*
X3609690D01*
Y3829320D01*
X3601280D01*
G03X3597320Y3825360I0J-3960D01*
G01Y3720150D01*
X3591160D01*
G02X3588160Y3721520I-5J3959D01*
G01X3519530Y3801020D01*
Y3733170D01*
G03X3523490Y3729210I3961J1D01*
G01X3529410D01*
Y3720150D01*
X3487740D01*
Y3729210D01*
G37*
G36*
G01X3224460Y3720000D02*
X3261900D01*
Y3729210D01*
X3253770D01*
G02X3249800Y3733170I-8J3962D01*
G01Y3808780D01*
X3293640Y3720000D01*
X3335650Y3807410D01*
Y3733170D01*
G02X3331690Y3729210I-3962J2D01*
G01X3327120D01*
Y3720150D01*
X3372410D01*
Y3729210D01*
X3370660D01*
G02X3366700Y3733170I0J3960D01*
G01Y3828140D01*
G02X3370660Y3832100I3960J0D01*
G01X3374690D01*
Y3838870D01*
X3335740D01*
G03X3332100Y3836490I-8J-3962D01*
G01X3301630Y3766110D01*
X3269130Y3836570D01*
G03X3265530Y3838870I-3595J-1660D01*
G01X3224460D01*
Y3831600D01*
X3233740D01*
G02X3237700Y3827640I0J-3960D01*
G01Y3733170D01*
G02X3233740Y3729210I-3960J0D01*
G01X3224460D01*
Y3720000D01*
G37*
G36*
G01X3463990Y3795210D02*
X3466860D01*
Y3765600D01*
X3463990D01*
X3460010Y3770690D01*
G03X3456890Y3772210I-3121J-2443D01*
G01X3416420D01*
Y3733890D01*
X3467440D01*
G03X3470300Y3735110I0J3963D01*
G01X3482650Y3748030D01*
X3486070D01*
X3477300Y3722670D01*
G02X3473560Y3720000I-3744J1290D01*
G01X3382890D01*
Y3724250D01*
X3394070Y3730110D01*
G03X3396190Y3733610I-1840J3506D01*
G01Y3822000D01*
G03X3394240Y3825410I-3960J-2D01*
G01X3382890Y3832100D01*
Y3838870D01*
X3468810D01*
G02X3472470Y3836430I2J-3962D01*
G01X3483220Y3810430D01*
X3477330Y3808000D01*
X3466820Y3819460D01*
G03X3463900Y3820750I-2925J-2671D01*
G01X3416420D01*
Y3790260D01*
X3457230D01*
G03X3459970Y3791360I1J3959D01*
G01X3463990Y3795210D01*
G37*
G36*
G01X3487740Y3729210D02*
X3495250D01*
G03X3499210Y3733170I-2J3962D01*
G01Y3826150D01*
G03X3495250Y3830110I-3960J0D01*
G01X3487180D01*
Y3838890D01*
X3523680D01*
G02X3526680Y3837520I5J-3960D01*
G01X3583430Y3771780D01*
Y3825360D01*
G03X3579470Y3829320I-3958J2D01*
G01X3569800D01*
Y3838890D01*
X3609690D01*
Y3829320D01*
X3601280D01*
G03X3597320Y3825360I0J-3960D01*
G01Y3720150D01*
X3591160D01*
G02X3588160Y3721520I-5J3959D01*
G01X3519530Y3801020D01*
Y3733170D01*
G03X3523490Y3729210I3961J1D01*
G01X3529410D01*
Y3720150D01*
X3487740D01*
Y3729210D01*
G37*
G36*
G01X3684680Y3727560D02*
Y3720150D01*
X3644080D01*
Y3727560D01*
X3648590D01*
G03X3652490Y3731450I6J3894D01*
G01Y3821820D01*
G03X3648590Y3825720I-3897J3D01*
G01X3625530D01*
G03X3622780Y3824580I3J-3894D01*
G01X3612410Y3814260D01*
X3616210Y3838500D01*
X3712550D01*
X3716350Y3814260D01*
X3705980Y3824580D01*
G03X3703230Y3825720I-2753J-2755D01*
G01X3680170D01*
G03X3676270Y3821820I-4J-3896D01*
G01Y3731450D01*
G03X3680170Y3727560I3894J4D01*
G01X3684680D01*
G37*
G36*
G01X3731530Y3721960D02*
X3721570Y3758640D01*
X3726170Y3759770D01*
X3728100Y3757140D01*
X3730050Y3754540D01*
X3732030Y3752010D01*
X3734080Y3749580D01*
X3736200Y3747280D01*
X3738410Y3745150D01*
X3740740Y3743210D01*
X3743210Y3741510D01*
X3745930Y3740030D01*
X3748610Y3738920D01*
X3751530Y3738000D01*
X3754560Y3737240D01*
X3758230Y3736470D01*
X3760810Y3735960D01*
X3763970Y3735390D01*
X3767140Y3734920D01*
X3770300Y3734600D01*
X3773440Y3734480D01*
X3776540Y3734610D01*
X3779590Y3735040D01*
X3782590Y3735820D01*
X3785760Y3737110D01*
X3788300Y3738590D01*
X3790850Y3740600D01*
X3792960Y3742990D01*
X3794830Y3746820D01*
X3795160Y3748670D01*
X3795070Y3751820D01*
X3794280Y3754970D01*
X3792890Y3757960D01*
X3790300Y3761390D01*
X3788720Y3762810D01*
X3786120Y3764520D01*
X3783300Y3765830D01*
X3780310Y3766830D01*
X3776050Y3767860D01*
X3774170Y3768240D01*
X3771110Y3768780D01*
X3768070Y3769260D01*
X3765030Y3769710D01*
X3762000Y3770140D01*
X3758980Y3770580D01*
X3755940Y3771060D01*
X3752900Y3771610D01*
X3749840Y3772250D01*
X3747870Y3772720D01*
X3743680Y3773900D01*
X3740660Y3774970D01*
X3737760Y3776240D01*
X3735020Y3777740D01*
X3732520Y3779500D01*
X3730380Y3781460D01*
X3728430Y3783870D01*
X3726880Y3786480D01*
X3725630Y3789310D01*
X3724670Y3792320D01*
X3723970Y3795460D01*
X3723520Y3798700D01*
X3723260Y3803470D01*
X3723270Y3805270D01*
X3723450Y3808540D01*
X3723840Y3811740D01*
X3724470Y3814860D01*
X3725350Y3817870D01*
X3726480Y3820740D01*
X3727890Y3823440D01*
X3729730Y3826130D01*
X3731590Y3828240D01*
X3733850Y3830310D01*
X3736350Y3832170D01*
X3739030Y3833830D01*
X3741850Y3835300D01*
X3744780Y3836570D01*
X3749170Y3838100D01*
X3750790Y3838580D01*
X3753820Y3839320D01*
X3756860Y3839900D01*
X3759920Y3840320D01*
X3762990Y3840580D01*
X3766010Y3840690D01*
X3769200Y3840650D01*
X3772320Y3840450D01*
X3775420Y3840050D01*
X3778470Y3839450D01*
X3781460Y3838630D01*
X3783820Y3837780D01*
X3787140Y3836260D01*
X3789870Y3834790D01*
X3792560Y3833250D01*
Y3840810D01*
X3801260D01*
X3809020Y3807280D01*
X3806160Y3804440D01*
X3803800Y3806300D01*
X3801420Y3808140D01*
X3799000Y3809930D01*
X3796540Y3811640D01*
X3794020Y3813240D01*
X3791270Y3814800D01*
X3788720Y3816050D01*
X3785940Y3817220D01*
X3783090Y3818240D01*
X3780200Y3819100D01*
X3777270Y3819810D01*
X3774310Y3820360D01*
X3772480Y3820620D01*
X3768390Y3820990D01*
X3765410Y3821050D01*
X3762390Y3820910D01*
X3759850Y3820620D01*
X3756270Y3819920D01*
X3753360Y3818910D01*
X3750800Y3817350D01*
X3749490Y3816090D01*
X3747380Y3812300D01*
X3746720Y3809140D01*
X3746810Y3805980D01*
X3747550Y3803470D01*
X3749420Y3800800D01*
X3751770Y3798970D01*
X3754570Y3797550D01*
X3757640Y3796460D01*
X3760500Y3795700D01*
X3763870Y3794990D01*
X3766880Y3794470D01*
X3769830Y3794050D01*
X3772750Y3793660D01*
X3775640Y3793260D01*
X3778640Y3792790D01*
X3781420Y3792260D01*
X3784320Y3791620D01*
X3787230Y3790890D01*
X3790140Y3790070D01*
X3792890Y3789230D01*
X3795970Y3788200D01*
X3798830Y3787110D01*
X3801610Y3785870D01*
X3804260Y3784450D01*
X3806740Y3782810D01*
X3808750Y3781140D01*
X3811020Y3778720D01*
X3812800Y3776290D01*
X3814330Y3773660D01*
X3815620Y3770880D01*
X3816670Y3767990D01*
X3817500Y3764950D01*
X3818060Y3762030D01*
X3818420Y3759020D01*
X3818540Y3756010D01*
X3818430Y3753000D01*
X3818100Y3750010D01*
X3817500Y3746820D01*
X3816770Y3744110D01*
X3815780Y3741230D01*
X3814570Y3738440D01*
X3813140Y3735750D01*
X3811510Y3733190D01*
X3809670Y3730780D01*
X3807460Y3728370D01*
X3805400Y3726510D01*
X3802990Y3724680D01*
X3800410Y3723050D01*
X3797710Y3721610D01*
X3794880Y3720380D01*
X3791970Y3719340D01*
X3788980Y3718490D01*
X3785950Y3717840D01*
X3782880Y3717380D01*
X3779810Y3717120D01*
X3776370Y3717050D01*
X3773720Y3717150D01*
X3770730Y3717440D01*
X3767770Y3717890D01*
X3764840Y3718470D01*
X3761930Y3719190D01*
X3759050Y3720020D01*
X3756180Y3720940D01*
X3753340Y3721940D01*
X3750500Y3723010D01*
X3747680Y3724120D01*
X3744860Y3725270D01*
X3742040Y3726430D01*
Y3721960D01*
X3731530D01*
G37*
G36*
G01X3684680Y3727560D02*
Y3720150D01*
X3644080D01*
Y3727560D01*
X3648590D01*
G03X3652490Y3731450I6J3894D01*
G01Y3821820D01*
G03X3648590Y3825720I-3897J3D01*
G01X3625530D01*
G03X3622780Y3824580I3J-3894D01*
G01X3612410Y3814260D01*
X3616210Y3838500D01*
X3712550D01*
X3716350Y3814260D01*
X3705980Y3824580D01*
G03X3703230Y3825720I-2753J-2755D01*
G01X3680170D01*
G03X3676270Y3821820I-4J-3896D01*
G01Y3731450D01*
G03X3680170Y3727560I3894J4D01*
G01X3684680D01*
G37*
G36*
G01X3731530Y3721960D02*
X3721570Y3758640D01*
X3726170Y3759770D01*
X3728100Y3757140D01*
X3730050Y3754540D01*
X3732030Y3752010D01*
X3734080Y3749580D01*
X3736200Y3747280D01*
X3738410Y3745150D01*
X3740740Y3743210D01*
X3743210Y3741510D01*
X3745930Y3740030D01*
X3748610Y3738920D01*
X3751530Y3738000D01*
X3754560Y3737240D01*
X3758230Y3736470D01*
X3760810Y3735960D01*
X3763970Y3735390D01*
X3767140Y3734920D01*
X3770300Y3734600D01*
X3773440Y3734480D01*
X3776540Y3734610D01*
X3779590Y3735040D01*
X3782590Y3735820D01*
X3785760Y3737110D01*
X3788300Y3738590D01*
X3790850Y3740600D01*
X3792960Y3742990D01*
X3794830Y3746820D01*
X3795160Y3748670D01*
X3795070Y3751820D01*
X3794280Y3754970D01*
X3792890Y3757960D01*
X3790300Y3761390D01*
X3788720Y3762810D01*
X3786120Y3764520D01*
X3783300Y3765830D01*
X3780310Y3766830D01*
X3776050Y3767860D01*
X3774170Y3768240D01*
X3771110Y3768780D01*
X3768070Y3769260D01*
X3765030Y3769710D01*
X3762000Y3770140D01*
X3758980Y3770580D01*
X3755940Y3771060D01*
X3752900Y3771610D01*
X3749840Y3772250D01*
X3747870Y3772720D01*
X3743680Y3773900D01*
X3740660Y3774970D01*
X3737760Y3776240D01*
X3735020Y3777740D01*
X3732520Y3779500D01*
X3730380Y3781460D01*
X3728430Y3783870D01*
X3726880Y3786480D01*
X3725630Y3789310D01*
X3724670Y3792320D01*
X3723970Y3795460D01*
X3723520Y3798700D01*
X3723260Y3803470D01*
X3723270Y3805270D01*
X3723450Y3808540D01*
X3723840Y3811740D01*
X3724470Y3814860D01*
X3725350Y3817870D01*
X3726480Y3820740D01*
X3727890Y3823440D01*
X3729730Y3826130D01*
X3731590Y3828240D01*
X3733850Y3830310D01*
X3736350Y3832170D01*
X3739030Y3833830D01*
X3741850Y3835300D01*
X3744780Y3836570D01*
X3749170Y3838100D01*
X3750790Y3838580D01*
X3753820Y3839320D01*
X3756860Y3839900D01*
X3759920Y3840320D01*
X3762990Y3840580D01*
X3766010Y3840690D01*
X3769200Y3840650D01*
X3772320Y3840450D01*
X3775420Y3840050D01*
X3778470Y3839450D01*
X3781460Y3838630D01*
X3783820Y3837780D01*
X3787140Y3836260D01*
X3789870Y3834790D01*
X3792560Y3833250D01*
Y3840810D01*
X3801260D01*
X3809020Y3807280D01*
X3806160Y3804440D01*
X3803800Y3806300D01*
X3801420Y3808140D01*
X3799000Y3809930D01*
X3796540Y3811640D01*
X3794020Y3813240D01*
X3791270Y3814800D01*
X3788720Y3816050D01*
X3785940Y3817220D01*
X3783090Y3818240D01*
X3780200Y3819100D01*
X3777270Y3819810D01*
X3774310Y3820360D01*
X3772480Y3820620D01*
X3768390Y3820990D01*
X3765410Y3821050D01*
X3762390Y3820910D01*
X3759850Y3820620D01*
X3756270Y3819920D01*
X3753360Y3818910D01*
X3750800Y3817350D01*
X3749490Y3816090D01*
X3747380Y3812300D01*
X3746720Y3809140D01*
X3746810Y3805980D01*
X3747550Y3803470D01*
X3749420Y3800800D01*
X3751770Y3798970D01*
X3754570Y3797550D01*
X3757640Y3796460D01*
X3760500Y3795700D01*
X3763870Y3794990D01*
X3766880Y3794470D01*
X3769830Y3794050D01*
X3772750Y3793660D01*
X3775640Y3793260D01*
X3778640Y3792790D01*
X3781420Y3792260D01*
X3784320Y3791620D01*
X3787230Y3790890D01*
X3790140Y3790070D01*
X3792890Y3789230D01*
X3795970Y3788200D01*
X3798830Y3787110D01*
X3801610Y3785870D01*
X3804260Y3784450D01*
X3806740Y3782810D01*
X3808750Y3781140D01*
X3811020Y3778720D01*
X3812800Y3776290D01*
X3814330Y3773660D01*
X3815620Y3770880D01*
X3816670Y3767990D01*
X3817500Y3764950D01*
X3818060Y3762030D01*
X3818420Y3759020D01*
X3818540Y3756010D01*
X3818430Y3753000D01*
X3818100Y3750010D01*
X3817500Y3746820D01*
X3816770Y3744110D01*
X3815780Y3741230D01*
X3814570Y3738440D01*
X3813140Y3735750D01*
X3811510Y3733190D01*
X3809670Y3730780D01*
X3807460Y3728370D01*
X3805400Y3726510D01*
X3802990Y3724680D01*
X3800410Y3723050D01*
X3797710Y3721610D01*
X3794880Y3720380D01*
X3791970Y3719340D01*
X3788980Y3718490D01*
X3785950Y3717840D01*
X3782880Y3717380D01*
X3779810Y3717120D01*
X3776370Y3717050D01*
X3773720Y3717150D01*
X3770730Y3717440D01*
X3767770Y3717890D01*
X3764840Y3718470D01*
X3761930Y3719190D01*
X3759050Y3720020D01*
X3756180Y3720940D01*
X3753340Y3721940D01*
X3750500Y3723010D01*
X3747680Y3724120D01*
X3744860Y3725270D01*
X3742040Y3726430D01*
Y3721960D01*
X3731530D01*
G37*
G54D10*
G01X254000Y3471000D02*
G02X409000Y3316000I4769J-150231D01*
G02X254000Y3471000I-155000J0D01*
G01D02*
G03X409000Y3316000I0J-155000D01*
G01X180500Y3510000D02*
Y3556000D01*
X199500D01*
G01X192500Y3533770D02*
X180500D01*
G01X219000Y3556000D02*
X231000D01*
G01X225000D02*
Y3510000D01*
G01X219000D02*
X231000D01*
G01X249000D02*
Y3556000D01*
X259000D01*
X263000Y3553700D01*
X266000Y3550630D01*
X268500Y3546030D01*
X270500Y3540670D01*
X271000Y3533000D01*
X270500Y3525330D01*
X268500Y3519970D01*
X266000Y3515370D01*
X263000Y3512300D01*
X259000Y3510000D01*
X249000D01*
G01X284000Y3556000D02*
Y3523030D01*
X286000Y3516130D01*
X290000Y3511530D01*
X295000Y3510000D01*
X300000Y3511530D01*
X304000Y3516130D01*
X306000Y3523030D01*
Y3556000D01*
G01X320500Y3548330D02*
X323500Y3552930D01*
X327000Y3555230D01*
X331000Y3556000D01*
X336000Y3554470D01*
X339500Y3550630D01*
X340500Y3546030D01*
X340000Y3541430D01*
X338000Y3537600D01*
X328000Y3529930D01*
X323500Y3524570D01*
X320500Y3516900D01*
X319500Y3510000D01*
X340500D01*
G01X409000Y3316000D02*
G03X254000Y3471000I-150231J4769D01*
G01X182500Y4785000D02*
Y4685000D01*
G01X157580Y4785000D02*
X207420D01*
G01X246490Y4730000D02*
X281160D01*
X277910Y4741670D01*
X272490Y4748330D01*
X264910Y4751660D01*
X257320Y4750000D01*
X250820Y4745000D01*
X246490Y4733330D01*
X244320Y4723330D01*
Y4713330D01*
X246490Y4703330D01*
X251910Y4693330D01*
X258410Y4686670D01*
X265990Y4685000D01*
X273570Y4688330D01*
X281160Y4698330D01*
G01X326730Y4751660D02*
X359230Y4685000D01*
G01Y4751660D02*
X326730Y4685000D01*
G01X442720D02*
Y4751660D01*
G01Y4740000D02*
X438390Y4746670D01*
X431890Y4750000D01*
X424300Y4751660D01*
X416720Y4748330D01*
X410220Y4741670D01*
X405890Y4731670D01*
X403720Y4718330D01*
X405890Y4705000D01*
X410220Y4695000D01*
X416720Y4688330D01*
X424300Y4685000D01*
X431890Y4686670D01*
X438390Y4691670D01*
X442720Y4698330D01*
G01X487210Y4696660D02*
X492630Y4690000D01*
X500210Y4685000D01*
X506710D01*
X513210Y4688330D01*
X517540Y4693330D01*
X519710Y4700000D01*
X518630Y4710000D01*
X514290Y4715000D01*
X494790Y4725000D01*
X490460Y4736670D01*
X492630Y4745000D01*
X496960Y4750000D01*
X503460Y4751660D01*
X509960Y4750000D01*
X516460Y4745000D01*
G01X650940Y4785000D02*
X676940D01*
G01X663940D02*
Y4685000D01*
G01X650940D02*
X676940D01*
G01X725760D02*
Y4751660D01*
G01Y4735000D02*
X730100Y4743330D01*
X736600Y4750000D01*
X745260Y4751660D01*
X752850Y4750000D01*
X759350Y4743330D01*
X762600Y4731670D01*
Y4685000D01*
G01X808170Y4696660D02*
X813590Y4690000D01*
X821170Y4685000D01*
X827670D01*
X834170Y4688330D01*
X838500Y4693330D01*
X840670Y4700000D01*
X839590Y4710000D01*
X835250Y4715000D01*
X815750Y4725000D01*
X811420Y4736670D01*
X813590Y4745000D01*
X817920Y4750000D01*
X824420Y4751660D01*
X830920Y4750000D01*
X837420Y4745000D01*
G01X904660Y4785000D02*
Y4685000D01*
G01X889490Y4751660D02*
X919830D01*
G01X969730Y4685000D02*
Y4751660D01*
G01Y4738330D02*
X975150Y4745000D01*
X980570Y4750000D01*
X988150Y4751660D01*
X993570Y4750000D01*
X1000070Y4745000D01*
G01X1046720Y4751660D02*
Y4705000D01*
X1051060Y4693330D01*
X1057560Y4686670D01*
X1065140Y4685000D01*
X1072720Y4686670D01*
X1079220Y4693330D01*
X1083560Y4705000D01*
G01Y4685000D02*
Y4751660D01*
G01X1112880Y4685000D02*
Y4751660D01*
G01Y4733330D02*
X1116130Y4741670D01*
X1121550Y4748330D01*
X1129130Y4751660D01*
X1136710Y4748330D01*
X1142130Y4741670D01*
X1145380Y4733330D01*
Y4685000D01*
G01Y4733330D02*
X1148630Y4741670D01*
X1154050Y4748330D01*
X1161630Y4751660D01*
X1169210Y4748330D01*
X1174630Y4741670D01*
X1177880Y4731670D01*
Y4685000D01*
G01X1209370Y4730000D02*
X1244040D01*
X1240790Y4741670D01*
X1235370Y4748330D01*
X1227790Y4751660D01*
X1220200Y4750000D01*
X1213700Y4745000D01*
X1209370Y4733330D01*
X1207200Y4723330D01*
Y4713330D01*
X1209370Y4703330D01*
X1214790Y4693330D01*
X1221290Y4686670D01*
X1228870Y4685000D01*
X1236450Y4688330D01*
X1244040Y4698330D01*
G01X1287440Y4685000D02*
Y4751660D01*
G01Y4735000D02*
X1291780Y4743330D01*
X1298280Y4750000D01*
X1306940Y4751660D01*
X1314530Y4750000D01*
X1321030Y4743330D01*
X1324280Y4731670D01*
Y4685000D01*
G01X1386100Y4785000D02*
Y4685000D01*
G01X1370930Y4751660D02*
X1401270D01*
G01X1450090Y4696660D02*
X1455510Y4690000D01*
X1463090Y4685000D01*
X1469590D01*
X1476090Y4688330D01*
X1480420Y4693330D01*
X1482590Y4700000D01*
X1481510Y4710000D01*
X1477170Y4715000D01*
X1457670Y4725000D01*
X1453340Y4736670D01*
X1455510Y4745000D01*
X1459840Y4750000D01*
X1466340Y4751660D01*
X1472840Y4750000D01*
X1479340Y4745000D01*
G01X161920Y4495000D02*
Y4595000D01*
X203080D01*
G01X187920Y4546670D02*
X161920D01*
G01X286570Y4586670D02*
X280070Y4591670D01*
X272490Y4595000D01*
X263820D01*
X254070Y4590000D01*
X246490Y4581670D01*
X241070Y4571670D01*
X236740Y4555000D01*
X235660Y4540000D01*
X237820Y4525000D01*
X241070Y4515000D01*
X247570Y4505000D01*
X255160Y4498330D01*
X262740Y4495000D01*
X270320D01*
X277910Y4498330D01*
X284410Y4503330D01*
X289820Y4510000D01*
G01X366810Y4586670D02*
X360310Y4591670D01*
X352730Y4595000D01*
X344060D01*
X334310Y4590000D01*
X326730Y4581670D01*
X321310Y4571670D01*
X316980Y4555000D01*
X315900Y4540000D01*
X318060Y4525000D01*
X321310Y4515000D01*
X327810Y4505000D01*
X335400Y4498330D01*
X342980Y4495000D01*
X350560D01*
X358150Y4498330D01*
X364650Y4503330D01*
X370060Y4510000D01*
G01X490460Y4595000D02*
X516460D01*
G01X503460D02*
Y4495000D01*
G01X490460D02*
X516460D01*
G01X559870D02*
Y4595000D01*
X581530D01*
X590200Y4590000D01*
X596700Y4583330D01*
X602120Y4573330D01*
X606450Y4561660D01*
X607530Y4545000D01*
X606450Y4528330D01*
X602120Y4516670D01*
X596700Y4506660D01*
X590200Y4500000D01*
X581530Y4495000D01*
X559870D01*
G01X663940Y4491670D02*
X661770Y4493330D01*
Y4496670D01*
X663940Y4498330D01*
X666110Y4496670D01*
Y4493330D01*
X663940Y4491670D01*
G01Y4536660D02*
X661770Y4538330D01*
Y4541670D01*
X663940Y4543330D01*
X666110Y4541670D01*
Y4538330D01*
X663940Y4536660D01*
G01X803840Y4595000D02*
X845000D01*
X803840Y4495000D01*
X845000D01*
G01X877580D02*
X904660Y4595000D01*
X931740Y4495000D01*
G01X921990Y4530000D02*
X887330D01*
G01X984900Y4595000D02*
Y4495000D01*
G01X959980Y4595000D02*
X1009820D01*
G01X1065140Y4495000D02*
Y4595000D01*
X1052140Y4575000D01*
G01Y4495000D02*
X1078140D01*
G01X1124800Y4578330D02*
X1131300Y4588330D01*
X1138880Y4593330D01*
X1147550Y4595000D01*
X1158380Y4591670D01*
X1165960Y4583330D01*
X1168130Y4573330D01*
X1167050Y4563330D01*
X1162710Y4555000D01*
X1141050Y4538330D01*
X1131300Y4526670D01*
X1124800Y4510000D01*
X1122630Y4495000D01*
X1168130D01*
G01X1225620Y4595000D02*
X1216950Y4591670D01*
X1210450Y4583330D01*
X1206120Y4573330D01*
X1202870Y4560000D01*
X1201790Y4545000D01*
X1202870Y4530000D01*
X1206120Y4516670D01*
X1210450Y4506660D01*
X1216950Y4498330D01*
X1225620Y4495000D01*
X1234290Y4498330D01*
X1240790Y4506660D01*
X1245120Y4516670D01*
X1248370Y4530000D01*
X1249450Y4545000D01*
X1248370Y4560000D01*
X1245120Y4573330D01*
X1240790Y4583330D01*
X1234290Y4591670D01*
X1225620Y4595000D01*
G01X1305860D02*
X1297190Y4591670D01*
X1290690Y4583330D01*
X1286360Y4573330D01*
X1283110Y4560000D01*
X1282030Y4545000D01*
X1283110Y4530000D01*
X1286360Y4516670D01*
X1290690Y4506660D01*
X1297190Y4498330D01*
X1305860Y4495000D01*
X1314530Y4498330D01*
X1321030Y4506660D01*
X1325360Y4516670D01*
X1328610Y4530000D01*
X1329690Y4545000D01*
X1328610Y4560000D01*
X1325360Y4573330D01*
X1321030Y4583330D01*
X1314530Y4591670D01*
X1305860Y4595000D01*
G01X1407770Y4495000D02*
X1364430D01*
Y4595000D01*
X1407770D01*
G01X1390430Y4546670D02*
X1364430D01*
G01X1438170Y4495000D02*
Y4595000D01*
X1466340Y4511670D01*
X1494510Y4595000D01*
Y4495000D01*
G01X1528160Y4506660D02*
X1535750Y4498330D01*
X1544410Y4495000D01*
X1553080Y4498330D01*
X1560660Y4508330D01*
X1566080Y4523330D01*
X1568250Y4538330D01*
Y4556670D01*
X1566080Y4571670D01*
X1560660Y4585000D01*
X1554160Y4591670D01*
X1546580Y4595000D01*
X1537910Y4591670D01*
X1531410Y4585000D01*
X1527080Y4575000D01*
X1524910Y4561660D01*
X1527080Y4550000D01*
X1532500Y4538330D01*
X1539000Y4531660D01*
X1546580Y4530000D01*
X1555250Y4533330D01*
X1561750Y4541670D01*
X1568250Y4556670D01*
G01X1626820Y4595000D02*
X1618150Y4591670D01*
X1611650Y4583330D01*
X1607320Y4573330D01*
X1604070Y4560000D01*
X1602990Y4545000D01*
X1604070Y4530000D01*
X1607320Y4516670D01*
X1611650Y4506660D01*
X1618150Y4498330D01*
X1626820Y4495000D01*
X1635490Y4498330D01*
X1641990Y4506660D01*
X1646320Y4516670D01*
X1649570Y4530000D01*
X1650650Y4545000D01*
X1649570Y4560000D01*
X1646320Y4573330D01*
X1641990Y4583330D01*
X1635490Y4591670D01*
X1626820Y4595000D01*
G01X1707060D02*
X1698390Y4591670D01*
X1691890Y4583330D01*
X1687560Y4573330D01*
X1684310Y4560000D01*
X1683230Y4545000D01*
X1684310Y4530000D01*
X1687560Y4516670D01*
X1691890Y4506660D01*
X1698390Y4498330D01*
X1707060Y4495000D01*
X1715730Y4498330D01*
X1722230Y4506660D01*
X1726560Y4516670D01*
X1729810Y4530000D01*
X1730890Y4545000D01*
X1729810Y4560000D01*
X1726560Y4573330D01*
X1722230Y4583330D01*
X1715730Y4591670D01*
X1707060Y4595000D01*
G01X1150000Y1050000D02*
Y1030000D01*
G01Y1050000D02*
Y1030000D01*
G01X945000Y1550000D02*
Y1530000D01*
G01X1045000Y1550000D02*
Y1530000D01*
G01Y1550000D02*
Y1530000D01*
G01X945000Y1550000D02*
Y1530000D01*
G01X1050000Y1550000D02*
Y1530000D01*
G01X1150000Y1550000D02*
Y1530000D01*
G01Y1550000D02*
Y1530000D01*
G01X1050000Y1550000D02*
Y1530000D01*
G01X1170000Y1475000D02*
Y1555000D01*
X1175000Y1560000D01*
G01X1170000Y1475000D02*
Y1555000D01*
X1175000Y1560000D01*
G01X1205000Y1875000D02*
X1185000D01*
G01X1205000Y1775000D02*
X1185000D01*
G01X1205000D02*
X1185000D01*
G01X1205000Y1875000D02*
X1185000D01*
G01X1065000Y1775000D02*
X1045000D01*
G01X1065000Y1675000D02*
X1045000D01*
G01X1065000D02*
X1045000D01*
G01X1065000Y1775000D02*
X1045000D01*
G01X948500Y3357500D02*
Y3037500D01*
G01X1473500Y2832500D02*
X1153500D01*
G01X1473500D02*
X1153500D01*
G01X948500Y3357500D02*
Y3037500D01*
G01X1153500Y3562500D02*
X1473500D01*
G01X1153500D02*
X1473500D01*
G01X1395000Y1190000D02*
X1375000D01*
G01X1395000Y1090000D02*
X1375000D01*
G01X1395000D02*
X1375000D01*
G01X1395000Y1190000D02*
X1375000D01*
G01X1250000Y1050000D02*
Y1030000D01*
G01Y1050000D02*
Y1030000D01*
G01X1239500Y845000D02*
X1260500Y891000D01*
G01X1239500D02*
X1260500Y845000D01*
G01X1275500Y883330D02*
X1278500Y887930D01*
X1282000Y890230D01*
X1286000Y891000D01*
X1291000Y889470D01*
X1294500Y885630D01*
X1295500Y881030D01*
X1295000Y876430D01*
X1293000Y872600D01*
X1283000Y864930D01*
X1278500Y859570D01*
X1275500Y851900D01*
X1274500Y845000D01*
X1295500D01*
G01X1435000Y1050000D02*
X1465000D01*
G01Y820000D02*
X1440000D01*
X1435000Y825000D01*
G01X1465000Y820000D02*
X1440000D01*
X1435000Y825000D01*
G01Y1050000D02*
X1465000D01*
G01X1395000Y1310000D02*
X1375000D01*
G01X1395000Y1210000D02*
X1375000D01*
G01X1395000D02*
X1375000D01*
G01X1395000Y1310000D02*
X1375000D01*
G01X1530000Y1250000D02*
Y1270000D01*
G01Y1250000D02*
Y1270000D01*
G01X1580000Y1480000D02*
Y1460000D01*
G01Y1480000D02*
Y1460000D01*
G01X1365000Y1330000D02*
X1315000D01*
G01X1510000Y1575000D02*
Y1475000D01*
G01Y1575000D02*
Y1475000D01*
G01X1365000Y1330000D02*
X1315000D01*
G01X1415000Y1970000D02*
X1395000D01*
G01X1415000Y1870000D02*
X1395000D01*
G01X1415000D02*
X1395000D01*
G01X1415000Y1970000D02*
X1395000D01*
G01X1365000Y1720000D02*
X1315000D01*
G01X1365000D02*
X1315000D01*
G01X1445000Y2100000D02*
X1425000D01*
G01X1445000Y2000000D02*
X1425000D01*
G01X1445000D02*
X1425000D01*
G01X1445000Y2100000D02*
X1425000D01*
G01X1475000Y2360000D02*
X1455000D01*
G01X1475000Y2260000D02*
X1455000D01*
G01X1475000D02*
X1455000D01*
G01X1475000Y2360000D02*
X1455000D01*
G01X1445000Y2230000D02*
X1425000D01*
G01X1445000Y2130000D02*
X1425000D01*
G01X1445000D02*
X1425000D01*
G01X1445000Y2230000D02*
X1425000D01*
G01X1555000Y2405000D02*
Y2425000D01*
G01Y2405000D02*
Y2425000D01*
G01X1920000Y1585000D02*
Y1565000D01*
G01Y1585000D02*
Y1565000D01*
G01X1630000Y1250000D02*
Y1270000D01*
G01Y1250000D02*
Y1270000D01*
G01X1685000Y1585000D02*
Y1565000D01*
G01X1785000Y1585000D02*
Y1565000D01*
G01Y1585000D02*
Y1565000D01*
G01X1685000Y1585000D02*
Y1565000D01*
G01X1680000Y1480000D02*
Y1460000D01*
G01Y1480000D02*
Y1460000D01*
G01X1663000Y1777500D02*
Y1747500D01*
X1683000Y1727500D01*
X1713000D01*
G01X1663000Y1777500D02*
Y1747500D01*
X1683000Y1727500D01*
X1713000D01*
G01Y2262500D02*
X1663000D01*
Y2212500D01*
G01X1713000Y2262500D02*
X1663000D01*
Y2212500D01*
G01X1865000Y2510000D02*
Y2530000D01*
G01X1765000Y2510000D02*
Y2530000D01*
G01Y2510000D02*
Y2530000D01*
G01X1865000Y2510000D02*
Y2530000D01*
G01X1965000Y2585000D02*
Y2605000D01*
G01X1865000Y2585000D02*
Y2605000D01*
G01Y2585000D02*
Y2605000D01*
G01X1965000Y2585000D02*
Y2605000D01*
G01X1655000Y2405000D02*
Y2425000D01*
G01Y2405000D02*
Y2425000D01*
G01X1765000Y2510000D02*
Y2530000D01*
G01X1665000Y2510000D02*
Y2530000D01*
G01Y2510000D02*
Y2530000D01*
G01X1765000Y2510000D02*
Y2530000D01*
G01X2149000Y2395000D02*
Y2475000D01*
X2129000Y2495000D01*
X1959000D01*
Y2395000D01*
X2149000D01*
G01D02*
Y2475000D01*
X2129000Y2495000D01*
X1959000D01*
Y2395000D01*
X2149000D01*
G01X1955000Y2501000D02*
X2035000D01*
X2055000Y2521000D01*
Y2691000D01*
X1955000D01*
Y2501000D01*
G01D02*
X2035000D01*
X2055000Y2521000D01*
Y2691000D01*
X1955000D01*
Y2501000D01*
G01X1678500Y3357500D02*
Y3037500D01*
G01Y3357500D02*
Y3037500D01*
G01X1830000Y4870000D02*
X3775000D01*
Y4215000D01*
X1975000D01*
Y3625000D01*
X1825000D01*
Y4870000D01*
X1860000D01*
G01X1830000D02*
X3775000D01*
Y4215000D01*
X1975000D01*
Y3625000D01*
X1825000D01*
Y4870000D01*
X1860000D01*
G01X2385000Y890000D02*
Y870000D01*
G01Y890000D02*
Y870000D01*
G01X2350000Y1165000D02*
Y1135000D01*
G01Y1165000D02*
Y1135000D01*
G01X2275000Y975000D02*
X2255000D01*
G01X2275000Y875000D02*
X2255000D01*
G01X2275000D02*
X2255000D01*
G01X2275000Y975000D02*
X2255000D01*
G01X2020000Y1585000D02*
Y1565000D01*
G01Y1585000D02*
Y1565000D01*
G01X2135000Y1530000D02*
X2155000D01*
G01X2135000D02*
X2155000D01*
G01X2135000Y1630000D02*
X2155000D01*
G01X2135000D02*
X2155000D01*
G01X2193000Y1777500D02*
Y1727500D01*
X2143000D01*
G01X2193000Y1777500D02*
Y1727500D01*
X2143000D01*
G01X2355000Y2175000D02*
X2375000D01*
G01X2355000Y2275000D02*
X2375000D01*
G01X2355000D02*
X2375000D01*
G01X2355000Y2175000D02*
X2375000D01*
G01X2226000Y2385000D02*
Y2305000D01*
X2246000Y2285000D01*
X2416000D01*
Y2385000D01*
X2226000D01*
G01D02*
Y2305000D01*
X2246000Y2285000D01*
X2416000D01*
Y2385000D01*
X2226000D01*
G01X2143000Y2262500D02*
X2193000D01*
Y2212500D01*
G01X2143000Y2262500D02*
X2193000D01*
Y2212500D01*
G01X2345000Y2690000D02*
X2365000D01*
G01X2345000D02*
X2365000D01*
G01X2345000Y2395000D02*
X2365000D01*
G01X2345000Y2495000D02*
X2365000D01*
G01X2345000D02*
X2365000D01*
G01X2345000Y2395000D02*
X2365000D01*
G01X2155000Y2585000D02*
Y2605000D01*
G01X2055000Y2585000D02*
Y2605000D01*
G01Y2585000D02*
Y2605000D01*
G01X2155000Y2585000D02*
Y2605000D01*
G01X2350000Y2496000D02*
X2430000D01*
X2450000Y2516000D01*
Y2686000D01*
X2350000D01*
Y2496000D01*
G01D02*
X2430000D01*
X2450000Y2516000D01*
Y2686000D01*
X2350000D01*
Y2496000D01*
G01X2150000Y2501000D02*
X2230000D01*
X2250000Y2521000D01*
Y2691000D01*
X2150000D01*
Y2501000D01*
G01D02*
X2230000D01*
X2250000Y2521000D01*
Y2691000D01*
X2150000D01*
Y2501000D01*
G01X2011000Y2800000D02*
Y2720000D01*
X2031000Y2700000D01*
X2201000D01*
Y2800000D01*
X2011000D01*
G01D02*
Y2720000D01*
X2031000Y2700000D01*
X2201000D01*
Y2800000D01*
X2011000D01*
G01X2265000Y3095000D02*
X2245000D01*
G01X2265000D02*
X2245000D01*
G01X2345000Y2790000D02*
X2365000D01*
G01X2345000D02*
X2365000D01*
G01X2350000Y2877500D02*
Y2897500D01*
G01Y2877500D02*
Y2897500D01*
G01Y2985000D02*
Y3065000D01*
X2330000Y3085000D01*
X2160000D01*
Y2985000D01*
X2350000D01*
G01D02*
Y3065000D01*
X2330000Y3085000D01*
X2160000D01*
Y2985000D01*
X2350000D01*
G01X2265000Y3195000D02*
X2245000D01*
G01X2265000D02*
X2245000D01*
G01X2100000Y3385000D02*
Y3405000D01*
G01X2000000Y3385000D02*
Y3405000D01*
G01Y3385000D02*
Y3405000D01*
G01X2100000Y3385000D02*
Y3405000D01*
G01X2015000Y3285000D02*
X1995000D01*
G01X2015000Y3185000D02*
X1995000D01*
G01X2015000D02*
X1995000D01*
G01X2015000Y3285000D02*
X1995000D01*
G01X2190000Y3495000D02*
Y3575000D01*
X2170000Y3595000D01*
X2000000D01*
Y3495000D01*
X2190000D01*
G01D02*
Y3575000D01*
X2170000Y3595000D01*
X2000000D01*
Y3495000D01*
X2190000D01*
G01X2511700Y1188800D02*
X2501700D01*
Y1003800D01*
X2511700Y993800D01*
G01Y1188800D02*
X2501700D01*
Y1003800D01*
X2511700Y993800D01*
G01X2485000Y890000D02*
Y870000D01*
G01Y890000D02*
Y870000D01*
G01X2460000Y1135000D02*
Y1165000D01*
G01Y1135000D02*
Y1165000D01*
G01X2544000Y1341000D02*
Y1308030D01*
X2546000Y1301130D01*
X2550000Y1296530D01*
X2555000Y1295000D01*
X2560000Y1296530D01*
X2564000Y1301130D01*
X2566000Y1308030D01*
Y1341000D01*
G01X2580500Y1333330D02*
X2583500Y1337930D01*
X2587000Y1340230D01*
X2591000Y1341000D01*
X2596000Y1339470D01*
X2599500Y1335630D01*
X2600500Y1331030D01*
X2600000Y1326430D01*
X2598000Y1322600D01*
X2588000Y1314930D01*
X2583500Y1309570D01*
X2580500Y1301900D01*
X2579500Y1295000D01*
X2600500D01*
G01X2395000Y1925000D02*
X2415000D01*
G01X2395000D02*
X2415000D01*
G01X2455000Y1895000D02*
X2435000D01*
G01X2455000Y1795000D02*
X2435000D01*
G01X2455000D02*
X2435000D01*
G01X2455000Y1895000D02*
X2435000D01*
G01X2765000Y2380000D02*
X2785000D01*
G01X2765000D02*
X2785000D01*
G01X2395000Y2025000D02*
X2415000D01*
G01X2395000D02*
X2415000D01*
G01X2765000Y2285000D02*
X2785000D01*
G01X2765000Y2385000D02*
X2785000D01*
G01X2765000D02*
X2785000D01*
G01X2765000Y2285000D02*
X2785000D01*
G01X2590000Y2380000D02*
X2570000D01*
G01X2590000D02*
X2570000D01*
G01X2395000Y2045000D02*
X2415000D01*
G01X2395000Y2145000D02*
X2415000D01*
G01X2395000D02*
X2415000D01*
G01X2395000Y2045000D02*
X2415000D01*
G01X2570000Y2285000D02*
X2590000D01*
G01X2570000Y2385000D02*
X2590000D01*
G01X2570000D02*
X2590000D01*
G01X2570000Y2285000D02*
X2590000D01*
G01X2765000Y2480000D02*
X2785000D01*
G01X2765000D02*
X2785000D01*
G01X2560000Y2580000D02*
Y2600000D01*
G01X2460000Y2580000D02*
Y2600000D01*
G01Y2580000D02*
Y2600000D01*
G01X2560000Y2580000D02*
Y2600000D01*
G01X2590000Y2480000D02*
X2570000D01*
G01X2590000D02*
X2570000D01*
G01X2435000Y2985000D02*
X2455000D01*
G01X2435000Y3085000D02*
X2455000D01*
G01X2435000D02*
X2455000D01*
G01X2435000Y2985000D02*
X2455000D01*
G01X2450000Y2877500D02*
Y2897500D01*
G01Y2877500D02*
Y2897500D01*
G01X2811700Y1188800D02*
X2821700D01*
Y998800D01*
X2811700D01*
G01Y1188800D02*
X2821700D01*
Y998800D01*
X2811700D01*
G01X2940000Y1180000D02*
X2960000D01*
G01X2940000D02*
X2960000D01*
G01X2940000Y1280000D02*
X2960000D01*
G01X2940000D02*
X2960000D01*
G01X3701500Y3446500D02*
G02X3856500Y3291500I4769J-150231D01*
G02X3701500Y3446500I-155000J0D01*
G01D02*
G03X3856500Y3291500I0J-155000D01*
G01X3680500Y390000D02*
Y436000D01*
X3699500D01*
G01X3692500Y413770D02*
X3680500D01*
G01X3719000Y436000D02*
X3731000D01*
G01X3725000D02*
Y390000D01*
G01X3719000D02*
X3731000D01*
G01X3749000D02*
Y436000D01*
X3759000D01*
X3763000Y433700D01*
X3766000Y430630D01*
X3768500Y426030D01*
X3770500Y420670D01*
X3771000Y413000D01*
X3770500Y405330D01*
X3768500Y399970D01*
X3766000Y395370D01*
X3763000Y392300D01*
X3759000Y390000D01*
X3749000D01*
G01X3784000Y436000D02*
Y403030D01*
X3786000Y396130D01*
X3790000Y391530D01*
X3795000Y390000D01*
X3800000Y391530D01*
X3804000Y396130D01*
X3806000Y403030D01*
Y436000D01*
G01X3830000Y390000D02*
Y436000D01*
X3824000Y426800D01*
G01Y390000D02*
X3836000D01*
G01X3751600Y346800D02*
G02X3906600Y191800I4769J-150231D01*
G02X3751600Y346800I-155000J0D01*
G01X3906600Y191800D02*
G03X3751600Y346800I-150231J4769D01*
G01D02*
G03X3906600Y191800I0J-155000D01*
G01X3615500Y3475000D02*
Y3521000D01*
X3634500D01*
G01X3627500Y3498770D02*
X3615500D01*
G01X3654000Y3521000D02*
X3666000D01*
G01X3660000D02*
Y3475000D01*
G01X3654000D02*
X3666000D01*
G01X3684000D02*
Y3521000D01*
X3694000D01*
X3698000Y3518700D01*
X3701000Y3515630D01*
X3703500Y3511030D01*
X3705500Y3505670D01*
X3706000Y3498000D01*
X3705500Y3490330D01*
X3703500Y3484970D01*
X3701000Y3480370D01*
X3698000Y3477300D01*
X3694000Y3475000D01*
X3684000D01*
G01X3719000Y3521000D02*
Y3488030D01*
X3721000Y3481130D01*
X3725000Y3476530D01*
X3730000Y3475000D01*
X3735000Y3476530D01*
X3739000Y3481130D01*
X3741000Y3488030D01*
Y3521000D01*
G01X3754000Y3484200D02*
X3757000Y3478830D01*
X3761000Y3475770D01*
X3765500Y3475000D01*
X3769500Y3475770D01*
X3773500Y3479600D01*
X3776000Y3484200D01*
X3776500Y3488800D01*
X3775500Y3494170D01*
X3772000Y3498000D01*
X3768500Y3499530D01*
X3764000D01*
G01X3768500D02*
X3771500Y3501830D01*
X3774000Y3505670D01*
X3775000Y3510270D01*
X3774000Y3514870D01*
X3771500Y3518700D01*
X3767000Y3521000D01*
X3762500Y3520230D01*
X3758000Y3517170D01*
G01X3856500Y3291500D02*
G03X3701500Y3446500I-150231J4769D01*
G54D11*
G01X710830Y1619330D02*
X704330Y1611330D01*
X700000Y1602000D01*
Y1591330D01*
X706500Y1579330D01*
X717330Y1570000D01*
X730330Y1563330D01*
X752000Y1558000D01*
X771500Y1556670D01*
X791000Y1559330D01*
X804000Y1563330D01*
X817000Y1571330D01*
X825670Y1580670D01*
X830000Y1590000D01*
Y1599330D01*
X825670Y1608670D01*
X819170Y1616670D01*
X810500Y1623330D01*
G01X710830Y1724330D02*
X704330Y1716330D01*
X700000Y1707000D01*
Y1696330D01*
X706500Y1684330D01*
X717330Y1675000D01*
X730330Y1668330D01*
X752000Y1663000D01*
X771500Y1661670D01*
X791000Y1664330D01*
X804000Y1668330D01*
X817000Y1676330D01*
X825670Y1685670D01*
X830000Y1695000D01*
Y1704330D01*
X825670Y1713670D01*
X819170Y1721670D01*
X810500Y1728330D01*
G01X830000Y1800000D02*
X700000D01*
X726000Y1784000D01*
G01X830000D02*
Y1816000D01*
G01X721670Y1879670D02*
X708670Y1887670D01*
X702170Y1897000D01*
X700000Y1907670D01*
X704330Y1921000D01*
X715170Y1930330D01*
X728160Y1933000D01*
X741170Y1931670D01*
X752000Y1926330D01*
X773670Y1899670D01*
X788830Y1887670D01*
X810500Y1879670D01*
X830000Y1877000D01*
Y1933000D01*
G01X700000Y2010000D02*
X704330Y1999330D01*
X715170Y1991330D01*
X728160Y1986000D01*
X745500Y1982000D01*
X765000Y1980670D01*
X784500Y1982000D01*
X801840Y1986000D01*
X814840Y1991330D01*
X825670Y1999330D01*
X830000Y2010000D01*
X825670Y2020670D01*
X814840Y2028670D01*
X801840Y2034000D01*
X784500Y2038000D01*
X765000Y2039330D01*
X745500Y2038000D01*
X728160Y2034000D01*
X715170Y2028670D01*
X704330Y2020670D01*
X700000Y2010000D01*
G01X743340Y2095000D02*
X830000Y2135000D01*
G01X743340D02*
X830000Y2095000D01*
G01Y2246670D02*
Y2193330D01*
X700000D01*
Y2246670D01*
G01X762830Y2225330D02*
Y2193330D01*
G01X830000Y2290330D02*
X700000D01*
X808330Y2325000D01*
X700000Y2359670D01*
X830000D01*
G01Y2535000D02*
X827830Y2544330D01*
X821340Y2555000D01*
X810500Y2561670D01*
X795330Y2564330D01*
X780170Y2561670D01*
X767170Y2553670D01*
X760670Y2541670D01*
Y2528330D01*
X756330Y2520330D01*
X745500Y2513670D01*
X730330Y2511000D01*
X715170Y2515000D01*
X704330Y2524330D01*
X700000Y2535000D01*
X704330Y2545670D01*
X715170Y2555000D01*
X730330Y2559000D01*
X745500Y2556330D01*
X756330Y2549670D01*
X760670Y2541670D01*
Y2528330D01*
X767170Y2516330D01*
X780170Y2508330D01*
X795330Y2505670D01*
X810500Y2508330D01*
X821340Y2515000D01*
X827830Y2525670D01*
X830000Y2535000D01*
G01X775840Y2614670D02*
X760670Y2624000D01*
X752000Y2632000D01*
X747670Y2642670D01*
X752000Y2652000D01*
X760670Y2658670D01*
X773670Y2664000D01*
X788830Y2665330D01*
X801840Y2664000D01*
X814840Y2658670D01*
X825670Y2650670D01*
X830000Y2641330D01*
X825670Y2630670D01*
X812670Y2621330D01*
X793170Y2616000D01*
X771500Y2614670D01*
X743340Y2617330D01*
X728160Y2621330D01*
X713000Y2628000D01*
X702170Y2637330D01*
X700000Y2646670D01*
X704330Y2656000D01*
X715170Y2662670D01*
G01X830000Y2745000D02*
X827830Y2754330D01*
X821340Y2765000D01*
X810500Y2771670D01*
X795330Y2774330D01*
X780170Y2771670D01*
X767170Y2763670D01*
X760670Y2751670D01*
Y2738330D01*
X756330Y2730330D01*
X745500Y2723670D01*
X730330Y2721000D01*
X715170Y2725000D01*
X704330Y2734330D01*
X700000Y2745000D01*
X704330Y2755670D01*
X715170Y2765000D01*
X730330Y2769000D01*
X745500Y2766330D01*
X756330Y2759670D01*
X760670Y2751670D01*
Y2738330D01*
X767170Y2726330D01*
X780170Y2718330D01*
X795330Y2715670D01*
X810500Y2718330D01*
X821340Y2725000D01*
X827830Y2735670D01*
X830000Y2745000D01*
G01X834330Y2826000D02*
X700000Y2874000D01*
G01X814840Y2932330D02*
X825670Y2941670D01*
X830000Y2952330D01*
X825670Y2963000D01*
X812670Y2972330D01*
X793170Y2979000D01*
X773670Y2981670D01*
X749830D01*
X730330Y2979000D01*
X713000Y2972330D01*
X704330Y2964330D01*
X700000Y2955000D01*
X704330Y2944330D01*
X713000Y2936330D01*
X726000Y2931000D01*
X743340Y2928330D01*
X758500Y2931000D01*
X773670Y2937670D01*
X782340Y2945670D01*
X784500Y2955000D01*
X780170Y2965670D01*
X769330Y2973670D01*
X749830Y2981670D01*
G01X804000Y3030670D02*
X819170Y3038670D01*
X827830Y3049330D01*
X830000Y3061330D01*
X827830Y3072000D01*
X817000Y3082670D01*
X804000Y3089330D01*
X791000Y3090670D01*
X775840Y3088000D01*
X765000Y3078670D01*
X760670Y3069330D01*
Y3057330D01*
G01Y3069330D02*
X754170Y3077330D01*
X743340Y3084000D01*
X730330Y3086670D01*
X717330Y3084000D01*
X706500Y3077330D01*
X700000Y3065330D01*
X702170Y3053330D01*
X710830Y3041330D01*
G01X700000Y3165000D02*
X704330Y3154330D01*
X715170Y3146330D01*
X728160Y3141000D01*
X745500Y3137000D01*
X765000Y3135670D01*
X784500Y3137000D01*
X801840Y3141000D01*
X814840Y3146330D01*
X825670Y3154330D01*
X830000Y3165000D01*
X825670Y3175670D01*
X814840Y3183670D01*
X801840Y3189000D01*
X784500Y3193000D01*
X765000Y3194330D01*
X745500Y3193000D01*
X728160Y3189000D01*
X715170Y3183670D01*
X704330Y3175670D01*
X700000Y3165000D01*
G01X830000Y3340330D02*
X700000D01*
X808330Y3375000D01*
X700000Y3409670D01*
X830000D01*
G01Y3452000D02*
X700000D01*
G01Y3508000D02*
X830000D01*
G01X765000D02*
Y3452000D01*
G01X743340Y3565000D02*
Y3605000D01*
X830000Y3565000D01*
Y3605000D01*
G01X595000Y1843330D02*
X465000D01*
Y1876670D01*
X471500Y1887330D01*
X480170Y1894000D01*
X497500Y1896670D01*
X514830Y1894000D01*
X525670Y1886000D01*
X532170Y1876670D01*
Y1843330D01*
G01Y1876670D02*
X595000Y1896670D01*
G01X536500Y1955000D02*
Y1997670D01*
X521330Y1993670D01*
X512670Y1987000D01*
X508340Y1977670D01*
X510500Y1968330D01*
X517000Y1960330D01*
X532170Y1955000D01*
X545170Y1952330D01*
X558170D01*
X571170Y1955000D01*
X584170Y1961670D01*
X592830Y1969670D01*
X595000Y1979000D01*
X590670Y1988330D01*
X577670Y1997670D01*
G01X508340Y2056000D02*
X595000Y2080000D01*
X508340Y2104000D01*
G01X595000Y2290000D02*
X465000D01*
X491000Y2274000D01*
G01X595000D02*
Y2306000D01*
G01X599330Y2395000D02*
X597170Y2392330D01*
X592830D01*
X590670Y2395000D01*
X592830Y2397670D01*
X597170D01*
X599330Y2395000D01*
G01X595000Y2500000D02*
X465000D01*
X491000Y2484000D01*
G01X595000D02*
Y2516000D01*
G54D12*
G01X2170250Y3934330D02*
X2170750Y3937000D01*
G01X2171250D02*
X2170750Y3934330D01*
G01X2170000Y3935330D02*
X2171500D01*
G01Y3936000D02*
X2170000D01*
G01X2172050Y3935000D02*
Y3937000D01*
X2172670D01*
X2172870Y3936900D01*
X2173000Y3936770D01*
X2173050Y3936500D01*
X2173000Y3936230D01*
X2172850Y3936070D01*
X2172670Y3935970D01*
X2172050D01*
G01X2172670D02*
X2173050Y3935000D01*
G01X2174850D02*
X2173850D01*
Y3937000D01*
X2174850D01*
G01X2174450Y3936030D02*
X2173850D01*
G01X2175670Y3935000D02*
Y3937000D01*
X2176630D01*
G01X2176270Y3936030D02*
X2175670D01*
G01X2177400Y3935000D02*
Y3937000D01*
X2177900D01*
X2178100Y3936900D01*
X2178250Y3936770D01*
X2178380Y3936570D01*
X2178480Y3936330D01*
X2178500Y3936000D01*
X2178480Y3935670D01*
X2178380Y3935430D01*
X2178250Y3935230D01*
X2178100Y3935100D01*
X2177900Y3935000D01*
X2177400D01*
G01X2180250D02*
X2179250D01*
Y3937000D01*
X2180250D01*
G01X2179850Y3936030D02*
X2179250D01*
G01X2181020Y3935270D02*
X2181230Y3935100D01*
X2181450Y3935000D01*
X2181650D01*
X2181850Y3935100D01*
X2182000Y3935270D01*
X2182080Y3935500D01*
X2182030Y3935730D01*
X2181900Y3935930D01*
X2181670Y3936070D01*
X2181380Y3936130D01*
X2181200Y3936270D01*
X2181120Y3936500D01*
X2181180Y3936730D01*
X2181300Y3936900D01*
X2181470Y3937000D01*
X2181650D01*
X2181830Y3936930D01*
X2181980Y3936770D01*
G01X2170250Y3934330D02*
X2170750Y3937000D01*
G01X2171250D02*
X2170750Y3934330D01*
G01X2170000Y3935330D02*
X2171500D01*
G01Y3936000D02*
X2170000D01*
G01X2172050Y3935000D02*
Y3937000D01*
X2172670D01*
X2172870Y3936900D01*
X2173000Y3936770D01*
X2173050Y3936500D01*
X2173000Y3936230D01*
X2172850Y3936070D01*
X2172670Y3935970D01*
X2172050D01*
G01X2172670D02*
X2173050Y3935000D01*
G01X2174850D02*
X2173850D01*
Y3937000D01*
X2174850D01*
G01X2174450Y3936030D02*
X2173850D01*
G01X2175670Y3935000D02*
Y3937000D01*
X2176630D01*
G01X2176270Y3936030D02*
X2175670D01*
G01X2177400Y3935000D02*
Y3937000D01*
X2177900D01*
X2178100Y3936900D01*
X2178250Y3936770D01*
X2178380Y3936570D01*
X2178480Y3936330D01*
X2178500Y3936000D01*
X2178480Y3935670D01*
X2178380Y3935430D01*
X2178250Y3935230D01*
X2178100Y3935100D01*
X2177900Y3935000D01*
X2177400D01*
G01X2180250D02*
X2179250D01*
Y3937000D01*
X2180250D01*
G01X2179850Y3936030D02*
X2179250D01*
G01X2181020Y3935270D02*
X2181230Y3935100D01*
X2181450Y3935000D01*
X2181650D01*
X2181850Y3935100D01*
X2182000Y3935270D01*
X2182080Y3935500D01*
X2182030Y3935730D01*
X2181900Y3935930D01*
X2181670Y3936070D01*
X2181380Y3936130D01*
X2181200Y3936270D01*
X2181120Y3936500D01*
X2181180Y3936730D01*
X2181300Y3936900D01*
X2181470Y3937000D01*
X2181650D01*
X2181830Y3936930D01*
X2181980Y3936770D01*
G01X3350250Y2414330D02*
X3350750Y2417000D01*
G01X3351250D02*
X3350750Y2414330D01*
G01X3350000Y2415330D02*
X3351500D01*
G01Y2416000D02*
X3350000D01*
G01X3352050Y2415000D02*
Y2417000D01*
X3352670D01*
X3352870Y2416900D01*
X3353000Y2416770D01*
X3353050Y2416500D01*
X3353000Y2416230D01*
X3352850Y2416070D01*
X3352670Y2415970D01*
X3352050D01*
G01X3352670D02*
X3353050Y2415000D01*
G01X3354850D02*
X3353850D01*
Y2417000D01*
X3354850D01*
G01X3354450Y2416030D02*
X3353850D01*
G01X3355670Y2415000D02*
Y2417000D01*
X3356630D01*
G01X3356270Y2416030D02*
X3355670D01*
G01X3357400Y2415000D02*
Y2417000D01*
X3357900D01*
X3358100Y2416900D01*
X3358250Y2416770D01*
X3358380Y2416570D01*
X3358480Y2416330D01*
X3358500Y2416000D01*
X3358480Y2415670D01*
X3358380Y2415430D01*
X3358250Y2415230D01*
X3358100Y2415100D01*
X3357900Y2415000D01*
X3357400D01*
G01X3360250D02*
X3359250D01*
Y2417000D01*
X3360250D01*
G01X3359850Y2416030D02*
X3359250D01*
G01X3361020Y2415270D02*
X3361230Y2415100D01*
X3361450Y2415000D01*
X3361650D01*
X3361850Y2415100D01*
X3362000Y2415270D01*
X3362080Y2415500D01*
X3362030Y2415730D01*
X3361900Y2415930D01*
X3361670Y2416070D01*
X3361380Y2416130D01*
X3361200Y2416270D01*
X3361120Y2416500D01*
X3361180Y2416730D01*
X3361300Y2416900D01*
X3361470Y2417000D01*
X3361650D01*
X3361830Y2416930D01*
X3361980Y2416770D01*
G01X3350250Y2414330D02*
X3350750Y2417000D01*
G01X3351250D02*
X3350750Y2414330D01*
G01X3350000Y2415330D02*
X3351500D01*
G01Y2416000D02*
X3350000D01*
G01X3352050Y2415000D02*
Y2417000D01*
X3352670D01*
X3352870Y2416900D01*
X3353000Y2416770D01*
X3353050Y2416500D01*
X3353000Y2416230D01*
X3352850Y2416070D01*
X3352670Y2415970D01*
X3352050D01*
G01X3352670D02*
X3353050Y2415000D01*
G01X3354850D02*
X3353850D01*
Y2417000D01*
X3354850D01*
G01X3354450Y2416030D02*
X3353850D01*
G01X3355670Y2415000D02*
Y2417000D01*
X3356630D01*
G01X3356270Y2416030D02*
X3355670D01*
G01X3357400Y2415000D02*
Y2417000D01*
X3357900D01*
X3358100Y2416900D01*
X3358250Y2416770D01*
X3358380Y2416570D01*
X3358480Y2416330D01*
X3358500Y2416000D01*
X3358480Y2415670D01*
X3358380Y2415430D01*
X3358250Y2415230D01*
X3358100Y2415100D01*
X3357900Y2415000D01*
X3357400D01*
G01X3360250D02*
X3359250D01*
Y2417000D01*
X3360250D01*
G01X3359850Y2416030D02*
X3359250D01*
G01X3361020Y2415270D02*
X3361230Y2415100D01*
X3361450Y2415000D01*
X3361650D01*
X3361850Y2415100D01*
X3362000Y2415270D01*
X3362080Y2415500D01*
X3362030Y2415730D01*
X3361900Y2415930D01*
X3361670Y2416070D01*
X3361380Y2416130D01*
X3361200Y2416270D01*
X3361120Y2416500D01*
X3361180Y2416730D01*
X3361300Y2416900D01*
X3361470Y2417000D01*
X3361650D01*
X3361830Y2416930D01*
X3361980Y2416770D01*
G54D13*
G01X1100000Y1734600D02*
X1156000Y1709400D01*
G01Y1734600D02*
X1100000Y1709400D01*
G01Y1681000D02*
X1156000D01*
X1144800Y1688200D01*
G01X1100000D02*
Y1673800D01*
G54D14*
G01X5000Y10000D02*
X3935000D01*
Y4920000D01*
X5000D01*
Y10000D01*
G01X25000Y4405000D02*
X1835000Y4410000D01*
X1830000Y4870000D01*
X25000D01*
Y4405000D01*
G01X879380Y366750D02*
X892930D01*
Y347700D01*
X888870Y341350D01*
X884130Y337120D01*
X877350Y335000D01*
X870580Y337120D01*
X865840Y341350D01*
X861770Y347700D01*
X859060Y355110D01*
X857710Y363570D01*
Y370980D01*
X859060Y377330D01*
X861770Y384740D01*
X865840Y391090D01*
X869900Y395320D01*
X875320Y398500D01*
X880060D01*
X885480Y396380D01*
X889540Y392150D01*
G01X915620Y335000D02*
Y398500D01*
X946780Y335000D01*
Y398500D01*
G01X972180Y335000D02*
Y398500D01*
X985730D01*
X991140Y395320D01*
X995210Y391090D01*
X998600Y384740D01*
X1001300Y377330D01*
X1001980Y366750D01*
X1001300Y356170D01*
X998600Y348760D01*
X995210Y342410D01*
X991140Y338170D01*
X985730Y335000D01*
X972180D01*
G01X1059380Y366750D02*
X1072930D01*
Y347700D01*
X1068870Y341350D01*
X1064130Y337120D01*
X1057350Y335000D01*
X1050580Y337120D01*
X1045840Y341350D01*
X1041770Y347700D01*
X1039060Y355110D01*
X1037710Y363570D01*
Y370980D01*
X1039060Y377330D01*
X1041770Y384740D01*
X1045840Y391090D01*
X1049900Y395320D01*
X1055320Y398500D01*
X1060060D01*
X1065480Y396380D01*
X1069540Y392150D01*
G01X1097650Y335000D02*
Y398500D01*
X1113910D01*
X1119330Y395320D01*
X1123390Y387920D01*
X1124750Y379450D01*
X1123390Y370980D01*
X1120010Y364630D01*
X1113910Y361460D01*
X1097650D01*
G01X1158950Y398500D02*
X1175210D01*
G01X1167080D02*
Y335000D01*
G01X1158950D02*
X1175210D01*
G01X1222960D02*
X1217540Y336060D01*
X1212800Y340290D01*
X1208740Y346640D01*
X1206030Y354050D01*
X1204670Y362520D01*
Y370980D01*
X1206030Y379450D01*
X1208740Y386860D01*
X1212800Y393210D01*
X1217540Y397440D01*
X1222960Y398500D01*
X1228380Y397440D01*
X1233120Y393210D01*
X1237180Y386860D01*
X1239890Y379450D01*
X1241250Y370980D01*
Y362520D01*
X1239890Y354050D01*
X1237180Y346640D01*
X1233120Y340290D01*
X1228380Y336060D01*
X1222960Y335000D01*
G01X1278840Y398500D02*
X1273420Y396380D01*
X1269360Y391090D01*
X1266650Y384740D01*
X1264620Y376270D01*
X1263940Y366750D01*
X1264620Y357220D01*
X1266650Y348760D01*
X1269360Y342410D01*
X1273420Y337120D01*
X1278840Y335000D01*
X1284260Y337120D01*
X1288320Y342410D01*
X1291030Y348760D01*
X1293060Y357220D01*
X1293740Y366750D01*
X1293060Y376270D01*
X1291030Y384740D01*
X1288320Y391090D01*
X1284260Y396380D01*
X1278840Y398500D01*
G01X1059380Y366750D02*
X1072930D01*
Y347700D01*
X1068870Y341350D01*
X1064130Y337120D01*
X1057350Y335000D01*
X1050580Y337120D01*
X1045840Y341350D01*
X1041770Y347700D01*
X1039060Y355110D01*
X1037710Y363570D01*
Y370980D01*
X1039060Y377330D01*
X1041770Y384740D01*
X1045840Y391090D01*
X1049900Y395320D01*
X1055320Y398500D01*
X1060060D01*
X1065480Y396380D01*
X1069540Y392150D01*
G01X1097650Y335000D02*
Y398500D01*
X1113910D01*
X1119330Y395320D01*
X1123390Y387920D01*
X1124750Y379450D01*
X1123390Y370980D01*
X1120010Y364630D01*
X1113910Y361460D01*
X1097650D01*
G01X1158950Y398500D02*
X1175210D01*
G01X1167080D02*
Y335000D01*
G01X1158950D02*
X1175210D01*
G01X1222960D02*
X1217540Y336060D01*
X1212800Y340290D01*
X1208740Y346640D01*
X1206030Y354050D01*
X1204670Y362520D01*
Y370980D01*
X1206030Y379450D01*
X1208740Y386860D01*
X1212800Y393210D01*
X1217540Y397440D01*
X1222960Y398500D01*
X1228380Y397440D01*
X1233120Y393210D01*
X1237180Y386860D01*
X1239890Y379450D01*
X1241250Y370980D01*
Y362520D01*
X1239890Y354050D01*
X1237180Y346640D01*
X1233120Y340290D01*
X1228380Y336060D01*
X1222960Y335000D01*
G01X1278840Y398500D02*
X1273420Y396380D01*
X1269360Y391090D01*
X1266650Y384740D01*
X1264620Y376270D01*
X1263940Y366750D01*
X1264620Y357220D01*
X1266650Y348760D01*
X1269360Y342410D01*
X1273420Y337120D01*
X1278840Y335000D01*
X1284260Y337120D01*
X1288320Y342410D01*
X1291030Y348760D01*
X1293060Y357220D01*
X1293740Y366750D01*
X1293060Y376270D01*
X1291030Y384740D01*
X1288320Y391090D01*
X1284260Y396380D01*
X1278840Y398500D01*
G01X879380Y366750D02*
X892930D01*
Y347700D01*
X888870Y341350D01*
X884130Y337120D01*
X877350Y335000D01*
X870580Y337120D01*
X865840Y341350D01*
X861770Y347700D01*
X859060Y355110D01*
X857710Y363570D01*
Y370980D01*
X859060Y377330D01*
X861770Y384740D01*
X865840Y391090D01*
X869900Y395320D01*
X875320Y398500D01*
X880060D01*
X885480Y396380D01*
X889540Y392150D01*
G01X915620Y335000D02*
Y398500D01*
X946780Y335000D01*
Y398500D01*
G01X972180Y335000D02*
Y398500D01*
X985730D01*
X991140Y395320D01*
X995210Y391090D01*
X998600Y384740D01*
X1001300Y377330D01*
X1001980Y366750D01*
X1001300Y356170D01*
X998600Y348760D01*
X995210Y342410D01*
X991140Y338170D01*
X985730Y335000D01*
X972180D01*
G01X1344380Y366750D02*
X1357930D01*
Y347700D01*
X1353870Y341350D01*
X1349130Y337120D01*
X1342350Y335000D01*
X1335580Y337120D01*
X1330840Y341350D01*
X1326770Y347700D01*
X1324060Y355110D01*
X1322710Y363570D01*
Y370980D01*
X1324060Y377330D01*
X1326770Y384740D01*
X1330840Y391090D01*
X1334900Y395320D01*
X1340320Y398500D01*
X1345060D01*
X1350480Y396380D01*
X1354540Y392150D01*
G01X1382650Y335000D02*
Y398500D01*
X1398910D01*
X1404330Y395320D01*
X1408390Y387920D01*
X1409750Y379450D01*
X1408390Y370980D01*
X1405010Y364630D01*
X1398910Y361460D01*
X1382650D01*
G01X1443950Y398500D02*
X1460210D01*
G01X1452080D02*
Y335000D01*
G01X1443950D02*
X1460210D01*
G01X1507960D02*
X1502540Y336060D01*
X1497800Y340290D01*
X1493740Y346640D01*
X1491030Y354050D01*
X1489670Y362520D01*
Y370980D01*
X1491030Y379450D01*
X1493740Y386860D01*
X1497800Y393210D01*
X1502540Y397440D01*
X1507960Y398500D01*
X1513380Y397440D01*
X1518120Y393210D01*
X1522180Y386860D01*
X1524890Y379450D01*
X1526250Y370980D01*
Y362520D01*
X1524890Y354050D01*
X1522180Y346640D01*
X1518120Y340290D01*
X1513380Y336060D01*
X1507960Y335000D01*
G01X1550970Y387920D02*
X1555030Y394270D01*
X1559780Y397440D01*
X1565190Y398500D01*
X1571970Y396380D01*
X1576710Y391090D01*
X1578060Y384740D01*
X1577390Y378390D01*
X1574680Y373100D01*
X1561130Y362520D01*
X1555030Y355110D01*
X1550970Y344520D01*
X1549620Y335000D01*
X1578060D01*
G01X1344380Y366750D02*
X1357930D01*
Y347700D01*
X1353870Y341350D01*
X1349130Y337120D01*
X1342350Y335000D01*
X1335580Y337120D01*
X1330840Y341350D01*
X1326770Y347700D01*
X1324060Y355110D01*
X1322710Y363570D01*
Y370980D01*
X1324060Y377330D01*
X1326770Y384740D01*
X1330840Y391090D01*
X1334900Y395320D01*
X1340320Y398500D01*
X1345060D01*
X1350480Y396380D01*
X1354540Y392150D01*
G01X1382650Y335000D02*
Y398500D01*
X1398910D01*
X1404330Y395320D01*
X1408390Y387920D01*
X1409750Y379450D01*
X1408390Y370980D01*
X1405010Y364630D01*
X1398910Y361460D01*
X1382650D01*
G01X1443950Y398500D02*
X1460210D01*
G01X1452080D02*
Y335000D01*
G01X1443950D02*
X1460210D01*
G01X1507960D02*
X1502540Y336060D01*
X1497800Y340290D01*
X1493740Y346640D01*
X1491030Y354050D01*
X1489670Y362520D01*
Y370980D01*
X1491030Y379450D01*
X1493740Y386860D01*
X1497800Y393210D01*
X1502540Y397440D01*
X1507960Y398500D01*
X1513380Y397440D01*
X1518120Y393210D01*
X1522180Y386860D01*
X1524890Y379450D01*
X1526250Y370980D01*
Y362520D01*
X1524890Y354050D01*
X1522180Y346640D01*
X1518120Y340290D01*
X1513380Y336060D01*
X1507960Y335000D01*
G01X1550970Y387920D02*
X1555030Y394270D01*
X1559780Y397440D01*
X1565190Y398500D01*
X1571970Y396380D01*
X1576710Y391090D01*
X1578060Y384740D01*
X1577390Y378390D01*
X1574680Y373100D01*
X1561130Y362520D01*
X1555030Y355110D01*
X1550970Y344520D01*
X1549620Y335000D01*
X1578060D01*
G01X1665220Y393210D02*
X1661160Y396380D01*
X1656420Y398500D01*
X1651000D01*
X1644900Y395320D01*
X1640160Y390030D01*
X1636770Y383680D01*
X1634060Y373100D01*
X1633390Y363570D01*
X1634740Y354050D01*
X1636770Y347700D01*
X1640840Y341350D01*
X1645580Y337120D01*
X1650320Y335000D01*
X1655060D01*
X1659800Y337120D01*
X1663870Y340290D01*
X1667250Y344520D01*
G01X1691980Y343460D02*
X1697390Y338170D01*
X1703490Y335000D01*
X1708910D01*
X1714330Y338170D01*
X1718390Y343460D01*
X1720420Y350880D01*
X1719070Y358280D01*
X1715680Y364630D01*
X1709590Y368870D01*
X1701460Y370980D01*
X1696720Y375220D01*
X1694680Y382620D01*
X1696040Y390030D01*
X1699430Y395320D01*
X1704170Y398500D01*
X1708910D01*
X1713650Y396380D01*
X1717720Y391090D01*
G01X1746500Y335000D02*
Y398500D01*
X1777660Y335000D01*
Y398500D01*
G01X1861100Y343460D02*
X1866510Y338170D01*
X1872610Y335000D01*
X1878030D01*
X1883450Y338170D01*
X1887510Y343460D01*
X1889540Y350880D01*
X1888190Y358280D01*
X1884800Y364630D01*
X1878710Y368870D01*
X1870580Y370980D01*
X1865840Y375220D01*
X1863800Y382620D01*
X1865160Y390030D01*
X1868550Y395320D01*
X1873290Y398500D01*
X1878030D01*
X1882770Y396380D01*
X1886840Y391090D01*
G01X1946100Y393210D02*
X1942040Y396380D01*
X1937300Y398500D01*
X1931880D01*
X1925780Y395320D01*
X1921040Y390030D01*
X1917650Y383680D01*
X1914940Y373100D01*
X1914270Y363570D01*
X1915620Y354050D01*
X1917650Y347700D01*
X1921720Y341350D01*
X1926460Y337120D01*
X1931200Y335000D01*
X1935940D01*
X1940680Y337120D01*
X1944750Y340290D01*
X1948130Y344520D01*
G01X1973530Y398500D02*
Y335000D01*
X2000630D01*
G01X2028060D02*
Y398500D01*
G01X2053800D02*
X2028060Y359340D01*
G01X2057860Y335000D02*
X2039570Y377330D01*
G01X1861100Y343460D02*
X1866510Y338170D01*
X1872610Y335000D01*
X1878030D01*
X1883450Y338170D01*
X1887510Y343460D01*
X1889540Y350880D01*
X1888190Y358280D01*
X1884800Y364630D01*
X1878710Y368870D01*
X1870580Y370980D01*
X1865840Y375220D01*
X1863800Y382620D01*
X1865160Y390030D01*
X1868550Y395320D01*
X1873290Y398500D01*
X1878030D01*
X1882770Y396380D01*
X1886840Y391090D01*
G01X1946100Y393210D02*
X1942040Y396380D01*
X1937300Y398500D01*
X1931880D01*
X1925780Y395320D01*
X1921040Y390030D01*
X1917650Y383680D01*
X1914940Y373100D01*
X1914270Y363570D01*
X1915620Y354050D01*
X1917650Y347700D01*
X1921720Y341350D01*
X1926460Y337120D01*
X1931200Y335000D01*
X1935940D01*
X1940680Y337120D01*
X1944750Y340290D01*
X1948130Y344520D01*
G01X1973530Y398500D02*
Y335000D01*
X2000630D01*
G01X2028060D02*
Y398500D01*
G01X2053800D02*
X2028060Y359340D01*
G01X2057860Y335000D02*
X2039570Y377330D01*
G01X1665220Y393210D02*
X1661160Y396380D01*
X1656420Y398500D01*
X1651000D01*
X1644900Y395320D01*
X1640160Y390030D01*
X1636770Y383680D01*
X1634060Y373100D01*
X1633390Y363570D01*
X1634740Y354050D01*
X1636770Y347700D01*
X1640840Y341350D01*
X1645580Y337120D01*
X1650320Y335000D01*
X1655060D01*
X1659800Y337120D01*
X1663870Y340290D01*
X1667250Y344520D01*
G01X1691980Y343460D02*
X1697390Y338170D01*
X1703490Y335000D01*
X1708910D01*
X1714330Y338170D01*
X1718390Y343460D01*
X1720420Y350880D01*
X1719070Y358280D01*
X1715680Y364630D01*
X1709590Y368870D01*
X1701460Y370980D01*
X1696720Y375220D01*
X1694680Y382620D01*
X1696040Y390030D01*
X1699430Y395320D01*
X1704170Y398500D01*
X1708910D01*
X1713650Y396380D01*
X1717720Y391090D01*
G01X1746500Y335000D02*
Y398500D01*
X1777660Y335000D01*
Y398500D01*
G01X2102710Y335000D02*
Y398500D01*
X2120320Y345580D01*
X2137930Y398500D01*
Y335000D01*
G01X2176200D02*
X2170780Y336060D01*
X2166040Y340290D01*
X2161980Y346640D01*
X2159270Y354050D01*
X2157910Y362520D01*
Y370980D01*
X2159270Y379450D01*
X2161980Y386860D01*
X2166040Y393210D01*
X2170780Y397440D01*
X2176200Y398500D01*
X2181620Y397440D01*
X2186360Y393210D01*
X2190420Y386860D01*
X2193130Y379450D01*
X2194490Y370980D01*
Y362520D01*
X2193130Y354050D01*
X2190420Y346640D01*
X2186360Y340290D01*
X2181620Y336060D01*
X2176200Y335000D01*
G01X2217860Y343460D02*
X2223270Y338170D01*
X2229370Y335000D01*
X2234790D01*
X2240210Y338170D01*
X2244270Y343460D01*
X2246300Y350880D01*
X2244950Y358280D01*
X2241560Y364630D01*
X2235470Y368870D01*
X2227340Y370980D01*
X2222600Y375220D01*
X2220560Y382620D01*
X2221920Y390030D01*
X2225310Y395320D01*
X2230050Y398500D01*
X2234790D01*
X2239530Y396380D01*
X2243600Y391090D01*
G01X2279830Y398500D02*
X2296090D01*
G01X2287960D02*
Y335000D01*
G01X2279830D02*
X2296090D01*
G01X2362710D02*
Y398500D01*
X2380320Y345580D01*
X2397930Y398500D01*
Y335000D01*
G01X2428070Y398500D02*
X2444330D01*
G01X2436200D02*
Y335000D01*
G01X2428070D02*
X2444330D01*
G01X2477860Y343460D02*
X2483270Y338170D01*
X2489370Y335000D01*
X2494790D01*
X2500210Y338170D01*
X2504270Y343460D01*
X2506300Y350880D01*
X2504950Y358280D01*
X2501560Y364630D01*
X2495470Y368870D01*
X2487340Y370980D01*
X2482600Y375220D01*
X2480560Y382620D01*
X2481920Y390030D01*
X2485310Y395320D01*
X2490050Y398500D01*
X2494790D01*
X2499530Y396380D01*
X2503600Y391090D01*
G01X2547960Y335000D02*
X2542540Y336060D01*
X2537800Y340290D01*
X2533740Y346640D01*
X2531030Y354050D01*
X2529670Y362520D01*
Y370980D01*
X2531030Y379450D01*
X2533740Y386860D01*
X2537800Y393210D01*
X2542540Y397440D01*
X2547960Y398500D01*
X2553380Y397440D01*
X2558120Y393210D01*
X2562180Y386860D01*
X2564890Y379450D01*
X2566250Y370980D01*
Y362520D01*
X2564890Y354050D01*
X2562180Y346640D01*
X2558120Y340290D01*
X2553380Y336060D01*
X2547960Y335000D01*
G01X2362710D02*
Y398500D01*
X2380320Y345580D01*
X2397930Y398500D01*
Y335000D01*
G01X2428070Y398500D02*
X2444330D01*
G01X2436200D02*
Y335000D01*
G01X2428070D02*
X2444330D01*
G01X2477860Y343460D02*
X2483270Y338170D01*
X2489370Y335000D01*
X2494790D01*
X2500210Y338170D01*
X2504270Y343460D01*
X2506300Y350880D01*
X2504950Y358280D01*
X2501560Y364630D01*
X2495470Y368870D01*
X2487340Y370980D01*
X2482600Y375220D01*
X2480560Y382620D01*
X2481920Y390030D01*
X2485310Y395320D01*
X2490050Y398500D01*
X2494790D01*
X2499530Y396380D01*
X2503600Y391090D01*
G01X2547960Y335000D02*
X2542540Y336060D01*
X2537800Y340290D01*
X2533740Y346640D01*
X2531030Y354050D01*
X2529670Y362520D01*
Y370980D01*
X2531030Y379450D01*
X2533740Y386860D01*
X2537800Y393210D01*
X2542540Y397440D01*
X2547960Y398500D01*
X2553380Y397440D01*
X2558120Y393210D01*
X2562180Y386860D01*
X2564890Y379450D01*
X2566250Y370980D01*
Y362520D01*
X2564890Y354050D01*
X2562180Y346640D01*
X2558120Y340290D01*
X2553380Y336060D01*
X2547960Y335000D01*
G01X2102710D02*
Y398500D01*
X2120320Y345580D01*
X2137930Y398500D01*
Y335000D01*
G01X2176200D02*
X2170780Y336060D01*
X2166040Y340290D01*
X2161980Y346640D01*
X2159270Y354050D01*
X2157910Y362520D01*
Y370980D01*
X2159270Y379450D01*
X2161980Y386860D01*
X2166040Y393210D01*
X2170780Y397440D01*
X2176200Y398500D01*
X2181620Y397440D01*
X2186360Y393210D01*
X2190420Y386860D01*
X2193130Y379450D01*
X2194490Y370980D01*
Y362520D01*
X2193130Y354050D01*
X2190420Y346640D01*
X2186360Y340290D01*
X2181620Y336060D01*
X2176200Y335000D01*
G01X2217860Y343460D02*
X2223270Y338170D01*
X2229370Y335000D01*
X2234790D01*
X2240210Y338170D01*
X2244270Y343460D01*
X2246300Y350880D01*
X2244950Y358280D01*
X2241560Y364630D01*
X2235470Y368870D01*
X2227340Y370980D01*
X2222600Y375220D01*
X2220560Y382620D01*
X2221920Y390030D01*
X2225310Y395320D01*
X2230050Y398500D01*
X2234790D01*
X2239530Y396380D01*
X2243600Y391090D01*
G01X2279830Y398500D02*
X2296090D01*
G01X2287960D02*
Y335000D01*
G01X2279830D02*
X2296090D01*
G01X2643390Y398500D02*
X2660320Y335000D01*
X2677250Y398500D01*
G01X2701300Y335000D02*
Y398500D01*
X2714850D01*
X2720260Y395320D01*
X2724330Y391090D01*
X2727720Y384740D01*
X2730420Y377330D01*
X2731100Y366750D01*
X2730420Y356170D01*
X2727720Y348760D01*
X2724330Y342410D01*
X2720260Y338170D01*
X2714850Y335000D01*
X2701300D01*
G01X2757180D02*
Y398500D01*
X2770730D01*
X2776140Y395320D01*
X2780210Y391090D01*
X2783600Y384740D01*
X2786300Y377330D01*
X2786980Y366750D01*
X2786300Y356170D01*
X2783600Y348760D01*
X2780210Y342410D01*
X2776140Y338170D01*
X2770730Y335000D01*
X2757180D01*
G01X2643390Y398500D02*
X2660320Y335000D01*
X2677250Y398500D01*
G01X2701300Y335000D02*
Y398500D01*
X2714850D01*
X2720260Y395320D01*
X2724330Y391090D01*
X2727720Y384740D01*
X2730420Y377330D01*
X2731100Y366750D01*
X2730420Y356170D01*
X2727720Y348760D01*
X2724330Y342410D01*
X2720260Y338170D01*
X2714850Y335000D01*
X2701300D01*
G01X2757180D02*
Y398500D01*
X2770730D01*
X2776140Y395320D01*
X2780210Y391090D01*
X2783600Y384740D01*
X2786300Y377330D01*
X2786980Y366750D01*
X2786300Y356170D01*
X2783600Y348760D01*
X2780210Y342410D01*
X2776140Y338170D01*
X2770730Y335000D01*
X2757180D01*
M02*
