G04 ================== begin FILE IDENTIFICATION RECORD ==================*
G04 Layout Name:  CC2541EM.brd*
G04 Film Name:    assembly_bottom*
G04 File Format:  Gerber RS274X*
G04 File Origin:  Cadence Allegro 16.5-P002*
G04 Origin Date:  Fri Apr 12 14:10:24 2013*
G04 *
G04 Layer:  REF DES/ASSEMBLY_BOTTOM*
G04 Layer:  PACKAGE GEOMETRY/ASSEMBLY_BOTTOM*
G04 Layer:  BOARD GEOMETRY/OUTLINE*
G04 *
G04 Offset:    (0.000 0.000)*
G04 Mirror:    No*
G04 Mode:      Positive*
G04 Rotation:  0*
G04 FullContactRelief:  No*
G04 UndefLineWidth:     0.020*
G04 ================== end FILE IDENTIFICATION RECORD ====================*
%FSLAX44Y44*MOMM*%
%IR0*IPPOS*OFA0.00000B0.00000*MIA0B0*SFA1.00000B1.00000*%
%ADD10C,.1*%
%ADD11C,.02*%
G75*
%LPD*%
G75*
G54D10*
G01X138030Y166000D02*
Y174900D01*
X135710D01*
X134940Y174450D01*
X134360Y173420D01*
X134170Y172230D01*
X134360Y171040D01*
X134840Y170150D01*
X135710Y169710D01*
X138030D01*
G01X129500Y166000D02*
Y174900D01*
X130660Y173120D01*
G01Y166000D02*
X128340D01*
G01X442030D02*
Y174900D01*
X439710D01*
X438940Y174450D01*
X438360Y173420D01*
X438170Y172230D01*
X438360Y171040D01*
X438840Y170150D01*
X439710Y169710D01*
X442030D01*
G01X435340Y173420D02*
X434760Y174310D01*
X434080Y174750D01*
X433310Y174900D01*
X432340Y174600D01*
X431660Y173860D01*
X431470Y172970D01*
X431570Y172080D01*
X431950Y171340D01*
X433890Y169860D01*
X434760Y168820D01*
X435340Y167330D01*
X435530Y166000D01*
X431470D01*
G54D11*
G01X99500Y129000D02*
X501000D01*
Y510000D01*
X99500D01*
Y129000D01*
G01X130600Y208560D02*
G02Y213640I2J2540D01*
G01Y183160D02*
G02Y188240I2J2540D01*
G01Y195860D02*
G02Y200940I2J2540D01*
G01Y246660D02*
G02Y251740I2J2540D01*
G01Y221260D02*
G02Y226340I2J2540D01*
G01Y233960D02*
G02Y239040I2J2540D01*
G01X127430Y308260D02*
Y287940D01*
G01D02*
X133780D01*
G01X130600Y259360D02*
G02Y264440I2J2540D01*
G01Y272060D02*
G02Y277140I2J2540D01*
G01Y284760D02*
G02X128140Y287940I0J2542D01*
G01X127430Y308260D02*
X164260D01*
G01X142670Y177440D02*
Y163480D01*
G01X155370D02*
X142670D01*
G01X155370D02*
Y177440D01*
G01X145460Y201190D02*
Y195610D01*
G01X152570Y188490D02*
Y182910D01*
G01X158160Y208310D02*
Y213890D01*
G01Y182910D02*
Y188490D01*
G01X145460Y182910D02*
X139870D01*
G01Y195610D02*
Y201190D01*
G01X145460Y208310D02*
X139870D01*
G01X137590Y203480D02*
X139870Y201190D01*
G01D02*
X145460D01*
G01D02*
X147750Y203480D01*
G01X145460Y213890D02*
Y208310D01*
G01D02*
X147750Y206020D01*
G01X152570Y213890D02*
Y208310D01*
G01X137590Y206020D02*
X139870Y208310D01*
G01D02*
Y213890D01*
G01X152570Y195610D02*
X158160D01*
G01X139870Y188490D02*
X145460D01*
G01X152570Y195610D02*
X150290Y193320D01*
G01X152570Y201190D02*
Y195610D01*
G01X158160D02*
Y201190D01*
G01X160450Y193320D02*
X158160Y195610D01*
G01X137590Y180620D02*
X139870Y182910D01*
G01D02*
Y188490D01*
G01X137590Y190780D02*
X139870Y188490D01*
G01X158160Y201190D02*
X152570D01*
G01X160450Y203480D02*
X158160Y201190D01*
G01X152570D02*
X150290Y203480D01*
G01X152570Y182910D02*
X158160D01*
G01X152570D02*
X150290Y180620D01*
G01X160450D02*
X158160Y182910D01*
G01X145460Y188490D02*
Y182910D01*
G01D02*
X147750Y180620D01*
G01X145460Y188490D02*
X147750Y190780D01*
G01X152570Y208310D02*
X158160D01*
G01X152570D02*
X150290Y206020D01*
G01X160450D02*
X158160Y208310D01*
G01Y188490D02*
X152570D01*
G01X160450Y190780D02*
X158160Y188490D01*
G01X152570D02*
X150290Y190780D01*
G01X145460Y195610D02*
X147750Y193320D01*
G01X145460Y195610D02*
X139870D01*
G01X137590Y193320D02*
X139870Y195610D01*
G01X160450Y180620D02*
X150290D01*
G01D02*
Y190780D01*
G01D02*
X160450D01*
G01D02*
Y180620D01*
G01Y193320D02*
X150290D01*
G01D02*
Y203480D01*
G01D02*
X160450D01*
G01D02*
Y193320D01*
G01Y206020D02*
X150290D01*
G01D02*
Y216180D01*
G01X160450D02*
Y206020D01*
G01X147750Y190780D02*
X137590D01*
G01X147750Y180620D02*
Y190780D01*
G01X137590Y180620D02*
X147750D01*
G01X137590Y190780D02*
Y180620D01*
G01X147750Y203480D02*
X137590D01*
G01X147750Y193320D02*
Y203480D01*
G01X137590Y193320D02*
X147750D01*
G01X137590Y203480D02*
Y193320D01*
G01X147750Y206020D02*
Y216180D01*
G01X137590Y206020D02*
X147750D01*
G01X137590Y216180D02*
Y206020D01*
G01X164260Y308260D02*
Y177440D01*
G01D02*
X133780D01*
G01Y287940D02*
Y177440D01*
G01X154820Y212600D02*
G02X156940Y211380I547J-1502D01*
G01Y210820D02*
G02X154820Y209600I-1573J282D01*
G01X158160Y210610D02*
X156940Y210820D01*
G01X158160Y211590D02*
X156940Y211380D01*
G01X154820Y212600D02*
Y212610D01*
G01X154370Y213840D02*
X154820Y212610D01*
G01X154370Y208360D02*
X154820Y209590D01*
G01D02*
Y209600D01*
G01X156220Y213890D02*
G02X158160Y211950I-852J-2792D01*
G01X152570D02*
G02X154520Y213890I2792J-856D01*
G01Y208310D02*
G02X152570Y210250I842J2796D01*
G01X158160D02*
G02X156220Y208310I-2792J852D01*
G01X153490Y213340D02*
X154380Y212280D01*
G01X153490Y208860D02*
X154380Y209920D01*
G01X156880Y210600D02*
G02Y211600I392J500D01*
G01X164260Y211740D02*
X167430D01*
G01D02*
G02Y210460I0J-640D01*
G01D02*
X164260D01*
G01X167430Y213640D02*
G02Y208560I2J-2540D01*
G01X154100Y212610D02*
Y213640D01*
G01Y210240D02*
Y211960D01*
G01Y208560D02*
Y209590D01*
G01X153920Y213640D02*
X154100D01*
G01X154440D02*
X154100D01*
G01X167430D02*
X164260D01*
G01X154100Y208560D02*
X154440D01*
G01X154100D02*
X153920D01*
G01X167430D02*
X164260D01*
G01X154820Y187200D02*
G02X156940Y185980I547J-1502D01*
G01Y185420D02*
G02X154820Y184200I-1573J282D01*
G01X158160Y185210D02*
X156940Y185420D01*
G01X158160Y186190D02*
X156940Y185980D01*
G01X154820Y187200D02*
Y187210D01*
G01X154370Y188440D02*
X154820Y187210D01*
G01X154370Y182960D02*
X154820Y184190D01*
G01D02*
Y184200D01*
G01X156220Y188490D02*
G02X158160Y186550I-852J-2792D01*
G01X152570D02*
G02X154520Y188490I2792J-856D01*
G01Y182910D02*
G02X152570Y184850I842J2796D01*
G01X158160D02*
G02X156220Y182910I-2792J852D01*
G01X153490Y187940D02*
X154380Y186880D01*
G01X153490Y183460D02*
X154380Y184520D01*
G01X156880Y185200D02*
G02Y186200I392J500D01*
G01X164260Y186340D02*
X167430D01*
G01D02*
G02Y185060I0J-640D01*
G01D02*
X164260D01*
G01X167430Y188240D02*
G02Y183160I2J-2540D01*
G01X154100Y187210D02*
Y188240D01*
G01Y184840D02*
Y186560D01*
G01Y183160D02*
Y184190D01*
G01X153920Y188240D02*
X154100D01*
G01X154440D02*
X154100D01*
G01X167430D02*
X164260D01*
G01X154100Y183160D02*
X154440D01*
G01X154100D02*
X153920D01*
G01X167430D02*
X164260D01*
G01X143210Y209600D02*
G02X141090Y210820I-546J1503D01*
G01Y211380D02*
G02X143210Y212600I1574J-283D01*
G01X139870Y211590D02*
X141090Y211380D01*
G01X139870Y210610D02*
X141090Y210820D01*
G01X143210Y209600D02*
X143220Y209590D01*
G01X143670Y208360D02*
X143220Y209590D01*
G01X143670Y213840D02*
X143220Y212610D01*
G01D02*
X143210Y212600D01*
G01X141820Y208310D02*
G02X139870Y210250I842J2796D01*
G01X145460D02*
G02X143520Y208310I-2792J852D01*
G01Y213890D02*
G02X145460Y211950I-852J-2792D01*
G01X139870D02*
G02X141820Y213890I2792J-856D01*
G01X144540Y208860D02*
X143660Y209920D01*
G01X144540Y213340D02*
X143660Y212280D01*
G01X141150Y211600D02*
G02Y210600I-388J-500D01*
G01X133780Y210460D02*
X130600D01*
G01D02*
G02Y211740I0J640D01*
G01D02*
X133780D01*
G01X143940Y209590D02*
Y208560D01*
G01Y211960D02*
Y210240D01*
G01Y213640D02*
Y212610D01*
G01X144110Y208560D02*
X143940D01*
G01X143590D02*
X143940D01*
G01X130600D02*
X133780D01*
G01X143940Y213640D02*
X143590D01*
G01X143940D02*
X144110D01*
G01X130600D02*
X133780D01*
G01X143210Y184200D02*
G02X141090Y185420I-546J1503D01*
G01Y185980D02*
G02X143210Y187200I1574J-283D01*
G01X139870Y186190D02*
X141090Y185980D01*
G01X139870Y185210D02*
X141090Y185420D01*
G01X143210Y184200D02*
X143220Y184190D01*
G01X143670Y182960D02*
X143220Y184190D01*
G01X143670Y188440D02*
X143220Y187210D01*
G01D02*
X143210Y187200D01*
G01X141820Y182910D02*
G02X139870Y184850I842J2796D01*
G01X145460D02*
G02X143520Y182910I-2792J852D01*
G01Y188490D02*
G02X145460Y186550I-852J-2792D01*
G01X139870D02*
G02X141820Y188490I2792J-856D01*
G01X144540Y183460D02*
X143660Y184520D01*
G01X144540Y187940D02*
X143660Y186880D01*
G01X141150Y186200D02*
G02Y185200I-388J-500D01*
G01X133780Y185060D02*
X130600D01*
G01D02*
G02Y186340I0J640D01*
G01D02*
X133780D01*
G01X143940Y184190D02*
Y183160D01*
G01Y186560D02*
Y184840D01*
G01Y188240D02*
Y187210D01*
G01X144110Y183160D02*
X143940D01*
G01X143590D02*
X143940D01*
G01X130600D02*
X133780D01*
G01X143940Y188240D02*
X143590D01*
G01X143940D02*
X144110D01*
G01X130600D02*
X133780D01*
G01X154820Y199900D02*
G02X156940Y198680I547J-1502D01*
G01Y198120D02*
G02X154820Y196900I-1573J282D01*
G01X158160Y197910D02*
X156940Y198120D01*
G01X158160Y198890D02*
X156940Y198680D01*
G01X154820Y199900D02*
Y199910D01*
G01X154370Y201140D02*
X154820Y199910D01*
G01X154370Y195660D02*
X154820Y196890D01*
G01D02*
Y196900D01*
G01X156220Y201190D02*
G02X158160Y199250I-852J-2792D01*
G01X152570D02*
G02X154520Y201190I2792J-856D01*
G01Y195610D02*
G02X152570Y197550I842J2796D01*
G01X158160D02*
G02X156220Y195610I-2792J852D01*
G01X153490Y200640D02*
X154380Y199580D01*
G01X153490Y196160D02*
X154380Y197220D01*
G01X156880Y197900D02*
G02Y198900I392J500D01*
G01X164260Y199040D02*
X167430D01*
G01D02*
G02Y197760I0J-640D01*
G01D02*
X164260D01*
G01X167430Y200940D02*
G02Y195860I2J-2540D01*
G01X154100Y199910D02*
Y200940D01*
G01Y197540D02*
Y199260D01*
G01Y195860D02*
Y196890D01*
G01X153920Y200940D02*
X154100D01*
G01X154440D02*
X154100D01*
G01X167430D02*
X164260D01*
G01X154100Y195860D02*
X154440D01*
G01X154100D02*
X153920D01*
G01X167430D02*
X164260D01*
G01X143210Y196900D02*
G02X141090Y198120I-546J1503D01*
G01Y198680D02*
G02X143210Y199900I1574J-283D01*
G01X139870Y198890D02*
X141090Y198680D01*
G01X139870Y197910D02*
X141090Y198120D01*
G01X143210Y196900D02*
X143220Y196890D01*
G01X143670Y195660D02*
X143220Y196890D01*
G01X143670Y201140D02*
X143220Y199910D01*
G01D02*
X143210Y199900D01*
G01X141820Y195610D02*
G02X139870Y197550I842J2796D01*
G01X145460D02*
G02X143520Y195610I-2792J852D01*
G01Y201190D02*
G02X145460Y199250I-852J-2792D01*
G01X139870D02*
G02X141820Y201190I2792J-856D01*
G01X144540Y196160D02*
X143660Y197220D01*
G01X144540Y200640D02*
X143660Y199580D01*
G01X141150Y198900D02*
G02Y197900I-388J-500D01*
G01X133780Y197760D02*
X130600D01*
G01D02*
G02Y199040I0J640D01*
G01D02*
X133780D01*
G01X143940Y196890D02*
Y195860D01*
G01Y199260D02*
Y197540D01*
G01Y200940D02*
Y199910D01*
G01X144110Y195860D02*
X143940D01*
G01X143590D02*
X143940D01*
G01X130600D02*
X133780D01*
G01X143940Y200940D02*
X143590D01*
G01X143940D02*
X144110D01*
G01X130600D02*
X133780D01*
G01X139870Y246410D02*
Y251990D01*
G01X158160Y221010D02*
Y226590D01*
G01X145460Y246410D02*
X139870D01*
G01X137590Y244120D02*
X139870Y246410D01*
G01X145460Y221010D02*
X139870D01*
G01X158160Y226590D02*
X152570D01*
G01X160450Y228880D02*
X158160Y226590D01*
G01X139870D02*
X145460D01*
G01X158160Y239290D02*
X152570D01*
G01X158160Y251990D02*
X152570D01*
G01Y233710D02*
X158160D01*
G01X145460D02*
X139870D01*
G01Y239290D02*
X145460D01*
G01D02*
Y233710D01*
G01D02*
X147750Y231420D01*
G01X145460Y239290D02*
X147750Y241580D01*
G01X152570Y233710D02*
X150290Y231420D01*
G01X152570Y239290D02*
Y233710D01*
G01Y239290D02*
X150290Y241580D01*
G01X145460Y226590D02*
Y221010D01*
G01D02*
X147750Y218720D01*
G01X145460Y226590D02*
X147750Y228880D01*
G01X158160Y233710D02*
Y239290D01*
G01X160450Y231420D02*
X158160Y233710D01*
G01X160450Y241580D02*
X158160Y239290D01*
G01X137590Y218720D02*
X139870Y221010D01*
G01D02*
Y226590D01*
G01X137590Y228880D02*
X139870Y226590D01*
G01X152570Y251990D02*
Y246410D01*
G01Y251990D02*
X150290Y254280D01*
G01X137590D02*
X139870Y251990D01*
G01D02*
X145460D01*
G01X137590Y231420D02*
X139870Y233710D01*
G01D02*
Y239290D01*
G01X137590Y241580D02*
X139870Y239290D01*
G01X158160Y246410D02*
Y251990D01*
G01X160450Y254280D02*
X158160Y251990D01*
G01X152570Y221010D02*
X158160D01*
G01X160450Y218720D02*
X158160Y221010D01*
G01Y213890D02*
X152570D01*
G01X160450Y216180D02*
X158160Y213890D01*
G01X152570D02*
X150290Y216180D01*
G01X145460Y251990D02*
Y246410D01*
G01D02*
X147750Y244120D01*
G01X145460Y251990D02*
X147750Y254280D01*
G01X152570Y246410D02*
X158160D01*
G01X152570D02*
X150290Y244120D01*
G01X160450D02*
X158160Y246410D01*
G01X152570Y221010D02*
X150290Y218720D01*
G01X152570Y226590D02*
Y221010D01*
G01Y226590D02*
X150290Y228880D01*
G01X137590Y216180D02*
X139870Y213890D01*
G01D02*
X145460D01*
G01D02*
X147750Y216180D01*
G01X150290D02*
X160450D01*
G01Y218720D02*
X150290D01*
G01D02*
Y228880D01*
G01D02*
X160450D01*
G01D02*
Y218720D01*
G01Y231420D02*
X150290D01*
G01D02*
Y241580D01*
G01D02*
X160450D01*
G01D02*
Y231420D01*
G01Y244120D02*
X150290D01*
G01D02*
Y254280D01*
G01D02*
X160450D01*
G01D02*
Y244120D01*
G01X147750Y216180D02*
X137590D01*
G01X147750Y228880D02*
X137590D01*
G01X147750Y218720D02*
Y228880D01*
G01X137590Y218720D02*
X147750D01*
G01X137590Y228880D02*
Y218720D01*
G01X147750Y241580D02*
X137590D01*
G01X147750Y231420D02*
Y241580D01*
G01X137590Y231420D02*
X147750D01*
G01X137590Y241580D02*
Y231420D01*
G01X147750Y254280D02*
X137590D01*
G01X147750Y244120D02*
Y254280D01*
G01X137590Y244120D02*
X147750D01*
G01X137590Y254280D02*
Y244120D01*
G01X154820Y250700D02*
G02X156940Y249480I547J-1502D01*
G01Y248920D02*
G02X154820Y247700I-1573J282D01*
G01X158160Y248710D02*
X156940Y248920D01*
G01X158160Y249690D02*
X156940Y249480D01*
G01X154820Y250700D02*
Y250710D01*
G01X154370Y251940D02*
X154820Y250710D01*
G01X154370Y246460D02*
X154820Y247690D01*
G01D02*
Y247700D01*
G01X156220Y251990D02*
G02X158160Y250050I-852J-2792D01*
G01X152570D02*
G02X154520Y251990I2792J-856D01*
G01Y246410D02*
G02X152570Y248350I842J2796D01*
G01X158160D02*
G02X156220Y246410I-2792J852D01*
G01X153490Y251440D02*
X154380Y250380D01*
G01X153490Y246960D02*
X154380Y248020D01*
G01X156880Y248700D02*
G02Y249700I392J500D01*
G01X164260Y249840D02*
X167430D01*
G01D02*
G02Y248560I0J-640D01*
G01D02*
X164260D01*
G01X167430Y251740D02*
G02Y246660I2J-2540D01*
G01X154100Y250710D02*
Y251740D01*
G01Y248340D02*
Y250060D01*
G01Y246660D02*
Y247690D01*
G01X153920Y251740D02*
X154100D01*
G01X154440D02*
X154100D01*
G01X167430D02*
X164260D01*
G01X154100Y246660D02*
X154440D01*
G01X154100D02*
X153920D01*
G01X167430D02*
X164260D01*
G01X143210Y247700D02*
G02X141090Y248920I-546J1503D01*
G01Y249480D02*
G02X143210Y250700I1574J-283D01*
G01X139870Y249690D02*
X141090Y249480D01*
G01X139870Y248710D02*
X141090Y248920D01*
G01X143210Y247700D02*
X143220Y247690D01*
G01X143670Y246460D02*
X143220Y247690D01*
G01X143670Y251940D02*
X143220Y250710D01*
G01D02*
X143210Y250700D01*
G01X141820Y246410D02*
G02X139870Y248350I842J2796D01*
G01X145460D02*
G02X143520Y246410I-2792J852D01*
G01Y251990D02*
G02X145460Y250050I-852J-2792D01*
G01X139870D02*
G02X141820Y251990I2792J-856D01*
G01X144540Y246960D02*
X143660Y248020D01*
G01X144540Y251440D02*
X143660Y250380D01*
G01X141150Y249700D02*
G02Y248700I-388J-500D01*
G01X133780Y248560D02*
X130600D01*
G01D02*
G02Y249840I0J640D01*
G01D02*
X133780D01*
G01X143940Y247690D02*
Y246660D01*
G01Y250060D02*
Y248340D01*
G01Y251740D02*
Y250710D01*
G01X144110Y246660D02*
X143940D01*
G01X143590D02*
X143940D01*
G01X130600D02*
X133780D01*
G01X143940Y251740D02*
X143590D01*
G01X143940D02*
X144110D01*
G01X130600D02*
X133780D01*
G01X154820Y238000D02*
G02X156940Y236780I547J-1502D01*
G01Y236220D02*
G02X154820Y235000I-1573J282D01*
G01X158160Y236010D02*
X156940Y236220D01*
G01X158160Y236990D02*
X156940Y236780D01*
G01X154820Y238000D02*
Y238010D01*
G01X154370Y239240D02*
X154820Y238010D01*
G01X154370Y233760D02*
X154820Y234990D01*
G01D02*
Y235000D01*
G01X156220Y239290D02*
G02X158160Y237350I-852J-2792D01*
G01X152570D02*
G02X154520Y239290I2792J-856D01*
G01Y233710D02*
G02X152570Y235650I842J2796D01*
G01X158160D02*
G02X156220Y233710I-2792J852D01*
G01X153490Y238740D02*
X154380Y237680D01*
G01X153490Y234260D02*
X154380Y235320D01*
G01X156880Y236000D02*
G02Y237000I392J500D01*
G01X164260Y237140D02*
X167430D01*
G01D02*
G02Y235860I0J-640D01*
G01D02*
X164260D01*
G01X167430Y239040D02*
G02Y233960I2J-2540D01*
G01X154100Y238010D02*
Y239040D01*
G01Y235640D02*
Y237360D01*
G01Y233960D02*
Y234990D01*
G01X153920Y239040D02*
X154100D01*
G01X154440D02*
X154100D01*
G01X167430D02*
X164260D01*
G01X154100Y233960D02*
X154440D01*
G01X154100D02*
X153920D01*
G01X167430D02*
X164260D01*
G01X143210Y222300D02*
G02X141090Y223520I-546J1503D01*
G01Y224080D02*
G02X143210Y225300I1574J-283D01*
G01X139870Y224290D02*
X141090Y224080D01*
G01X139870Y223310D02*
X141090Y223520D01*
G01X143210Y222300D02*
X143220Y222290D01*
G01X143670Y221060D02*
X143220Y222290D01*
G01X143670Y226540D02*
X143220Y225310D01*
G01D02*
X143210Y225300D01*
G01X141820Y221010D02*
G02X139870Y222950I842J2796D01*
G01X145460D02*
G02X143520Y221010I-2792J852D01*
G01Y226590D02*
G02X145460Y224650I-852J-2792D01*
G01X139870D02*
G02X141820Y226590I2792J-856D01*
G01X144540Y221560D02*
X143660Y222620D01*
G01X144540Y226040D02*
X143660Y224980D01*
G01X141150Y224300D02*
G02Y223300I-388J-500D01*
G01X133780Y223160D02*
X130600D01*
G01D02*
G02Y224440I0J640D01*
G01D02*
X133780D01*
G01X143940Y222290D02*
Y221260D01*
G01Y224660D02*
Y222940D01*
G01Y226340D02*
Y225310D01*
G01X144110Y221260D02*
X143940D01*
G01X143590D02*
X143940D01*
G01X130600D02*
X133780D01*
G01X143940Y226340D02*
X143590D01*
G01X143940D02*
X144110D01*
G01X130600D02*
X133780D01*
G01X154820Y225300D02*
G02X156940Y224080I547J-1502D01*
G01Y223520D02*
G02X154820Y222300I-1573J282D01*
G01X158160Y223310D02*
X156940Y223520D01*
G01X158160Y224290D02*
X156940Y224080D01*
G01X154820Y225300D02*
Y225310D01*
G01X154370Y226540D02*
X154820Y225310D01*
G01X154370Y221060D02*
X154820Y222290D01*
G01D02*
Y222300D01*
G01X156220Y226590D02*
G02X158160Y224650I-852J-2792D01*
G01X152570D02*
G02X154520Y226590I2792J-856D01*
G01Y221010D02*
G02X152570Y222950I842J2796D01*
G01X158160D02*
G02X156220Y221010I-2792J852D01*
G01X153490Y226040D02*
X154380Y224980D01*
G01X153490Y221560D02*
X154380Y222620D01*
G01X156880Y223300D02*
G02Y224300I392J500D01*
G01X164260Y224440D02*
X167430D01*
G01D02*
G02Y223160I0J-640D01*
G01D02*
X164260D01*
G01X167430Y226340D02*
G02Y221260I2J-2540D01*
G01X154100Y225310D02*
Y226340D01*
G01Y222940D02*
Y224660D01*
G01Y221260D02*
Y222290D01*
G01X153920Y226340D02*
X154100D01*
G01X154440D02*
X154100D01*
G01X167430D02*
X164260D01*
G01X154100Y221260D02*
X154440D01*
G01X154100D02*
X153920D01*
G01X167430D02*
X164260D01*
G01X143210Y235000D02*
G02X141090Y236220I-546J1503D01*
G01Y236780D02*
G02X143210Y238000I1574J-283D01*
G01X139870Y236990D02*
X141090Y236780D01*
G01X139870Y236010D02*
X141090Y236220D01*
G01X143210Y235000D02*
X143220Y234990D01*
G01X143670Y233760D02*
X143220Y234990D01*
G01X143670Y239240D02*
X143220Y238010D01*
G01D02*
X143210Y238000D01*
G01X141820Y233710D02*
G02X139870Y235650I842J2796D01*
G01X145460D02*
G02X143520Y233710I-2792J852D01*
G01Y239290D02*
G02X145460Y237350I-852J-2792D01*
G01X139870D02*
G02X141820Y239290I2792J-856D01*
G01X144540Y234260D02*
X143660Y235320D01*
G01X144540Y238740D02*
X143660Y237680D01*
G01X141150Y237000D02*
G02Y236000I-388J-500D01*
G01X133780Y235860D02*
X130600D01*
G01D02*
G02Y237140I0J640D01*
G01D02*
X133780D01*
G01X143940Y234990D02*
Y233960D01*
G01Y237360D02*
Y235640D01*
G01Y239040D02*
Y238010D01*
G01X144110Y233960D02*
X143940D01*
G01X143590D02*
X143940D01*
G01X130600D02*
X133780D01*
G01X143940Y239040D02*
X143590D01*
G01X143940D02*
X144110D01*
G01X130600D02*
X133780D01*
G01X152570Y297210D02*
X158160D01*
G01X145460Y302790D02*
Y297210D01*
G01Y259110D02*
X139870D01*
G01X145460Y271810D02*
X139870D01*
G01X145460Y277390D02*
Y271810D01*
G01D02*
X147750Y269520D01*
G01X137590Y256820D02*
X139870Y259110D01*
G01D02*
Y264690D01*
G01X158160D02*
X152570D01*
G01X137590Y269520D02*
X139870Y271810D01*
G01D02*
Y277390D01*
G01X137590Y266980D02*
X139870Y264690D01*
G01D02*
X145460D01*
G01X158160Y259110D02*
Y264690D01*
G01X160450Y266980D02*
X158160Y264690D01*
G01X139870Y297210D02*
Y302790D01*
G01X145460Y297210D02*
X147750Y294920D01*
G01X145460Y297210D02*
X139870D01*
G01X137590Y294920D02*
X139870Y297210D01*
G01X152570D02*
X150290Y294920D01*
G01X152570Y302790D02*
Y297210D01*
G01X137590Y279680D02*
X139870Y277390D01*
G01D02*
X145460D01*
G01D02*
X147750Y279680D01*
G01X145460Y264690D02*
Y259110D01*
G01D02*
X147750Y256820D01*
G01X145460Y264690D02*
X147750Y266980D01*
G01X152570Y271810D02*
X158160D01*
G01Y297210D02*
Y302790D01*
G01X160450Y294920D02*
X158160Y297210D01*
G01X152570Y271810D02*
X150290Y269520D01*
G01X152570Y277390D02*
Y271810D01*
G01Y264690D02*
Y259110D01*
G01Y264690D02*
X150290Y266980D01*
G01X158160Y271810D02*
Y277390D01*
G01X160450Y269520D02*
X158160Y271810D01*
G01Y277390D02*
X152570D01*
G01X160450Y279680D02*
X158160Y277390D01*
G01X152570D02*
X150290Y279680D01*
G01X152570Y259110D02*
X158160D01*
G01X152570D02*
X150290Y256820D01*
G01X160450D02*
X158160Y259110D01*
G01X145460Y290090D02*
X147750Y292380D01*
G01X145460Y284510D02*
X147750Y282220D01*
G01X137590D02*
X139870Y284510D01*
G01X137590Y292380D02*
X139870Y290090D01*
G01X160450Y256820D02*
X150290D01*
G01D02*
Y266980D01*
G01D02*
X160450D01*
G01D02*
Y256820D01*
G01Y269520D02*
X150290D01*
G01D02*
Y279680D01*
G01D02*
X160450D01*
G01D02*
Y269520D01*
G01Y294920D02*
X150290D01*
G01D02*
Y305080D01*
G01X160450D02*
Y294920D01*
G01X147750D02*
Y305080D01*
G01X137590Y294920D02*
X147750D01*
G01X137590Y305080D02*
Y294920D01*
G01X147750Y266980D02*
X137590D01*
G01X147750Y256820D02*
Y266980D01*
G01X137590Y256820D02*
X147750D01*
G01X137590Y266980D02*
Y256820D01*
G01X147750Y279680D02*
X137590D01*
G01X147750Y269520D02*
Y279680D01*
G01X137590Y269520D02*
X147750D01*
G01X137590Y279680D02*
Y269520D01*
G01X147750Y292380D02*
X137590D01*
G01X147750Y282220D02*
Y292380D01*
G01X137590Y282220D02*
X147750D01*
G01X137590Y292380D02*
Y282220D01*
G01X139870Y290090D02*
X145460D01*
G01D02*
Y284510D01*
G01D02*
X139870D01*
G01D02*
Y290090D01*
G01X160450Y292380D02*
Y282220D01*
G01D02*
X150290D01*
G01X160450D02*
X158160Y284510D01*
G01X160450Y292380D02*
X158160Y290090D01*
G01X150290Y292380D02*
X160450D01*
G01X150290Y282220D02*
Y292380D01*
G01X152570Y284510D02*
X150290Y282220D01*
G01X152570Y290090D02*
X150290Y292380D01*
G01X158160Y284510D02*
Y290090D01*
G01X152570Y284510D02*
X158160D01*
G01Y290090D02*
X152570D01*
G01D02*
Y284510D01*
G01X154820Y276100D02*
G02X156940Y274880I547J-1502D01*
G01Y274320D02*
G02X154820Y273100I-1573J282D01*
G01X158160Y274110D02*
X156940Y274320D01*
G01X158160Y275090D02*
X156940Y274880D01*
G01X154820Y276100D02*
Y276110D01*
G01X154370Y277340D02*
X154820Y276110D01*
G01X154370Y271860D02*
X154820Y273090D01*
G01D02*
Y273100D01*
G01X156220Y277390D02*
G02X158160Y275450I-852J-2792D01*
G01X152570D02*
G02X154520Y277390I2792J-856D01*
G01Y271810D02*
G02X152570Y273750I842J2796D01*
G01X158160D02*
G02X156220Y271810I-2792J852D01*
G01X153490Y276840D02*
X154380Y275780D01*
G01X153490Y272360D02*
X154380Y273420D01*
G01X156880Y274100D02*
G02Y275100I392J500D01*
G01X164260Y275240D02*
X167430D01*
G01D02*
G02Y273960I0J-640D01*
G01D02*
X164260D01*
G01X167430Y277140D02*
G02Y272060I2J-2540D01*
G01X154100Y276110D02*
Y277140D01*
G01Y273740D02*
Y275460D01*
G01Y272060D02*
Y273090D01*
G01X153920Y277140D02*
X154100D01*
G01X154440D02*
X154100D01*
G01X167430D02*
X164260D01*
G01X154100Y272060D02*
X154440D01*
G01X154100D02*
X153920D01*
G01X167430D02*
X164260D01*
G01X154820Y288800D02*
G02X156940Y287580I547J-1502D01*
G01Y287020D02*
G02X154820Y285800I-1573J282D01*
G01X158160Y286810D02*
X156940Y287020D01*
G01X158160Y287790D02*
X156940Y287580D01*
G01X154820Y288800D02*
Y288810D01*
G01X154370Y290040D02*
X154820Y288810D01*
G01X154370Y284560D02*
X154820Y285790D01*
G01D02*
Y285800D01*
G01X156220Y290090D02*
G02X158160Y288150I-852J-2792D01*
G01X152570D02*
G02X154520Y290090I2792J-856D01*
G01Y284510D02*
G02X152570Y286450I842J2796D01*
G01X158160D02*
G02X156220Y284510I-2792J852D01*
G01X153490Y289540D02*
X154380Y288480D01*
G01X153490Y285060D02*
X154380Y286120D01*
G01X156880Y286800D02*
G02Y287800I392J500D01*
G01X164260Y287940D02*
X167430D01*
G01D02*
G02Y286660I0J-640D01*
G01D02*
X164260D01*
G01X167430Y289840D02*
G02Y284760I2J-2540D01*
G01X154100Y288810D02*
Y289840D01*
G01Y286440D02*
Y288160D01*
G01Y284760D02*
Y285790D01*
G01X153920Y289840D02*
X154100D01*
G01X154440D02*
X154100D01*
G01X167430D02*
X164260D01*
G01X154100Y284760D02*
X154440D01*
G01X154100D02*
X153920D01*
G01X167430D02*
X164260D01*
G01X154820Y263400D02*
G02X156940Y262180I547J-1502D01*
G01Y261620D02*
G02X154820Y260400I-1573J282D01*
G01X158160Y261410D02*
X156940Y261620D01*
G01X158160Y262390D02*
X156940Y262180D01*
G01X154820Y263400D02*
Y263410D01*
G01X154370Y264640D02*
X154820Y263410D01*
G01X154370Y259160D02*
X154820Y260390D01*
G01D02*
Y260400D01*
G01X156220Y264690D02*
G02X158160Y262750I-852J-2792D01*
G01X152570D02*
G02X154520Y264690I2792J-856D01*
G01Y259110D02*
G02X152570Y261050I842J2796D01*
G01X158160D02*
G02X156220Y259110I-2792J852D01*
G01X153490Y264140D02*
X154380Y263080D01*
G01X153490Y259660D02*
X154380Y260720D01*
G01X156880Y261400D02*
G02Y262400I392J500D01*
G01X164260Y262540D02*
X167430D01*
G01D02*
G02Y261260I0J-640D01*
G01D02*
X164260D01*
G01X167430Y264440D02*
G02Y259360I2J-2540D01*
G01X154100Y263410D02*
Y264440D01*
G01Y261040D02*
Y262760D01*
G01Y259360D02*
Y260390D01*
G01X153920Y264440D02*
X154100D01*
G01X154440D02*
X154100D01*
G01X167430D02*
X164260D01*
G01X154100Y259360D02*
X154440D01*
G01X154100D02*
X153920D01*
G01X167430D02*
X164260D01*
G01X156940Y299720D02*
G02X154820Y298500I-1573J282D01*
G01X154370Y297260D02*
X154820Y298490D01*
G01D02*
Y298500D01*
G01X154520Y297210D02*
G02X152570Y299150I842J2796D01*
G01X158160D02*
G02X156220Y297210I-2792J852D01*
G01X153490Y297760D02*
X154380Y298820D01*
G01X167430Y302540D02*
G02Y297460I2J-2540D01*
G01X154100Y299140D02*
Y300860D01*
G01Y297460D02*
Y298490D01*
G01Y297460D02*
X154440D01*
G01X154100D02*
X153920D01*
G01X167430D02*
X164260D01*
G01X143210Y298500D02*
G02X141090Y299720I-546J1503D01*
G01X143210Y298500D02*
X143220Y298490D01*
G01X143670Y297260D02*
X143220Y298490D01*
G01X141820Y297210D02*
G02X139870Y299150I842J2796D01*
G01X145460D02*
G02X143520Y297210I-2792J852D01*
G01X144540Y297760D02*
X143660Y298820D01*
G01X143940Y298490D02*
Y297460D01*
G01Y300860D02*
Y299140D01*
G01X144110Y297460D02*
X143940D01*
G01X143590D02*
X143940D01*
G01X143210Y260400D02*
G02X141090Y261620I-546J1503D01*
G01Y262180D02*
G02X143210Y263400I1574J-283D01*
G01X139870Y262390D02*
X141090Y262180D01*
G01X139870Y261410D02*
X141090Y261620D01*
G01X143210Y260400D02*
X143220Y260390D01*
G01X143670Y259160D02*
X143220Y260390D01*
G01X143670Y264640D02*
X143220Y263410D01*
G01D02*
X143210Y263400D01*
G01X141820Y259110D02*
G02X139870Y261050I842J2796D01*
G01X145460D02*
G02X143520Y259110I-2792J852D01*
G01Y264690D02*
G02X145460Y262750I-852J-2792D01*
G01X139870D02*
G02X141820Y264690I2792J-856D01*
G01X144540Y259660D02*
X143660Y260720D01*
G01X144540Y264140D02*
X143660Y263080D01*
G01X141150Y262400D02*
G02Y261400I-388J-500D01*
G01X133780Y261260D02*
X130600D01*
G01D02*
G02Y262540I0J640D01*
G01D02*
X133780D01*
G01X143940Y260390D02*
Y259360D01*
G01Y262760D02*
Y261040D01*
G01Y264440D02*
Y263410D01*
G01X144110Y259360D02*
X143940D01*
G01X143590D02*
X143940D01*
G01X130600D02*
X133780D01*
G01X143940Y264440D02*
X143590D01*
G01X143940D02*
X144110D01*
G01X130600D02*
X133780D01*
G01X143210Y273100D02*
G02X141090Y274320I-546J1503D01*
G01Y274880D02*
G02X143210Y276100I1574J-283D01*
G01X139870Y275090D02*
X141090Y274880D01*
G01X139870Y274110D02*
X141090Y274320D01*
G01X143210Y273100D02*
X143220Y273090D01*
G01X143670Y271860D02*
X143220Y273090D01*
G01X143670Y277340D02*
X143220Y276110D01*
G01D02*
X143210Y276100D01*
G01X141820Y271810D02*
G02X139870Y273750I842J2796D01*
G01X145460D02*
G02X143520Y271810I-2792J852D01*
G01Y277390D02*
G02X145460Y275450I-852J-2792D01*
G01X139870D02*
G02X141820Y277390I2792J-856D01*
G01X144540Y272360D02*
X143660Y273420D01*
G01X144540Y276840D02*
X143660Y275780D01*
G01X141150Y275100D02*
G02Y274100I-388J-500D01*
G01X133780Y273960D02*
X130600D01*
G01D02*
G02Y275240I0J640D01*
G01D02*
X133780D01*
G01X143940Y273090D02*
Y272060D01*
G01Y275460D02*
Y273740D01*
G01Y277140D02*
Y276110D01*
G01X144110Y272060D02*
X143940D01*
G01X143590D02*
X143940D01*
G01X130600D02*
X133780D01*
G01X143940Y277140D02*
X143590D01*
G01X143940D02*
X144110D01*
G01X130600D02*
X133780D01*
G01X143210Y285800D02*
G02X141090Y287020I-546J1503D01*
G01Y287580D02*
G02X143210Y288800I1574J-283D01*
G01X139870Y287790D02*
X141090Y287580D01*
G01X139870Y286810D02*
X141090Y287020D01*
G01X143210Y285800D02*
X143220Y285790D01*
G01X143670Y284560D02*
X143220Y285790D01*
G01X143670Y290040D02*
X143220Y288810D01*
G01D02*
X143210Y288800D01*
G01X141820Y284510D02*
G02X139870Y286450I842J2796D01*
G01X145460D02*
G02X143520Y284510I-2792J852D01*
G01Y290090D02*
G02X145460Y288150I-852J-2792D01*
G01X139870D02*
G02X141820Y290090I2792J-856D01*
G01X144540Y285060D02*
X143660Y286120D01*
G01X144540Y289540D02*
X143660Y288480D01*
G01X141150Y287800D02*
G02Y286800I-388J-500D01*
G01X133780Y286660D02*
X130600D01*
G01D02*
G02Y287940I0J640D01*
G01X143940Y285790D02*
Y284760D01*
G01Y288160D02*
Y286440D01*
G01Y289840D02*
Y288810D01*
G01X144110Y284760D02*
X143940D01*
G01X143590D02*
X143940D01*
G01X130600D02*
X133780D01*
G01X143940Y289840D02*
X143590D01*
G01X143940D02*
X144110D01*
G01X137590Y305080D02*
X139870Y302790D01*
G01D02*
X145460D01*
G01D02*
X147750Y305080D01*
G01X158160Y302790D02*
X152570D01*
G01X160450Y305080D02*
X158160Y302790D01*
G01X152570D02*
X150290Y305080D01*
G01X155370Y322220D02*
X142670D01*
G01X155370D02*
Y308260D01*
G01X142670D02*
Y322220D01*
G01X150290Y305080D02*
X160450D01*
G01X147750D02*
X137590D01*
G01X154820Y301500D02*
G02X156940Y300280I547J-1502D01*
G01X158160Y299510D02*
X156940Y299720D01*
G01X158160Y300490D02*
X156940Y300280D01*
G01X154820Y301500D02*
Y301510D01*
G01X154370Y302740D02*
X154820Y301510D01*
G01X156220Y302790D02*
G02X158160Y300850I-852J-2792D01*
G01X152570D02*
G02X154520Y302790I2792J-856D01*
G01X153490Y302240D02*
X154380Y301180D01*
G01X156880Y299500D02*
G02Y300500I392J500D01*
G01X164260Y300640D02*
X167430D01*
G01D02*
G02Y299360I0J-640D01*
G01D02*
X164260D01*
G01X154100Y301510D02*
Y302540D01*
G01X153920D02*
X154100D01*
G01X154440D02*
X154100D01*
G01X167430D02*
X164260D01*
G01X141090Y300280D02*
G02X143210Y301500I1574J-283D01*
G01X139870Y300490D02*
X141090Y300280D01*
G01X139870Y299510D02*
X141090Y299720D01*
G01X143670Y302740D02*
X143220Y301510D01*
G01D02*
X143210Y301500D01*
G01X143520Y302790D02*
G02X145460Y300850I-852J-2792D01*
G01X139870D02*
G02X141820Y302790I2792J-856D01*
G01X144540Y302240D02*
X143660Y301180D01*
G01X141150Y300500D02*
G02Y299500I-388J-500D01*
G01X143940Y302540D02*
Y301510D01*
G01Y302540D02*
X143590D01*
G01X143940D02*
X144110D01*
G01X447470Y177440D02*
Y163480D01*
G01X460170D02*
X447470D01*
G01X460170D02*
Y177440D01*
G01X450260Y201190D02*
Y195610D01*
G01X457370Y188490D02*
Y182910D01*
G01X462960Y208310D02*
Y213890D01*
G01Y182910D02*
Y188490D01*
G01X450260Y182910D02*
X444670D01*
G01Y195610D02*
Y201190D01*
G01X450260Y208310D02*
X444670D01*
G01X442390Y203480D02*
X444670Y201190D01*
G01D02*
X450260D01*
G01D02*
X452550Y203480D01*
G01X450260Y213890D02*
Y208310D01*
G01D02*
X452550Y206020D01*
G01X457370Y213890D02*
Y208310D01*
G01X442390Y206020D02*
X444670Y208310D01*
G01D02*
Y213890D01*
G01X457370Y195610D02*
X462960D01*
G01X444670Y188490D02*
X450260D01*
G01X457370Y195610D02*
X455090Y193320D01*
G01X457370Y201190D02*
Y195610D01*
G01X462960D02*
Y201190D01*
G01X465250Y193320D02*
X462960Y195610D01*
G01X442390Y180620D02*
X444670Y182910D01*
G01D02*
Y188490D01*
G01X442390Y190780D02*
X444670Y188490D01*
G01X462960Y201190D02*
X457370D01*
G01X465250Y203480D02*
X462960Y201190D01*
G01X457370D02*
X455090Y203480D01*
G01X457370Y182910D02*
X462960D01*
G01X457370D02*
X455090Y180620D01*
G01X465250D02*
X462960Y182910D01*
G01X450260Y188490D02*
Y182910D01*
G01D02*
X452550Y180620D01*
G01X450260Y188490D02*
X452550Y190780D01*
G01X457370Y208310D02*
X462960D01*
G01X457370D02*
X455090Y206020D01*
G01X465250D02*
X462960Y208310D01*
G01Y188490D02*
X457370D01*
G01X465250Y190780D02*
X462960Y188490D01*
G01X457370D02*
X455090Y190780D01*
G01X450260Y195610D02*
X452550Y193320D01*
G01X450260Y195610D02*
X444670D01*
G01X442390Y193320D02*
X444670Y195610D01*
G01X465250Y180620D02*
X455090D01*
G01D02*
Y190780D01*
G01D02*
X465250D01*
G01D02*
Y180620D01*
G01Y193320D02*
X455090D01*
G01D02*
Y203480D01*
G01D02*
X465250D01*
G01D02*
Y193320D01*
G01Y206020D02*
X455090D01*
G01D02*
Y216180D01*
G01X465250D02*
Y206020D01*
G01X452550Y190780D02*
X442390D01*
G01X452550Y180620D02*
Y190780D01*
G01X442390Y180620D02*
X452550D01*
G01X442390Y190780D02*
Y180620D01*
G01X452550Y203480D02*
X442390D01*
G01X452550Y193320D02*
Y203480D01*
G01X442390Y193320D02*
X452550D01*
G01X442390Y203480D02*
Y193320D01*
G01X452550Y206020D02*
Y216180D01*
G01X442390Y206020D02*
X452550D01*
G01X442390Y216180D02*
Y206020D01*
G01X469060Y308260D02*
Y177440D01*
G01D02*
X438580D01*
G01Y287940D02*
Y177440D01*
G01X459620Y212600D02*
G02X461740Y211380I547J-1502D01*
G01Y210820D02*
G02X459620Y209600I-1573J282D01*
G01X462960Y210610D02*
X461740Y210820D01*
G01X462960Y211590D02*
X461740Y211380D01*
G01X459620Y212600D02*
Y212610D01*
G01X459170Y213840D02*
X459620Y212610D01*
G01X459170Y208360D02*
X459620Y209590D01*
G01D02*
Y209600D01*
G01X461020Y213890D02*
G02X462960Y211950I-852J-2792D01*
G01X457370D02*
G02X459320Y213890I2792J-856D01*
G01Y208310D02*
G02X457370Y210250I842J2796D01*
G01X462960D02*
G02X461020Y208310I-2792J852D01*
G01X458290Y213340D02*
X459180Y212280D01*
G01X458290Y208860D02*
X459180Y209920D01*
G01X461680Y210600D02*
G02Y211600I392J500D01*
G01X469060Y211740D02*
X472230D01*
G01Y210460D02*
X469060D01*
G01X458900Y212610D02*
Y213640D01*
G01Y210240D02*
Y211960D01*
G01Y208560D02*
Y209590D01*
G01X458720Y213640D02*
X458900D01*
G01X459240D02*
X458900D01*
G01X472230D02*
X469060D01*
G01X458900Y208560D02*
X459240D01*
G01X458900D02*
X458720D01*
G01X472230D02*
X469060D01*
G01X459620Y187200D02*
G02X461740Y185980I547J-1502D01*
G01Y185420D02*
G02X459620Y184200I-1573J282D01*
G01X462960Y185210D02*
X461740Y185420D01*
G01X462960Y186190D02*
X461740Y185980D01*
G01X459620Y187200D02*
Y187210D01*
G01X459170Y188440D02*
X459620Y187210D01*
G01X459170Y182960D02*
X459620Y184190D01*
G01D02*
Y184200D01*
G01X461020Y188490D02*
G02X462960Y186550I-852J-2792D01*
G01X457370D02*
G02X459320Y188490I2792J-856D01*
G01Y182910D02*
G02X457370Y184850I842J2796D01*
G01X462960D02*
G02X461020Y182910I-2792J852D01*
G01X458290Y187940D02*
X459180Y186880D01*
G01X458290Y183460D02*
X459180Y184520D01*
G01X461680Y185200D02*
G02Y186200I392J500D01*
G01X469060Y186340D02*
X472230D01*
G01Y185060D02*
X469060D01*
G01X458900Y187210D02*
Y188240D01*
G01Y184840D02*
Y186560D01*
G01Y183160D02*
Y184190D01*
G01X458720Y188240D02*
X458900D01*
G01X459240D02*
X458900D01*
G01X472230D02*
X469060D01*
G01X458900Y183160D02*
X459240D01*
G01X458900D02*
X458720D01*
G01X472230D02*
X469060D01*
G01X448010Y209600D02*
G02X445890Y210820I-546J1503D01*
G01Y211380D02*
G02X448010Y212600I1574J-283D01*
G01X444670Y211590D02*
X445890Y211380D01*
G01X444670Y210610D02*
X445890Y210820D01*
G01X448010Y209600D02*
X448020Y209590D01*
G01X448470Y208360D02*
X448020Y209590D01*
G01X448470Y213840D02*
X448020Y212610D01*
G01D02*
X448010Y212600D01*
G01X446620Y208310D02*
G02X444670Y210250I842J2796D01*
G01X450260D02*
G02X448320Y208310I-2792J852D01*
G01Y213890D02*
G02X450260Y211950I-852J-2792D01*
G01X444670D02*
G02X446620Y213890I2792J-856D01*
G01X449340Y208860D02*
X448460Y209920D01*
G01X449340Y213340D02*
X448460Y212280D01*
G01X445950Y211600D02*
G02Y210600I-388J-500D01*
G01X438580Y210460D02*
X435400D01*
G01D02*
G02Y211740I0J640D01*
G01D02*
X438580D01*
G01X435400Y208560D02*
G02Y213640I2J2540D01*
G01X448740Y209590D02*
Y208560D01*
G01Y211960D02*
Y210240D01*
G01Y213640D02*
Y212610D01*
G01X448910Y208560D02*
X448740D01*
G01X448390D02*
X448740D01*
G01X435400D02*
X438580D01*
G01X448740Y213640D02*
X448390D01*
G01X448740D02*
X448910D01*
G01X435400D02*
X438580D01*
G01X448010Y184200D02*
G02X445890Y185420I-546J1503D01*
G01Y185980D02*
G02X448010Y187200I1574J-283D01*
G01X444670Y186190D02*
X445890Y185980D01*
G01X444670Y185210D02*
X445890Y185420D01*
G01X448010Y184200D02*
X448020Y184190D01*
G01X448470Y182960D02*
X448020Y184190D01*
G01X448470Y188440D02*
X448020Y187210D01*
G01D02*
X448010Y187200D01*
G01X446620Y182910D02*
G02X444670Y184850I842J2796D01*
G01X450260D02*
G02X448320Y182910I-2792J852D01*
G01Y188490D02*
G02X450260Y186550I-852J-2792D01*
G01X444670D02*
G02X446620Y188490I2792J-856D01*
G01X449340Y183460D02*
X448460Y184520D01*
G01X449340Y187940D02*
X448460Y186880D01*
G01X445950Y186200D02*
G02Y185200I-388J-500D01*
G01X438580Y185060D02*
X435400D01*
G01D02*
G02Y186340I0J640D01*
G01D02*
X438580D01*
G01X435400Y183160D02*
G02Y188240I2J2540D01*
G01X448740Y184190D02*
Y183160D01*
G01Y186560D02*
Y184840D01*
G01Y188240D02*
Y187210D01*
G01X448910Y183160D02*
X448740D01*
G01X448390D02*
X448740D01*
G01X435400D02*
X438580D01*
G01X448740Y188240D02*
X448390D01*
G01X448740D02*
X448910D01*
G01X435400D02*
X438580D01*
G01X459620Y199900D02*
G02X461740Y198680I547J-1502D01*
G01Y198120D02*
G02X459620Y196900I-1573J282D01*
G01X462960Y197910D02*
X461740Y198120D01*
G01X462960Y198890D02*
X461740Y198680D01*
G01X459620Y199900D02*
Y199910D01*
G01X459170Y201140D02*
X459620Y199910D01*
G01X459170Y195660D02*
X459620Y196890D01*
G01D02*
Y196900D01*
G01X461020Y201190D02*
G02X462960Y199250I-852J-2792D01*
G01X457370D02*
G02X459320Y201190I2792J-856D01*
G01Y195610D02*
G02X457370Y197550I842J2796D01*
G01X462960D02*
G02X461020Y195610I-2792J852D01*
G01X458290Y200640D02*
X459180Y199580D01*
G01X458290Y196160D02*
X459180Y197220D01*
G01X461680Y197900D02*
G02Y198900I392J500D01*
G01X469060Y199040D02*
X472230D01*
G01Y197760D02*
X469060D01*
G01X458900Y199910D02*
Y200940D01*
G01Y197540D02*
Y199260D01*
G01Y195860D02*
Y196890D01*
G01X458720Y200940D02*
X458900D01*
G01X459240D02*
X458900D01*
G01X472230D02*
X469060D01*
G01X458900Y195860D02*
X459240D01*
G01X458900D02*
X458720D01*
G01X472230D02*
X469060D01*
G01X448010Y196900D02*
G02X445890Y198120I-546J1503D01*
G01Y198680D02*
G02X448010Y199900I1574J-283D01*
G01X444670Y198890D02*
X445890Y198680D01*
G01X444670Y197910D02*
X445890Y198120D01*
G01X448010Y196900D02*
X448020Y196890D01*
G01X448470Y195660D02*
X448020Y196890D01*
G01X448470Y201140D02*
X448020Y199910D01*
G01D02*
X448010Y199900D01*
G01X446620Y195610D02*
G02X444670Y197550I842J2796D01*
G01X450260D02*
G02X448320Y195610I-2792J852D01*
G01Y201190D02*
G02X450260Y199250I-852J-2792D01*
G01X444670D02*
G02X446620Y201190I2792J-856D01*
G01X449340Y196160D02*
X448460Y197220D01*
G01X449340Y200640D02*
X448460Y199580D01*
G01X445950Y198900D02*
G02Y197900I-388J-500D01*
G01X438580Y197760D02*
X435400D01*
G01D02*
G02Y199040I0J640D01*
G01D02*
X438580D01*
G01X435400Y195860D02*
G02Y200940I2J2540D01*
G01X448740Y196890D02*
Y195860D01*
G01Y199260D02*
Y197540D01*
G01Y200940D02*
Y199910D01*
G01X448910Y195860D02*
X448740D01*
G01X448390D02*
X448740D01*
G01X435400D02*
X438580D01*
G01X448740Y200940D02*
X448390D01*
G01X448740D02*
X448910D01*
G01X435400D02*
X438580D01*
G01X444670Y246410D02*
Y251990D01*
G01X462960Y221010D02*
Y226590D01*
G01X450260Y246410D02*
X444670D01*
G01X442390Y244120D02*
X444670Y246410D01*
G01X450260Y221010D02*
X444670D01*
G01X462960Y226590D02*
X457370D01*
G01X465250Y228880D02*
X462960Y226590D01*
G01X444670D02*
X450260D01*
G01X462960Y239290D02*
X457370D01*
G01X462960Y251990D02*
X457370D01*
G01Y233710D02*
X462960D01*
G01X450260D02*
X444670D01*
G01Y239290D02*
X450260D01*
G01D02*
Y233710D01*
G01D02*
X452550Y231420D01*
G01X450260Y239290D02*
X452550Y241580D01*
G01X457370Y233710D02*
X455090Y231420D01*
G01X457370Y239290D02*
Y233710D01*
G01Y239290D02*
X455090Y241580D01*
G01X450260Y226590D02*
Y221010D01*
G01D02*
X452550Y218720D01*
G01X450260Y226590D02*
X452550Y228880D01*
G01X462960Y233710D02*
Y239290D01*
G01X465250Y231420D02*
X462960Y233710D01*
G01X465250Y241580D02*
X462960Y239290D01*
G01X442390Y218720D02*
X444670Y221010D01*
G01D02*
Y226590D01*
G01X442390Y228880D02*
X444670Y226590D01*
G01X457370Y251990D02*
Y246410D01*
G01Y251990D02*
X455090Y254280D01*
G01X442390D02*
X444670Y251990D01*
G01D02*
X450260D01*
G01X442390Y231420D02*
X444670Y233710D01*
G01D02*
Y239290D01*
G01X442390Y241580D02*
X444670Y239290D01*
G01X462960Y246410D02*
Y251990D01*
G01X465250Y254280D02*
X462960Y251990D01*
G01X457370Y221010D02*
X462960D01*
G01X465250Y218720D02*
X462960Y221010D01*
G01Y213890D02*
X457370D01*
G01X465250Y216180D02*
X462960Y213890D01*
G01X457370D02*
X455090Y216180D01*
G01X450260Y251990D02*
Y246410D01*
G01D02*
X452550Y244120D01*
G01X450260Y251990D02*
X452550Y254280D01*
G01X457370Y246410D02*
X462960D01*
G01X457370D02*
X455090Y244120D01*
G01X465250D02*
X462960Y246410D01*
G01X457370Y221010D02*
X455090Y218720D01*
G01X457370Y226590D02*
Y221010D01*
G01Y226590D02*
X455090Y228880D01*
G01X442390Y216180D02*
X444670Y213890D01*
G01D02*
X450260D01*
G01D02*
X452550Y216180D01*
G01X455090D02*
X465250D01*
G01Y218720D02*
X455090D01*
G01D02*
Y228880D01*
G01D02*
X465250D01*
G01D02*
Y218720D01*
G01Y231420D02*
X455090D01*
G01D02*
Y241580D01*
G01D02*
X465250D01*
G01D02*
Y231420D01*
G01Y244120D02*
X455090D01*
G01D02*
Y254280D01*
G01D02*
X465250D01*
G01D02*
Y244120D01*
G01X452550Y216180D02*
X442390D01*
G01X452550Y228880D02*
X442390D01*
G01X452550Y218720D02*
Y228880D01*
G01X442390Y218720D02*
X452550D01*
G01X442390Y228880D02*
Y218720D01*
G01X452550Y241580D02*
X442390D01*
G01X452550Y231420D02*
Y241580D01*
G01X442390Y231420D02*
X452550D01*
G01X442390Y241580D02*
Y231420D01*
G01X452550Y254280D02*
X442390D01*
G01X452550Y244120D02*
Y254280D01*
G01X442390Y244120D02*
X452550D01*
G01X442390Y254280D02*
Y244120D01*
G01X459620Y250700D02*
G02X461740Y249480I547J-1502D01*
G01Y248920D02*
G02X459620Y247700I-1573J282D01*
G01X462960Y248710D02*
X461740Y248920D01*
G01X462960Y249690D02*
X461740Y249480D01*
G01X459620Y250700D02*
Y250710D01*
G01X459170Y251940D02*
X459620Y250710D01*
G01X459170Y246460D02*
X459620Y247690D01*
G01D02*
Y247700D01*
G01X461020Y251990D02*
G02X462960Y250050I-852J-2792D01*
G01X457370D02*
G02X459320Y251990I2792J-856D01*
G01Y246410D02*
G02X457370Y248350I842J2796D01*
G01X462960D02*
G02X461020Y246410I-2792J852D01*
G01X458290Y251440D02*
X459180Y250380D01*
G01X458290Y246960D02*
X459180Y248020D01*
G01X461680Y248700D02*
G02Y249700I392J500D01*
G01X469060Y249840D02*
X472230D01*
G01Y248560D02*
X469060D01*
G01X458900Y250710D02*
Y251740D01*
G01Y248340D02*
Y250060D01*
G01Y246660D02*
Y247690D01*
G01X458720Y251740D02*
X458900D01*
G01X459240D02*
X458900D01*
G01X472230D02*
X469060D01*
G01X458900Y246660D02*
X459240D01*
G01X458900D02*
X458720D01*
G01X472230D02*
X469060D01*
G01X448010Y247700D02*
G02X445890Y248920I-546J1503D01*
G01Y249480D02*
G02X448010Y250700I1574J-283D01*
G01X444670Y249690D02*
X445890Y249480D01*
G01X444670Y248710D02*
X445890Y248920D01*
G01X448010Y247700D02*
X448020Y247690D01*
G01X448470Y246460D02*
X448020Y247690D01*
G01X448470Y251940D02*
X448020Y250710D01*
G01D02*
X448010Y250700D01*
G01X446620Y246410D02*
G02X444670Y248350I842J2796D01*
G01X450260D02*
G02X448320Y246410I-2792J852D01*
G01Y251990D02*
G02X450260Y250050I-852J-2792D01*
G01X444670D02*
G02X446620Y251990I2792J-856D01*
G01X449340Y246960D02*
X448460Y248020D01*
G01X449340Y251440D02*
X448460Y250380D01*
G01X445950Y249700D02*
G02Y248700I-388J-500D01*
G01X438580Y248560D02*
X435400D01*
G01D02*
G02Y249840I0J640D01*
G01D02*
X438580D01*
G01X435400Y246660D02*
G02Y251740I2J2540D01*
G01X448740Y247690D02*
Y246660D01*
G01Y250060D02*
Y248340D01*
G01Y251740D02*
Y250710D01*
G01X448910Y246660D02*
X448740D01*
G01X448390D02*
X448740D01*
G01X435400D02*
X438580D01*
G01X448740Y251740D02*
X448390D01*
G01X448740D02*
X448910D01*
G01X435400D02*
X438580D01*
G01X459620Y238000D02*
G02X461740Y236780I547J-1502D01*
G01Y236220D02*
G02X459620Y235000I-1573J282D01*
G01X462960Y236010D02*
X461740Y236220D01*
G01X462960Y236990D02*
X461740Y236780D01*
G01X459620Y238000D02*
Y238010D01*
G01X459170Y239240D02*
X459620Y238010D01*
G01X459170Y233760D02*
X459620Y234990D01*
G01D02*
Y235000D01*
G01X461020Y239290D02*
G02X462960Y237350I-852J-2792D01*
G01X457370D02*
G02X459320Y239290I2792J-856D01*
G01Y233710D02*
G02X457370Y235650I842J2796D01*
G01X462960D02*
G02X461020Y233710I-2792J852D01*
G01X458290Y238740D02*
X459180Y237680D01*
G01X458290Y234260D02*
X459180Y235320D01*
G01X461680Y236000D02*
G02Y237000I392J500D01*
G01X469060Y237140D02*
X472230D01*
G01Y235860D02*
X469060D01*
G01X458900Y238010D02*
Y239040D01*
G01Y235640D02*
Y237360D01*
G01Y233960D02*
Y234990D01*
G01X458720Y239040D02*
X458900D01*
G01X459240D02*
X458900D01*
G01X472230D02*
X469060D01*
G01X458900Y233960D02*
X459240D01*
G01X458900D02*
X458720D01*
G01X472230D02*
X469060D01*
G01X448010Y222300D02*
G02X445890Y223520I-546J1503D01*
G01Y224080D02*
G02X448010Y225300I1574J-283D01*
G01X444670Y224290D02*
X445890Y224080D01*
G01X444670Y223310D02*
X445890Y223520D01*
G01X448010Y222300D02*
X448020Y222290D01*
G01X448470Y221060D02*
X448020Y222290D01*
G01X448470Y226540D02*
X448020Y225310D01*
G01D02*
X448010Y225300D01*
G01X446620Y221010D02*
G02X444670Y222950I842J2796D01*
G01X450260D02*
G02X448320Y221010I-2792J852D01*
G01Y226590D02*
G02X450260Y224650I-852J-2792D01*
G01X444670D02*
G02X446620Y226590I2792J-856D01*
G01X449340Y221560D02*
X448460Y222620D01*
G01X449340Y226040D02*
X448460Y224980D01*
G01X445950Y224300D02*
G02Y223300I-388J-500D01*
G01X438580Y223160D02*
X435400D01*
G01D02*
G02Y224440I0J640D01*
G01D02*
X438580D01*
G01X435400Y221260D02*
G02Y226340I2J2540D01*
G01X448740Y222290D02*
Y221260D01*
G01Y224660D02*
Y222940D01*
G01Y226340D02*
Y225310D01*
G01X448910Y221260D02*
X448740D01*
G01X448390D02*
X448740D01*
G01X435400D02*
X438580D01*
G01X448740Y226340D02*
X448390D01*
G01X448740D02*
X448910D01*
G01X435400D02*
X438580D01*
G01X459620Y225300D02*
G02X461740Y224080I547J-1502D01*
G01Y223520D02*
G02X459620Y222300I-1573J282D01*
G01X462960Y223310D02*
X461740Y223520D01*
G01X462960Y224290D02*
X461740Y224080D01*
G01X459620Y225300D02*
Y225310D01*
G01X459170Y226540D02*
X459620Y225310D01*
G01X459170Y221060D02*
X459620Y222290D01*
G01D02*
Y222300D01*
G01X461020Y226590D02*
G02X462960Y224650I-852J-2792D01*
G01X457370D02*
G02X459320Y226590I2792J-856D01*
G01Y221010D02*
G02X457370Y222950I842J2796D01*
G01X462960D02*
G02X461020Y221010I-2792J852D01*
G01X458290Y226040D02*
X459180Y224980D01*
G01X458290Y221560D02*
X459180Y222620D01*
G01X461680Y223300D02*
G02Y224300I392J500D01*
G01X469060Y224440D02*
X472230D01*
G01Y223160D02*
X469060D01*
G01X458900Y225310D02*
Y226340D01*
G01Y222940D02*
Y224660D01*
G01Y221260D02*
Y222290D01*
G01X458720Y226340D02*
X458900D01*
G01X459240D02*
X458900D01*
G01X472230D02*
X469060D01*
G01X458900Y221260D02*
X459240D01*
G01X458900D02*
X458720D01*
G01X472230D02*
X469060D01*
G01X448010Y235000D02*
G02X445890Y236220I-546J1503D01*
G01Y236780D02*
G02X448010Y238000I1574J-283D01*
G01X444670Y236990D02*
X445890Y236780D01*
G01X444670Y236010D02*
X445890Y236220D01*
G01X448010Y235000D02*
X448020Y234990D01*
G01X448470Y233760D02*
X448020Y234990D01*
G01X448470Y239240D02*
X448020Y238010D01*
G01D02*
X448010Y238000D01*
G01X446620Y233710D02*
G02X444670Y235650I842J2796D01*
G01X450260D02*
G02X448320Y233710I-2792J852D01*
G01Y239290D02*
G02X450260Y237350I-852J-2792D01*
G01X444670D02*
G02X446620Y239290I2792J-856D01*
G01X449340Y234260D02*
X448460Y235320D01*
G01X449340Y238740D02*
X448460Y237680D01*
G01X445950Y237000D02*
G02Y236000I-388J-500D01*
G01X438580Y235860D02*
X435400D01*
G01D02*
G02Y237140I0J640D01*
G01D02*
X438580D01*
G01X435400Y233960D02*
G02Y239040I2J2540D01*
G01X448740Y234990D02*
Y233960D01*
G01Y237360D02*
Y235640D01*
G01Y239040D02*
Y238010D01*
G01X448910Y233960D02*
X448740D01*
G01X448390D02*
X448740D01*
G01X435400D02*
X438580D01*
G01X448740Y239040D02*
X448390D01*
G01X448740D02*
X448910D01*
G01X435400D02*
X438580D01*
G01X457370Y297210D02*
X462960D01*
G01X450260Y302790D02*
Y297210D01*
G01Y259110D02*
X444670D01*
G01X450260Y271810D02*
X444670D01*
G01X450260Y277390D02*
Y271810D01*
G01D02*
X452550Y269520D01*
G01X442390Y256820D02*
X444670Y259110D01*
G01D02*
Y264690D01*
G01X462960D02*
X457370D01*
G01X442390Y269520D02*
X444670Y271810D01*
G01D02*
Y277390D01*
G01X442390Y266980D02*
X444670Y264690D01*
G01D02*
X450260D01*
G01X462960Y259110D02*
Y264690D01*
G01X465250Y266980D02*
X462960Y264690D01*
G01X444670Y297210D02*
Y302790D01*
G01X450260Y297210D02*
X452550Y294920D01*
G01X450260Y297210D02*
X444670D01*
G01X442390Y294920D02*
X444670Y297210D01*
G01X457370D02*
X455090Y294920D01*
G01X457370Y302790D02*
Y297210D01*
G01X442390Y279680D02*
X444670Y277390D01*
G01D02*
X450260D01*
G01D02*
X452550Y279680D01*
G01X450260Y264690D02*
Y259110D01*
G01D02*
X452550Y256820D01*
G01X450260Y264690D02*
X452550Y266980D01*
G01X457370Y271810D02*
X462960D01*
G01Y297210D02*
Y302790D01*
G01X465250Y294920D02*
X462960Y297210D01*
G01X457370Y271810D02*
X455090Y269520D01*
G01X457370Y277390D02*
Y271810D01*
G01Y264690D02*
Y259110D01*
G01Y264690D02*
X455090Y266980D01*
G01X462960Y271810D02*
Y277390D01*
G01X465250Y269520D02*
X462960Y271810D01*
G01Y277390D02*
X457370D01*
G01X465250Y279680D02*
X462960Y277390D01*
G01X457370D02*
X455090Y279680D01*
G01X457370Y259110D02*
X462960D01*
G01X457370D02*
X455090Y256820D01*
G01X465250D02*
X462960Y259110D01*
G01X450260Y290090D02*
X452550Y292380D01*
G01X450260Y284510D02*
X452550Y282220D01*
G01X442390D02*
X444670Y284510D01*
G01X442390Y292380D02*
X444670Y290090D01*
G01X465250Y256820D02*
X455090D01*
G01D02*
Y266980D01*
G01D02*
X465250D01*
G01D02*
Y256820D01*
G01Y269520D02*
X455090D01*
G01D02*
Y279680D01*
G01D02*
X465250D01*
G01D02*
Y269520D01*
G01Y294920D02*
X455090D01*
G01D02*
Y305080D01*
G01X465250D02*
Y294920D01*
G01X452550D02*
Y305080D01*
G01X442390Y294920D02*
X452550D01*
G01X442390Y305080D02*
Y294920D01*
G01X452550Y266980D02*
X442390D01*
G01X452550Y256820D02*
Y266980D01*
G01X442390Y256820D02*
X452550D01*
G01X442390Y266980D02*
Y256820D01*
G01X452550Y279680D02*
X442390D01*
G01X452550Y269520D02*
Y279680D01*
G01X442390Y269520D02*
X452550D01*
G01X442390Y279680D02*
Y269520D01*
G01X452550Y292380D02*
X442390D01*
G01X452550Y282220D02*
Y292380D01*
G01X442390Y282220D02*
X452550D01*
G01X442390Y292380D02*
Y282220D01*
G01X432230Y308260D02*
Y287940D01*
G01D02*
X438580D01*
G01X444670Y290090D02*
X450260D01*
G01D02*
Y284510D01*
G01D02*
X444670D01*
G01D02*
Y290090D01*
G01X465250Y292380D02*
Y282220D01*
G01D02*
X455090D01*
G01X465250D02*
X462960Y284510D01*
G01X465250Y292380D02*
X462960Y290090D01*
G01X455090Y292380D02*
X465250D01*
G01X455090Y282220D02*
Y292380D01*
G01X457370Y284510D02*
X455090Y282220D01*
G01X457370Y290090D02*
X455090Y292380D01*
G01X462960Y284510D02*
Y290090D01*
G01X457370Y284510D02*
X462960D01*
G01Y290090D02*
X457370D01*
G01D02*
Y284510D01*
G01X459620Y276100D02*
G02X461740Y274880I547J-1502D01*
G01Y274320D02*
G02X459620Y273100I-1573J282D01*
G01X462960Y274110D02*
X461740Y274320D01*
G01X462960Y275090D02*
X461740Y274880D01*
G01X459620Y276100D02*
Y276110D01*
G01X459170Y277340D02*
X459620Y276110D01*
G01X459170Y271860D02*
X459620Y273090D01*
G01D02*
Y273100D01*
G01X461020Y277390D02*
G02X462960Y275450I-852J-2792D01*
G01X457370D02*
G02X459320Y277390I2792J-856D01*
G01Y271810D02*
G02X457370Y273750I842J2796D01*
G01X462960D02*
G02X461020Y271810I-2792J852D01*
G01X458290Y276840D02*
X459180Y275780D01*
G01X458290Y272360D02*
X459180Y273420D01*
G01X461680Y274100D02*
G02Y275100I392J500D01*
G01X469060Y275240D02*
X472230D01*
G01Y273960D02*
X469060D01*
G01X458900Y276110D02*
Y277140D01*
G01Y273740D02*
Y275460D01*
G01Y272060D02*
Y273090D01*
G01X458720Y277140D02*
X458900D01*
G01X459240D02*
X458900D01*
G01X472230D02*
X469060D01*
G01X458900Y272060D02*
X459240D01*
G01X458900D02*
X458720D01*
G01X472230D02*
X469060D01*
G01X459620Y288800D02*
G02X461740Y287580I547J-1502D01*
G01Y287020D02*
G02X459620Y285800I-1573J282D01*
G01X462960Y286810D02*
X461740Y287020D01*
G01X462960Y287790D02*
X461740Y287580D01*
G01X459620Y288800D02*
Y288810D01*
G01X459170Y290040D02*
X459620Y288810D01*
G01X459170Y284560D02*
X459620Y285790D01*
G01D02*
Y285800D01*
G01X461020Y290090D02*
G02X462960Y288150I-852J-2792D01*
G01X457370D02*
G02X459320Y290090I2792J-856D01*
G01Y284510D02*
G02X457370Y286450I842J2796D01*
G01X462960D02*
G02X461020Y284510I-2792J852D01*
G01X458290Y289540D02*
X459180Y288480D01*
G01X458290Y285060D02*
X459180Y286120D01*
G01X461680Y286800D02*
G02Y287800I392J500D01*
G01X469060Y287940D02*
X472230D01*
G01Y286660D02*
X469060D01*
G01X458900Y288810D02*
Y289840D01*
G01Y286440D02*
Y288160D01*
G01Y284760D02*
Y285790D01*
G01X458720Y289840D02*
X458900D01*
G01X459240D02*
X458900D01*
G01X472230D02*
X469060D01*
G01X458900Y284760D02*
X459240D01*
G01X458900D02*
X458720D01*
G01X472230D02*
X469060D01*
G01X459620Y263400D02*
G02X461740Y262180I547J-1502D01*
G01Y261620D02*
G02X459620Y260400I-1573J282D01*
G01X462960Y261410D02*
X461740Y261620D01*
G01X462960Y262390D02*
X461740Y262180D01*
G01X459620Y263400D02*
Y263410D01*
G01X459170Y264640D02*
X459620Y263410D01*
G01X459170Y259160D02*
X459620Y260390D01*
G01D02*
Y260400D01*
G01X461020Y264690D02*
G02X462960Y262750I-852J-2792D01*
G01X457370D02*
G02X459320Y264690I2792J-856D01*
G01Y259110D02*
G02X457370Y261050I842J2796D01*
G01X462960D02*
G02X461020Y259110I-2792J852D01*
G01X458290Y264140D02*
X459180Y263080D01*
G01X458290Y259660D02*
X459180Y260720D01*
G01X461680Y261400D02*
G02Y262400I392J500D01*
G01X469060Y262540D02*
X472230D01*
G01Y261260D02*
X469060D01*
G01X458900Y263410D02*
Y264440D01*
G01Y261040D02*
Y262760D01*
G01Y259360D02*
Y260390D01*
G01X458720Y264440D02*
X458900D01*
G01X459240D02*
X458900D01*
G01X472230D02*
X469060D01*
G01X458900Y259360D02*
X459240D01*
G01X458900D02*
X458720D01*
G01X472230D02*
X469060D01*
G01X461740Y299720D02*
G02X459620Y298500I-1573J282D01*
G01X459170Y297260D02*
X459620Y298490D01*
G01D02*
Y298500D01*
G01X459320Y297210D02*
G02X457370Y299150I842J2796D01*
G01X462960D02*
G02X461020Y297210I-2792J852D01*
G01X458290Y297760D02*
X459180Y298820D01*
G01X458900Y299140D02*
Y300860D01*
G01Y297460D02*
Y298490D01*
G01Y297460D02*
X459240D01*
G01X458900D02*
X458720D01*
G01X472230D02*
X469060D01*
G01X448010Y298500D02*
G02X445890Y299720I-546J1503D01*
G01X448010Y298500D02*
X448020Y298490D01*
G01X448470Y297260D02*
X448020Y298490D01*
G01X446620Y297210D02*
G02X444670Y299150I842J2796D01*
G01X450260D02*
G02X448320Y297210I-2792J852D01*
G01X449340Y297760D02*
X448460Y298820D01*
G01X448740Y298490D02*
Y297460D01*
G01Y300860D02*
Y299140D01*
G01X448910Y297460D02*
X448740D01*
G01X448390D02*
X448740D01*
G01X448010Y260400D02*
G02X445890Y261620I-546J1503D01*
G01Y262180D02*
G02X448010Y263400I1574J-283D01*
G01X444670Y262390D02*
X445890Y262180D01*
G01X444670Y261410D02*
X445890Y261620D01*
G01X448010Y260400D02*
X448020Y260390D01*
G01X448470Y259160D02*
X448020Y260390D01*
G01X448470Y264640D02*
X448020Y263410D01*
G01D02*
X448010Y263400D01*
G01X446620Y259110D02*
G02X444670Y261050I842J2796D01*
G01X450260D02*
G02X448320Y259110I-2792J852D01*
G01Y264690D02*
G02X450260Y262750I-852J-2792D01*
G01X444670D02*
G02X446620Y264690I2792J-856D01*
G01X449340Y259660D02*
X448460Y260720D01*
G01X449340Y264140D02*
X448460Y263080D01*
G01X445950Y262400D02*
G02Y261400I-388J-500D01*
G01X438580Y261260D02*
X435400D01*
G01D02*
G02Y262540I0J640D01*
G01D02*
X438580D01*
G01X435400Y259360D02*
G02Y264440I2J2540D01*
G01X448740Y260390D02*
Y259360D01*
G01Y262760D02*
Y261040D01*
G01Y264440D02*
Y263410D01*
G01X448910Y259360D02*
X448740D01*
G01X448390D02*
X448740D01*
G01X435400D02*
X438580D01*
G01X448740Y264440D02*
X448390D01*
G01X448740D02*
X448910D01*
G01X435400D02*
X438580D01*
G01X448010Y273100D02*
G02X445890Y274320I-546J1503D01*
G01Y274880D02*
G02X448010Y276100I1574J-283D01*
G01X444670Y275090D02*
X445890Y274880D01*
G01X444670Y274110D02*
X445890Y274320D01*
G01X448010Y273100D02*
X448020Y273090D01*
G01X448470Y271860D02*
X448020Y273090D01*
G01X448470Y277340D02*
X448020Y276110D01*
G01D02*
X448010Y276100D01*
G01X446620Y271810D02*
G02X444670Y273750I842J2796D01*
G01X450260D02*
G02X448320Y271810I-2792J852D01*
G01Y277390D02*
G02X450260Y275450I-852J-2792D01*
G01X444670D02*
G02X446620Y277390I2792J-856D01*
G01X449340Y272360D02*
X448460Y273420D01*
G01X449340Y276840D02*
X448460Y275780D01*
G01X445950Y275100D02*
G02Y274100I-388J-500D01*
G01X438580Y273960D02*
X435400D01*
G01D02*
G02Y275240I0J640D01*
G01D02*
X438580D01*
G01X435400Y272060D02*
G02Y277140I2J2540D01*
G01X448740Y273090D02*
Y272060D01*
G01Y275460D02*
Y273740D01*
G01Y277140D02*
Y276110D01*
G01X448910Y272060D02*
X448740D01*
G01X448390D02*
X448740D01*
G01X435400D02*
X438580D01*
G01X448740Y277140D02*
X448390D01*
G01X448740D02*
X448910D01*
G01X435400D02*
X438580D01*
G01X448010Y285800D02*
G02X445890Y287020I-546J1503D01*
G01Y287580D02*
G02X448010Y288800I1574J-283D01*
G01X444670Y287790D02*
X445890Y287580D01*
G01X444670Y286810D02*
X445890Y287020D01*
G01X448010Y285800D02*
X448020Y285790D01*
G01X448470Y284560D02*
X448020Y285790D01*
G01X448470Y290040D02*
X448020Y288810D01*
G01D02*
X448010Y288800D01*
G01X446620Y284510D02*
G02X444670Y286450I842J2796D01*
G01X450260D02*
G02X448320Y284510I-2792J852D01*
G01Y290090D02*
G02X450260Y288150I-852J-2792D01*
G01X444670D02*
G02X446620Y290090I2792J-856D01*
G01X449340Y285060D02*
X448460Y286120D01*
G01X449340Y289540D02*
X448460Y288480D01*
G01X445950Y287800D02*
G02Y286800I-388J-500D01*
G01X438580Y286660D02*
X435400D01*
G01D02*
G02Y287940I0J640D01*
G01Y284760D02*
G02X432940Y287940I0J2542D01*
G01X448740Y285790D02*
Y284760D01*
G01Y288160D02*
Y286440D01*
G01Y289840D02*
Y288810D01*
G01X448910Y284760D02*
X448740D01*
G01X448390D02*
X448740D01*
G01X435400D02*
X438580D01*
G01X448740Y289840D02*
X448390D01*
G01X448740D02*
X448910D01*
G01X442390Y305080D02*
X444670Y302790D01*
G01D02*
X450260D01*
G01D02*
X452550Y305080D01*
G01X462960Y302790D02*
X457370D01*
G01X465250Y305080D02*
X462960Y302790D01*
G01X457370D02*
X455090Y305080D01*
G01X460170Y322220D02*
X447470D01*
G01X460170D02*
Y308260D01*
G01X447470D02*
Y322220D01*
G01X455090Y305080D02*
X465250D01*
G01X452550D02*
X442390D01*
G01X432230Y308260D02*
X469060D01*
G01X459620Y301500D02*
G02X461740Y300280I547J-1502D01*
G01X462960Y299510D02*
X461740Y299720D01*
G01X462960Y300490D02*
X461740Y300280D01*
G01X459620Y301500D02*
Y301510D01*
G01X459170Y302740D02*
X459620Y301510D01*
G01X461020Y302790D02*
G02X462960Y300850I-852J-2792D01*
G01X457370D02*
G02X459320Y302790I2792J-856D01*
G01X458290Y302240D02*
X459180Y301180D01*
G01X461680Y299500D02*
G02Y300500I392J500D01*
G01X469060Y300640D02*
X472230D01*
G01Y299360D02*
X469060D01*
G01X458900Y301510D02*
Y302540D01*
G01X458720D02*
X458900D01*
G01X459240D02*
X458900D01*
G01X472230D02*
X469060D01*
G01X445890Y300280D02*
G02X448010Y301500I1574J-283D01*
G01X444670Y300490D02*
X445890Y300280D01*
G01X444670Y299510D02*
X445890Y299720D01*
G01X448470Y302740D02*
X448020Y301510D01*
G01D02*
X448010Y301500D01*
G01X448320Y302790D02*
G02X450260Y300850I-852J-2792D01*
G01X444670D02*
G02X446620Y302790I2792J-856D01*
G01X449340Y302240D02*
X448460Y301180D01*
G01X445950Y300500D02*
G02Y299500I-388J-500D01*
G01X448740Y302540D02*
Y301510D01*
G01Y302540D02*
X448390D01*
G01X448740D02*
X448910D01*
G01X472230Y211740D02*
G02Y210460I0J-640D01*
G01Y213640D02*
G02Y208560I2J-2540D01*
G01Y186340D02*
G02Y185060I0J-640D01*
G01Y188240D02*
G02Y183160I2J-2540D01*
G01Y199040D02*
G02Y197760I0J-640D01*
G01Y200940D02*
G02Y195860I2J-2540D01*
G01Y249840D02*
G02Y248560I0J-640D01*
G01Y251740D02*
G02Y246660I2J-2540D01*
G01Y237140D02*
G02Y235860I0J-640D01*
G01Y239040D02*
G02Y233960I2J-2540D01*
G01Y224440D02*
G02Y223160I0J-640D01*
G01Y226340D02*
G02Y221260I2J-2540D01*
G01Y275240D02*
G02Y273960I0J-640D01*
G01Y277140D02*
G02Y272060I2J-2540D01*
G01Y287940D02*
G02Y286660I0J-640D01*
G01Y289840D02*
G02Y284760I2J-2540D01*
G01Y262540D02*
G02Y261260I0J-640D01*
G01Y264440D02*
G02Y259360I2J-2540D01*
G01Y302540D02*
G02Y297460I2J-2540D01*
G01Y300640D02*
G02Y299360I0J-640D01*
M02*
