G04 ================== begin FILE IDENTIFICATION RECORD ==================*
G04 Layout Name:  CC2541EM.brd*
G04 Film Name:    assembly_top*
G04 File Format:  Gerber RS274X*
G04 File Origin:  Cadence Allegro 16.5-P002*
G04 Origin Date:  Fri Apr 12 14:10:24 2013*
G04 *
G04 Layer:  REF DES/ASSEMBLY_TOP*
G04 Layer:  PACKAGE GEOMETRY/ASSEMBLY_TOP*
G04 Layer:  BOARD GEOMETRY/OUTLINE*
G04 *
G04 Offset:    (0.000 0.000)*
G04 Mirror:    No*
G04 Mode:      Positive*
G04 Rotation:  0*
G04 FullContactRelief:  No*
G04 UndefLineWidth:     0.020*
G04 ================== end FILE IDENTIFICATION RECORD ====================*
%FSLAX44Y44*MOMM*%
%IR0*IPPOS*OFA0.00000B0.00000*MIA0B0*SFA1.00000B1.00000*%
%ADD10C,.05*%
%ADD11C,.051*%
%ADD12C,.02*%
G75*
%LPD*%
G75*
G54D10*
G01X256000Y464470D02*
X257500Y470070D01*
X259000Y464470D01*
G01X258460Y466430D02*
X256540D01*
G01X261600Y464470D02*
Y470070D01*
X260880Y468950D01*
G01Y464470D02*
X262320D01*
G54D11*
G01X113660Y400000D02*
Y405590D01*
X115950D01*
G01X115110Y402890D02*
X113660D01*
G01X118200Y405590D02*
X119650D01*
G01X118920D02*
Y400000D01*
G01X118200D02*
X119650D01*
G01X121720D02*
Y405590D01*
X122920D01*
X123410Y405310D01*
X123770Y404940D01*
X124070Y404380D01*
X124310Y403730D01*
X124370Y402790D01*
X124310Y401860D01*
X124070Y401210D01*
X123770Y400650D01*
X123410Y400280D01*
X122920Y400000D01*
X121720D01*
G01X125840Y405590D02*
Y401580D01*
X126080Y400750D01*
X126560Y400190D01*
X127160Y400000D01*
X127770Y400190D01*
X128250Y400750D01*
X128490Y401580D01*
Y405590D01*
G01X129960Y401120D02*
X130320Y400470D01*
X130800Y400090D01*
X131350Y400000D01*
X131830Y400090D01*
X132310Y400560D01*
X132610Y401120D01*
X132670Y401680D01*
X132550Y402330D01*
X132130Y402790D01*
X131710Y402980D01*
X131160D01*
G01X131710D02*
X132070Y403260D01*
X132370Y403730D01*
X132490Y404290D01*
X132370Y404840D01*
X132070Y405310D01*
X131530Y405590D01*
X130980Y405500D01*
X130440Y405120D01*
G01X204010Y276840D02*
X203650Y277120D01*
X203230Y277310D01*
X202750Y277320D01*
X202200Y277040D01*
X201780Y276580D01*
X201470Y276020D01*
X201230Y275090D01*
X201160Y274250D01*
X201270Y273410D01*
X201450Y272850D01*
X201810Y272290D01*
X202230Y271920D01*
X202640Y271730D01*
X203070Y271720D01*
X203490Y271910D01*
X203850Y272180D01*
X204160Y272550D01*
G01X205450Y272820D02*
X205810Y272170D01*
X206280Y271790D01*
X206830Y271700D01*
X207310Y271790D01*
X207790Y272250D01*
X208100Y272800D01*
X208160Y273360D01*
X208050Y274020D01*
X207630Y274480D01*
X207210Y274670D01*
X206670Y274680D01*
G01X207210Y274670D02*
X207570Y274950D01*
X207880Y275410D01*
X208000Y275970D01*
X207890Y276530D01*
X207590Y277000D01*
X207050Y277280D01*
X206510Y277200D01*
X205960Y276830D01*
G01X209570Y272790D02*
X209930Y272140D01*
X210400Y271760D01*
X210950Y271670D01*
X211430Y271760D01*
X211910Y272220D01*
X212220Y272770D01*
X212280Y273330D01*
X212170Y273990D01*
X211750Y274450D01*
X211330Y274640D01*
X210790Y274650D01*
G01X211330Y274640D02*
X211690Y274920D01*
X212000Y275380D01*
X212120Y275940D01*
X212010Y276500D01*
X211710Y276970D01*
X211170Y277250D01*
X210630Y277170D01*
X210080Y276800D01*
G01X215000Y271640D02*
X215050Y277230D01*
X214320Y276110D01*
G01X214280Y271640D02*
X215730Y271630D01*
G01X205040Y294500D02*
X207570Y300090D01*
G01X205040D02*
X207570Y294500D01*
G01X209280Y299160D02*
X209640Y299720D01*
X210060Y300000D01*
X210540Y300090D01*
X211140Y299900D01*
X211570Y299440D01*
X211690Y298880D01*
X211630Y298320D01*
X211390Y297860D01*
X210180Y296920D01*
X209640Y296270D01*
X209280Y295340D01*
X209160Y294500D01*
X211690D01*
G01X203950Y322860D02*
X203580Y323140D01*
X203160Y323330D01*
X202680Y323320D01*
X202140Y323040D01*
X201720Y322580D01*
X201420Y322020D01*
X201180Y321080D01*
X201120Y320250D01*
X201250Y319410D01*
X201430Y318850D01*
X201790Y318290D01*
X202210Y317920D01*
X202630Y317730D01*
X203060Y317740D01*
X203480Y317920D01*
X203840Y318200D01*
X204140Y318580D01*
G01X205430Y318860D02*
X205790Y318210D01*
X206270Y317840D01*
X206820Y317740D01*
X207300Y317840D01*
X207780Y318310D01*
X208080Y318870D01*
X208130Y319420D01*
X208010Y320080D01*
X207590Y320540D01*
X207170Y320730D01*
X206630D01*
G01X207170D02*
X207530Y321010D01*
X207830Y321470D01*
X207950Y322030D01*
X207830Y322590D01*
X207520Y323060D01*
X206980Y323330D01*
X206440Y323240D01*
X205900Y322870D01*
G01X209720Y322410D02*
X210080Y322970D01*
X210500Y323250D01*
X210980Y323340D01*
X211580Y323160D01*
X212010Y322690D01*
X212130Y322140D01*
X212070Y321580D01*
X211830Y321110D01*
X210630Y320180D01*
X210090Y319520D01*
X209730Y318590D01*
X209610Y317750D01*
X212140Y317760D01*
G01X214990D02*
X214980Y323350D01*
X214260Y322230D01*
G01X214270Y317760D02*
X215720Y317770D01*
G01X210600Y388120D02*
X210900Y387560D01*
X211260Y387190D01*
X211680Y387000D01*
X212170Y387190D01*
X212530Y387560D01*
X212890Y388120D01*
X213010Y388860D01*
Y392590D01*
G01X215920Y387000D02*
Y392590D01*
X215200Y391470D01*
G01Y387000D02*
X216650D01*
G01X241520Y251850D02*
X241160Y252120D01*
X240740Y252310D01*
X240250Y252300D01*
X239710Y252020D01*
X239300Y251550D01*
X239000Y250990D01*
X238770Y250060D01*
X238710Y249220D01*
X238840Y248380D01*
X239020Y247820D01*
X239390Y247270D01*
X239810Y246900D01*
X240230Y246710D01*
X240660Y246720D01*
X241080Y246910D01*
X241430Y247190D01*
X241730Y247560D01*
G01X243020Y247850D02*
X243390Y247200D01*
X243870Y246830D01*
X244420Y246740D01*
X244900Y246840D01*
X245370Y247310D01*
X245670Y247870D01*
X245730Y248430D01*
X245600Y249080D01*
X245180Y249540D01*
X244750Y249730D01*
X244210Y249720D01*
G01X244750Y249730D02*
X245110Y250010D01*
X245410Y250480D01*
X245530Y251040D01*
X245400Y251600D01*
X245100Y252060D01*
X244550Y252330D01*
X244010Y252240D01*
X243470Y251860D01*
G01X247450Y247420D02*
X247870Y246960D01*
X248350Y246770D01*
X248830Y246960D01*
X249250Y247520D01*
X249550Y248370D01*
X249660Y249200D01*
X249650Y250230D01*
X249530Y251070D01*
X249220Y251810D01*
X248860Y252180D01*
X248430Y252360D01*
X247950Y252170D01*
X247600Y251800D01*
X247360Y251240D01*
X247240Y250490D01*
X247370Y249840D01*
X247670Y249190D01*
X248040Y248820D01*
X248460Y248730D01*
X248940Y248920D01*
X249300Y249390D01*
X249650Y250230D01*
G01X252590Y246800D02*
X252550Y252390D01*
X251840Y251270D01*
G01X251870Y246800D02*
X253320Y246810D01*
G01X254150Y226060D02*
X253870Y225700D01*
X253680Y225280D01*
Y224800D01*
X253970Y224260D01*
X254430Y223840D01*
X254990Y223540D01*
X255920Y223300D01*
X256760Y223240D01*
X257600Y223370D01*
X258160Y223550D01*
X258720Y223910D01*
X259090Y224330D01*
X259270Y224750D01*
Y225180D01*
X259080Y225600D01*
X258800Y225960D01*
X258430Y226260D01*
G01X259260Y229600D02*
X253670Y229580D01*
X257690Y227370D01*
X257680Y230370D01*
G01X253660Y232980D02*
X253850Y232500D01*
X254320Y232140D01*
X254880Y231900D01*
X255620Y231720D01*
X256460Y231660D01*
X257300Y231720D01*
X258050Y231910D01*
X258600Y232150D01*
X259070Y232510D01*
X259250Y232990D01*
X259070Y233480D01*
X258600Y233840D01*
X258040Y234070D01*
X257290Y234250D01*
X256450Y234310D01*
X255620Y234250D01*
X254870Y234060D01*
X254310Y233820D01*
X253850Y233460D01*
X253660Y232980D01*
G01X259240Y237110D02*
X253650Y237100D01*
X254770Y236380D01*
G01X259250Y236390D02*
X259240Y237840D01*
G01X239410Y307860D02*
X239040Y308130D01*
X238620Y308310D01*
X238130Y308300D01*
X237600Y308010D01*
X237190Y307540D01*
X236890Y306980D01*
X236670Y306040D01*
X236630Y305200D01*
X236760Y304360D01*
X236950Y303810D01*
X237320Y303260D01*
X237750Y302890D01*
X238170Y302710D01*
X238600Y302720D01*
X239010Y302910D01*
X239370Y303200D01*
X239660Y303580D01*
G01X240950Y303880D02*
X241320Y303230D01*
X241810Y302870D01*
X242350Y302780D01*
X242830Y302890D01*
X243310Y303360D01*
X243600Y303920D01*
X243650Y304480D01*
X243520Y305130D01*
X243090Y305590D01*
X242660Y305770D01*
X242120Y305760D01*
G01X242660Y305770D02*
X243020Y306060D01*
X243310Y306530D01*
X243420Y307090D01*
X243290Y307650D01*
X242980Y308110D01*
X242440Y308380D01*
X241900Y308270D01*
X241360Y307890D01*
G01X246410Y302850D02*
X246310Y308440D01*
X245610Y307310D01*
G01X245690Y302840D02*
X247140Y302870D01*
G01X250530Y302920D02*
X250430Y308510D01*
X249730Y307380D01*
G01X249810Y302910D02*
X251260Y302940D01*
G01X241190Y329050D02*
X235600Y329080D01*
X235610Y330590D01*
X235900Y331070D01*
X236270Y331370D01*
X237020Y331480D01*
X237760Y331360D01*
X238220Y330990D01*
X238500Y330570D01*
X238490Y329070D01*
G01X238500Y330570D02*
X241210Y331460D01*
G01X240090Y333060D02*
X240750Y333420D01*
X241120Y333890D01*
X241220Y334440D01*
X241130Y334920D01*
X240670Y335400D01*
X240110Y335710D01*
X239550Y335770D01*
X238900Y335650D01*
X238430Y335230D01*
X238240Y334810D01*
Y334270D01*
G01Y334810D02*
X237960Y335180D01*
X237500Y335480D01*
X236940Y335600D01*
X236380Y335490D01*
X235920Y335190D01*
X235630Y334650D01*
X235720Y334110D01*
X236090Y333560D01*
G01X235650Y338530D02*
X235830Y338050D01*
X236300Y337680D01*
X236860Y337440D01*
X237600Y337250D01*
X238440Y337190D01*
X239280Y337240D01*
X240020Y337420D01*
X240580Y337660D01*
X241050Y338010D01*
X241240Y338490D01*
X241060Y338980D01*
X240590Y339340D01*
X240040Y339590D01*
X239290Y339770D01*
X238450Y339840D01*
X237610Y339780D01*
X236870Y339600D01*
X236310Y339370D01*
X235840Y339010D01*
X235650Y338530D01*
G01X241260Y342610D02*
X235670Y342650D01*
X236780Y341920D01*
G01X241260Y341890D02*
Y343340D01*
G01X296260Y218570D02*
X290680Y218620D01*
X290690Y220120D01*
X290970Y220600D01*
X291350Y220900D01*
X292090Y221010D01*
X292840Y220890D01*
X293300Y220520D01*
X293580Y220100D01*
X293560Y218590D01*
G01X293580Y220100D02*
X296280Y220980D01*
G01X295180Y222580D02*
X295830Y222940D01*
X296210Y223410D01*
X296310Y223960D01*
X296220Y224440D01*
X295750Y224920D01*
X295200Y225230D01*
X294640Y225290D01*
X293990Y225180D01*
X293520Y224760D01*
X293330Y224340D01*
X293320Y223800D01*
G01X293330Y224340D02*
X293050Y224700D01*
X292590Y225010D01*
X292030Y225130D01*
X291470Y225020D01*
X291000Y224720D01*
X290720Y224180D01*
X290810Y223640D01*
X291170Y223090D01*
G01X296330Y228010D02*
X290740Y228060D01*
X291860Y227330D01*
G01X296330Y227290D02*
X296340Y228740D01*
G01X280310Y218720D02*
X274720Y218680D01*
X274710Y220190D01*
X274980Y220670D01*
X275350Y220970D01*
X276100Y221100D01*
X276840Y220980D01*
X277310Y220630D01*
X277590Y220210D01*
X277600Y218700D01*
G01X277590Y220210D02*
X280290Y221130D01*
G01X275620Y222870D02*
X275060Y223230D01*
X274770Y223650D01*
X274680Y224130D01*
X274860Y224730D01*
X275320Y225150D01*
X275880Y225280D01*
X276440Y225220D01*
X276910Y224980D01*
X277850Y223790D01*
X278500Y223250D01*
X279440Y222900D01*
X280280Y222780D01*
X280260Y225310D01*
G01X280240Y228160D02*
X274650Y228130D01*
X275770Y227410D01*
G01X280240Y227440D02*
X280230Y228890D01*
G01X293980Y284840D02*
Y280830D01*
X294220Y280000D01*
X294700Y279440D01*
X295300Y279250D01*
X295910Y279440D01*
X296390Y280000D01*
X296630Y280830D01*
Y284840D01*
G01X298280Y283910D02*
X298640Y284470D01*
X299060Y284750D01*
X299550Y284840D01*
X300150Y284650D01*
X300570Y284190D01*
X300690Y283630D01*
X300630Y283070D01*
X300390Y282600D01*
X299180Y281670D01*
X298640Y281020D01*
X298280Y280090D01*
X298160Y279250D01*
X300690D01*
G01X282380Y332630D02*
X282100Y332270D01*
X281910Y331850D01*
Y331370D01*
X282190Y330820D01*
X282660Y330400D01*
X283210Y330100D01*
X284150Y329860D01*
X284980Y329800D01*
X285820Y329920D01*
X286380Y330100D01*
X286940Y330460D01*
X287310Y330880D01*
X287500Y331300D01*
Y331730D01*
X287310Y332150D01*
X287030Y332510D01*
X286660Y332810D01*
G01X282840Y334280D02*
X282280Y334640D01*
X282000Y335060D01*
X281910Y335550D01*
X282100Y336150D01*
X282560Y336570D01*
X283120Y336690D01*
X283680Y336630D01*
X284150Y336390D01*
X285080Y335180D01*
X285730Y334640D01*
X286660Y334280D01*
X287500Y334160D01*
Y336690D01*
G01X285170Y338400D02*
X284520Y338820D01*
X284150Y339180D01*
X283960Y339670D01*
X284150Y340090D01*
X284520Y340390D01*
X285080Y340630D01*
X285730Y340690D01*
X286290Y340630D01*
X286850Y340390D01*
X287310Y340030D01*
X287500Y339610D01*
X287310Y339120D01*
X286750Y338700D01*
X285920Y338460D01*
X284980Y338400D01*
X283770Y338520D01*
X283120Y338700D01*
X282470Y339000D01*
X282000Y339420D01*
X281910Y339850D01*
X282100Y340270D01*
X282560Y340570D01*
G01X287500Y343660D02*
X281910D01*
X283030Y342940D01*
G01X287500D02*
Y344390D01*
G01X265900Y323850D02*
X265540Y324130D01*
X265120Y324320D01*
X264630D01*
X264090Y324040D01*
X263670Y323570D01*
X263370Y323020D01*
X263130Y322080D01*
X263070Y321250D01*
X263190Y320410D01*
X263370Y319850D01*
X263730Y319290D01*
X264150Y318920D01*
X264570Y318730D01*
X265000D01*
X265420Y318920D01*
X265780Y319200D01*
X266080Y319570D01*
G01X267550Y323390D02*
X267910Y323950D01*
X268330Y324230D01*
X268810Y324320D01*
X269420Y324130D01*
X269840Y323670D01*
X269960Y323110D01*
X269900Y322550D01*
X269660Y322080D01*
X268450Y321150D01*
X267910Y320500D01*
X267550Y319570D01*
X267430Y318730D01*
X269960D01*
G01X272690D02*
X272810Y319940D01*
X272990Y320970D01*
X273240Y321900D01*
X273540Y322920D01*
X274020Y324320D01*
X271610D01*
G01X276930Y318730D02*
Y324320D01*
X276210Y323200D01*
G01Y318730D02*
X277660D01*
G01X265000Y344850D02*
X264640Y345130D01*
X264220Y345310D01*
X263740D01*
X263200Y345040D01*
X262780Y344570D01*
X262470Y344010D01*
X262230Y343080D01*
X262170Y342240D01*
X262290Y341410D01*
X262460Y340850D01*
X262820Y340290D01*
X263240Y339910D01*
X263660Y339730D01*
X264090Y339720D01*
X264510Y339910D01*
X264870Y340190D01*
X265170Y340560D01*
G01X266650Y344380D02*
X267020Y344930D01*
X267440Y345210D01*
X267920Y345300D01*
X268520Y345120D01*
X268940Y344650D01*
X269060Y344090D01*
X269000Y343530D01*
X268760Y343070D01*
X267550Y342140D01*
X267010Y341490D01*
X266640Y340560D01*
X266520Y339720D01*
X269050Y339710D01*
G01X271780D02*
X271910Y340920D01*
X272090Y341940D01*
X272330Y342870D01*
X272640Y343900D01*
X273120Y345290D01*
X270720Y345300D01*
G01X274890Y344360D02*
X275260Y344910D01*
X275680Y345190D01*
X276160Y345280D01*
X276760Y345100D01*
X277180Y344630D01*
X277300Y344070D01*
X277240Y343510D01*
X277000Y343050D01*
X275790Y342120D01*
X275250Y341470D01*
X274880Y340540D01*
X274760Y339700D01*
X277290Y339690D01*
G01X281760Y351820D02*
X281390Y352100D01*
X280970Y352280D01*
X280490D01*
X279950Y352000D01*
X279530Y351530D01*
X279230Y350970D01*
X279000Y350040D01*
X278940Y349200D01*
X279060Y348360D01*
X279250Y347800D01*
X279610Y347240D01*
X280030Y346870D01*
X280450Y346690D01*
X280880D01*
X281300Y346880D01*
X281660Y347160D01*
X281960Y347530D01*
G01X283410Y351360D02*
X283770Y351920D01*
X284190Y352200D01*
X284670Y352300D01*
X285270Y352110D01*
X285700Y351650D01*
X285820Y351090D01*
X285760Y350530D01*
X285520Y350070D01*
X284320Y349130D01*
X283790Y348470D01*
X283430Y347540D01*
X283310Y346700D01*
X285840Y346710D01*
G01X287540Y349050D02*
X287960Y349710D01*
X288320Y350080D01*
X288800Y350270D01*
X289220Y350080D01*
X289520Y349710D01*
X289770Y349150D01*
X289830Y348500D01*
X289770Y347940D01*
X289530Y347380D01*
X289180Y346920D01*
X288760Y346730D01*
X288270Y346910D01*
X287850Y347470D01*
X287610Y348310D01*
X287540Y349240D01*
X287660Y350450D01*
X287830Y351100D01*
X288130Y351760D01*
X288550Y352220D01*
X288970Y352320D01*
X289390Y352130D01*
X289700Y351670D01*
G01X291650Y351400D02*
X292010Y351960D01*
X292430Y352240D01*
X292910Y352340D01*
X293510Y352150D01*
X293940Y351690D01*
X294060Y351130D01*
X294000Y350570D01*
X293760Y350110D01*
X292560Y349170D01*
X292030Y348510D01*
X291670Y347580D01*
X291550Y346740D01*
X294080Y346750D01*
G01X298940Y352320D02*
Y346730D01*
X301350D01*
G01X303120Y351390D02*
X303480Y351950D01*
X303900Y352230D01*
X304390Y352320D01*
X304990Y352130D01*
X305410Y351670D01*
X305530Y351110D01*
X305470Y350550D01*
X305230Y350080D01*
X304020Y349150D01*
X303480Y348500D01*
X303120Y347570D01*
X303000Y346730D01*
X305530D01*
G01X307060Y347570D02*
X307420Y347100D01*
X307840Y346820D01*
X308380Y346730D01*
X308930Y346920D01*
X309350Y347290D01*
X309650Y347940D01*
X309710Y348690D01*
X309590Y349430D01*
X309290Y349900D01*
X308870Y350270D01*
X308450Y350360D01*
X308020Y350270D01*
X307480Y349900D01*
X307660Y352320D01*
X309290D01*
G01X312500Y346730D02*
Y352320D01*
X311780Y351200D01*
G01Y346730D02*
X313230D01*
G01X281640Y363010D02*
X287230Y363000D01*
Y365410D01*
G01X282580Y367190D02*
X282020Y367550D01*
X281740Y367970D01*
X281650Y368450D01*
X281840Y369050D01*
X282310Y369470D01*
X282860Y369590D01*
X283420Y369530D01*
X283890Y369290D01*
X284820Y368090D01*
X285470Y367540D01*
X286400Y367180D01*
X287240Y367060D01*
Y369590D01*
G01X284920Y371300D02*
X284270Y371730D01*
X283900Y372090D01*
X283710Y372570D01*
X283900Y372990D01*
X284270Y373290D01*
X284830Y373530D01*
X285480Y373590D01*
X286040Y373530D01*
X286600Y373290D01*
X287070Y372930D01*
X287250Y372510D01*
X287070Y372020D01*
X286510Y371600D01*
X285670Y371360D01*
X284740Y371300D01*
X283520Y371430D01*
X282870Y371610D01*
X282220Y371910D01*
X281760Y372330D01*
X281660Y372750D01*
X281850Y373170D01*
X282320Y373470D01*
G01X287260Y376560D02*
X281670Y376570D01*
X282790Y375850D01*
G01X287260Y375840D02*
Y377290D01*
G01X285680Y381180D02*
X291270D01*
Y383590D01*
G01X286610Y385360D02*
X286050Y385720D01*
X285770Y386140D01*
X285680Y386620D01*
X285860Y387220D01*
X286330Y387640D01*
X286890Y387760D01*
X287450Y387700D01*
X287910Y387460D01*
X288850Y386260D01*
X289500Y385720D01*
X290430Y385360D01*
X291270Y385240D01*
Y387770D01*
G01X290430Y389300D02*
X290900Y389660D01*
X291180Y390080D01*
X291270Y390620D01*
X291080Y391170D01*
X290710Y391590D01*
X290060Y391890D01*
X289310Y391950D01*
X288570Y391830D01*
X288100Y391520D01*
X287730Y391100D01*
X287630Y390680D01*
X287730Y390260D01*
X288100Y389720D01*
X285680Y389900D01*
Y391520D01*
G01X286610Y393600D02*
X286050Y393960D01*
X285770Y394380D01*
X285680Y394860D01*
X285860Y395460D01*
X286330Y395880D01*
X286890Y396000D01*
X287450Y395940D01*
X287910Y395700D01*
X288850Y394500D01*
X289500Y393960D01*
X290430Y393600D01*
X291270Y393480D01*
Y396010D01*
G01X285680Y399050D02*
X291270Y399060D01*
X291260Y401470D01*
G01X286600Y403230D02*
X286040Y403590D01*
X285760Y404010D01*
X285670Y404490D01*
X285850Y405100D01*
X286320Y405520D01*
X286870Y405640D01*
X287430Y405580D01*
X287900Y405340D01*
X288830Y404140D01*
X289490Y403600D01*
X290420Y403240D01*
X291260Y403120D01*
X291250Y405650D01*
G01X290410Y407180D02*
X290880Y407540D01*
X291150Y407960D01*
X291250Y408500D01*
X291060Y409050D01*
X290690Y409470D01*
X290030Y409770D01*
X289290Y409820D01*
X288540Y409700D01*
X288080Y409400D01*
X287710Y408980D01*
X287610Y408560D01*
X287710Y408140D01*
X288080Y407600D01*
X285660Y407770D01*
X285650Y409400D01*
G01X290120Y411300D02*
X290770Y411660D01*
X291140Y412140D01*
X291240Y412690D01*
X291140Y413170D01*
X290680Y413650D01*
X290120Y413950D01*
X289560Y414010D01*
X288900Y413880D01*
X288440Y413460D01*
X288250Y413040D01*
X288260Y412500D01*
G01X288250Y413040D02*
X287970Y413400D01*
X287510Y413700D01*
X286950Y413820D01*
X286390Y413700D01*
X285920Y413400D01*
X285650Y412850D01*
X285740Y412310D01*
X286110Y411770D01*
G01X290250Y417390D02*
X284660Y417380D01*
Y418890D01*
X284940Y419370D01*
X285310Y419670D01*
X286050Y419790D01*
X286800Y419670D01*
X287270Y419310D01*
X287550Y418890D01*
Y417390D01*
G01Y418890D02*
X290250Y419800D01*
G01X285580Y421570D02*
X285020Y421930D01*
X284740Y422350D01*
X284650Y422830D01*
X284830Y423430D01*
X285300Y423850D01*
X285860Y423970D01*
X286420Y423910D01*
X286880Y423670D01*
X287820Y422470D01*
X288470Y421930D01*
X289400Y421570D01*
X290240Y421450D01*
Y423980D01*
G01X289390Y425510D02*
X289860Y425870D01*
X290140Y426290D01*
X290230Y426830D01*
X290040Y427380D01*
X289670Y427800D01*
X289010Y428100D01*
X288270Y428160D01*
X287520Y428030D01*
X287060Y427730D01*
X286690Y427310D01*
X286590Y426890D01*
X286690Y426470D01*
X287060Y425930D01*
X284640Y426110D01*
Y427730D01*
G01X290220Y430950D02*
X284630D01*
X285750Y430230D01*
G01X290220D02*
Y431680D01*
G01X322330Y233840D02*
X321970Y234120D01*
X321550Y234310D01*
X321070Y234320D01*
X320530Y234040D01*
X320100Y233580D01*
X319800Y233020D01*
X319550Y232090D01*
X319480Y231250D01*
X319590Y230410D01*
X319770Y229850D01*
X320130Y229290D01*
X320550Y228920D01*
X320960Y228730D01*
X321390Y228720D01*
X321810Y228910D01*
X322170Y229180D01*
X322480Y229550D01*
G01X325080Y228700D02*
X325130Y234290D01*
X324400Y233170D01*
G01X324360Y228700D02*
X325810Y228690D01*
G01X329250Y234260D02*
X328770Y234070D01*
X328400Y233610D01*
X328160Y233050D01*
X327970Y232310D01*
X327900Y231470D01*
X327960Y230630D01*
X328130Y229890D01*
X328370Y229320D01*
X328730Y228860D01*
X329200Y228670D01*
X329690Y228850D01*
X330050Y229310D01*
X330300Y229870D01*
X330480Y230610D01*
X330550Y231450D01*
X330500Y232290D01*
X330320Y233040D01*
X330090Y233600D01*
X329730Y234070D01*
X329250Y234260D01*
G01X333320Y228640D02*
X333370Y234230D01*
X332640Y233110D01*
G01X332600Y228640D02*
X334050Y228630D01*
G01X304380Y332630D02*
X304100Y332270D01*
X303910Y331850D01*
Y331370D01*
X304190Y330820D01*
X304660Y330400D01*
X305210Y330100D01*
X306150Y329860D01*
X306980Y329800D01*
X307820Y329920D01*
X308380Y330100D01*
X308940Y330460D01*
X309310Y330880D01*
X309500Y331300D01*
Y331730D01*
X309310Y332150D01*
X309030Y332510D01*
X308660Y332810D01*
G01X304840Y334280D02*
X304280Y334640D01*
X304000Y335060D01*
X303910Y335550D01*
X304100Y336150D01*
X304560Y336570D01*
X305120Y336690D01*
X305680Y336630D01*
X306150Y336390D01*
X307080Y335180D01*
X307730Y334640D01*
X308660Y334280D01*
X309500Y334160D01*
Y336690D01*
G01X308660Y338220D02*
X309130Y338580D01*
X309410Y339000D01*
X309500Y339540D01*
X309310Y340090D01*
X308940Y340510D01*
X308290Y340810D01*
X307540Y340870D01*
X306800Y340750D01*
X306330Y340450D01*
X305960Y340030D01*
X305870Y339610D01*
X305960Y339180D01*
X306330Y338640D01*
X303910Y338820D01*
Y340450D01*
G01X309500Y343660D02*
X303910D01*
X305030Y342940D01*
G01X309500D02*
Y344390D01*
G01X342830Y307850D02*
X342470Y308130D01*
X342050Y308320D01*
X341570D01*
X341020Y308040D01*
X340600Y307570D01*
X340300Y307020D01*
X340060Y306080D01*
X340000Y305250D01*
X340120Y304410D01*
X340300Y303850D01*
X340660Y303290D01*
X341080Y302920D01*
X341500Y302730D01*
X341930D01*
X342350Y302920D01*
X342710Y303200D01*
X343010Y303570D01*
G01X344480Y307390D02*
X344840Y307950D01*
X345260Y308230D01*
X345750Y308320D01*
X346350Y308130D01*
X346770Y307670D01*
X346890Y307110D01*
X346830Y306550D01*
X346590Y306080D01*
X345380Y305150D01*
X344840Y304500D01*
X344480Y303570D01*
X344360Y302730D01*
X346890D01*
G01X349740D02*
Y308320D01*
X349020Y307200D01*
G01Y302730D02*
X350470D01*
G01X353860D02*
Y308320D01*
X353140Y307200D01*
G01Y302730D02*
X354590D01*
G01X316360Y342850D02*
X316000Y343130D01*
X315580Y343320D01*
X315100D01*
X314550Y343040D01*
X314130Y342570D01*
X313830Y342020D01*
X313590Y341080D01*
X313530Y340250D01*
X313650Y339410D01*
X313830Y338850D01*
X314190Y338290D01*
X314610Y337920D01*
X315030Y337730D01*
X315460D01*
X315880Y337920D01*
X316240Y338200D01*
X316540Y338570D01*
G01X318010Y342390D02*
X318370Y342950D01*
X318790Y343230D01*
X319280Y343320D01*
X319880Y343130D01*
X320300Y342670D01*
X320420Y342110D01*
X320360Y341550D01*
X320120Y341080D01*
X318910Y340150D01*
X318370Y339500D01*
X318010Y338570D01*
X317890Y337730D01*
X320420D01*
G01X324000D02*
Y343320D01*
X321770Y339310D01*
X324780D01*
G01X327390Y337730D02*
Y343320D01*
X326670Y342200D01*
G01Y337730D02*
X328120D01*
G01X306060Y390850D02*
X305700Y391130D01*
X305280Y391320D01*
X304800D01*
X304250Y391040D01*
X303830Y390570D01*
X303530Y390020D01*
X303290Y389080D01*
X303230Y388250D01*
X303350Y387410D01*
X303530Y386850D01*
X303890Y386290D01*
X304310Y385920D01*
X304730Y385730D01*
X305160D01*
X305580Y385920D01*
X305940Y386200D01*
X306240Y386570D01*
G01X307710Y390390D02*
X308070Y390950D01*
X308490Y391230D01*
X308980Y391320D01*
X309580Y391130D01*
X310000Y390670D01*
X310120Y390110D01*
X310060Y389550D01*
X309820Y389080D01*
X308610Y388150D01*
X308070Y387500D01*
X307710Y386570D01*
X307590Y385730D01*
X310120D01*
G01X311650Y386570D02*
X312010Y386100D01*
X312430Y385820D01*
X312970Y385730D01*
X313520Y385920D01*
X313940Y386290D01*
X314240Y386940D01*
X314300Y387690D01*
X314180Y388430D01*
X313880Y388900D01*
X313460Y389270D01*
X313040Y389360D01*
X312610Y389270D01*
X312070Y388900D01*
X312250Y391320D01*
X313880D01*
G01X315770Y386850D02*
X316130Y386200D01*
X316610Y385820D01*
X317160Y385730D01*
X317640Y385820D01*
X318120Y386290D01*
X318420Y386850D01*
X318480Y387410D01*
X318360Y388060D01*
X317940Y388520D01*
X317520Y388710D01*
X316970D01*
G01X317520D02*
X317880Y388990D01*
X318180Y389460D01*
X318300Y390020D01*
X318180Y390570D01*
X317880Y391040D01*
X317340Y391320D01*
X316790Y391230D01*
X316250Y390850D01*
G01X304150Y366180D02*
X303870Y365820D01*
X303680Y365400D01*
Y364920D01*
X303960Y364380D01*
X304430Y363960D01*
X304990Y363660D01*
X305920Y363410D01*
X306750Y363350D01*
X307590Y363470D01*
X308150Y363650D01*
X308710Y364010D01*
X309090Y364430D01*
X309270Y364850D01*
Y365280D01*
X309090Y365700D01*
X308810Y366060D01*
X308440Y366360D01*
G01X304610Y367840D02*
X304050Y368200D01*
X303770Y368620D01*
X303680Y369100D01*
X303870Y369700D01*
X304340Y370120D01*
X304890Y370240D01*
X305450Y370180D01*
X305920Y369940D01*
X306850Y368740D01*
X307500Y368190D01*
X308430Y367830D01*
X309270Y367710D01*
Y370240D01*
G01X308430Y371770D02*
X308900Y372130D01*
X309180Y372550D01*
X309270Y373090D01*
X309090Y373640D01*
X308710Y374060D01*
X308060Y374360D01*
X307320Y374420D01*
X306570Y374300D01*
X306110Y374000D01*
X305730Y373580D01*
X305640Y373160D01*
X305730Y372740D01*
X306100Y372200D01*
X303680Y372380D01*
Y374000D01*
G01X304610Y376080D02*
X304050Y376440D01*
X303770Y376860D01*
X303680Y377340D01*
X303870Y377940D01*
X304340Y378360D01*
X304890Y378480D01*
X305450Y378420D01*
X305920Y378180D01*
X306850Y376980D01*
X307500Y376430D01*
X308430Y376070D01*
X309270Y375950D01*
Y378480D01*
G01X331190Y346450D02*
X330920Y346090D01*
X330730Y345670D01*
X330740Y345190D01*
X331020Y344650D01*
X331490Y344230D01*
X332050Y343930D01*
X332980Y343700D01*
X333820Y343640D01*
X334660Y343770D01*
X335220Y343950D01*
X335770Y344320D01*
X336140Y344740D01*
X336330Y345160D01*
X336320Y345590D01*
X336140Y346010D01*
X335850Y346370D01*
X335480Y346660D01*
G01X331650Y348110D02*
X331090Y348470D01*
X330800Y348890D01*
X330710Y349370D01*
X330890Y349970D01*
X331350Y350390D01*
X331910Y350520D01*
X332470Y350460D01*
X332940Y350220D01*
X333880Y349030D01*
X334530Y348490D01*
X335470Y348140D01*
X336310Y348020D01*
X336290Y350550D01*
G01X335160Y352070D02*
X335810Y352440D01*
X336180Y352920D01*
X336270Y353470D01*
X336170Y353950D01*
X335700Y354420D01*
X335140Y354720D01*
X334580Y354780D01*
X333930Y354650D01*
X333470Y354230D01*
X333280Y353810D01*
X333290Y353260D01*
G01X333280Y353810D02*
X333000Y354160D01*
X332530Y354460D01*
X331970Y354580D01*
X331420Y354450D01*
X330950Y354150D01*
X330680Y353610D01*
X330770Y353070D01*
X331150Y352530D01*
G01X336240Y357520D02*
X330650Y357490D01*
X331770Y356770D01*
G01X336240Y356800D02*
X336230Y358250D01*
G01X307650Y422850D02*
X307290Y423130D01*
X306870Y423320D01*
X306390D01*
X305840Y423040D01*
X305420Y422570D01*
X305120Y422020D01*
X304880Y421080D01*
X304820Y420250D01*
X304940Y419410D01*
X305120Y418850D01*
X305480Y418290D01*
X305900Y417920D01*
X306320Y417730D01*
X306750D01*
X307170Y417920D01*
X307530Y418200D01*
X307830Y418570D01*
G01X309300Y422390D02*
X309660Y422950D01*
X310080Y423230D01*
X310570Y423320D01*
X311170Y423130D01*
X311590Y422670D01*
X311710Y422110D01*
X311650Y421550D01*
X311410Y421080D01*
X310200Y420150D01*
X309660Y419500D01*
X309300Y418570D01*
X309180Y417730D01*
X311710D01*
G01X313240Y418570D02*
X313600Y418100D01*
X314020Y417820D01*
X314560Y417730D01*
X315110Y417920D01*
X315530Y418290D01*
X315830Y418940D01*
X315890Y419690D01*
X315770Y420430D01*
X315470Y420900D01*
X315050Y421270D01*
X314630Y421360D01*
X314200Y421270D01*
X313660Y420900D01*
X313840Y423320D01*
X315470D01*
G01X319410Y417730D02*
Y423320D01*
X317180Y419310D01*
X320190D01*
G01X370390Y288220D02*
X370410Y293810D01*
X371920Y293800D01*
X372400Y293520D01*
X372700Y293150D01*
X372810Y292400D01*
X372690Y291660D01*
X372330Y291190D01*
X371910Y290910D01*
X370400Y290920D01*
G01X371910Y290910D02*
X372800Y288210D01*
G01X374590Y292860D02*
X374950Y293410D01*
X375380Y293690D01*
X375860Y293780D01*
X376460Y293590D01*
X376880Y293130D01*
X377000Y292570D01*
X376930Y292010D01*
X376690Y291540D01*
X375480Y290620D01*
X374940Y289970D01*
X374580Y289040D01*
X374450Y288200D01*
X376980Y288190D01*
G01X379860Y293760D02*
X379370Y293580D01*
X379010Y293110D01*
X378770Y292560D01*
X378590Y291810D01*
X378520Y290970D01*
X378580Y290130D01*
X378760Y289390D01*
X379000Y288830D01*
X379350Y288360D01*
X379830Y288170D01*
X380320Y288360D01*
X380680Y288820D01*
X380920Y289380D01*
X381110Y290120D01*
X381170Y290960D01*
X381110Y291800D01*
X380930Y292550D01*
X380700Y293110D01*
X380340Y293570D01*
X379860Y293760D01*
G01X383950Y288150D02*
X383980Y293740D01*
X383250Y292630D01*
G01X383230Y288160D02*
X384680Y288150D01*
G01X359940Y321860D02*
X359580Y322140D01*
X359160Y322320D01*
X358680D01*
X358140Y322040D01*
X357720Y321580D01*
X357420Y321020D01*
X357180Y320080D01*
X357120Y319250D01*
X357240Y318410D01*
X357420Y317850D01*
X357780Y317290D01*
X358200Y316920D01*
X358620Y316730D01*
X359050D01*
X359470Y316920D01*
X359830Y317200D01*
X360130Y317570D01*
G01X361600Y321400D02*
X361960Y321960D01*
X362380Y322240D01*
X362860Y322330D01*
X363460Y322150D01*
X363880Y321680D01*
X364000Y321120D01*
X363940Y320560D01*
X363700Y320100D01*
X362500Y319160D01*
X361960Y318510D01*
X361600Y317580D01*
X361480Y316740D01*
X364010D01*
G01X365720Y321410D02*
X366080Y321970D01*
X366500Y322250D01*
X366980Y322340D01*
X367580Y322160D01*
X368000Y321690D01*
X368120Y321130D01*
X368060Y320570D01*
X367820Y320110D01*
X366620Y319170D01*
X366080Y318520D01*
X365720Y317590D01*
X365600Y316750D01*
X368130D01*
G01X370980Y316760D02*
Y322350D01*
X370260Y321230D01*
G01Y316760D02*
X371710D01*
G01X372410Y314250D02*
X372040Y314530D01*
X371620Y314710D01*
X371140D01*
X370600Y314420D01*
X370180Y313950D01*
X369890Y313390D01*
X369650Y312460D01*
X369600Y311620D01*
X369730Y310780D01*
X369910Y310220D01*
X370280Y309670D01*
X370700Y309300D01*
X371120Y309120D01*
X371550D01*
X371970Y309310D01*
X372320Y309590D01*
X372620Y309970D01*
G01X374060Y313790D02*
X374420Y314360D01*
X374840Y314640D01*
X375320Y314740D01*
X375920Y314550D01*
X376350Y314090D01*
X376470Y313530D01*
X376420Y312970D01*
X376180Y312510D01*
X374980Y311570D01*
X374450Y310910D01*
X374090Y309970D01*
X373980Y309130D01*
X376510Y309160D01*
G01X379320Y314760D02*
X378840Y314570D01*
X378480Y314110D01*
X378250Y313540D01*
X378070Y312800D01*
X378020Y311960D01*
X378090Y311120D01*
X378270Y310380D01*
X378520Y309820D01*
X378880Y309360D01*
X379360Y309180D01*
X379840Y309370D01*
X380200Y309830D01*
X380440Y310400D01*
X380610Y311140D01*
X380670Y311980D01*
X380600Y312820D01*
X380410Y313560D01*
X380170Y314120D01*
X379800Y314580D01*
X379320Y314760D01*
G01X383480Y309210D02*
X383440Y314790D01*
X382730Y313670D01*
G01X382760Y309200D02*
X384210Y309210D01*
G01X356530Y345030D02*
X359080Y350610D01*
G01X356560Y350620D02*
X359060Y345020D01*
G01X361910Y345000D02*
X361940Y350590D01*
X361210Y349480D01*
G01X361190Y345010D02*
X362640Y345000D01*
G01X404880Y240130D02*
X404600Y239770D01*
X404410Y239350D01*
Y238870D01*
X404690Y238320D01*
X405160Y237900D01*
X405710Y237600D01*
X406650Y237360D01*
X407480Y237300D01*
X408320Y237420D01*
X408880Y237600D01*
X409440Y237960D01*
X409810Y238380D01*
X410000Y238800D01*
Y239230D01*
X409810Y239650D01*
X409530Y240010D01*
X409160Y240310D01*
G01X410000Y242920D02*
X404410D01*
X405530Y242200D01*
G01X410000D02*
Y243650D01*
G01X425410Y237600D02*
X431000D01*
Y240010D01*
G01Y242920D02*
X425410D01*
X426530Y242200D01*
G01X431000D02*
Y243650D01*
G01X469660Y400000D02*
Y405590D01*
X471950D01*
G01X471110Y402890D02*
X469660D01*
G01X474200Y405590D02*
X475650D01*
G01X474920D02*
Y400000D01*
G01X474200D02*
X475650D01*
G01X477720D02*
Y405590D01*
X478920D01*
X479410Y405310D01*
X479770Y404940D01*
X480070Y404380D01*
X480310Y403730D01*
X480370Y402790D01*
X480310Y401860D01*
X480070Y401210D01*
X479770Y400650D01*
X479410Y400280D01*
X478920Y400000D01*
X477720D01*
G01X481840Y405590D02*
Y401580D01*
X482080Y400750D01*
X482560Y400190D01*
X483160Y400000D01*
X483770Y400190D01*
X484250Y400750D01*
X484490Y401580D01*
Y405590D01*
G01X487280Y400000D02*
Y405590D01*
X486560Y404470D01*
G01Y400000D02*
X488010D01*
G01X471660Y133000D02*
Y138590D01*
X473950D01*
G01X473110Y135890D02*
X471660D01*
G01X476200Y138590D02*
X477650D01*
G01X476920D02*
Y133000D01*
G01X476200D02*
X477650D01*
G01X479720D02*
Y138590D01*
X480920D01*
X481410Y138310D01*
X481770Y137940D01*
X482070Y137380D01*
X482310Y136730D01*
X482370Y135790D01*
X482310Y134860D01*
X482070Y134210D01*
X481770Y133650D01*
X481410Y133280D01*
X480920Y133000D01*
X479720D01*
G01X483840Y138590D02*
Y134580D01*
X484080Y133750D01*
X484560Y133190D01*
X485160Y133000D01*
X485770Y133190D01*
X486250Y133750D01*
X486490Y134580D01*
Y138590D01*
G01X488140Y137660D02*
X488500Y138220D01*
X488920Y138500D01*
X489410Y138590D01*
X490010Y138400D01*
X490430Y137940D01*
X490550Y137380D01*
X490490Y136820D01*
X490250Y136350D01*
X489040Y135420D01*
X488500Y134770D01*
X488140Y133840D01*
X488020Y133000D01*
X490550D01*
G54D12*
G01X99500Y129000D02*
X501000D01*
Y510000D01*
X99500D01*
Y129000D01*
G01X132500Y419000D02*
G03I-10500J0D01*
G01X211140Y283280D02*
X213640Y283270D01*
G01D02*
X213630Y278270D01*
G01D02*
X211130Y278280D01*
G01X210630D02*
X206630Y278290D01*
G01X206640Y283290D02*
X210640Y283280D01*
G01X206130Y278290D02*
X203630Y278300D01*
G01D02*
X203640Y283300D01*
G01D02*
X206140Y283290D01*
G01X210640Y283280D02*
X211140D01*
G01X206140Y283290D02*
X206640D01*
G01X206630Y278290D02*
X206130D01*
G01X211130Y278280D02*
X210630D01*
G01X206140Y283290D02*
X206130Y278290D01*
G01X211130Y278280D02*
X211140Y283280D01*
G01X214000Y288250D02*
G03X213000Y287250I0J-1000D01*
G01X203000D01*
G03X202000Y288250I-1000J0D01*
G01Y306750D01*
G03X203000Y307750I0J1000D01*
G01X213000D01*
G03X214000Y306750I1000J0D01*
G01Y288250D01*
G01X203500Y289750D02*
G03X204500Y288750I1000J0D01*
G01X211500D02*
G03X212500Y289750I0J1000D01*
G01X203500Y305250D02*
Y289750D01*
G01X212500D02*
Y305250D01*
G01X204500Y288750D02*
X211500D01*
G01X212030Y289750D02*
G03I-530J0D01*
G01X211190Y316270D02*
X213690D01*
G01D02*
Y311270D01*
G01D02*
X211190D01*
G01X210690D02*
X206690Y311280D01*
G01Y316280D02*
X210690Y316270D01*
G01X206190Y311280D02*
X203690D01*
G01D02*
Y316280D01*
G01D02*
X206190D01*
G01X210690Y316270D02*
X211190D01*
G01X206190Y316280D02*
X206690D01*
G01Y311280D02*
X206190D01*
G01X211190Y311270D02*
X210690D01*
G01X206190Y316280D02*
Y311280D01*
G01X211190Y311270D02*
Y316270D01*
G01X212500Y305250D02*
G03X211500Y306250I-1000J0D01*
G01X204500D02*
G03X203500Y305250I0J-1000D01*
G01X211500Y306250D02*
X204500D01*
G01X248000Y357000D02*
X178000D01*
G01D02*
Y427000D01*
G01X236000Y392000D02*
G03I-23000J0D01*
G01X237000D02*
G03I-24000J0D01*
G01X240440D02*
G03I-27440J0D01*
G01X178000Y427000D02*
X248000D01*
G01X250080Y258280D02*
X250100Y253280D01*
G01D02*
X247600Y253270D01*
G01X247100D02*
X243100Y253250D01*
G01X242600D02*
X240100Y253240D01*
G01D02*
X240080Y258240D01*
G01X243100Y253250D02*
X242600D01*
G01X247600Y253270D02*
X247100D01*
G01X242580Y258250D02*
X242600Y253250D01*
G01X247600Y253270D02*
X247580Y258270D01*
G01D02*
X250080Y258280D01*
G01X243080Y258250D02*
X247080Y258270D01*
G01X240080Y258240D02*
X242580Y258250D01*
G01X247080Y258270D02*
X247580D01*
G01X242580Y258250D02*
X243080D01*
G01X244690Y314270D02*
X247190Y314280D01*
G01D02*
X247210Y309280D01*
G01D02*
X244710Y309270D01*
G01X244210D02*
X240210Y309250D01*
G01X240190Y314250D02*
X244190Y314270D01*
G01X239710Y309250D02*
X237210Y309240D01*
G01D02*
X237190Y314240D01*
G01D02*
X239690Y314250D01*
G01X244190Y314270D02*
X244690D01*
G01X239690Y314250D02*
X240190D01*
G01X240210Y309250D02*
X239710D01*
G01X244710Y309270D02*
X244210D01*
G01X239690Y314250D02*
X239710Y309250D01*
G01X244710Y309270D02*
X244690Y314270D01*
G01X242750Y337530D02*
Y340030D01*
G01D02*
X247750D01*
G01D02*
Y337530D01*
G01Y337030D02*
Y333030D01*
G01X242750D02*
Y337030D01*
G01X247750Y332530D02*
Y330030D01*
G01D02*
X242750D01*
G01D02*
Y332530D01*
G01Y337030D02*
Y337530D01*
G01Y332530D02*
Y333030D01*
G01X247750D02*
Y332530D01*
G01Y337530D02*
Y337030D01*
G01X242750Y332530D02*
X247750D01*
G01Y337530D02*
X242750D01*
G01X248000Y427000D02*
Y357000D01*
G01X259730Y233060D02*
Y235560D01*
G01D02*
X264730D01*
G01D02*
Y233060D01*
G01Y232560D02*
Y228560D01*
G01X259730D02*
Y232560D01*
G01X264730Y228060D02*
X264740Y225560D01*
G01D02*
X259740D01*
G01D02*
X259730Y228060D01*
G01Y232560D02*
Y233060D01*
G01Y228060D02*
Y228560D01*
G01X264730D02*
Y228060D01*
G01Y233060D02*
Y232560D01*
G01X259730Y228060D02*
X264730D01*
G01Y233060D02*
X259730D01*
G01X265500Y250500D02*
X325500D01*
Y310500D01*
X265500D01*
Y250500D01*
G01X275500Y257500D02*
G03I-2500J0D01*
G01X266180Y251180D02*
Y309820D01*
G01Y251180D02*
X265500Y250500D01*
G01X324820Y251180D02*
X266180D01*
G01X284720Y226010D02*
Y228510D01*
G01D02*
X289720D01*
G01D02*
Y226010D01*
G01Y225510D02*
X289730Y221510D01*
G01X284730D02*
X284720Y225510D01*
G01X289730Y221010D02*
Y218510D01*
G01D02*
X284730D01*
G01D02*
Y221010D01*
G01X284720Y225510D02*
Y226010D01*
G01X284730Y221010D02*
Y221510D01*
G01X289730D02*
Y221010D01*
G01X289720Y226010D02*
Y225510D01*
G01X284730Y221010D02*
X289730D01*
G01X289720Y226010D02*
X284720D01*
G01X268710Y225880D02*
X268700Y228380D01*
G01D02*
X273700Y228400D01*
G01D02*
X273710Y225900D01*
G01Y225400D02*
X273720Y221400D01*
G01X268720Y221380D02*
X268710Y225380D01*
G01X273730Y220900D02*
X273740Y218400D01*
G01D02*
X268740Y218380D01*
G01D02*
X268730Y220880D01*
G01X268710Y225380D02*
Y225880D01*
G01X268730Y220880D02*
X268720Y221380D01*
G01X273720Y221400D02*
X273730Y220900D01*
G01X273710Y225900D02*
Y225400D01*
G01X268730Y220880D02*
X273730Y220900D01*
G01X273710Y225900D02*
X268710Y225880D01*
G01X302500Y330000D02*
X297500D01*
G01D02*
Y332500D01*
G01Y333000D02*
Y337000D01*
G01Y337500D02*
Y340000D01*
G01D02*
X302500D01*
G01X297500Y337000D02*
Y337500D01*
G01Y332500D02*
Y333000D01*
G01X302500Y337500D02*
X297500D01*
G01Y332500D02*
X302500D01*
G01X293500D02*
Y330000D01*
G01D02*
X288500D01*
G01D02*
Y332500D01*
G01Y333000D02*
Y337000D01*
G01X293500D02*
Y333000D01*
G01X288500Y337500D02*
Y340000D01*
G01D02*
X293500D01*
G01D02*
Y337500D01*
G01Y333000D02*
Y332500D01*
G01Y337500D02*
Y337000D01*
G01X288500D02*
Y337500D01*
G01Y332500D02*
Y333000D01*
G01X293500Y337500D02*
X288500D01*
G01Y332500D02*
X293500D01*
G01X271240Y330270D02*
X273740D01*
G01D02*
Y325270D01*
G01D02*
X271240D01*
G01X270740D02*
X266740Y325280D01*
G01Y330280D02*
X270740Y330270D01*
G01X266240Y325280D02*
X263740D01*
G01D02*
Y330280D01*
G01D02*
X266240D01*
G01X270740Y330270D02*
X271240D01*
G01X266240Y330280D02*
X266740D01*
G01Y325280D02*
X266240D01*
G01X271240Y325270D02*
X270740D01*
G01X266240Y330280D02*
Y325280D01*
G01X271240Y325270D02*
Y330270D01*
G01X271120Y338260D02*
X273620Y338270D01*
G01D02*
Y333270D01*
G01D02*
X271120Y333260D01*
G01X270620D02*
X266620D01*
G01Y338260D02*
X270620D01*
G01X266120Y333260D02*
X263620Y333250D01*
G01D02*
Y338250D01*
G01D02*
X266120Y338260D01*
G01X270620D02*
X271120D01*
G01X266120D02*
X266620D01*
G01Y333260D02*
X266120D01*
G01X271120D02*
X270620D01*
G01X266120Y338260D02*
Y333260D01*
G01X271120D02*
Y338260D01*
G01X266180Y309820D02*
X324820D01*
G01X266180D02*
X265500Y310500D01*
G01X302270Y362550D02*
X297270D01*
G01D02*
Y365050D01*
G01Y365550D02*
Y369550D01*
G01X297280Y370050D02*
Y372550D01*
G01D02*
X302280D01*
G01X297270Y369550D02*
X297280Y370050D01*
G01X297270Y365050D02*
Y365550D01*
G01X302280Y370050D02*
X297280D01*
G01X297270Y365050D02*
X302270D01*
G01X289350Y358270D02*
X291850D01*
G01D02*
Y353270D01*
G01D02*
X289350D01*
G01X288850Y353260D02*
X284850D01*
G01Y358260D02*
X288850D01*
G01X284350Y353270D02*
X281850D01*
G01D02*
Y358270D01*
G01D02*
X284350D01*
G01X288850Y358260D02*
X289350Y358270D01*
G01X284350D02*
X284850Y358260D01*
G01Y353260D02*
X284350Y353270D01*
G01X289350D02*
X288850Y353260D01*
G01X284350Y358270D02*
Y353270D01*
G01X289350D02*
Y358270D01*
G01X301340Y353730D02*
X298840D01*
G01D02*
Y358730D01*
G01D02*
X301340D01*
G01X293240Y365400D02*
X293230Y362900D01*
G01D02*
X288230D01*
G01D02*
X288240Y365400D01*
G01Y365900D02*
X288250Y369900D01*
G01X293250D02*
X293240Y365900D01*
G01X288240Y370400D02*
Y372900D01*
G01D02*
X293240D01*
G01D02*
Y370400D01*
G01Y365900D02*
Y365400D01*
G01Y370400D02*
X293250Y369900D01*
G01X288250D02*
X288240Y370400D01*
G01Y365400D02*
Y365900D01*
G01X293240Y370400D02*
X288240D01*
G01Y365400D02*
X293240D01*
G01X297260Y384580D02*
X297270Y382080D01*
G01D02*
X292270Y382070D01*
G01D02*
X292260Y384570D01*
G01X297260Y385080D02*
Y384580D01*
G01X292260Y384570D02*
Y385070D01*
G01Y384570D02*
X297260Y384580D01*
G01X297270Y401470D02*
Y398970D01*
G01D02*
X292270Y398960D01*
G01D02*
Y401460D01*
G01X292260Y401960D02*
Y405960D01*
G01X297260Y405970D02*
Y401970D01*
G01X292250Y406460D02*
Y408960D01*
G01D02*
X297250Y408970D01*
G01D02*
Y406470D01*
G01X297260Y401970D02*
X297270Y401470D01*
G01X297250Y406470D02*
X297260Y405970D01*
G01X292260Y405960D02*
X292250Y406460D01*
G01X292270Y401460D02*
X292260Y401960D01*
G01X297250Y406470D02*
X292250Y406460D01*
G01X292270Y401460D02*
X297270Y401470D01*
G01X292260Y385070D02*
X292270Y389070D01*
G01X297270Y389080D02*
X297260Y385080D01*
G01X292260Y389570D02*
Y392070D01*
G01D02*
X297260Y392080D01*
G01D02*
Y389580D01*
G01D02*
X297270Y389080D01*
G01X292270Y389070D02*
X292260Y389570D01*
G01X297260Y389580D02*
X292260Y389570D01*
G01X297710Y419720D02*
X297700Y417220D01*
G01D02*
X292700Y417230D01*
G01D02*
X292710Y419730D01*
G01Y420230D02*
X292720Y424230D01*
G01X297720Y424220D02*
X297710Y420220D01*
G01X292720Y424730D02*
Y427230D01*
G01D02*
X297720Y427220D01*
G01D02*
Y424720D01*
G01X297710Y420220D02*
Y419720D01*
G01X297720Y424720D02*
Y424220D01*
G01X292720Y424230D02*
Y424730D01*
G01X292710Y419730D02*
Y420230D01*
G01X297720Y424720D02*
X292720Y424730D01*
G01X292710Y419730D02*
X297710Y419720D01*
G01X322150Y235720D02*
X319650Y235730D01*
G01D02*
X319690Y240730D01*
G01D02*
X322190Y240720D01*
G01X322690Y240710D02*
X326690Y240680D01*
G01X326650Y235680D02*
X322650Y235710D01*
G01X327190Y240680D02*
X329690Y240660D01*
G01D02*
X329650Y235660D01*
G01D02*
X327150Y235680D01*
G01X322650Y235710D02*
X322150Y235720D01*
G01X327150Y235680D02*
X326650D01*
G01X326690Y240680D02*
X327190D01*
G01X322190Y240720D02*
X322690Y240710D01*
G01X327150Y235680D02*
X327190Y240680D01*
G01X322190Y240720D02*
X322150Y235720D01*
G01X324820Y309820D02*
Y251180D01*
G01D02*
X325500Y250500D01*
G01X302500Y332500D02*
Y330000D01*
G01Y337000D02*
Y333000D01*
G01Y340000D02*
Y337500D01*
G01Y333000D02*
Y332500D01*
G01Y337500D02*
Y337000D01*
G01X342700Y308730D02*
X340200D01*
G01D02*
Y313730D01*
G01D02*
X342700D01*
G01X317230Y331730D02*
X314730D01*
G01D02*
Y336730D01*
G01D02*
X317230D01*
G01X317730D02*
X321730D01*
G01Y331730D02*
X317730D01*
G01X322230Y336730D02*
X324730D01*
G01D02*
Y331730D01*
G01D02*
X322230D01*
G01X317730D02*
X317230D01*
G01X322230D02*
X321730D01*
G01Y336730D02*
X322230D01*
G01X317230D02*
X317730D01*
G01X322230Y331730D02*
Y336730D01*
G01X317230D02*
Y331730D01*
G01X324820Y309820D02*
X325500Y310500D01*
G01X302270Y365050D02*
Y362550D01*
G01Y369550D02*
Y365550D01*
G01X302280Y372550D02*
Y370050D01*
G01X302270Y365550D02*
Y365050D01*
G01X302280Y370050D02*
X302270Y369550D01*
G01X342340Y343870D02*
X337340Y343830D01*
G01D02*
X337320Y346330D01*
G01Y346830D02*
X337290Y350830D01*
G01X337280Y351330D02*
X337270Y353830D01*
G01D02*
X342270Y353870D01*
G01X337290Y350830D02*
X337280Y351330D01*
G01X337320Y346330D02*
Y346830D01*
G01X342280Y351370D02*
X337280Y351330D01*
G01X337320Y346330D02*
X342320Y346370D01*
G01X301840Y358730D02*
X305840D01*
G01Y353730D02*
X301840D01*
G01X306340Y358730D02*
X308840D01*
G01D02*
Y353730D01*
G01D02*
X306340D01*
G01X301840D02*
X301340D01*
G01X306340D02*
X305840D01*
G01Y358730D02*
X306340D01*
G01X301340D02*
X301840D01*
G01X306340Y353730D02*
Y358730D01*
G01X301340D02*
Y353730D01*
G01X304930Y392730D02*
X302430D01*
G01D02*
Y397730D01*
G01D02*
X304930D01*
G01X305430D02*
X309430D01*
G01Y392730D02*
X305430D01*
G01X309930Y397730D02*
X312430D01*
G01D02*
Y392730D01*
G01D02*
X309930D01*
G01X305430D02*
X304930D01*
G01X309930D02*
X309430D01*
G01Y397730D02*
X309930D01*
G01X304930D02*
X305430D01*
G01X309930Y392730D02*
Y397730D01*
G01X304930D02*
Y392730D01*
G01X306520Y424730D02*
X304020D01*
G01D02*
Y429730D01*
G01X311020Y424730D02*
X307020D01*
G01X314020Y429730D02*
Y424730D01*
G01D02*
X311520D01*
G01X307020D02*
X306520D01*
G01X311520D02*
X311020D01*
G01X311520D02*
Y429730D01*
G01X306520D02*
Y424730D01*
G01X304020Y429730D02*
X306520D01*
G01X307020D02*
X311020D01*
G01X311520D02*
X314020D01*
G01X311020D02*
X311520D01*
G01X306520D02*
X307020D01*
G01X379690Y299790D02*
Y294790D01*
G01D02*
X377190D01*
G01X376690D02*
X372690D01*
G01X372190D02*
X369690D01*
G01D02*
Y299790D01*
G01X372690Y294790D02*
X372190D01*
G01X377190D02*
X376690D01*
G01X372190Y299790D02*
Y294790D01*
G01X377190D02*
Y299790D01*
G01X343200Y313730D02*
X347200D01*
G01Y308730D02*
X343200D01*
G01X347700Y313730D02*
X350200D01*
G01D02*
Y308730D01*
G01D02*
X347700D01*
G01X343200D02*
X342700D01*
G01X347700D02*
X347200D01*
G01Y313730D02*
X347700D01*
G01X342700D02*
X343200D01*
G01X347700Y308730D02*
Y313730D01*
G01X342700D02*
Y308730D01*
G01X358820Y323730D02*
X356320D01*
G01D02*
Y328730D01*
G01D02*
X358820D01*
G01X359320D02*
X363320Y328740D01*
G01Y323740D02*
X359320Y323730D01*
G01X363820Y328740D02*
X366320D01*
G01D02*
Y323740D01*
G01D02*
X363820D01*
G01X359320Y323730D02*
X358820D01*
G01X363820Y323740D02*
X363320D01*
G01Y328740D02*
X363820D01*
G01X358820Y328730D02*
X359320D01*
G01X363820Y323740D02*
Y328740D01*
G01X358820Y328730D02*
Y323730D01*
G01X377720Y308780D02*
X380220D01*
G01D02*
Y303780D01*
G01D02*
X377720D01*
G01X377220D02*
X373220Y303790D01*
G01Y308790D02*
X377220Y308780D01*
G01X372720Y303790D02*
X370220D01*
G01D02*
Y308790D01*
G01D02*
X372720D01*
G01X377220Y308780D02*
X377720D01*
G01X372720Y308790D02*
X373220D01*
G01Y303790D02*
X372720D01*
G01X377720Y303780D02*
X377220D01*
G01X372720Y308790D02*
Y303790D01*
G01X377720Y303780D02*
Y308780D01*
G01X377190Y299790D02*
X379690D01*
G01X372690D02*
X376690D01*
G01X369690D02*
X372190D01*
G01X376690D02*
X377190D01*
G01X372190D02*
X372690D01*
G01X352390Y357180D02*
X365990Y357260D01*
G03X367200Y356060I1201J1D01*
G01X367300Y338460D01*
G03X366110Y337260I8J-1198D01*
G01X352510Y337180D01*
G03X351300Y338370I-1201J-11D01*
G01X351200Y355970D01*
G03X352390Y357180I-10J1200D01*
G01X364660Y340530D02*
G03I-688J4D01*
G01X352400Y354980D02*
X352490Y339380D01*
G01D02*
G03X353500Y338380I1002J2D01*
G01D02*
X365100Y338450D01*
G01D02*
G03X366090Y339460I-9J999D01*
G01D02*
X366000Y355060D01*
G01X342320Y346370D02*
X342340Y343870D01*
G01X342290Y350870D02*
X342320Y346870D01*
G01X342270Y353870D02*
X342280Y351370D01*
G01X342320Y346870D02*
Y346370D01*
G01X342280Y351370D02*
X342290Y350870D01*
G01X353400Y355980D02*
G03X352400Y354980I0J-1000D01*
G01X365000Y356050D02*
X353400Y355980D01*
G01X366000Y355060D02*
G03X365000Y356050I-999J-9D01*
G01X415500Y235500D02*
Y233000D01*
G01D02*
X410500D01*
G01D02*
Y235500D01*
G01Y236000D02*
Y240000D01*
G01X415500D02*
Y236000D01*
G01X410500Y240500D02*
Y243000D01*
G01D02*
X415500D01*
G01D02*
Y240500D01*
G01Y236000D02*
Y235500D01*
G01Y240500D02*
Y240000D01*
G01X410500D02*
Y240500D01*
G01Y235500D02*
Y236000D01*
G01X415500Y240500D02*
X410500D01*
G01Y235500D02*
X415500D01*
G01X419500Y240500D02*
Y243000D01*
G01D02*
X424500D01*
G01D02*
Y240500D01*
G01Y240000D02*
Y236000D01*
G01X419500D02*
Y240000D01*
G01X424500Y235500D02*
Y233000D01*
G01D02*
X419500D01*
G01D02*
Y235500D01*
G01Y240000D02*
Y240500D01*
G01Y235500D02*
Y236000D01*
G01X424500D02*
Y235500D01*
G01Y240500D02*
Y240000D01*
G01X419500Y235500D02*
X424500D01*
G01Y240500D02*
X419500D01*
G01X488500Y152000D02*
G03I-10500J0D01*
G01Y419000D02*
G03I-10500J0D01*
M02*
