G04 ================== begin FILE IDENTIFICATION RECORD ==================*
G04 Layout Name:  CC2541EM.brd*
G04 Film Name:    drill*
G04 File Format:  Gerber RS274X*
G04 File Origin:  Cadence Allegro 16.5-P002*
G04 Origin Date:  Fri Apr 12 14:10:24 2013*
G04 *
G04 Layer:  MANUFACTURING/XSECTION_CHART*
G04 Layer:  BOARD GEOMETRY/DIMENSION*
G04 Layer:  MANUFACTURING/NCLEGEND-1-2*
G04 Layer:  MANUFACTURING/NCLEGEND-1-4*
G04 Layer:  BOARD GEOMETRY/OUTLINE*
G04 *
G04 Offset:    (0.000 0.000)*
G04 Mirror:    No*
G04 Mode:      Positive*
G04 Rotation:  0*
G04 FullContactRelief:  No*
G04 UndefLineWidth:     0.020*
G04 ================== end FILE IDENTIFICATION RECORD ====================*
%FSLAX44Y44*MOMM*%
%IR0*IPPOS*OFA0.00000B0.00000*MIA0B0*SFA1.00000B1.00000*%
%AMMACRO10*
1,1,.02,.635,0.0*
20,1,.02,.635,0.0,.625353,-.110267,0.0*
1,1,.02,.625353,-.110267*
20,1,.02,.625353,-.110267,.596705,-.217183,0.0*
1,1,.02,.596705,-.217183*
20,1,.02,.596705,-.217183,.549926,-.3175,0.0*
1,1,.02,.549926,-.3175*
20,1,.02,.549926,-.3175,.486438,-.40817,0.0*
1,1,.02,.486438,-.40817*
20,1,.02,.486438,-.40817,.40817,-.486438,0.0*
1,1,.02,.40817,-.486438*
20,1,.02,.40817,-.486438,.3175,-.549926,0.0*
1,1,.02,.3175,-.549926*
20,1,.02,.3175,-.549926,.217183,-.596705,0.0*
1,1,.02,.217183,-.596705*
20,1,.02,.217183,-.596705,.110267,-.625353,0.0*
1,1,.02,.110267,-.625353*
20,1,.02,.110267,-.625353,0.0,-.635,0.0*
1,1,.02,0.0,-.635*
20,1,.02,0.0,-.635,-.110267,-.625353,0.0*
1,1,.02,-.110267,-.625353*
20,1,.02,-.110267,-.625353,-.217183,-.596705,0.0*
1,1,.02,-.217183,-.596705*
20,1,.02,-.217183,-.596705,-.3175,-.549926,0.0*
1,1,.02,-.3175,-.549926*
20,1,.02,-.3175,-.549926,-.40817,-.486438,0.0*
1,1,.02,-.40817,-.486438*
20,1,.02,-.40817,-.486438,-.486438,-.40817,0.0*
1,1,.02,-.486438,-.40817*
20,1,.02,-.486438,-.40817,-.549926,-.3175,0.0*
1,1,.02,-.549926,-.3175*
20,1,.02,-.549926,-.3175,-.596705,-.217183,0.0*
1,1,.02,-.596705,-.217183*
20,1,.02,-.596705,-.217183,-.625353,-.110267,0.0*
1,1,.02,-.625353,-.110267*
20,1,.02,-.625353,-.110267,-.635,0.0,0.0*
1,1,.02,-.635,0.0*
20,1,.02,-.635,0.0,-.625353,.110267,0.0*
1,1,.02,-.625353,.110267*
20,1,.02,-.625353,.110267,-.596705,.217183,0.0*
1,1,.02,-.596705,.217183*
20,1,.02,-.596705,.217183,-.549926,.3175,0.0*
1,1,.02,-.549926,.3175*
20,1,.02,-.549926,.3175,-.486438,.40817,0.0*
1,1,.02,-.486438,.40817*
20,1,.02,-.486438,.40817,-.40817,.486438,0.0*
1,1,.02,-.40817,.486438*
20,1,.02,-.40817,.486438,-.3175,.549926,0.0*
1,1,.02,-.3175,.549926*
20,1,.02,-.3175,.549926,-.217183,.596705,0.0*
1,1,.02,-.217183,.596705*
20,1,.02,-.217183,.596705,-.110267,.625353,0.0*
1,1,.02,-.110267,.625353*
20,1,.02,-.110267,.625353,0.0,.635,0.0*
1,1,.02,0.0,.635*
20,1,.02,0.0,.635,.110267,.625353,0.0*
1,1,.02,.110267,.625353*
20,1,.02,.110267,.625353,.217183,.596705,0.0*
1,1,.02,.217183,.596705*
20,1,.02,.217183,.596705,.3175,.549926,0.0*
1,1,.02,.3175,.549926*
20,1,.02,.3175,.549926,.40817,.486438,0.0*
1,1,.02,.40817,.486438*
20,1,.02,.40817,.486438,.486438,.40817,0.0*
1,1,.02,.486438,.40817*
20,1,.02,.486438,.40817,.549926,.3175,0.0*
1,1,.02,.549926,.3175*
20,1,.02,.549926,.3175,.596705,.217183,0.0*
1,1,.02,.596705,.217183*
20,1,.02,.596705,.217183,.625353,.110267,0.0*
1,1,.02,.625353,.110267*
20,1,.02,.625353,.110267,.635,0.0,0.0*
1,1,.02,.635,0.0*
1,1,.02,.3175,0.0*
20,1,.02,.3175,0.0,-.3175,0.0,0.0*
1,1,.02,-.3175,0.0*
1,1,.02,0.0,.3175*
20,1,.02,0.0,.3175,0.0,-.3175,0.0*
1,1,.02,0.0,-.3175*
%
%ADD10MACRO10*%
%AMMACRO11*
1,1,.02,0.0,1.*
20,1,.02,0.0,1.,1.,-1.,0.0*
1,1,.02,1.,-1.*
20,1,.02,1.,-1.,-1.,-1.,0.0*
1,1,.02,-1.,-1.*
20,1,.02,-1.,-1.,0.0,1.,0.0*
1,1,.02,0.0,1.*
1,1,.02,.5,0.0*
20,1,.02,.5,0.0,-.5,0.0,0.0*
1,1,.02,-.5,0.0*
1,1,.02,0.0,.5*
20,1,.02,0.0,.5,0.0,-.5,0.0*
1,1,.02,0.0,-.5*
%
%ADD11MACRO11*%
%ADD12C,.02*%
G75*
%LPD*%
G75*
G36*
G01X375780Y865910D02*
Y911560D01*
X680580D01*
Y865910D01*
X375780D01*
G37*
G36*
G01Y1120250D02*
Y1165900D01*
X680580D01*
Y1120250D01*
X375780D01*
G37*
G54D10*
X117000Y143000D03*
X116610Y177970D03*
Y208470D03*
Y238970D03*
X125000Y230980D03*
X124000Y242000D03*
X125000Y256000D03*
X116610Y269470D03*
Y299970D03*
Y330470D03*
Y360970D03*
Y391470D03*
X145000Y143000D03*
X148700Y205400D03*
X165000Y178000D03*
X149000Y217000D03*
Y230000D03*
X147450Y255000D03*
X174000Y218840D03*
X149000Y293000D03*
Y268000D03*
X147110Y330470D03*
X136110Y309970D03*
X138110Y342970D03*
X165110Y344970D03*
X166000Y315000D03*
X158110Y380970D03*
X169610Y360970D03*
X138110Y383470D03*
X144000Y361000D03*
X147110Y421970D03*
X170610D03*
X159610Y428970D03*
X132610D03*
X156110Y400970D03*
X175000Y143000D03*
X205000D03*
X204000Y187000D03*
Y204000D03*
X181750Y211100D03*
X197000Y197000D03*
X191750Y192000D03*
X184000Y225000D03*
X196000D03*
X197000Y260000D03*
Y250000D03*
X208000Y260000D03*
Y250000D03*
X179000Y249000D03*
X185000Y236000D03*
X177610Y299970D03*
X197000Y281000D03*
Y270000D03*
X208000D03*
X177000Y274000D03*
X178000Y287300D03*
X177610Y330470D03*
X197940Y314010D03*
X191000Y343000D03*
X204000Y337000D03*
X192000Y325000D03*
X203000Y352000D03*
X197000Y387000D03*
X202000Y376000D03*
X212000Y372000D03*
X215000Y361000D03*
X177610Y391470D03*
X208110Y421970D03*
X198610Y426970D03*
X212000Y410000D03*
X201000D03*
X198000Y400000D03*
X235000Y143000D03*
X224000Y187000D03*
X244000D03*
X223000Y204000D03*
X243000D03*
X240340Y248720D03*
X237000Y219000D03*
X240110Y240110D03*
X240000Y230000D03*
X223000D03*
X237000Y303000D03*
X247000D03*
X257610Y327970D03*
Y335970D03*
X237610Y338970D03*
X218110Y336970D03*
X230610Y311470D03*
X224000Y317000D03*
X253000Y382000D03*
X243000D03*
X233000D03*
X223000Y372000D03*
Y352000D03*
X255610Y424970D03*
X251610Y405970D03*
X220610Y427970D03*
X241000Y402000D03*
X232000D03*
X222000Y410000D03*
X273000Y143000D03*
X303000D03*
X301390Y165360D03*
X276000Y200000D03*
X288000Y202000D03*
X264000Y191000D03*
X289760Y175990D03*
X262250Y219810D03*
X271000Y238000D03*
X287000Y239000D03*
X280550Y265960D03*
X290550D03*
X300550D03*
X280550Y275960D03*
X290550D03*
X300550D03*
X280550Y285960D03*
X290550D03*
X300550D03*
X301000Y296000D03*
X291000D03*
X281000D03*
X282000Y325000D03*
Y334000D03*
Y343000D03*
X285000Y379000D03*
X275000D03*
X264000D03*
X283000Y363000D03*
X264000Y369000D03*
Y359000D03*
X274000D03*
Y369000D03*
X270110Y425970D03*
X282610Y426970D03*
X285000Y409000D03*
Y399000D03*
Y389000D03*
X275000D03*
Y399000D03*
X264000Y389000D03*
X260610Y415970D03*
X330110Y147470D03*
X331860Y161140D03*
X337000Y166000D03*
X342000Y171000D03*
X340750Y194000D03*
X342000Y179000D03*
X341500Y186500D03*
X336000Y238000D03*
X337000Y250000D03*
X323000Y232000D03*
X318000Y222000D03*
X310550Y265960D03*
Y275960D03*
Y285960D03*
X311000Y296000D03*
X324000Y342000D03*
X308000Y329000D03*
Y338000D03*
X340000Y360000D03*
X304000Y388000D03*
X308000Y364000D03*
Y372000D03*
Y380000D03*
X336000Y379000D03*
X318000Y375000D03*
X308000Y348000D03*
X308110Y420470D03*
X315110Y421470D03*
X318610Y427970D03*
X319000Y395000D03*
X308000Y413000D03*
Y406000D03*
X327000Y413000D03*
X331000Y429000D03*
X342000Y423000D03*
X327000Y395000D03*
X360610Y147470D03*
X361000Y166000D03*
X375170Y208680D03*
X359000Y208000D03*
X367000Y198000D03*
X383000D03*
X375170Y248680D03*
Y228680D03*
X375000Y289000D03*
X375170Y268680D03*
X386470Y306000D03*
X357000Y311000D03*
X345840Y333970D03*
X372070Y326250D03*
X371000Y362000D03*
X383000Y375000D03*
X369000Y379000D03*
X353000D03*
X376610Y428970D03*
X360610Y422970D03*
X353000Y429000D03*
X357000Y413000D03*
X387000D03*
X357000Y395000D03*
X387000D03*
X391110Y147470D03*
X421610D03*
X391500Y166000D03*
X422000D03*
X411000Y204000D03*
X389170Y208680D03*
X401000Y198000D03*
X426110Y182890D03*
X415500Y211000D03*
X411000Y218000D03*
X389170Y248680D03*
Y228680D03*
X413000Y256000D03*
Y248000D03*
X427000Y256000D03*
X421000D03*
X427000Y249000D03*
X421000D03*
X389000Y289000D03*
X389170Y268680D03*
X413000Y264000D03*
X412000Y280000D03*
Y292000D03*
X427000Y263000D03*
X421000D03*
X412000Y306000D03*
X402000Y317000D03*
X391000Y327000D03*
Y343000D03*
X425000Y330000D03*
X406000D03*
X391000Y359000D03*
X403000Y375000D03*
Y350000D03*
X391110Y421970D03*
X423610Y420970D03*
X406610Y428970D03*
X417000Y413000D03*
Y395000D03*
X452110Y147470D03*
X467610Y176970D03*
X442000Y177000D03*
X432000Y178680D03*
X455000Y217000D03*
Y230950D03*
X453610Y293970D03*
X454000Y281000D03*
X452110Y330470D03*
X466610Y308970D03*
X441610Y309970D03*
X433000Y375000D03*
X463000D03*
X433000Y350000D03*
X463000D03*
X436610Y428970D03*
X465610D03*
X447000Y413000D03*
Y395000D03*
X482610Y177970D03*
X484000Y215000D03*
Y245000D03*
X482610Y299970D03*
X484000Y275000D03*
X482610Y330470D03*
X479610Y311970D03*
X482610Y360970D03*
X485000Y387000D03*
X477000Y395000D03*
X484000Y408000D03*
X816150Y236580D03*
G54D11*
X149020Y169820D03*
Y315880D03*
X453820Y169820D03*
Y315880D03*
X816150Y165200D03*
G54D12*
G01X99500Y129000D02*
X501000D01*
Y510000D01*
X99500D01*
Y129000D01*
G01Y522000D02*
Y585000D01*
G01X139500Y566250D02*
X99500Y560000D01*
X139500Y553750D01*
Y566250D01*
G01X202400Y560000D02*
X99500D01*
G01X242740Y544120D02*
Y575870D01*
X228180Y553120D01*
X247860D01*
G01X269510Y575870D02*
X266360Y574810D01*
X264000Y572170D01*
X262420Y568990D01*
X261240Y564760D01*
X260850Y559990D01*
X261240Y555230D01*
X262420Y551000D01*
X264000Y547820D01*
X266360Y545180D01*
X269510Y544120D01*
X272660Y545180D01*
X275020Y547820D01*
X276600Y551000D01*
X277780Y555230D01*
X278170Y559990D01*
X277780Y564760D01*
X276600Y568990D01*
X275020Y572170D01*
X272660Y574810D01*
X269510Y575870D01*
G01X301000Y543060D02*
X300210Y543590D01*
Y544650D01*
X301000Y545180D01*
X301790Y544650D01*
Y543590D01*
X301000Y543060D01*
G01X332490Y544120D02*
Y575870D01*
X327770Y569520D01*
G01Y544120D02*
X337210D01*
G01X355320Y548880D02*
X357680Y546240D01*
X360440Y544650D01*
X363980Y544120D01*
X367520Y545180D01*
X370280Y547290D01*
X372250Y551000D01*
X372640Y555230D01*
X371850Y559470D01*
X369880Y562110D01*
X367130Y564230D01*
X364370Y564760D01*
X361620Y564230D01*
X358080Y562110D01*
X359260Y575870D01*
X369880D01*
G01X372000Y769500D02*
X395620D01*
G01X403490D02*
X427110D01*
G01X434980D02*
X458600D01*
G01X466470D02*
X490090D01*
G01X497960D02*
X521580D01*
G01X529450D02*
X553070D01*
G01X560940D02*
X584560D01*
G01X592430D02*
X616050D01*
G01X623920D02*
X647540D01*
G01X655410D02*
X679030D01*
G01X686900D02*
X710520D01*
G01X718390D02*
X742010D01*
G01X749880D02*
X773500D01*
G01X781370D02*
X804990D01*
G01X812860D02*
X836480D01*
G01X844350D02*
X867970D01*
G01X875840D02*
X899460D01*
G01X907330D02*
X930950D01*
G01X938820D02*
X962440D01*
G01X970310D02*
X993930D01*
G01X1001800D02*
X1025420D01*
G01X1033290D02*
X1056910D01*
G01X1064780D02*
X1088400D01*
G01X1096270D02*
X1119890D01*
G01X1127760D02*
X1151380D01*
G01X1159250D02*
X1182870D01*
G01X1190740D02*
X1214360D01*
G01X375780Y911560D02*
Y1120250D01*
X680580D01*
Y911560D01*
X375780D01*
G01X399600Y560000D02*
X501000D01*
G01X390890Y780080D02*
Y811830D01*
X398760D01*
X401910Y810240D01*
X404270Y808130D01*
X406240Y804950D01*
X407820Y801250D01*
X408210Y795950D01*
X407820Y790660D01*
X406240Y786960D01*
X404270Y783780D01*
X401910Y781670D01*
X398760Y780080D01*
X390890D01*
G01X438910D02*
X423170D01*
Y811830D01*
X438910D01*
G01X432610Y796480D02*
X423170D01*
G01X454260Y784310D02*
X457410Y781670D01*
X460960Y780080D01*
X464100D01*
X467250Y781670D01*
X469620Y784310D01*
X470800Y788020D01*
X470010Y791720D01*
X468040Y794900D01*
X464500Y797010D01*
X459770Y798070D01*
X457020Y800190D01*
X455840Y803890D01*
X456630Y807600D01*
X458590Y810240D01*
X461350Y811830D01*
X464100D01*
X466860Y810770D01*
X469220Y808130D01*
G01X489300Y811830D02*
X498740D01*
G01X494020D02*
Y780080D01*
G01X489300D02*
X498740D01*
G01X527870Y795950D02*
X535750D01*
Y786430D01*
X533380Y783250D01*
X530630Y781140D01*
X526690Y780080D01*
X522750Y781140D01*
X520000Y783250D01*
X517640Y786430D01*
X516060Y790130D01*
X515270Y794370D01*
Y798070D01*
X516060Y801250D01*
X517640Y804950D01*
X520000Y808130D01*
X522360Y810240D01*
X525510Y811830D01*
X528270D01*
X531410Y810770D01*
X533780Y808650D01*
G01X547950Y780080D02*
Y811830D01*
X566050Y780080D01*
Y811830D01*
G01X628640Y809180D02*
X626280Y810770D01*
X623520Y811830D01*
X620370D01*
X616830Y810240D01*
X614080Y807600D01*
X612110Y804420D01*
X610530Y799130D01*
X610140Y794370D01*
X610930Y789600D01*
X612110Y786430D01*
X614470Y783250D01*
X617220Y781140D01*
X619980Y780080D01*
X622740D01*
X625490Y781140D01*
X627850Y782730D01*
X629820Y784840D01*
G01X643600Y780080D02*
Y811830D01*
X653440D01*
X656590Y810240D01*
X658560Y808130D01*
X659340Y803890D01*
X658560Y799660D01*
X656190Y797010D01*
X653440Y795430D01*
X643600D01*
G01X653440D02*
X659340Y780080D01*
G01X682960D02*
X679810Y780610D01*
X677060Y782730D01*
X674690Y785900D01*
X673120Y789600D01*
X672330Y793840D01*
Y798070D01*
X673120Y802310D01*
X674690Y806010D01*
X677060Y809180D01*
X679810Y811300D01*
X682960Y811830D01*
X686110Y811300D01*
X688860Y809180D01*
X691230Y806010D01*
X692800Y802310D01*
X693590Y798070D01*
Y793840D01*
X692800Y789600D01*
X691230Y785900D01*
X688860Y782730D01*
X686110Y780610D01*
X682960Y780080D01*
G01X706180Y784310D02*
X709330Y781670D01*
X712880Y780080D01*
X716020D01*
X719170Y781670D01*
X721540Y784310D01*
X722720Y788020D01*
X721930Y791720D01*
X719960Y794900D01*
X716420Y797010D01*
X711690Y798070D01*
X708940Y800190D01*
X707760Y803890D01*
X708550Y807600D01*
X710510Y810240D01*
X713270Y811830D01*
X716020D01*
X718780Y810770D01*
X721140Y808130D01*
G01X737670Y784310D02*
X740820Y781670D01*
X744370Y780080D01*
X747510D01*
X750660Y781670D01*
X753030Y784310D01*
X754210Y788020D01*
X753420Y791720D01*
X751450Y794900D01*
X747910Y797010D01*
X743180Y798070D01*
X740430Y800190D01*
X739250Y803890D01*
X740040Y807600D01*
X742000Y810240D01*
X744760Y811830D01*
X747510D01*
X750270Y810770D01*
X752630Y808130D01*
G01X800650Y784310D02*
X803800Y781670D01*
X807350Y780080D01*
X810490D01*
X813640Y781670D01*
X816010Y784310D01*
X817190Y788020D01*
X816400Y791720D01*
X814430Y794900D01*
X810890Y797010D01*
X806160Y798070D01*
X803410Y800190D01*
X802230Y803890D01*
X803020Y807600D01*
X804980Y810240D01*
X807740Y811830D01*
X810490D01*
X813250Y810770D01*
X815610Y808130D01*
G01X848280Y780080D02*
X832540D01*
Y811830D01*
X848280D01*
G01X841980Y796480D02*
X832540D01*
G01X880560Y809180D02*
X878200Y810770D01*
X875440Y811830D01*
X872290D01*
X868750Y810240D01*
X866000Y807600D01*
X864030Y804420D01*
X862450Y799130D01*
X862060Y794370D01*
X862850Y789600D01*
X864030Y786430D01*
X866390Y783250D01*
X869140Y781140D01*
X871900Y780080D01*
X874660D01*
X877410Y781140D01*
X879770Y782730D01*
X881740Y784840D01*
G01X903390Y811830D02*
Y780080D01*
G01X894340Y811830D02*
X912440D01*
G01X930160D02*
X939600D01*
G01X934880D02*
Y780080D01*
G01X930160D02*
X939600D01*
G01X966370D02*
X963220Y780610D01*
X960470Y782730D01*
X958100Y785900D01*
X956530Y789600D01*
X955740Y793840D01*
Y798070D01*
X956530Y802310D01*
X958100Y806010D01*
X960470Y809180D01*
X963220Y811300D01*
X966370Y811830D01*
X969520Y811300D01*
X972270Y809180D01*
X974640Y806010D01*
X976210Y802310D01*
X977000Y798070D01*
Y793840D01*
X976210Y789600D01*
X974640Y785900D01*
X972270Y782730D01*
X969520Y780610D01*
X966370Y780080D01*
G01X988810D02*
Y811830D01*
X1006910Y780080D01*
Y811830D01*
G01X1069500Y809180D02*
X1067140Y810770D01*
X1064380Y811830D01*
X1061230D01*
X1057690Y810240D01*
X1054940Y807600D01*
X1052970Y804420D01*
X1051390Y799130D01*
X1051000Y794370D01*
X1051790Y789600D01*
X1052970Y786430D01*
X1055330Y783250D01*
X1058080Y781140D01*
X1060840Y780080D01*
X1063600D01*
X1066350Y781140D01*
X1068710Y782730D01*
X1070680Y784840D01*
G01X1084060Y780080D02*
Y811830D01*
G01X1100600D02*
Y780080D01*
G01Y795950D02*
X1084060D01*
G01X1113980Y780080D02*
X1123820Y811830D01*
X1133660Y780080D01*
G01X1130120Y791190D02*
X1117520D01*
G01X1147440Y780080D02*
Y811830D01*
X1157280D01*
X1160430Y810240D01*
X1162400Y808130D01*
X1163180Y803890D01*
X1162400Y799660D01*
X1160030Y797010D01*
X1157280Y795430D01*
X1147440D01*
G01X1157280D02*
X1163180Y780080D01*
G01X1186800Y811830D02*
Y780080D01*
G01X1177750Y811830D02*
X1195850D01*
G01X461000Y553750D02*
X501000Y560000D01*
X461000Y566250D01*
Y553750D01*
G01X446790Y748330D02*
Y716580D01*
G01X437740Y748330D02*
X455840D01*
G01X478280Y716580D02*
X475130Y717110D01*
X472380Y719230D01*
X470010Y722400D01*
X468440Y726100D01*
X467650Y730340D01*
Y734570D01*
X468440Y738810D01*
X470010Y742510D01*
X472380Y745680D01*
X475130Y747800D01*
X478280Y748330D01*
X481430Y747800D01*
X484180Y745680D01*
X486550Y742510D01*
X488120Y738810D01*
X488910Y734570D01*
Y730340D01*
X488120Y726100D01*
X486550Y722400D01*
X484180Y719230D01*
X481430Y717110D01*
X478280Y716580D01*
G01X509770Y748330D02*
Y716580D01*
G01X500720Y748330D02*
X518820D01*
G01X531420Y716580D02*
X541260Y748330D01*
X551100Y716580D01*
G01X547560Y727690D02*
X534960D01*
G01X564880Y748330D02*
Y716580D01*
X580620D01*
G01X635730Y748330D02*
Y716580D01*
G01X626680Y748330D02*
X644780D01*
G01X658950Y716580D02*
Y748330D01*
G01X675490D02*
Y716580D01*
G01Y732450D02*
X658950D01*
G01X693990Y748330D02*
X703430D01*
G01X698710D02*
Y716580D01*
G01X693990D02*
X703430D01*
G01X738860Y745680D02*
X736500Y747270D01*
X733740Y748330D01*
X730590D01*
X727050Y746740D01*
X724300Y744100D01*
X722330Y740920D01*
X720750Y735630D01*
X720360Y730870D01*
X721150Y726100D01*
X722330Y722930D01*
X724690Y719750D01*
X727440Y717640D01*
X730200Y716580D01*
X732960D01*
X735710Y717640D01*
X738070Y719230D01*
X740040Y721340D01*
G01X753030Y716580D02*
Y748330D01*
G01X767990D02*
X753030Y728750D01*
G01X770350Y716580D02*
X759720Y737750D01*
G01X784130Y716580D02*
Y748330D01*
X802230Y716580D01*
Y748330D01*
G01X832540Y716580D02*
X816800D01*
Y748330D01*
X832540D01*
G01X826240Y732980D02*
X816800D01*
G01X847890Y720810D02*
X851040Y718170D01*
X854590Y716580D01*
X857730D01*
X860880Y718170D01*
X863250Y720810D01*
X864430Y724520D01*
X863640Y728220D01*
X861670Y731400D01*
X858130Y733510D01*
X853400Y734570D01*
X850650Y736690D01*
X849470Y740390D01*
X850260Y744100D01*
X852220Y746740D01*
X854980Y748330D01*
X857730D01*
X860490Y747270D01*
X862850Y744630D01*
G01X879380Y720810D02*
X882530Y718170D01*
X886080Y716580D01*
X889220D01*
X892370Y718170D01*
X894740Y720810D01*
X895920Y724520D01*
X895130Y728220D01*
X893160Y731400D01*
X889620Y733510D01*
X884890Y734570D01*
X882140Y736690D01*
X880960Y740390D01*
X881750Y744100D01*
X883710Y746740D01*
X886470Y748330D01*
X889220D01*
X891980Y747270D01*
X894340Y744630D01*
G01X950630Y748330D02*
X947480Y747270D01*
X945120Y744630D01*
X943540Y741450D01*
X942360Y737220D01*
X941970Y732450D01*
X942360Y727690D01*
X943540Y723460D01*
X945120Y720280D01*
X947480Y717640D01*
X950630Y716580D01*
X953780Y717640D01*
X956140Y720280D01*
X957720Y723460D01*
X958900Y727690D01*
X959290Y732450D01*
X958900Y737220D01*
X957720Y741450D01*
X956140Y744630D01*
X953780Y747270D01*
X950630Y748330D01*
G01X982120Y715520D02*
X981330Y716050D01*
Y717110D01*
X982120Y717640D01*
X982910Y717110D01*
Y716050D01*
X982120Y715520D01*
G01X1013610Y716580D02*
X1016370Y717110D01*
X1019510Y718700D01*
X1021480Y721340D01*
X1022270Y725050D01*
X1021480Y728750D01*
X1019120Y731930D01*
X1015580Y733510D01*
X1011640D01*
X1009280Y734570D01*
X1007310Y737220D01*
X1006520Y740920D01*
X1007710Y744630D01*
X1010460Y747270D01*
X1013610Y748330D01*
X1016760Y747270D01*
X1019510Y744630D01*
X1020700Y740920D01*
X1019910Y737220D01*
X1017940Y734570D01*
X1015580Y733510D01*
X1011640D01*
X1008100Y731930D01*
X1005740Y728750D01*
X1004950Y725050D01*
X1005740Y721340D01*
X1007710Y718700D01*
X1010850Y717110D01*
X1013610Y716580D01*
G01X1044310D02*
X1045100Y723460D01*
X1046280Y729280D01*
X1047860Y734570D01*
X1049820Y740390D01*
X1052970Y748330D01*
X1037230D01*
G01X1097840Y716580D02*
Y748330D01*
X1108080Y721870D01*
X1118320Y748330D01*
Y716580D01*
G01X1129330D02*
Y748330D01*
X1139570Y721870D01*
X1149810Y748330D01*
Y716580D01*
G01X493890Y129000D02*
X605000D01*
G01X501000Y510200D02*
Y585000D01*
G01X497260Y510000D02*
X605000D01*
G01X524100Y316470D02*
X526460Y312770D01*
X529610Y310650D01*
X533150Y310120D01*
X536300Y310650D01*
X539450Y313290D01*
X541420Y316470D01*
X541810Y319640D01*
X541030Y323350D01*
X538270Y325990D01*
X535520Y327050D01*
X531970D01*
G01X535520D02*
X537880Y328640D01*
X539850Y331290D01*
X540630Y334460D01*
X539850Y337640D01*
X537880Y340280D01*
X534330Y341870D01*
X530790Y341340D01*
X527250Y339220D01*
G01X564250Y310120D02*
X567010Y310650D01*
X570150Y312240D01*
X572120Y314880D01*
X572910Y318590D01*
X572120Y322290D01*
X569760Y325470D01*
X566220Y327050D01*
X562280D01*
X559920Y328110D01*
X557950Y330760D01*
X557160Y334460D01*
X558350Y338170D01*
X561100Y340810D01*
X564250Y341870D01*
X567400Y340810D01*
X570150Y338170D01*
X571340Y334460D01*
X570550Y330760D01*
X568580Y328110D01*
X566220Y327050D01*
X562280D01*
X558740Y325470D01*
X556380Y322290D01*
X555590Y318590D01*
X556380Y314880D01*
X558350Y312240D01*
X561490Y310650D01*
X564250Y310120D01*
G01X595740Y309060D02*
X594950Y309590D01*
Y310650D01*
X595740Y311180D01*
X596530Y310650D01*
Y309590D01*
X595740Y309060D01*
G01X627230Y310120D02*
Y341870D01*
X622510Y335520D01*
G01Y310120D02*
X631950D01*
G01X580000Y286320D02*
Y129000D01*
G01X573750Y169000D02*
X580000Y129000D01*
X586250Y169000D01*
X573750D01*
G01X580000Y365680D02*
Y510000D01*
G01X586250Y470000D02*
X580000Y510000D01*
X573750Y470000D01*
X586250D01*
G01X716010Y920490D02*
Y888740D01*
X731750D01*
G01X747890Y915200D02*
X750250Y918370D01*
X753010Y919960D01*
X756160Y920490D01*
X760090Y919430D01*
X762850Y916790D01*
X763640Y913610D01*
X763240Y910440D01*
X761670Y907790D01*
X753800Y902500D01*
X750250Y898790D01*
X747890Y893500D01*
X747100Y888740D01*
X763640D01*
G01X786860Y887680D02*
X786070Y888210D01*
Y889270D01*
X786860Y889800D01*
X787650Y889270D01*
Y888210D01*
X786860Y887680D01*
G01Y901970D02*
X786070Y902500D01*
Y903560D01*
X786860Y904090D01*
X787650Y903560D01*
Y902500D01*
X786860Y901970D01*
G01X852990Y905670D02*
X854560Y907260D01*
X855740Y909910D01*
X856530Y913610D01*
X855740Y916790D01*
X854170Y918900D01*
X851410Y920490D01*
X840790D01*
Y888740D01*
X853780D01*
X856530Y890860D01*
X858110Y894030D01*
X858890Y897740D01*
X858110Y901440D01*
X855740Y904610D01*
X852990Y905670D01*
X840790D01*
G01X881330Y888740D02*
X878180Y889270D01*
X875430Y891390D01*
X873060Y894560D01*
X871490Y898260D01*
X870700Y902500D01*
Y906730D01*
X871490Y910970D01*
X873060Y914670D01*
X875430Y917840D01*
X878180Y919960D01*
X881330Y920490D01*
X884480Y919960D01*
X887230Y917840D01*
X889600Y914670D01*
X891170Y910970D01*
X891960Y906730D01*
Y902500D01*
X891170Y898260D01*
X889600Y894560D01*
X887230Y891390D01*
X884480Y889270D01*
X881330Y888740D01*
G01X912820Y920490D02*
Y888740D01*
G01X903770Y920490D02*
X921870D01*
G01X944310D02*
Y888740D01*
G01X935260Y920490D02*
X953360D01*
G01X975800Y888740D02*
X972650Y889270D01*
X969900Y891390D01*
X967530Y894560D01*
X965960Y898260D01*
X965170Y902500D01*
Y906730D01*
X965960Y910970D01*
X967530Y914670D01*
X969900Y917840D01*
X972650Y919960D01*
X975800Y920490D01*
X978950Y919960D01*
X981700Y917840D01*
X984070Y914670D01*
X985640Y910970D01*
X986430Y906730D01*
Y902500D01*
X985640Y898260D01*
X984070Y894560D01*
X981700Y891390D01*
X978950Y889270D01*
X975800Y888740D01*
G01X997050D02*
Y920490D01*
X1007290Y894030D01*
X1017530Y920490D01*
Y888740D01*
G01X1078930Y917840D02*
X1076570Y919430D01*
X1073810Y920490D01*
X1070660D01*
X1067120Y918900D01*
X1064370Y916260D01*
X1062400Y913080D01*
X1060820Y907790D01*
X1060430Y903030D01*
X1061220Y898260D01*
X1062400Y895090D01*
X1064760Y891910D01*
X1067510Y889800D01*
X1070270Y888740D01*
X1073030D01*
X1075780Y889800D01*
X1078140Y891390D01*
X1080110Y893500D01*
G01X1101760Y888740D02*
X1098610Y889270D01*
X1095860Y891390D01*
X1093490Y894560D01*
X1091920Y898260D01*
X1091130Y902500D01*
Y906730D01*
X1091920Y910970D01*
X1093490Y914670D01*
X1095860Y917840D01*
X1098610Y919960D01*
X1101760Y920490D01*
X1104910Y919960D01*
X1107660Y917840D01*
X1110030Y914670D01*
X1111600Y910970D01*
X1112390Y906730D01*
Y902500D01*
X1111600Y898260D01*
X1110030Y894560D01*
X1107660Y891390D01*
X1104910Y889270D01*
X1101760Y888740D01*
G01X1124200D02*
Y920490D01*
X1142300Y888740D01*
Y920490D01*
G01X1156080Y888740D02*
Y920490D01*
X1163950D01*
X1167100Y918900D01*
X1169460Y916790D01*
X1171430Y913610D01*
X1173010Y909910D01*
X1173400Y904610D01*
X1173010Y899320D01*
X1171430Y895620D01*
X1169460Y892440D01*
X1167100Y890330D01*
X1163950Y888740D01*
X1156080D01*
G01X1187570Y920490D02*
Y897740D01*
X1189140Y892970D01*
X1192290Y889800D01*
X1196230Y888740D01*
X1200170Y889800D01*
X1203320Y892970D01*
X1204890Y897740D01*
Y920490D01*
G01X1236380Y917840D02*
X1234020Y919430D01*
X1231260Y920490D01*
X1228110D01*
X1224570Y918900D01*
X1221820Y916260D01*
X1219850Y913080D01*
X1218270Y907790D01*
X1217880Y903030D01*
X1218670Y898260D01*
X1219850Y895090D01*
X1222210Y891910D01*
X1224960Y889800D01*
X1227720Y888740D01*
X1230480D01*
X1233230Y889800D01*
X1235590Y891390D01*
X1237560Y893500D01*
G01X1259210Y920490D02*
Y888740D01*
G01X1250160Y920490D02*
X1268260D01*
G01X1290700Y888740D02*
X1287550Y889270D01*
X1284800Y891390D01*
X1282430Y894560D01*
X1280860Y898260D01*
X1280070Y902500D01*
Y906730D01*
X1280860Y910970D01*
X1282430Y914670D01*
X1284800Y917840D01*
X1287550Y919960D01*
X1290700Y920490D01*
X1293850Y919960D01*
X1296600Y917840D01*
X1298970Y914670D01*
X1300540Y910970D01*
X1301330Y906730D01*
Y902500D01*
X1300540Y898260D01*
X1298970Y894560D01*
X1296600Y891390D01*
X1293850Y889270D01*
X1290700Y888740D01*
G01X1314320D02*
Y920490D01*
X1324160D01*
X1327310Y918900D01*
X1329280Y916790D01*
X1330060Y912550D01*
X1329280Y908320D01*
X1326910Y905670D01*
X1324160Y904090D01*
X1314320D01*
G01X1324160D02*
X1330060Y888740D01*
G01X1380050Y899320D02*
X1390290D01*
G01X1456810Y917840D02*
X1454450Y919430D01*
X1451690Y920490D01*
X1448540D01*
X1445000Y918900D01*
X1442250Y916260D01*
X1440280Y913080D01*
X1438700Y907790D01*
X1438310Y903030D01*
X1439100Y898260D01*
X1440280Y895090D01*
X1442640Y891910D01*
X1445390Y889800D01*
X1448150Y888740D01*
X1450910D01*
X1453660Y889800D01*
X1456020Y891390D01*
X1457990Y893500D01*
G01X1479640Y888740D02*
X1476490Y889270D01*
X1473740Y891390D01*
X1471370Y894560D01*
X1469800Y898260D01*
X1469010Y902500D01*
Y906730D01*
X1469800Y910970D01*
X1471370Y914670D01*
X1473740Y917840D01*
X1476490Y919960D01*
X1479640Y920490D01*
X1482790Y919960D01*
X1485540Y917840D01*
X1487910Y914670D01*
X1489480Y910970D01*
X1490270Y906730D01*
Y902500D01*
X1489480Y898260D01*
X1487910Y894560D01*
X1485540Y891390D01*
X1482790Y889270D01*
X1479640Y888740D01*
G01X1503260D02*
Y920490D01*
X1512700D01*
X1515850Y918900D01*
X1518220Y915200D01*
X1519000Y910970D01*
X1518220Y906730D01*
X1516250Y903560D01*
X1512700Y901970D01*
X1503260D01*
G01X1534750Y888740D02*
Y920490D01*
X1544190D01*
X1547340Y918900D01*
X1549710Y915200D01*
X1550490Y910970D01*
X1549710Y906730D01*
X1547740Y903560D01*
X1544190Y901970D01*
X1534750D01*
G01X1581980Y888740D02*
X1566240D01*
Y920490D01*
X1581980D01*
G01X1575680Y905140D02*
X1566240D01*
G01X1597730Y888740D02*
Y920490D01*
X1607570D01*
X1610720Y918900D01*
X1612690Y916790D01*
X1613470Y912550D01*
X1612690Y908320D01*
X1610320Y905670D01*
X1607570Y904090D01*
X1597730D01*
G01X1607570D02*
X1613470Y888740D01*
G01X1668580Y920490D02*
X1665430Y919430D01*
X1663070Y916790D01*
X1661490Y913610D01*
X1660310Y909380D01*
X1659920Y904610D01*
X1660310Y899850D01*
X1661490Y895620D01*
X1663070Y892440D01*
X1665430Y889800D01*
X1668580Y888740D01*
X1671730Y889800D01*
X1674090Y892440D01*
X1675670Y895620D01*
X1676850Y899850D01*
X1677240Y904610D01*
X1676850Y909380D01*
X1675670Y913610D01*
X1674090Y916790D01*
X1671730Y919430D01*
X1668580Y920490D01*
G01X1700070Y887680D02*
X1699280Y888210D01*
Y889270D01*
X1700070Y889800D01*
X1700860Y889270D01*
Y888210D01*
X1700070Y887680D01*
G01X1731560Y920490D02*
X1728410Y919430D01*
X1726050Y916790D01*
X1724470Y913610D01*
X1723290Y909380D01*
X1722900Y904610D01*
X1723290Y899850D01*
X1724470Y895620D01*
X1726050Y892440D01*
X1728410Y889800D01*
X1731560Y888740D01*
X1734710Y889800D01*
X1737070Y892440D01*
X1738650Y895620D01*
X1739830Y899850D01*
X1740220Y904610D01*
X1739830Y909380D01*
X1738650Y913610D01*
X1737070Y916790D01*
X1734710Y919430D01*
X1731560Y920490D01*
G01X1754390Y895090D02*
X1756750Y891390D01*
X1759900Y889270D01*
X1763440Y888740D01*
X1766590Y889270D01*
X1769740Y891910D01*
X1771710Y895090D01*
X1772100Y898260D01*
X1771320Y901970D01*
X1768560Y904610D01*
X1765810Y905670D01*
X1762260D01*
G01X1765810D02*
X1768170Y907260D01*
X1770140Y909910D01*
X1770920Y913080D01*
X1770140Y916260D01*
X1768170Y918900D01*
X1764620Y920490D01*
X1761080Y919960D01*
X1757540Y917840D01*
G01X1785880Y893500D02*
X1788240Y890860D01*
X1791000Y889270D01*
X1794540Y888740D01*
X1798080Y889800D01*
X1800840Y891910D01*
X1802810Y895620D01*
X1803200Y899850D01*
X1802410Y904090D01*
X1800440Y906730D01*
X1797690Y908850D01*
X1794930Y909380D01*
X1792180Y908850D01*
X1788640Y906730D01*
X1789820Y920490D01*
X1800440D01*
G01X1847280Y888740D02*
Y920490D01*
X1857520Y894030D01*
X1867760Y920490D01*
Y888740D01*
G01X1878770D02*
Y920490D01*
X1889010Y894030D01*
X1899250Y920490D01*
Y888740D01*
G01X778200Y1014850D02*
X795520Y1038140D01*
G01X786860Y1042370D02*
Y1010620D01*
G01X795520Y1014850D02*
X778200Y1038140D01*
G01X775050Y1026490D02*
X798670D01*
G01X872670Y1015910D02*
Y1047660D01*
X880540D01*
X883690Y1046070D01*
X886050Y1043960D01*
X888020Y1040780D01*
X889600Y1037080D01*
X889990Y1031780D01*
X889600Y1026490D01*
X888020Y1022790D01*
X886050Y1019610D01*
X883690Y1017500D01*
X880540Y1015910D01*
X872670D01*
G01X908100Y1047660D02*
X917540D01*
G01X912820D02*
Y1015910D01*
G01X908100D02*
X917540D01*
G01X952180D02*
X936440D01*
Y1047660D01*
X952180D01*
G01X945880Y1032310D02*
X936440D01*
G01X967930Y1047660D02*
Y1015910D01*
X983670D01*
G01X1015160D02*
X999420D01*
Y1047660D01*
X1015160D01*
G01X1008860Y1032310D02*
X999420D01*
G01X1047440Y1045010D02*
X1045080Y1046600D01*
X1042320Y1047660D01*
X1039170D01*
X1035630Y1046070D01*
X1032880Y1043430D01*
X1030910Y1040250D01*
X1029330Y1034960D01*
X1028940Y1030200D01*
X1029730Y1025430D01*
X1030910Y1022260D01*
X1033270Y1019080D01*
X1036020Y1016970D01*
X1038780Y1015910D01*
X1041540D01*
X1044290Y1016970D01*
X1046650Y1018560D01*
X1048620Y1020670D01*
G01X1070270Y1047660D02*
Y1015910D01*
G01X1061220Y1047660D02*
X1079320D01*
G01X1093890Y1015910D02*
Y1047660D01*
X1103730D01*
X1106880Y1046070D01*
X1108850Y1043960D01*
X1109630Y1039720D01*
X1108850Y1035490D01*
X1106480Y1032840D01*
X1103730Y1031260D01*
X1093890D01*
G01X1103730D02*
X1109630Y1015910D01*
G01X1128530Y1047660D02*
X1137970D01*
G01X1133250D02*
Y1015910D01*
G01X1128530D02*
X1137970D01*
G01X1173400Y1045010D02*
X1171040Y1046600D01*
X1168280Y1047660D01*
X1165130D01*
X1161590Y1046070D01*
X1158840Y1043430D01*
X1156870Y1040250D01*
X1155290Y1034960D01*
X1154900Y1030200D01*
X1155690Y1025430D01*
X1156870Y1022260D01*
X1159230Y1019080D01*
X1161980Y1016970D01*
X1164740Y1015910D01*
X1167500D01*
X1170250Y1016970D01*
X1172610Y1018560D01*
X1174580Y1020670D01*
G01X1222600Y1026490D02*
X1232840D01*
G01X1283220Y1015910D02*
Y1047660D01*
X1298180D01*
G01X1292670Y1032310D02*
X1283220D01*
G01X1314320Y1015910D02*
Y1047660D01*
X1324160D01*
X1327310Y1046070D01*
X1329280Y1043960D01*
X1330060Y1039720D01*
X1329280Y1035490D01*
X1326910Y1032840D01*
X1324160Y1031260D01*
X1314320D01*
G01X1324160D02*
X1330060Y1015910D01*
G01X1348560Y1026490D02*
X1358800D01*
G01X1389890Y1015910D02*
Y1047660D01*
X1375330Y1024910D01*
X1395010D01*
G01X1448150Y1047660D02*
X1445000Y1046600D01*
X1442640Y1043960D01*
X1441060Y1040780D01*
X1439880Y1036550D01*
X1439490Y1031780D01*
X1439880Y1027020D01*
X1441060Y1022790D01*
X1442640Y1019610D01*
X1445000Y1016970D01*
X1448150Y1015910D01*
X1451300Y1016970D01*
X1453660Y1019610D01*
X1455240Y1022790D01*
X1456420Y1027020D01*
X1456810Y1031780D01*
X1456420Y1036550D01*
X1455240Y1040780D01*
X1453660Y1043960D01*
X1451300Y1046600D01*
X1448150Y1047660D01*
G01X1479640Y1014850D02*
X1478850Y1015380D01*
Y1016440D01*
X1479640Y1016970D01*
X1480430Y1016440D01*
Y1015380D01*
X1479640Y1014850D01*
G01X1511130Y1015910D02*
X1513890Y1016440D01*
X1517030Y1018030D01*
X1519000Y1020670D01*
X1519790Y1024380D01*
X1519000Y1028080D01*
X1516640Y1031260D01*
X1513100Y1032840D01*
X1509160D01*
X1506800Y1033900D01*
X1504830Y1036550D01*
X1504040Y1040250D01*
X1505230Y1043960D01*
X1507980Y1046600D01*
X1511130Y1047660D01*
X1514280Y1046600D01*
X1517030Y1043960D01*
X1518220Y1040250D01*
X1517430Y1036550D01*
X1515460Y1033900D01*
X1513100Y1032840D01*
X1509160D01*
X1505620Y1031260D01*
X1503260Y1028080D01*
X1502470Y1024380D01*
X1503260Y1020670D01*
X1505230Y1018030D01*
X1508370Y1016440D01*
X1511130Y1015910D01*
G01X1563870D02*
Y1047660D01*
X1574110Y1021200D01*
X1584350Y1047660D01*
Y1015910D01*
G01X1595360D02*
Y1047660D01*
X1605600Y1021200D01*
X1615840Y1047660D01*
Y1015910D01*
G01X716010Y1174830D02*
Y1143080D01*
X731750D01*
G01X755370D02*
Y1174830D01*
X750650Y1168480D01*
G01Y1143080D02*
X760090D01*
G01X786860Y1142020D02*
X786070Y1142550D01*
Y1143610D01*
X786860Y1144140D01*
X787650Y1143610D01*
Y1142550D01*
X786860Y1142020D01*
G01Y1156310D02*
X786070Y1156840D01*
Y1157900D01*
X786860Y1158430D01*
X787650Y1157900D01*
Y1156840D01*
X786860Y1156310D01*
G01X849840Y1174830D02*
Y1143080D01*
G01X840790Y1174830D02*
X858890D01*
G01X881330Y1143080D02*
X878180Y1143610D01*
X875430Y1145730D01*
X873060Y1148900D01*
X871490Y1152600D01*
X870700Y1156840D01*
Y1161070D01*
X871490Y1165310D01*
X873060Y1169010D01*
X875430Y1172180D01*
X878180Y1174300D01*
X881330Y1174830D01*
X884480Y1174300D01*
X887230Y1172180D01*
X889600Y1169010D01*
X891170Y1165310D01*
X891960Y1161070D01*
Y1156840D01*
X891170Y1152600D01*
X889600Y1148900D01*
X887230Y1145730D01*
X884480Y1143610D01*
X881330Y1143080D01*
G01X904950D02*
Y1174830D01*
X914390D01*
X917540Y1173240D01*
X919910Y1169540D01*
X920690Y1165310D01*
X919910Y1161070D01*
X917940Y1157900D01*
X914390Y1156310D01*
X904950D01*
G01X984460Y1172180D02*
X982100Y1173770D01*
X979340Y1174830D01*
X976190D01*
X972650Y1173240D01*
X969900Y1170600D01*
X967930Y1167420D01*
X966350Y1162130D01*
X965960Y1157370D01*
X966750Y1152600D01*
X967930Y1149430D01*
X970290Y1146250D01*
X973040Y1144140D01*
X975800Y1143080D01*
X978560D01*
X981310Y1144140D01*
X983670Y1145730D01*
X985640Y1147840D01*
G01X1007290Y1143080D02*
X1004140Y1143610D01*
X1001390Y1145730D01*
X999020Y1148900D01*
X997450Y1152600D01*
X996660Y1156840D01*
Y1161070D01*
X997450Y1165310D01*
X999020Y1169010D01*
X1001390Y1172180D01*
X1004140Y1174300D01*
X1007290Y1174830D01*
X1010440Y1174300D01*
X1013190Y1172180D01*
X1015560Y1169010D01*
X1017130Y1165310D01*
X1017920Y1161070D01*
Y1156840D01*
X1017130Y1152600D01*
X1015560Y1148900D01*
X1013190Y1145730D01*
X1010440Y1143610D01*
X1007290Y1143080D01*
G01X1029730D02*
Y1174830D01*
X1047830Y1143080D01*
Y1174830D01*
G01X1061610Y1143080D02*
Y1174830D01*
X1069480D01*
X1072630Y1173240D01*
X1074990Y1171130D01*
X1076960Y1167950D01*
X1078540Y1164250D01*
X1078930Y1158950D01*
X1078540Y1153660D01*
X1076960Y1149960D01*
X1074990Y1146780D01*
X1072630Y1144670D01*
X1069480Y1143080D01*
X1061610D01*
G01X1093100Y1174830D02*
Y1152080D01*
X1094670Y1147310D01*
X1097820Y1144140D01*
X1101760Y1143080D01*
X1105700Y1144140D01*
X1108850Y1147310D01*
X1110420Y1152080D01*
Y1174830D01*
G01X1141910Y1172180D02*
X1139550Y1173770D01*
X1136790Y1174830D01*
X1133640D01*
X1130100Y1173240D01*
X1127350Y1170600D01*
X1125380Y1167420D01*
X1123800Y1162130D01*
X1123410Y1157370D01*
X1124200Y1152600D01*
X1125380Y1149430D01*
X1127740Y1146250D01*
X1130490Y1144140D01*
X1133250Y1143080D01*
X1136010D01*
X1138760Y1144140D01*
X1141120Y1145730D01*
X1143090Y1147840D01*
G01X1164740Y1174830D02*
Y1143080D01*
G01X1155690Y1174830D02*
X1173790D01*
G01X1196230Y1143080D02*
X1193080Y1143610D01*
X1190330Y1145730D01*
X1187960Y1148900D01*
X1186390Y1152600D01*
X1185600Y1156840D01*
Y1161070D01*
X1186390Y1165310D01*
X1187960Y1169010D01*
X1190330Y1172180D01*
X1193080Y1174300D01*
X1196230Y1174830D01*
X1199380Y1174300D01*
X1202130Y1172180D01*
X1204500Y1169010D01*
X1206070Y1165310D01*
X1206860Y1161070D01*
Y1156840D01*
X1206070Y1152600D01*
X1204500Y1148900D01*
X1202130Y1145730D01*
X1199380Y1143610D01*
X1196230Y1143080D01*
G01X1219850D02*
Y1174830D01*
X1229690D01*
X1232840Y1173240D01*
X1234810Y1171130D01*
X1235590Y1166890D01*
X1234810Y1162660D01*
X1232440Y1160010D01*
X1229690Y1158430D01*
X1219850D01*
G01X1229690D02*
X1235590Y1143080D01*
G01X1285580Y1153660D02*
X1295820D01*
G01X1362340Y1172180D02*
X1359980Y1173770D01*
X1357220Y1174830D01*
X1354070D01*
X1350530Y1173240D01*
X1347780Y1170600D01*
X1345810Y1167420D01*
X1344230Y1162130D01*
X1343840Y1157370D01*
X1344630Y1152600D01*
X1345810Y1149430D01*
X1348170Y1146250D01*
X1350920Y1144140D01*
X1353680Y1143080D01*
X1356440D01*
X1359190Y1144140D01*
X1361550Y1145730D01*
X1363520Y1147840D01*
G01X1385170Y1143080D02*
X1382020Y1143610D01*
X1379270Y1145730D01*
X1376900Y1148900D01*
X1375330Y1152600D01*
X1374540Y1156840D01*
Y1161070D01*
X1375330Y1165310D01*
X1376900Y1169010D01*
X1379270Y1172180D01*
X1382020Y1174300D01*
X1385170Y1174830D01*
X1388320Y1174300D01*
X1391070Y1172180D01*
X1393440Y1169010D01*
X1395010Y1165310D01*
X1395800Y1161070D01*
Y1156840D01*
X1395010Y1152600D01*
X1393440Y1148900D01*
X1391070Y1145730D01*
X1388320Y1143610D01*
X1385170Y1143080D01*
G01X1408790D02*
Y1174830D01*
X1418230D01*
X1421380Y1173240D01*
X1423750Y1169540D01*
X1424530Y1165310D01*
X1423750Y1161070D01*
X1421780Y1157900D01*
X1418230Y1156310D01*
X1408790D01*
G01X1440280Y1143080D02*
Y1174830D01*
X1449720D01*
X1452870Y1173240D01*
X1455240Y1169540D01*
X1456020Y1165310D01*
X1455240Y1161070D01*
X1453270Y1157900D01*
X1449720Y1156310D01*
X1440280D01*
G01X1487510Y1143080D02*
X1471770D01*
Y1174830D01*
X1487510D01*
G01X1481210Y1159480D02*
X1471770D01*
G01X1503260Y1143080D02*
Y1174830D01*
X1513100D01*
X1516250Y1173240D01*
X1518220Y1171130D01*
X1519000Y1166890D01*
X1518220Y1162660D01*
X1515850Y1160010D01*
X1513100Y1158430D01*
X1503260D01*
G01X1513100D02*
X1519000Y1143080D01*
G01X1574110Y1174830D02*
X1570960Y1173770D01*
X1568600Y1171130D01*
X1567020Y1167950D01*
X1565840Y1163720D01*
X1565450Y1158950D01*
X1565840Y1154190D01*
X1567020Y1149960D01*
X1568600Y1146780D01*
X1570960Y1144140D01*
X1574110Y1143080D01*
X1577260Y1144140D01*
X1579620Y1146780D01*
X1581200Y1149960D01*
X1582380Y1154190D01*
X1582770Y1158950D01*
X1582380Y1163720D01*
X1581200Y1167950D01*
X1579620Y1171130D01*
X1577260Y1173770D01*
X1574110Y1174830D01*
G01X1605600Y1142020D02*
X1604810Y1142550D01*
Y1143610D01*
X1605600Y1144140D01*
X1606390Y1143610D01*
Y1142550D01*
X1605600Y1142020D01*
G01X1637090Y1174830D02*
X1633940Y1173770D01*
X1631580Y1171130D01*
X1630000Y1167950D01*
X1628820Y1163720D01*
X1628430Y1158950D01*
X1628820Y1154190D01*
X1630000Y1149960D01*
X1631580Y1146780D01*
X1633940Y1144140D01*
X1637090Y1143080D01*
X1640240Y1144140D01*
X1642600Y1146780D01*
X1644180Y1149960D01*
X1645360Y1154190D01*
X1645750Y1158950D01*
X1645360Y1163720D01*
X1644180Y1167950D01*
X1642600Y1171130D01*
X1640240Y1173770D01*
X1637090Y1174830D01*
G01X1659920Y1149430D02*
X1662280Y1145730D01*
X1665430Y1143610D01*
X1668970Y1143080D01*
X1672120Y1143610D01*
X1675270Y1146250D01*
X1677240Y1149430D01*
X1677630Y1152600D01*
X1676850Y1156310D01*
X1674090Y1158950D01*
X1671340Y1160010D01*
X1667790D01*
G01X1671340D02*
X1673700Y1161600D01*
X1675670Y1164250D01*
X1676450Y1167420D01*
X1675670Y1170600D01*
X1673700Y1173240D01*
X1670150Y1174830D01*
X1666610Y1174300D01*
X1663070Y1172180D01*
G01X1691410Y1147840D02*
X1693770Y1145200D01*
X1696530Y1143610D01*
X1700070Y1143080D01*
X1703610Y1144140D01*
X1706370Y1146250D01*
X1708340Y1149960D01*
X1708730Y1154190D01*
X1707940Y1158430D01*
X1705970Y1161070D01*
X1703220Y1163190D01*
X1700460Y1163720D01*
X1697710Y1163190D01*
X1694170Y1161070D01*
X1695350Y1174830D01*
X1705970D01*
G01X1752810Y1143080D02*
Y1174830D01*
X1763050Y1148370D01*
X1773290Y1174830D01*
Y1143080D01*
G01X1784300D02*
Y1174830D01*
X1794540Y1148370D01*
X1804780Y1174830D01*
Y1143080D01*
G01X700000Y132520D02*
Y483000D01*
X1928100D01*
Y132520D01*
X700000D01*
G01Y203890D02*
X1928100D01*
G01X727940Y299000D02*
Y330750D01*
X742900D01*
G01X737390Y315400D02*
X727940D01*
G01X762190Y330750D02*
X771630D01*
G01X766910D02*
Y299000D01*
G01X762190D02*
X771630D01*
G01X800760Y314870D02*
X808640D01*
Y305350D01*
X806270Y302170D01*
X803520Y300060D01*
X799580Y299000D01*
X795640Y300060D01*
X792890Y302170D01*
X790530Y305350D01*
X788950Y309050D01*
X788160Y313290D01*
Y316990D01*
X788950Y320170D01*
X790530Y323870D01*
X792890Y327050D01*
X795250Y329160D01*
X798400Y330750D01*
X801160D01*
X804300Y329690D01*
X806670Y327570D01*
G01X821230Y330750D02*
Y308000D01*
X822800Y303230D01*
X825950Y300060D01*
X829890Y299000D01*
X833830Y300060D01*
X836980Y303230D01*
X838550Y308000D01*
Y330750D01*
G01X853510Y299000D02*
Y330750D01*
X863350D01*
X866500Y329160D01*
X868470Y327050D01*
X869250Y322810D01*
X868470Y318580D01*
X866100Y315930D01*
X863350Y314350D01*
X853510D01*
G01X863350D02*
X869250Y299000D01*
G01X900740D02*
X885000D01*
Y330750D01*
X900740D01*
G01X894440Y315400D02*
X885000D01*
G01X700000Y275260D02*
X1928100D01*
G01X700000Y346630D02*
X1928100D01*
G01X700000Y418000D02*
X1928100D01*
G01X879090Y370380D02*
X888930Y402130D01*
X898770Y370380D01*
G01X895230Y381490D02*
X882630D01*
G01X912550Y402130D02*
Y370380D01*
X928290D01*
G01X944040Y402130D02*
Y370380D01*
X959780D01*
G01X1006230Y402130D02*
Y379380D01*
X1007800Y374610D01*
X1010950Y371440D01*
X1014890Y370380D01*
X1018830Y371440D01*
X1021980Y374610D01*
X1023550Y379380D01*
Y402130D01*
G01X1037330Y370380D02*
Y402130D01*
X1055430Y370380D01*
Y402130D01*
G01X1073150D02*
X1082590D01*
G01X1077870D02*
Y370380D01*
G01X1073150D02*
X1082590D01*
G01X1109360Y402130D02*
Y370380D01*
G01X1100310Y402130D02*
X1118410D01*
G01X1132580Y374610D02*
X1135730Y371970D01*
X1139280Y370380D01*
X1142420D01*
X1145570Y371970D01*
X1147940Y374610D01*
X1149120Y378320D01*
X1148330Y382020D01*
X1146360Y385200D01*
X1142820Y387310D01*
X1138090Y388370D01*
X1135340Y390490D01*
X1134160Y394190D01*
X1134950Y397900D01*
X1136910Y400540D01*
X1139670Y402130D01*
X1142420D01*
X1145180Y401070D01*
X1147540Y398430D01*
G01X1193990Y370380D02*
X1203830Y402130D01*
X1213670Y370380D01*
G01X1210130Y381490D02*
X1197530D01*
G01X1227450Y370380D02*
Y402130D01*
X1237290D01*
X1240440Y400540D01*
X1242410Y398430D01*
X1243190Y394190D01*
X1242410Y389960D01*
X1240040Y387310D01*
X1237290Y385730D01*
X1227450D01*
G01X1237290D02*
X1243190Y370380D01*
G01X1274680D02*
X1258940D01*
Y402130D01*
X1274680D01*
G01X1268380Y386780D02*
X1258940D01*
G01X1325070Y402130D02*
X1334510D01*
G01X1329790D02*
Y370380D01*
G01X1325070D02*
X1334510D01*
G01X1352230D02*
Y402130D01*
X1370330Y370380D01*
Y402130D01*
G01X1414020Y370380D02*
Y402130D01*
X1424260Y375670D01*
X1434500Y402130D01*
Y370380D01*
G01X1451030Y402130D02*
X1460470D01*
G01X1455750D02*
Y370380D01*
G01X1451030D02*
X1460470D01*
G01X1479370Y402130D02*
Y370380D01*
X1495110D01*
G01X1510860Y402130D02*
Y370380D01*
X1526600D01*
G01X1545500Y402130D02*
X1554940D01*
G01X1550220D02*
Y370380D01*
G01X1545500D02*
X1554940D01*
G01X1571470D02*
Y402130D01*
X1581710Y375670D01*
X1591950Y402130D01*
Y370380D01*
G01X1621070D02*
X1605330D01*
Y402130D01*
X1621070D01*
G01X1614770Y386780D02*
X1605330D01*
G01X1644690Y402130D02*
Y370380D01*
G01X1635640Y402130D02*
X1653740D01*
G01X1684050Y370380D02*
X1668310D01*
Y402130D01*
X1684050D01*
G01X1677750Y386780D02*
X1668310D01*
G01X1699800Y370380D02*
Y402130D01*
X1709640D01*
X1712790Y400540D01*
X1714760Y398430D01*
X1715540Y394190D01*
X1714760Y389960D01*
X1712390Y387310D01*
X1709640Y385730D01*
X1699800D01*
G01X1709640D02*
X1715540Y370380D01*
G01X1730890Y374610D02*
X1734040Y371970D01*
X1737590Y370380D01*
X1740730D01*
X1743880Y371970D01*
X1746250Y374610D01*
X1747430Y378320D01*
X1746640Y382020D01*
X1744670Y385200D01*
X1741130Y387310D01*
X1736400Y388370D01*
X1733650Y390490D01*
X1732470Y394190D01*
X1733260Y397900D01*
X1735220Y400540D01*
X1737980Y402130D01*
X1740730D01*
X1743490Y401070D01*
X1745850Y398430D01*
G01X928300Y346630D02*
Y132520D01*
G01X911760Y435380D02*
Y467130D01*
X919630D01*
X922780Y465540D01*
X925140Y463430D01*
X927110Y460250D01*
X928690Y456550D01*
X929080Y451250D01*
X928690Y445960D01*
X927110Y442260D01*
X925140Y439080D01*
X922780Y436970D01*
X919630Y435380D01*
X911760D01*
G01X944040D02*
Y467130D01*
X953880D01*
X957030Y465540D01*
X959000Y463430D01*
X959780Y459190D01*
X959000Y454960D01*
X956630Y452310D01*
X953880Y450730D01*
X944040D01*
G01X953880D02*
X959780Y435380D01*
G01X978680Y467130D02*
X988120D01*
G01X983400D02*
Y435380D01*
G01X978680D02*
X988120D01*
G01X1007020Y467130D02*
Y435380D01*
X1022760D01*
G01X1038510Y467130D02*
Y435380D01*
X1054250D01*
G01X1118020Y464480D02*
X1115660Y466070D01*
X1112900Y467130D01*
X1109750D01*
X1106210Y465540D01*
X1103460Y462900D01*
X1101490Y459720D01*
X1099910Y454430D01*
X1099520Y449670D01*
X1100310Y444900D01*
X1101490Y441730D01*
X1103850Y438550D01*
X1106600Y436440D01*
X1109360Y435380D01*
X1112120D01*
X1114870Y436440D01*
X1117230Y438030D01*
X1119200Y440140D01*
G01X1132580Y435380D02*
Y467130D01*
G01X1149120D02*
Y435380D01*
G01Y451250D02*
X1132580D01*
G01X1162500Y435380D02*
X1172340Y467130D01*
X1182180Y435380D01*
G01X1178640Y446490D02*
X1166040D01*
G01X1195960Y435380D02*
Y467130D01*
X1205800D01*
X1208950Y465540D01*
X1210920Y463430D01*
X1211700Y459190D01*
X1210920Y454960D01*
X1208550Y452310D01*
X1205800Y450730D01*
X1195960D01*
G01X1205800D02*
X1211700Y435380D01*
G01X1235320Y467130D02*
Y435380D01*
G01X1226270Y467130D02*
X1244370D01*
G01X1266810Y434320D02*
X1266020Y434850D01*
Y435910D01*
X1266810Y436440D01*
X1267600Y435910D01*
Y434850D01*
X1266810Y434320D01*
G01Y448610D02*
X1266020Y449140D01*
Y450200D01*
X1266810Y450730D01*
X1267600Y450200D01*
Y449140D01*
X1266810Y448610D01*
G01X1329790Y467130D02*
Y435380D01*
G01X1320740Y467130D02*
X1338840D01*
G01X1361280Y435380D02*
X1358130Y435910D01*
X1355380Y438030D01*
X1353010Y441200D01*
X1351440Y444900D01*
X1350650Y449140D01*
Y453370D01*
X1351440Y457610D01*
X1353010Y461310D01*
X1355380Y464480D01*
X1358130Y466600D01*
X1361280Y467130D01*
X1364430Y466600D01*
X1367180Y464480D01*
X1369550Y461310D01*
X1371120Y457610D01*
X1371910Y453370D01*
Y449140D01*
X1371120Y444900D01*
X1369550Y441200D01*
X1367180Y438030D01*
X1364430Y435910D01*
X1361280Y435380D01*
G01X1384900D02*
Y467130D01*
X1394340D01*
X1397490Y465540D01*
X1399860Y461840D01*
X1400640Y457610D01*
X1399860Y453370D01*
X1397890Y450200D01*
X1394340Y448610D01*
X1384900D01*
G01X1455750Y467130D02*
Y435380D01*
G01X1450240Y456550D02*
X1461260D01*
G01X1487240Y435380D02*
X1484880Y435910D01*
X1482520Y438030D01*
X1480940Y441730D01*
X1480150Y445960D01*
X1480940Y450200D01*
X1482520Y453900D01*
X1484880Y456020D01*
X1487240Y456550D01*
X1489600Y456020D01*
X1491960Y453900D01*
X1493540Y450200D01*
X1493930Y445960D01*
X1493540Y441730D01*
X1491960Y438030D01*
X1489600Y435910D01*
X1487240Y435380D01*
G01X1553370Y452310D02*
X1554940Y453900D01*
X1556120Y456550D01*
X1556910Y460250D01*
X1556120Y463430D01*
X1554550Y465540D01*
X1551790Y467130D01*
X1541170D01*
Y435380D01*
X1554160D01*
X1556910Y437500D01*
X1558490Y440670D01*
X1559270Y444380D01*
X1558490Y448080D01*
X1556120Y451250D01*
X1553370Y452310D01*
X1541170D01*
G01X1581710Y435380D02*
X1578560Y435910D01*
X1575810Y438030D01*
X1573440Y441200D01*
X1571870Y444900D01*
X1571080Y449140D01*
Y453370D01*
X1571870Y457610D01*
X1573440Y461310D01*
X1575810Y464480D01*
X1578560Y466600D01*
X1581710Y467130D01*
X1584860Y466600D01*
X1587610Y464480D01*
X1589980Y461310D01*
X1591550Y457610D01*
X1592340Y453370D01*
Y449140D01*
X1591550Y444900D01*
X1589980Y441200D01*
X1587610Y438030D01*
X1584860Y435910D01*
X1581710Y435380D01*
G01X1613200Y467130D02*
Y435380D01*
G01X1604150Y467130D02*
X1622250D01*
G01X1644690D02*
Y435380D01*
G01X1635640Y467130D02*
X1653740D01*
G01X1676180Y435380D02*
X1673030Y435910D01*
X1670280Y438030D01*
X1667910Y441200D01*
X1666340Y444900D01*
X1665550Y449140D01*
Y453370D01*
X1666340Y457610D01*
X1667910Y461310D01*
X1670280Y464480D01*
X1673030Y466600D01*
X1676180Y467130D01*
X1679330Y466600D01*
X1682080Y464480D01*
X1684450Y461310D01*
X1686020Y457610D01*
X1686810Y453370D01*
Y449140D01*
X1686020Y444900D01*
X1684450Y441200D01*
X1682080Y438030D01*
X1679330Y435910D01*
X1676180Y435380D01*
G01X1697430D02*
Y467130D01*
X1707670Y440670D01*
X1717910Y467130D01*
Y435380D01*
G01X1105430Y152330D02*
Y184080D01*
X1100710Y177730D01*
G01Y152330D02*
X1110150D01*
G01X1136920Y151270D02*
X1136130Y151800D01*
Y152860D01*
X1136920Y153390D01*
X1137710Y152860D01*
Y151800D01*
X1136920Y151270D01*
G01X1159750Y157090D02*
X1162110Y154450D01*
X1164870Y152860D01*
X1168410Y152330D01*
X1171950Y153390D01*
X1174710Y155500D01*
X1176680Y159210D01*
X1177070Y163440D01*
X1176280Y167680D01*
X1174310Y170320D01*
X1171560Y172440D01*
X1168800Y172970D01*
X1166050Y172440D01*
X1162510Y170320D01*
X1163690Y184080D01*
X1174310D01*
G01X1199900D02*
X1196750Y183020D01*
X1194390Y180380D01*
X1192810Y177200D01*
X1191630Y172970D01*
X1191240Y168200D01*
X1191630Y163440D01*
X1192810Y159210D01*
X1194390Y156030D01*
X1196750Y153390D01*
X1199900Y152330D01*
X1203050Y153390D01*
X1205410Y156030D01*
X1206990Y159210D01*
X1208170Y163440D01*
X1208560Y168200D01*
X1208170Y172970D01*
X1206990Y177200D01*
X1205410Y180380D01*
X1203050Y183020D01*
X1199900Y184080D01*
G01X1231390Y152330D02*
Y184080D01*
X1226670Y177730D01*
G01Y152330D02*
X1236110D01*
G01X1112900Y303230D02*
X1116050Y300590D01*
X1119600Y299000D01*
X1122740D01*
X1125890Y300590D01*
X1128260Y303230D01*
X1129440Y306940D01*
X1128650Y310640D01*
X1126680Y313820D01*
X1123140Y315930D01*
X1118410Y316990D01*
X1115660Y319110D01*
X1114480Y322810D01*
X1115270Y326520D01*
X1117230Y329160D01*
X1119990Y330750D01*
X1122740D01*
X1125500Y329690D01*
X1127860Y327050D01*
G01X1147940Y330750D02*
X1157380D01*
G01X1152660D02*
Y299000D01*
G01X1147940D02*
X1157380D01*
G01X1176670Y330750D02*
X1191630D01*
X1176670Y299000D01*
X1191630D01*
G01X1223510D02*
X1207770D01*
Y330750D01*
X1223510D01*
G01X1217210Y315400D02*
X1207770D01*
G01X1136920Y255450D02*
X1133770Y254390D01*
X1131410Y251750D01*
X1129830Y248570D01*
X1128650Y244340D01*
X1128260Y239570D01*
X1128650Y234810D01*
X1129830Y230580D01*
X1131410Y227400D01*
X1133770Y224760D01*
X1136920Y223700D01*
X1140070Y224760D01*
X1142430Y227400D01*
X1144010Y230580D01*
X1145190Y234810D01*
X1145580Y239570D01*
X1145190Y244340D01*
X1144010Y248570D01*
X1142430Y251750D01*
X1140070Y254390D01*
X1136920Y255450D01*
G01X1168410Y222640D02*
X1167620Y223170D01*
Y224230D01*
X1168410Y224760D01*
X1169200Y224230D01*
Y223170D01*
X1168410Y222640D01*
G01X1192420Y250160D02*
X1194780Y253330D01*
X1197540Y254920D01*
X1200690Y255450D01*
X1204620Y254390D01*
X1207380Y251750D01*
X1208170Y248570D01*
X1207770Y245400D01*
X1206200Y242750D01*
X1198330Y237460D01*
X1194780Y233750D01*
X1192420Y228460D01*
X1191630Y223700D01*
X1208170D01*
G01X1408520Y346630D02*
Y132520D01*
G01X1419140Y152330D02*
Y184080D01*
X1437240Y152330D01*
Y184080D01*
G01X1459680Y152330D02*
X1456530Y152860D01*
X1453780Y154980D01*
X1451410Y158150D01*
X1449840Y161850D01*
X1449050Y166090D01*
Y170320D01*
X1449840Y174560D01*
X1451410Y178260D01*
X1453780Y181430D01*
X1456530Y183550D01*
X1459680Y184080D01*
X1462830Y183550D01*
X1465580Y181430D01*
X1467950Y178260D01*
X1469520Y174560D01*
X1470310Y170320D01*
Y166090D01*
X1469520Y161850D01*
X1467950Y158150D01*
X1465580Y154980D01*
X1462830Y152860D01*
X1459680Y152330D01*
G01X1482120D02*
Y184080D01*
X1500220Y152330D01*
Y184080D01*
G01X1517540Y162910D02*
X1527780D01*
G01X1546280Y152330D02*
Y184080D01*
X1555720D01*
X1558870Y182490D01*
X1561240Y178790D01*
X1562020Y174560D01*
X1561240Y170320D01*
X1559270Y167150D01*
X1555720Y165560D01*
X1546280D01*
G01X1577770Y184080D02*
Y152330D01*
X1593510D01*
G01X1607290D02*
X1617130Y184080D01*
X1626970Y152330D01*
G01X1623430Y163440D02*
X1610830D01*
G01X1648620Y184080D02*
Y152330D01*
G01X1639570Y184080D02*
X1657670D01*
G01X1687980Y152330D02*
X1672240D01*
Y184080D01*
X1687980D01*
G01X1681680Y168730D02*
X1672240D01*
G01X1702940Y152330D02*
Y184080D01*
X1710810D01*
X1713960Y182490D01*
X1716320Y180380D01*
X1718290Y177200D01*
X1719870Y173500D01*
X1720260Y168200D01*
X1719870Y162910D01*
X1718290Y159210D01*
X1716320Y156030D01*
X1713960Y153920D01*
X1710810Y152330D01*
X1702940D01*
G01X1483300Y223700D02*
Y255450D01*
X1492740D01*
X1495890Y253860D01*
X1498260Y250160D01*
X1499040Y245930D01*
X1498260Y241690D01*
X1496290Y238520D01*
X1492740Y236930D01*
X1483300D01*
G01X1514790Y255450D02*
Y223700D01*
X1530530D01*
G01X1544310D02*
X1554150Y255450D01*
X1563990Y223700D01*
G01X1560450Y234810D02*
X1547850D01*
G01X1585640Y255450D02*
Y223700D01*
G01X1576590Y255450D02*
X1594690D01*
G01X1625000Y223700D02*
X1609260D01*
Y255450D01*
X1625000D01*
G01X1618700Y240100D02*
X1609260D01*
G01X1639960Y223700D02*
Y255450D01*
X1647830D01*
X1650980Y253860D01*
X1653340Y251750D01*
X1655310Y248570D01*
X1656890Y244870D01*
X1657280Y239570D01*
X1656890Y234280D01*
X1655310Y230580D01*
X1653340Y227400D01*
X1650980Y225290D01*
X1647830Y223700D01*
X1639960D01*
G01X1483300Y299000D02*
Y330750D01*
X1492740D01*
X1495890Y329160D01*
X1498260Y325460D01*
X1499040Y321230D01*
X1498260Y316990D01*
X1496290Y313820D01*
X1492740Y312230D01*
X1483300D01*
G01X1514790Y330750D02*
Y299000D01*
X1530530D01*
G01X1544310D02*
X1554150Y330750D01*
X1563990Y299000D01*
G01X1560450Y310110D02*
X1547850D01*
G01X1585640Y330750D02*
Y299000D01*
G01X1576590Y330750D02*
X1594690D01*
G01X1625000Y299000D02*
X1609260D01*
Y330750D01*
X1625000D01*
G01X1618700Y315400D02*
X1609260D01*
G01X1639960Y299000D02*
Y330750D01*
X1647830D01*
X1650980Y329160D01*
X1653340Y327050D01*
X1655310Y323870D01*
X1656890Y320170D01*
X1657280Y314870D01*
X1656890Y309580D01*
X1655310Y305880D01*
X1653340Y302700D01*
X1650980Y300590D01*
X1647830Y299000D01*
X1639960D01*
G01X1731290Y346630D02*
Y132520D01*
G01X1790730Y250160D02*
X1793090Y253330D01*
X1795850Y254920D01*
X1799000Y255450D01*
X1802930Y254390D01*
X1805690Y251750D01*
X1806480Y248570D01*
X1806080Y245400D01*
X1804510Y242750D01*
X1796640Y237460D01*
X1793090Y233750D01*
X1790730Y228460D01*
X1789940Y223700D01*
X1806480D01*
G01X1828910D02*
X1829700Y230580D01*
X1830880Y236400D01*
X1832460Y241690D01*
X1834420Y247510D01*
X1837570Y255450D01*
X1821830D01*
G01X1852530Y230050D02*
X1854890Y226350D01*
X1858040Y224230D01*
X1861580Y223700D01*
X1864730Y224230D01*
X1867880Y226870D01*
X1869850Y230050D01*
X1870240Y233220D01*
X1869460Y236930D01*
X1866700Y239570D01*
X1863950Y240630D01*
X1860400D01*
G01X1863950D02*
X1866310Y242220D01*
X1868280Y244870D01*
X1869060Y248040D01*
X1868280Y251220D01*
X1866310Y253860D01*
X1862760Y255450D01*
X1859220Y254920D01*
X1855680Y252800D01*
G01X1798210Y299000D02*
X1795060Y299530D01*
X1792310Y301650D01*
X1789940Y304820D01*
X1788370Y308520D01*
X1787580Y312760D01*
Y316990D01*
X1788370Y321230D01*
X1789940Y324930D01*
X1792310Y328100D01*
X1795060Y330220D01*
X1798210Y330750D01*
X1801360Y330220D01*
X1804110Y328100D01*
X1806480Y324930D01*
X1808050Y321230D01*
X1808840Y316990D01*
Y312760D01*
X1808050Y308520D01*
X1806480Y304820D01*
X1804110Y301650D01*
X1801360Y299530D01*
X1798210Y299000D01*
G01X1801360Y307470D02*
X1806080Y299000D01*
G01X1829700Y330750D02*
Y299000D01*
G01X1820650Y330750D02*
X1838750D01*
G01X1861190Y299000D02*
Y313290D01*
X1853320Y330750D01*
G01X1869060D02*
X1861190Y313290D01*
G01X1834420Y152330D02*
Y184080D01*
X1819860Y161330D01*
X1839540D01*
M02*
