G04 ================== begin FILE IDENTIFICATION RECORD ==================*
G04 Layout Name:  CC2541EM.brd*
G04 Film Name:    Layer1*
G04 File Format:  Gerber RS274X*
G04 File Origin:  Cadence Allegro 16.5-P002*
G04 Origin Date:  Fri Apr 12 14:10:24 2013*
G04 *
G04 Layer:  BOARD GEOMETRY/OUTLINE*
G04 Layer:  VIA CLASS/TOP*
G04 Layer:  PIN/TOP*
G04 Layer:  ETCH/TOP*
G04 *
G04 Offset:    (0.000 0.000)*
G04 Mirror:    No*
G04 Mode:      Positive*
G04 Rotation:  0*
G04 FullContactRelief:  No*
G04 UndefLineWidth:     0.020*
G04 ================== end FILE IDENTIFICATION RECORD ====================*
%FSLAX44Y44*MOMM*%
%IR0*IPPOS*OFA0.00000B0.00000*MIA0B0*SFA1.00000B1.00000*%
%ADD21R,1.X.5*%
%AMMACRO33*
4,1,40,.275,.135,
.275,-.135,
.272949,-.158443,
.266859,-.181173,
.256913,-.2025,
.243416,-.221776,
.226776,-.238416,
.2075,-.251913,
.186173,-.261859,
.163443,-.267949,
.14,-.27,
-.14,-.27,
-.163443,-.267949,
-.186173,-.261859,
-.2075,-.251913,
-.226776,-.238416,
-.243416,-.221776,
-.256913,-.2025,
-.266859,-.181173,
-.272949,-.158443,
-.275,-.135,
-.275,.135,
-.272949,.158443,
-.266859,.181173,
-.256913,.2025,
-.243416,.221776,
-.226776,.238416,
-.2075,.251913,
-.186173,.261859,
-.163443,.267949,
-.14,.27,
.14,.27,
.163443,.267949,
.186173,.261859,
.2075,.251913,
.226776,.238416,
.243416,.221776,
.256913,.2025,
.266859,.181173,
.272949,.158443,
.275,.135,
0.0*
%
%ADD33MACRO33*%
%AMMACRO46*
4,1,40,.135,-.275,
-.135,-.275,
-.158443,-.272949,
-.181173,-.266859,
-.2025,-.256913,
-.221776,-.243416,
-.238416,-.226776,
-.251913,-.2075,
-.261859,-.186173,
-.267949,-.163443,
-.27,-.14,
-.27,.14,
-.267949,.163443,
-.261859,.186173,
-.251913,.2075,
-.238416,.226776,
-.221776,.243416,
-.2025,.256913,
-.181173,.266859,
-.158443,.272949,
-.135,.275,
.135,.275,
.158443,.272949,
.181173,.266859,
.2025,.256913,
.221776,.243416,
.238416,.226776,
.251913,.2075,
.261859,.186173,
.267949,.163443,
.27,.14,
.27,-.14,
.267949,-.163443,
.261859,-.186173,
.251913,-.2075,
.238416,-.226776,
.221776,-.243416,
.2025,-.256913,
.181173,-.266859,
.158443,-.272949,
.135,-.275,
0.0*
%
%ADD46MACRO46*%
%AMMACRO20*
4,1,42,.135,-.275,
-.135,-.275,
-.158442,-.272955,
-.181172,-.266863,
-.202499,-.256917,
-.221775,-.243418,
-.238413,-.226778,
-.25191,-.207501,
-.261854,-.186173,
-.267943,-.163442,
-.27,-.14,
-.27,.14,
-.267955,.163442,
-.261863,.186172,
-.251917,.207499,
-.238419,.226775,
-.221778,.243413,
-.202501,.25691,
-.181173,.266854,
-.158443,.272943,
-.135,.274993,
-.135,.275,
.135,.275,
.158442,.272955,
.181172,.266863,
.202499,.256917,
.221775,.243418,
.238413,.226778,
.25191,.207501,
.261854,.186173,
.267943,.163442,
.27,.14,
.27,-.14,
.267955,-.163442,
.261863,-.186172,
.251917,-.207499,
.238419,-.226775,
.221778,-.243413,
.202501,-.25691,
.181173,-.266854,
.158443,-.272943,
.135,-.274993,
.135,-.275,
0.0*
%
%ADD20MACRO20*%
%AMMACRO26*
4,1,42,.136,-.274,
-.134,-.276,
-.157451,-.27354,
-.180202,-.267528,
-.201564,-.257657,
-.220887,-.244226,
-.237584,-.227644,
-.251148,-.208414,
-.261167,-.187122,
-.267336,-.164413,
-.269,-.141,
-.271,.139,
-.268562,.162451,
-.262553,.185203,
-.252685,.206566,
-.239257,.225891,
-.222677,.242591,
-.20345,.256157,
-.182158,.266179,
-.15945,.272351,
-.136015,.274487,
-.136,.274,
.134,.276,
.157451,.27354,
.180202,.267528,
.201564,.257657,
.220887,.244226,
.237584,.227644,
.251148,.208414,
.261167,.187122,
.267336,.164413,
.269,.141,
.271,-.139,
.268562,-.162451,
.262553,-.185203,
.252685,-.206566,
.239257,-.225891,
.222677,-.242591,
.20345,-.256157,
.182158,-.266179,
.15945,-.272351,
.136015,-.274487,
.136,-.274,
0.0*
%
%ADD26MACRO26*%
%ADD17C,1.801*%
%AMMACRO43*
4,1,42,.275,.135,
.275,-.135,
.273097,-.15844,
.266975,-.181162,
.257,-.202475,
.243476,-.221732,
.226813,-.238349,
.207518,-.251819,
.186177,-.261735,
.163438,-.267793,
.14,-.27,
-.14,-.27,
-.16344,-.268105,
-.186162,-.261984,
-.207476,-.25201,
-.226734,-.238487,
-.243351,-.221825,
-.256823,-.202531,
-.266739,-.18119,
-.272799,-.158451,
-.274818,-.135006,
-.275,-.135,
-.275,.135,
-.273097,.15844,
-.266975,.181162,
-.257,.202475,
-.243476,.221732,
-.226813,.238349,
-.207518,.251819,
-.186177,.261735,
-.163438,.267793,
-.14,.27,
.14,.27,
.16344,.268105,
.186162,.261984,
.207476,.25201,
.226734,.238487,
.243351,.221825,
.256823,.202531,
.266739,.18119,
.272799,.158451,
.274818,.135006,
.275,.135,
0.0*
%
%ADD43MACRO43*%
%ADD27R,4.6X4.6*%
%ADD12C,.099*%
%AMMACRO40*
4,1,42,.276,.133,
.274,-.137,
.271723,-.160428,
.26548,-.183117,
.255393,-.204377,
.241767,-.223563,
.225017,-.240091,
.205651,-.253459,
.184257,-.263262,
.161487,-.2692,
.138031,-.271095,
.138,-.271,
-.142,-.269,
-.165427,-.266676,
-.188114,-.260427,
-.209372,-.250334,
-.228553,-.236702,
-.245077,-.219947,
-.258439,-.200577,
-.268236,-.179181,
-.274168,-.156409,
-.276,-.133,
-.274,.137,
-.271723,.160428,
-.26548,.183117,
-.255393,.204377,
-.241767,.223563,
-.225017,.240091,
-.205651,.253459,
-.184257,.263262,
-.161487,.2692,
-.138031,.271095,
-.138,.271,
.142,.269,
.165427,.266676,
.188114,.260427,
.209372,.250334,
.228553,.236702,
.245077,.219947,
.258439,.200577,
.268236,.179181,
.274168,.156409,
.276,.133,
0.0*
%
%ADD40MACRO40*%
%AMMACRO14*
4,1,41,.701,0.0,
.701,.175,
.698278,.205441,
.690312,.234948,
.677343,.262622,
.659765,.287624,
.638113,.309194,
.613044,.326677,
.58532,.33954,
.555784,.347394,
.526,.35,
-.526,.35,
-.556441,.347278,
-.585948,.339312,
-.613622,.326343,
-.638624,.308765,
-.660194,.287113,
-.677677,.262044,
-.69054,.23432,
-.698394,.204784,
-.701,.175,
-.701,-.175,
-.698278,-.205441,
-.690312,-.234948,
-.677343,-.262622,
-.659765,-.287624,
-.638113,-.309194,
-.613044,-.326677,
-.58532,-.33954,
-.555784,-.347394,
-.526,-.35,
.526,-.35,
.556441,-.347278,
.585948,-.339312,
.613622,-.326343,
.638624,-.308765,
.660194,-.287113,
.677677,-.262044,
.69054,-.23432,
.698394,-.204784,
.701,-.175,
.701,0.0,
0.0*
%
%ADD14MACRO14*%
%ADD11O,1.X1.*%
%AMMACRO28*
4,1,40,-.135,.275,
.135,.275,
.158443,.272949,
.181173,.266859,
.2025,.256913,
.221776,.243416,
.238416,.226776,
.251913,.2075,
.261859,.186173,
.267949,.163443,
.27,.14,
.27,-.14,
.267949,-.163443,
.261859,-.186173,
.251913,-.2075,
.238416,-.226776,
.221776,-.243416,
.2025,-.256913,
.181173,-.266859,
.158443,-.272949,
.135,-.275,
-.135,-.275,
-.158443,-.272949,
-.181173,-.266859,
-.2025,-.256913,
-.221776,-.243416,
-.238416,-.226776,
-.251913,-.2075,
-.261859,-.186173,
-.267949,-.163443,
-.27,-.14,
-.27,.14,
-.267949,.163443,
-.261859,.186173,
-.251913,.2075,
-.238416,.226776,
-.221776,.243416,
-.2025,.256913,
-.181173,.266859,
-.158443,.272949,
-.135,.275,
0.0*
%
%ADD28MACRO28*%
%AMMACRO35*
4,1,42,-.135,.275,
.135,.275,
.15844,.273065,
.181164,.26695,
.20248,.256981,
.221742,.243463,
.238364,.226805,
.25184,.207514,
.261762,.186176,
.267828,.163439,
.27,.14,
.27,-.14,
.268071,-.16344,
.261957,-.186164,
.251989,-.207481,
.238471,-.226743,
.221814,-.243366,
.202524,-.256843,
.181186,-.266765,
.15845,-.272832,
.135005,-.274858,
.135,-.275,
-.135,-.275,
-.15844,-.273065,
-.181164,-.26695,
-.20248,-.256981,
-.221742,-.243463,
-.238364,-.226805,
-.25184,-.207514,
-.261762,-.186176,
-.267828,-.163439,
-.27,-.14,
-.27,.14,
-.268071,.16344,
-.261957,.186164,
-.251989,.207481,
-.238471,.226743,
-.221814,.243366,
-.202524,.256843,
-.181186,.266765,
-.15845,.272832,
-.135005,.274858,
-.135,.275,
0.0*
%
%ADD35MACRO35*%
%ADD23O,.8X.3*%
%ADD24O,.3X.8*%
%AMMACRO18*
4,1,42,-.275,-.136,
-.275,.134,
-.273517,.157448,
-.267511,.180201,
-.257645,.201565,
-.244219,.220891,
-.227641,.237592,
-.208415,.251161,
-.187124,.261185,
-.164417,.26736,
-.141,.269,
.139,.27,
.162448,.268538,
.185202,.262535,
.206567,.252672,
.225895,.239248,
.242598,.222673,
.25617,.203448,
.266196,.182159,
.272374,.159453,
.274515,.136018,
.275,.136,
.275,-.134,
.273517,-.157448,
.267511,-.180201,
.257645,-.201565,
.244219,-.220891,
.227641,-.237592,
.208415,-.251161,
.187124,-.261185,
.164417,-.26736,
.141,-.269,
-.139,-.27,
-.162448,-.268538,
-.185202,-.262535,
-.206567,-.252672,
-.225895,-.239248,
-.242598,-.222673,
-.25617,-.203448,
-.266196,-.182159,
-.272374,-.159453,
-.274515,-.136018,
-.275,-.136,
0.0*
%
%ADD18MACRO18*%
%AMMACRO36*
4,1,42,-.136,.275,
.134,.275,
.157452,.273345,
.180214,.267375,
.201594,.257544,
.220942,.244149,
.237669,.227598,
.251269,.208394,
.261328,.18712,
.267539,.164422,
.27,.141,
.27,-.139,
.268357,-.162452,
.262389,-.185214,
.252559,-.206595,
.239166,-.225944,
.222616,-.242673,
.203413,-.256274,
.182139,-.266334,
.159442,-.272547,
.136011,-.274724,
.136,-.275,
-.134,-.275,
-.157452,-.273345,
-.180214,-.267375,
-.201594,-.257544,
-.220942,-.244149,
-.237669,-.227598,
-.251269,-.208394,
-.261328,-.18712,
-.267539,-.164422,
-.27,-.141,
-.27,.139,
-.268357,.162452,
-.262389,.185214,
-.252559,.206595,
-.239166,.225944,
-.222616,.242673,
-.203413,.256274,
-.182139,.266334,
-.159442,.272547,
-.136011,.274724,
-.136,.275,
0.0*
%
%ADD36MACRO36*%
%AMMACRO19*
4,1,42,-.274,-.136,
-.276,.134,
-.273588,.15745,
-.267566,.180198,
-.257685,.201555,
-.244246,.220872,
-.227656,.237562,
-.20842,.251117,
-.187123,.261126,
-.164411,.267285,
-.141,.269,
.139,.271,
.16245,.268613,
.1852,.262594,
.206558,.252717,
.225877,.23928,
.242569,.222693,
.256128,.20346,
.26614,.182164,
.272303,.159453,
.274428,.136017,
.274,.136,
.276,-.134,
.273588,-.15745,
.267566,-.180198,
.257685,-.201555,
.244246,-.220872,
.227656,-.237562,
.20842,-.251117,
.187123,-.261126,
.164411,-.267285,
.141,-.269,
-.139,-.271,
-.16245,-.268613,
-.1852,-.262594,
-.206558,-.252717,
-.225877,-.23928,
-.242569,-.222693,
-.256128,-.20346,
-.26614,-.182164,
-.272303,-.159453,
-.274428,-.136017,
-.274,-.136,
0.0*
%
%ADD19MACRO19*%
%AMMACRO45*
4,1,42,.198,.451,
-.204,.449,
-.238616,.445223,
-.272086,.435677,
-.30339,.420464,
-.331576,.400046,
-.355789,.375045,
-.375292,.346218,
-.389494,.314443,
-.397962,.280684,
-.4,.247,
-.398,-.251,
-.39459,-.285681,
-.385666,-.319322,
-.371035,-.350902,
-.351144,-.379462,
-.326595,-.404134,
-.298134,-.424168,
-.266627,-.438956,
-.233031,-.448048,
-.198367,-.451168,
-.198,-.451,
.204,-.449,
.238616,-.445223,
.272086,-.435677,
.30339,-.420464,
.331576,-.400046,
.355789,-.375045,
.375292,-.346218,
.389494,-.314443,
.397962,-.280684,
.4,-.247,
.398,.251,
.39459,.285681,
.385666,.319322,
.371035,.350902,
.351144,.379462,
.326595,.404134,
.298134,.424168,
.266627,.438956,
.233031,.448048,
.198367,.451168,
.198,.451,
0.0*
%
%ADD45MACRO45*%
%AMMACRO25*
4,1,42,.135,-.275,
-.135,-.275,
-.15844,-.273069,
-.181164,-.266953,
-.20248,-.256983,
-.221741,-.243464,
-.238362,-.226806,
-.251838,-.207515,
-.261759,-.186176,
-.267824,-.163439,
-.27,-.14,
-.27,.14,
-.268075,.16344,
-.26196,.186164,
-.251992,.207481,
-.238473,.226742,
-.221816,.243364,
-.202525,.25684,
-.181187,.266762,
-.15845,.272828,
-.135005,.274854,
-.135,.275,
.135,.275,
.15844,.273069,
.181164,.266953,
.20248,.256983,
.221741,.243464,
.238362,.226806,
.251838,.207515,
.261759,.186176,
.267824,.163439,
.27,.14,
.27,-.14,
.268075,-.16344,
.26196,-.186164,
.251992,-.207481,
.238473,-.226742,
.221816,-.243364,
.202525,-.25684,
.181187,-.266762,
.15845,-.272828,
.135005,-.274854,
.135,-.275,
0.0*
%
%ADD25MACRO25*%
%AMMACRO22*
4,1,42,.135,-.275,
-.135,-.275,
-.158441,-.273022,
-.181167,-.266916,
-.202488,-.256956,
-.221755,-.243446,
-.238383,-.226795,
-.251867,-.207509,
-.261797,-.186175,
-.267872,-.16344,
-.27,-.14,
-.27,.14,
-.268026,.163441,
-.261921,.186167,
-.251961,.207488,
-.238451,.226755,
-.2218,.243384,
-.202515,.256869,
-.181181,.2668,
-.158447,.272875,
-.135003,.27491,
-.135,.275,
.135,.275,
.158441,.273022,
.181167,.266916,
.202488,.256956,
.221755,.243446,
.238383,.226795,
.251867,.207509,
.261797,.186175,
.267872,.16344,
.27,.14,
.27,-.14,
.268026,-.163441,
.261921,-.186167,
.251961,-.207488,
.238451,-.226755,
.2218,-.243384,
.202515,-.256869,
.181181,-.2668,
.158447,-.272875,
.135003,-.27491,
.135,-.275,
0.0*
%
%ADD22MACRO22*%
%ADD10C,.5*%
%ADD39R,.46X.5*%
%AMMACRO30*
4,1,42,-.275,-.135,
-.275,.135,
-.273101,.15844,
-.266978,.181161,
-.257003,.202474,
-.243478,.221731,
-.226814,.238347,
-.207518,.251817,
-.186177,.261731,
-.163438,.267789,
-.14,.27,
.14,.27,
.16344,.268109,
.186162,.261987,
.207475,.252013,
.226733,.238489,
.24335,.221826,
.25682,.202531,
.266736,.18119,
.272795,.158452,
.274814,.135006,
.275,.135,
.275,-.135,
.273101,-.15844,
.266978,-.181161,
.257003,-.202474,
.243478,-.221731,
.226814,-.238347,
.207518,-.251817,
.186177,-.261731,
.163438,-.267789,
.14,-.27,
-.14,-.27,
-.16344,-.268109,
-.186162,-.261987,
-.207475,-.252013,
-.226733,-.238489,
-.24335,-.221826,
-.25682,-.202531,
-.266736,-.18119,
-.272795,-.158452,
-.274814,-.135006,
-.275,-.135,
0.0*
%
%ADD30MACRO30*%
%AMMACRO34*
4,1,42,-.135,.275,
.135,.275,
.158445,.272814,
.181183,.266752,
.202523,.256834,
.221816,.243361,
.238477,.226742,
.251999,.207483,
.261971,.186168,
.26809,.163446,
.270171,.140006,
.27,.14,
.27,-.14,
.267806,-.163445,
.261744,-.186183,
.251825,-.207522,
.238351,-.226815,
.221731,-.243475,
.202471,-.256996,
.181156,-.266967,
.158433,-.273085,
.135,-.275,
-.135,-.275,
-.158445,-.272814,
-.181183,-.266752,
-.202523,-.256834,
-.221816,-.243361,
-.238477,-.226742,
-.251999,-.207483,
-.261971,-.186168,
-.26809,-.163446,
-.270171,-.140006,
-.27,-.14,
-.27,.14,
-.267806,.163445,
-.261744,.186183,
-.251825,.207522,
-.238351,.226815,
-.221731,.243475,
-.202471,.256996,
-.181156,.266967,
-.158433,.273085,
-.135,.275,
0.0*
%
%ADD34MACRO34*%
%AMMACRO13*
4,1,42,-.275,-.134,
-.275,.136,
-.272413,.159432,
-.266231,.182138,
-.2562,.203425,
-.242625,.222647,
-.225919,.23922,
-.206589,.25264,
-.185222,.262499,
-.162467,.268498,
-.139017,.270455,
-.139,.27,
.141,.27,
.164432,.267393,
.187137,.261209,
.208423,.251176,
.227643,.237599,
.244214,.22089,
.257631,.201558,
.267488,.18019,
.273485,.157435,
.275,.134,
.275,-.136,
.272413,-.159432,
.266231,-.182138,
.2562,-.203425,
.242625,-.222647,
.225919,-.23922,
.206589,-.25264,
.185222,-.262499,
.162467,-.268498,
.139017,-.270455,
.139,-.27,
-.141,-.27,
-.164432,-.267393,
-.187137,-.261209,
-.208423,-.251176,
-.227643,-.237599,
-.244214,-.22089,
-.257631,-.201558,
-.267488,-.18019,
-.273485,-.157435,
-.275,-.134,
0.0*
%
%ADD13MACRO13*%
%AMMACRO41*
4,1,42,-.137,.274,
.133,.276,
.156458,.274059,
.179233,.268141,
.200635,.258357,
.220013,.245006,
.236778,.228493,
.250421,.209319,
.260527,.188068,
.26679,.165384,
.269,.142,
.271,-.138,
.2691,-.161458,
.263188,-.184235,
.25341,-.20564,
.240063,-.225021,
.223554,-.24179,
.204384,-.255438,
.183136,-.26555,
.160454,-.271818,
.137028,-.274052,
.137,-.274,
-.133,-.276,
-.156458,-.274059,
-.179233,-.268141,
-.200635,-.258357,
-.220013,-.245006,
-.236778,-.228493,
-.250421,-.209319,
-.260527,-.188068,
-.26679,-.165384,
-.269,-.142,
-.271,.138,
-.2691,.161458,
-.263188,.184235,
-.25341,.20564,
-.240063,.225021,
-.223554,.24179,
-.204384,.255438,
-.183136,.26555,
-.160454,.271818,
-.137028,.274052,
-.137,.274,
0.0*
%
%ADD41MACRO41*%
%AMMACRO31*
4,1,42,-.135,.275,
.135,.275,
.158445,.272835,
.181182,.266769,
.202519,.256846,
.22181,.243369,
.238468,.226747,
.251985,.207486,
.261953,.186169,
.268068,.163445,
.270144,.140005,
.27,.14,
.27,-.14,
.267829,-.163445,
.261762,-.186181,
.251839,-.207519,
.238361,-.226809,
.221738,-.243466,
.202476,-.256983,
.181159,-.26695,
.158435,-.273064,
.135,-.275,
-.135,-.275,
-.158445,-.272835,
-.181182,-.266769,
-.202519,-.256846,
-.22181,-.243369,
-.238468,-.226747,
-.251985,-.207486,
-.261953,-.186169,
-.268068,-.163445,
-.270144,-.140005,
-.27,-.14,
-.27,.14,
-.267829,.163445,
-.261762,.186181,
-.251839,.207519,
-.238361,.226809,
-.221738,.243466,
-.202476,.256983,
-.181159,.26695,
-.158435,.273064,
-.135,.275,
0.0*
%
%ADD31MACRO31*%
%AMMACRO44*
4,1,42,-.275,-.135,
-.275,.135,
-.272872,.158444,
-.266798,.181179,
-.256868,.202513,
-.243384,.221799,
-.226757,.238451,
-.20749,.251962,
-.18617,.261923,
-.163444,.26803,
-.140003,.270098,
-.14,.27,
.14,.27,
.163444,.267868,
.186178,.261793,
.207513,.251863,
.226798,.238379,
.24345,.221751,
.256961,.202484,
.26692,.181163,
.273027,.158437,
.275,.135,
.275,-.135,
.272872,-.158444,
.266798,-.181179,
.256868,-.202513,
.243384,-.221799,
.226757,-.238451,
.20749,-.251962,
.18617,-.261923,
.163444,-.26803,
.140003,-.270098,
.14,-.27,
-.14,-.27,
-.163444,-.267868,
-.186178,-.261793,
-.207513,-.251863,
-.226798,-.238379,
-.24345,-.221751,
-.256961,-.202484,
-.26692,-.181163,
-.273027,-.158437,
-.275,-.135,
0.0*
%
%ADD44MACRO44*%
%AMMACRO42*
4,1,42,-.275,-.135,
-.275,.135,
-.272891,.158444,
-.266813,.181177,
-.256879,.20251,
-.243392,.221793,
-.226762,.238442,
-.207493,.25195,
-.186171,.261907,
-.163444,.26801,
-.140003,.270073,
-.14,.27,
.14,.27,
.163444,.267888,
.186177,.261809,
.207509,.251875,
.226793,.238388,
.243441,.221757,
.256949,.202488,
.266905,.181166,
.273007,.158439,
.275,.135,
.275,-.135,
.272891,-.158444,
.266813,-.181177,
.256879,-.20251,
.243392,-.221793,
.226762,-.238442,
.207493,-.25195,
.186171,-.261907,
.163444,-.26801,
.140003,-.270073,
.14,-.27,
-.14,-.27,
-.163444,-.267888,
-.186177,-.261809,
-.207509,-.251875,
-.226793,-.238388,
-.243441,-.221757,
-.256949,-.202488,
-.266905,-.181166,
-.273007,-.158439,
-.275,-.135,
0.0*
%
%ADD42MACRO42*%
%AMMACRO29*
4,1,42,-.275,-.135,
-.275,.135,
-.272812,.158445,
-.26675,.181183,
-.256833,.202523,
-.24336,.221817,
-.226742,.238478,
-.207483,.252,
-.186168,.261973,
-.163446,.268092,
-.140006,.270173,
-.14,.27,
.14,.27,
.163445,.267804,
.186183,.261742,
.207523,.251823,
.226816,.23835,
.243476,.221731,
.256997,.202471,
.266968,.181156,
.273087,.158433,
.275,.135,
.275,-.135,
.272812,-.158445,
.26675,-.181183,
.256833,-.202523,
.24336,-.221817,
.226742,-.238478,
.207483,-.252,
.186168,-.261973,
.163446,-.268092,
.140006,-.270173,
.14,-.27,
-.14,-.27,
-.163445,-.267804,
-.186183,-.261742,
-.207523,-.251823,
-.226816,-.23835,
-.243476,-.221731,
-.256997,-.202471,
-.266968,-.181156,
-.273087,-.158433,
-.275,-.135,
0.0*
%
%ADD29MACRO29*%
%AMMACRO32*
4,1,42,-.275,-.135,
-.275,.135,
-.272937,.158443,
-.266849,.181174,
-.256907,.202502,
-.243411,.22178,
-.226773,.238421,
-.207499,.251921,
-.186172,.261868,
-.163443,.267961,
-.140001,.270015,
-.14,.27,
.14,.27,
.163443,.267937,
.186174,.261849,
.207502,.251906,
.22678,.23841,
.243421,.221772,
.25692,.202498,
.266868,.181171,
.272961,.158442,
.275,.135,
.275,-.135,
.272937,-.158443,
.266849,-.181174,
.256907,-.202502,
.243411,-.22178,
.226773,-.238421,
.207499,-.251921,
.186172,-.261868,
.163443,-.267961,
.140001,-.270015,
.14,-.27,
-.14,-.27,
-.163443,-.267937,
-.186174,-.261849,
-.207502,-.251906,
-.22678,-.23841,
-.243421,-.221772,
-.25692,-.202498,
-.266868,-.181171,
-.272961,-.158442,
-.275,-.135,
0.0*
%
%ADD32MACRO32*%
%AMMACRO15*
4,1,42,-.275,-.135,
-.275,.135,
-.272868,.158444,
-.266795,.181179,
-.256866,.202514,
-.243383,.2218,
-.226756,.238453,
-.20749,.251965,
-.18617,.261926,
-.163444,.268034,
-.140004,.270103,
-.14,.27,
.14,.27,
.163444,.267864,
.186179,.26179,
.207513,.25186,
.2268,.238377,
.243451,.221749,
.256963,.202483,
.266924,.181163,
.273031,.158437,
.275,.135,
.275,-.135,
.272868,-.158444,
.266795,-.181179,
.256866,-.202514,
.243383,-.2218,
.226756,-.238453,
.20749,-.251965,
.18617,-.261926,
.163444,-.268034,
.140004,-.270103,
.14,-.27,
-.14,-.27,
-.163444,-.267864,
-.186179,-.26179,
-.207513,-.25186,
-.2268,-.238377,
-.243451,-.221749,
-.256963,-.202483,
-.266924,-.181163,
-.273031,-.158437,
-.275,-.135,
0.0*
%
%ADD15MACRO15*%
%AMMACRO38*
4,1,42,-.275,-.135,
-.275,.135,
-.272748,.158447,
-.2667,.181188,
-.256795,.202534,
-.243333,.221836,
-.226725,.238507,
-.207474,.25204,
-.186166,.262025,
-.163447,.268159,
-.140008,.270254,
-.14,.27,
.14,.27,
.163447,.267737,
.186188,.261688,
.207533,.251781,
.226834,.238319,
.243504,.221709,
.257036,.202457,
.26702,.181148,
.273151,.158429,
.275,.135,
.275,-.135,
.272748,-.158447,
.2667,-.181188,
.256795,-.202534,
.243333,-.221836,
.226725,-.238507,
.207474,-.25204,
.186166,-.262025,
.163447,-.268159,
.140008,-.270254,
.14,-.27,
-.14,-.27,
-.163447,-.267737,
-.186188,-.261688,
-.207533,-.251781,
-.226834,-.238319,
-.243504,-.221709,
-.257036,-.202457,
-.26702,-.181148,
-.273151,-.158429,
-.275,-.135,
0.0*
%
%ADD38MACRO38*%
%AMMACRO37*
4,1,42,-.135,.275,
.135,.275,
.158447,.272748,
.181188,.2667,
.202534,.256795,
.221836,.243333,
.238507,.226725,
.25204,.207474,
.262025,.186166,
.268159,.163447,
.270254,.140008,
.27,.14,
.27,-.14,
.267737,-.163447,
.261688,-.186188,
.251781,-.207533,
.238319,-.226834,
.221709,-.243504,
.202457,-.257036,
.181148,-.26702,
.158429,-.273151,
.135,-.275,
-.135,-.275,
-.158447,-.272748,
-.181188,-.2667,
-.202534,-.256795,
-.221836,-.243333,
-.238507,-.226725,
-.25204,-.207474,
-.262025,-.186166,
-.268159,-.163447,
-.270254,-.140008,
-.27,-.14,
-.27,.14,
-.267737,.163447,
-.261688,.186188,
-.251781,.207533,
-.238319,.226834,
-.221709,.243504,
-.202457,.257036,
-.181148,.26702,
-.158429,.273151,
-.135,.275,
0.0*
%
%ADD37MACRO37*%
%AMMACRO16*
4,1,41,0.0,-1.,
.519,-1.,
.602564,-.992645,
.683582,-.970892,
.759592,-.9354,
.828283,-.887248,
.88757,-.8279,
.93565,-.759158,
.971063,-.683112,
.992732,-.602072,
1.,-.519,
1.,.519,
.992645,.602564,
.970892,.683582,
.9354,.759592,
.887248,.828283,
.8279,.88757,
.759158,.93565,
.683112,.971063,
.602072,.992732,
.519,1.,
-.519,1.,
-.602564,.992645,
-.683582,.970892,
-.759592,.9354,
-.828283,.887248,
-.88757,.8279,
-.93565,.759158,
-.971063,.683112,
-.992732,.602072,
-1.,.519,
-1.,-.519,
-.992645,-.602564,
-.970892,-.683582,
-.9354,-.759592,
-.887248,-.828283,
-.8279,-.88757,
-.759158,-.93565,
-.683112,-.971063,
-.602072,-.992732,
-.519,-1.,
0.0,-1.,
0.0*
%
%ADD16MACRO16*%
%ADD47C,.2*%
%ADD48C,.3*%
%ADD49C,.02*%
%ADD50C,.6*%
%ADD51C,.15*%
%ADD52C,1.806*%
G75*
%LPD*%
G75*
G36*
G01X405730Y303840D02*
X387720Y321840D01*
G03X385330Y322990I-2839J-2842D01*
G02X384730Y323290I122J994D01*
G01X384300Y323730D01*
G02X384020Y324420I720J694D01*
G01Y365250D01*
G03X383730Y365960I-1001J5D01*
G01X376960Y372730D01*
G03X376250Y373020I-705J-711D01*
G01X324750D01*
G03X324040Y372730I-5J-1001D01*
G01X317270Y365960D01*
G03X316980Y365250I711J-705D01*
G01Y352080D01*
G02X316690Y351370I-1001J-5D01*
G01X312000Y346690D01*
G03X311710Y345980I711J-705D01*
G01Y336770D01*
X311650Y336590D01*
G03X311460Y335580I2677J-1026D01*
G01Y332880D01*
G03X312020Y331170I2872J-6D01*
G01X312220Y330570D01*
Y330560D01*
X312210Y329950D01*
G02X311910Y329260I-999J24D01*
G01X304720Y322070D01*
G02X303630Y321850I-709J703D01*
G01X303350Y321970D01*
X303020Y322460D01*
Y326800D01*
X303330Y327520D01*
G03X304220Y329600I-1986J2080D01*
G01Y332400D01*
G03X303670Y334090I-2871J0D01*
G01X303480Y334680D01*
Y335320D01*
X303670Y335910D01*
G03X304220Y337600I-2321J1690D01*
G01Y340400D01*
G03X303330Y342480I-2876J0D01*
G01X303020Y343200D01*
Y352190D01*
X303300Y352880D01*
G03X304110Y354880I-2064J2000D01*
G01Y357580D01*
G03X303660Y359120I-2860J0D01*
G02X303500Y359640I841J543D01*
G01X303490Y360220D01*
G02Y360250I999J15D01*
G01X303620Y360740D01*
G03X303990Y362150I-2500J1410D01*
G01Y364950D01*
G03X303440Y366640I-2870J0D01*
G01X303250Y367230D01*
Y367860D01*
G02X303440Y368450I1001J3D01*
G03X304000Y370150I-2309J1703D01*
G01Y372950D01*
G03X303110Y375030I-2871J2D01*
G01X302800Y375750D01*
Y379620D01*
G03X302510Y380320I-1000J-4D01*
G01X299280Y383550D01*
G02X298990Y384260I710J704D01*
G01Y384480D01*
G03X298430Y386180I-2869J-3D01*
G02X298240Y386770I811J587D01*
G01Y387400D01*
X298430Y387990D01*
G03X298980Y389680I-2320J1690D01*
G01Y390600D01*
G02X299980Y391600I1000J0D01*
G01X300270D01*
X300510Y391450D01*
G03X302030Y391010I1527J2428D01*
G01X304830D01*
G03X307700Y393880I0J2870D01*
G01Y396580D01*
G03X304830Y399450I-2870J0D01*
G01X302030D01*
G03X301420Y399380I20J-2868D01*
G01X301190Y399330D01*
X300750Y399440D01*
X299360Y400560D01*
G02X298990Y401340I630J777D01*
G01Y401370D01*
G03X298430Y403060I-2869J-13D01*
G01X298240Y403650D01*
X298230Y404290D01*
G02X298420Y404880I1003J2D01*
G03X298970Y406570I-2318J1689D01*
G01Y409370D01*
G03X298080Y411440I-2871J-8D01*
G01X297770Y412160D01*
Y413420D01*
X298000Y413850D01*
X298210Y413990D01*
G03X299470Y416370I-1611J2376D01*
G01Y419070D01*
G03X299240Y420200I-2871J4D01*
G01X299140Y420430D01*
X299180Y420920D01*
X300250Y422530D01*
G02X301080Y422980I834J-548D01*
G01X306460D01*
X306470Y422990D01*
X306800Y423040D01*
G03X309290Y425880I-375J2840D01*
G01Y428580D01*
G03X309060Y429700I-2869J-6D01*
G01X308960Y429940D01*
X309010Y430430D01*
X310070Y432030D01*
G02X310900Y432480I835J-550D01*
G01X449700D01*
X449930Y432710D01*
G02X450630Y433000I704J-710D01*
G01X489990D01*
G02X490990Y432000I0J-1000D01*
G01Y140010D01*
G02X489990Y139010I-1000J0D01*
G01X110010D01*
G02X109010Y140010I0J1000D01*
G01Y432000D01*
G02X110010Y433000I1000J0D01*
G01X177960D01*
X178190Y432770D01*
G03X178890Y432480I704J710D01*
G01X255700D01*
X255930Y432710D01*
G02X256630Y433000I704J-710D01*
G01X265660D01*
X265890Y432770D01*
G03X266160Y432580I702J711D01*
G01Y432460D01*
X278240D01*
Y432920D01*
G02X278630Y433000I392J-920D01*
G01X287660D01*
X287890Y432770D01*
G03X288160Y432580I702J711D01*
G01Y432460D01*
X290400D01*
G02X291180Y431480I-226J-980D01*
G01Y429130D01*
X291130Y428990D01*
G03X291000Y428120I2742J-854D01*
G01Y427360D01*
G03Y426640I4000J-360D01*
G01Y425320D01*
G03X291650Y423500I2870J-1D01*
G01X291760Y423360D01*
X291880Y423040D01*
X291860Y421390D01*
X291740Y421080D01*
X291620Y420940D01*
G03X291510Y420800I2201J-1843D01*
G02X289900I-805J595D01*
G03X288460Y421830I-2308J-1705D01*
G01X288260Y421920D01*
G03X286000Y422520I-2251J-3922D01*
G01X274540D01*
G03X273830Y422230I-5J-1002D01*
G01X248420Y396810D01*
G02X247710Y396520I-704J711D01*
G01X228540D01*
G02X228130Y396610I5J1000D01*
G01X217930Y401310D01*
X217910Y401320D01*
G03Y382680I-4910J-9320D01*
G01X217930Y382690D01*
X228130Y387390D01*
G02X228540Y387480I415J-910D01*
G01X251460D01*
G03X252170Y387770I5J1002D01*
G01X277580Y413190D01*
G02X278290Y413480I704J-711D01*
G01X286000D01*
G03X286540Y413510I20J4521D01*
G01X286600Y413520D01*
X287600D01*
G03X289890Y414660I0J2870D01*
G02X291500I805J-595D01*
G03X291520Y414620I2534J1242D01*
G01X291630Y414490D01*
X291730Y414180D01*
Y412160D01*
X291420Y411440D01*
G03X290530Y409350I1981J-2078D01*
G01Y406550D01*
G03X291090Y404860I2869J13D01*
G01X291280Y404270D01*
X291290Y403630D01*
G02X291100Y403040I-1003J-2D01*
G03X290550Y401350I2318J-1689D01*
G01Y398550D01*
G03X291430Y396490I2870J8D01*
G01X291740Y395770D01*
Y395280D01*
X291430Y394560D01*
G03X290540Y392480I1981J-2078D01*
G01Y389680D01*
G03X291100Y387980I2869J3D01*
G02X291290Y387390I-811J-587D01*
G01Y386760D01*
X291100Y386170D01*
G03X290550Y384480I2320J-1690D01*
G01Y383550D01*
G02X290260Y382840I-1000J-6D01*
G01X288020Y380600D01*
G03X287730Y379900I710J-704D01*
G01Y376100D01*
X287420Y375380D01*
G03X286530Y373300I1981J-2078D01*
G01Y370500D01*
G03X287080Y368810I2870J0D01*
G01X287270Y368220D01*
Y367590D01*
G02X287080Y367000I-1001J-3D01*
G03X286520Y365300I2309J-1703D01*
G01Y362500D01*
G03X287140Y360720I2870J2D01*
G02X287360Y360110I-781J-626D01*
G01Y359460D01*
Y359440D01*
X287160Y358840D01*
G03X286580Y357110I2290J-1730D01*
G01Y354410D01*
G03X287510Y352300I2869J4D01*
G02X287830Y351560I-681J-734D01*
G01Y349790D01*
X287980Y349640D01*
Y343200D01*
X287670Y342480D01*
G03X286780Y340400I1986J-2080D01*
G01Y337600D01*
G03X287330Y335910I2871J0D01*
G01X287520Y335320D01*
Y334680D01*
X287330Y334090D01*
G03X286780Y332400I2321J-1690D01*
G01Y329600D01*
G03X287670Y327520I2876J0D01*
G01X287980Y326800D01*
Y323160D01*
G03X288270Y322460I1000J4D01*
G01X289690Y321040D01*
G02X289980Y320330I-710J-704D01*
G01Y319990D01*
G02X289360Y319070I-999J4D01*
G01X289080Y318950D01*
X288500Y319070D01*
X287270Y320300D01*
G03X286560Y320590I-705J-711D01*
G01X279390D01*
G02X278680Y320880I-5J1001D01*
G01X276810Y322750D01*
G02X276520Y323460I711J705D01*
G01Y324670D01*
X276580Y324910D01*
X276650Y325020D01*
G03X277010Y326420I-2511J1392D01*
G01Y329120D01*
G03X276390Y330900I-2870J-2D01*
G01X276180Y331500D01*
X276160Y332140D01*
G02X276350Y332750I1002J23D01*
G03X276890Y334420I-2329J1675D01*
G01Y337120D01*
G03X276700Y338140I-2869J-7D01*
G01X276640Y338320D01*
X276630Y339590D01*
X276640D01*
Y345510D01*
G03X276350Y346220I-1001J5D01*
G01X270840Y351730D01*
G03X270130Y352020I-705J-711D01*
G01X233750D01*
G03X233040Y351730I-5J-1001D01*
G01X226270Y344960D01*
G03X225980Y344250I711J-705D01*
G01Y330020D01*
G02X224980Y329020I-1000J0D01*
G01X192000D01*
G03Y320980I0J-4020D01*
G01X227330D01*
G02X228040Y320690I6J-1000D01*
G01X231460Y317270D01*
G03X232160Y316980I704J710D01*
G01X241770D01*
G02X242480Y316690I6J-1000D01*
G01X242540Y316630D01*
X242690Y316270D01*
X242700Y315460D01*
G02X242500Y314850I-1000J-10D01*
G03X241920Y313110I2290J-1730D01*
G01X241940Y310410D01*
G03X244820Y307550I2870J10D01*
G01X247620Y307570D01*
G03X249340Y308150I-10J2870D01*
G01X249480Y308260D01*
X249820Y308360D01*
X251320Y308250D01*
G02X251950Y307960I-76J-994D01*
G01X255190Y304730D01*
G02X255480Y304020I-711J-705D01*
G01Y301520D01*
G02X254480Y300520I-1000J0D01*
G01X230460D01*
G02X229750Y300810I-5J1001D01*
G01X223340Y307230D01*
G03X222630Y307520I-705J-711D01*
G01X222520D01*
G02X221520Y308520I0J1000D01*
G01Y312630D01*
G03X221230Y313340I-1001J5D01*
G01X218570Y316000D01*
G03X217860Y316290I-705J-711D01*
G01X217040D01*
X216610Y316520D01*
X216470Y316730D01*
G03X214090Y317990I-2376J-1611D01*
G01X211290D01*
G03X208420Y315120I0J-2870D01*
G01Y312420D01*
G03X208430Y312180I2870J-1D01*
G01X208450Y311970D01*
X208320Y311590D01*
X207170Y310340D01*
G02X206440Y310020I-733J680D01*
G01X202740D01*
G03X199470Y306750I3J-3273D01*
G01Y303250D01*
G03X202740Y299980I3273J3D01*
G01X213260D01*
G03X216230Y301900I-9J3271D01*
G01X216360Y302170D01*
X216840Y302480D01*
X220540D01*
G02X221250Y302190I5J-1001D01*
G01X226730Y296710D01*
G02Y295290I-708J-710D01*
G01X224250Y292810D01*
G02X223540Y292520I-705J711D01*
G01X216840D01*
X216360Y292830D01*
X216230Y293100D01*
G03X213260Y295020I-2979J-1351D01*
G01X202740D01*
G03X199470Y291750I3J-3273D01*
G01Y288250D01*
G03X202740Y284980I3273J3D01*
G01X206450D01*
G02X207210Y284620I-8J-999D01*
G01X208340Y283270D01*
X208460Y282850D01*
X208420Y282630D01*
G03X208370Y282130I2817J-534D01*
G01Y279430D01*
G03X211230Y276550I2870J-10D01*
G01X214030D01*
G03X214800Y276650I19J2871D01*
G01X215060Y276720D01*
X215580Y276590D01*
X215770Y276400D01*
G02Y274980I-706J-710D01*
G01X213020Y272230D01*
G03X212730Y271530I710J-704D01*
G01Y240350D01*
G02X212440Y239650I-1000J4D01*
G01X211350Y238560D01*
G02X210650Y238270I-704J710D01*
G01X188500D01*
X187770Y238590D01*
G03X183870Y239620I-2770J-2589D01*
G01X183630Y239540D01*
X183170Y239620D01*
X181680Y240720D01*
G02X181270Y241530I589J807D01*
G01Y245500D01*
X181590Y246230D01*
G03X178390Y252740I-2589J2769D01*
G01X178170Y252710D01*
X177750Y252820D01*
X176420Y253950D01*
G02X176070Y254710I651J760D01*
G01Y268800D01*
G02X176360Y269500I999J-4D01*
G01X176790Y269940D01*
X177390Y270230D01*
G03X173460Y275340I-387J3769D01*
G01X173340Y275040D01*
X172840Y274690D01*
X172520D01*
G02X171520Y275690I0J1000D01*
G01Y277200D01*
G02X171810Y277900I1000J-4D01*
G01X177280Y283370D01*
X177660Y283520D01*
X177870Y283510D01*
G03X174210Y287170I130J3790D01*
G01X174220Y286960D01*
X174070Y286580D01*
X167270Y279780D01*
G03X166980Y279080I710J-704D01*
G01Y215270D01*
G02X165980Y214270I-1000J0D01*
G01X155350D01*
G02X154650Y214560I4J1000D01*
G01X152930Y216280D01*
X152780Y216660D01*
X152790Y216870D01*
G03X147870Y220620I-3789J131D01*
G01X147630Y220540D01*
X147170Y220620D01*
X145680Y221720D01*
G02X145270Y222530I589J807D01*
G01Y239650D01*
G02X145560Y240350I1000J-4D01*
G01X154180Y248970D01*
G03X154470Y249670I-710J704D01*
G01Y257500D01*
G03X154180Y258200I-1000J-4D01*
G01X151560Y260820D01*
G02X151270Y261520I710J704D01*
G01Y264500D01*
X151590Y265230D01*
G03X146410I-2590J2770D01*
G01X146730Y264500D01*
Y259150D01*
X146380Y258650D01*
X146090Y258540D01*
G03X143660Y254870I1359J-3539D01*
G01X143670Y254660D01*
X143520Y254280D01*
X137730Y248490D01*
Y248220D01*
X137120Y247970D01*
G02X136030Y248180I-388J921D01*
G01X128930Y255280D01*
X128780Y255660D01*
X128790Y255870D01*
G03X125130Y252210I-3790J130D01*
G01X125340Y252220D01*
X125720Y252070D01*
X132190Y245600D01*
G02X132480Y244900I-710J-704D01*
G01Y239140D01*
G02X131860Y238210I-1001J-4D01*
G01X131580Y238100D01*
X131000Y238220D01*
X127930Y241280D01*
X127780Y241660D01*
X127790Y241870D01*
G03X124130Y238210I-3790J130D01*
G01X124340Y238220D01*
X124720Y238070D01*
X126360Y236430D01*
G02Y235020I-710J-705D01*
G01X126190Y234850D01*
X125750Y234700D01*
X125510Y234730D01*
G03X125130Y227190I-517J-3754D01*
G01X125340Y227200D01*
X125720Y227050D01*
X126190Y226580D01*
G02X126480Y225880I-710J-704D01*
G01Y198100D01*
G02X126190Y197400I-1000J4D01*
G01X125020Y196230D01*
G03X124730Y195530I710J-704D01*
G01Y160470D01*
G03X125020Y159770I1000J4D01*
G01X138770Y146020D01*
G03X139470Y145730I704J710D01*
G01X308280D01*
G03X308980Y146020I-4J1000D01*
G01X324710Y161750D01*
G02X325740Y161990I707J-706D01*
G01X327710Y161330D01*
X328070Y160900D01*
X328110Y160610D01*
G03X334630Y158550I3753J529D01*
G01X335360Y158870D01*
X348670D01*
G03X349370Y159160I-4J1000D01*
G01X360270Y170060D01*
G02X360970Y170350I704J-710D01*
G01X438150D01*
G03X438850Y170640I-4J1000D01*
G01X441280Y173070D01*
X441660Y173220D01*
X441870Y173210D01*
G03X442580Y173250I143J3790D01*
G01X442820Y173290D01*
X443260Y173150D01*
X444750Y171690D01*
X444900Y171250D01*
X444870Y171010D01*
G03X448630Y177210I8951J-1188D01*
G01X448440Y177070D01*
X447980Y177010D01*
X446000Y177660D01*
X445670Y177980D01*
X445590Y178210D01*
G03X438210Y176870I-3592J-1210D01*
G01X438220Y176660D01*
X438070Y176280D01*
X436970Y175180D01*
G02X436270Y174890I-704J710D01*
G01X435890D01*
G02X434890Y175890I0J1000D01*
G01Y176050D01*
X434990Y176340D01*
X435080Y176470D01*
G03X431790Y182460I-3080J2207D01*
G01X431620Y182450D01*
X431300Y182550D01*
X430000Y183480D01*
X429800Y183750D01*
X429760Y183920D01*
G03X428380Y185930I-3650J-1027D01*
G01X428190Y186060D01*
X427990Y186430D01*
X427870Y188170D01*
G02X428160Y188950I996J74D01*
G01X440650Y201440D01*
G02X441350Y201730I704J-710D01*
G01X454530D01*
G03X455230Y202020I-4J1000D01*
G01X461980Y208770D01*
G03X462270Y209470I-710J704D01*
G01Y220000D01*
G03X461980Y220700I-1000J-4D01*
G01X457560Y225120D01*
G02X457270Y225820I710J704D01*
G01Y227450D01*
X457590Y228180D01*
G03X452410I-2590J2770D01*
G01X452730Y227450D01*
Y223940D01*
G03X453020Y223240I1000J4D01*
G01X453100Y223160D01*
G02X453390Y222370I-707J-708D01*
G01X453230Y220610D01*
X453020Y220240D01*
X452830Y220110D01*
G03X452410Y214230I2170J-3110D01*
G01X452730Y213500D01*
Y210650D01*
X452580Y210290D01*
X452560Y210270D01*
X438470D01*
G03X437770Y209980I4J-1000D01*
G01X429720Y201930D01*
G02X428630Y201720I-702J711D01*
G01X428350Y201830D01*
X428020Y202330D01*
Y226720D01*
G03X427730Y227430I-1001J5D01*
G01X426310Y228840D01*
G02X426020Y229550I711J705D01*
G01Y231530D01*
X426070Y231690D01*
G03X426220Y232600I-2719J916D01*
G01Y235400D01*
G03X426210Y235580I-2866J-69D01*
G01X426200Y235800D01*
X426340Y236180D01*
X427480Y237390D01*
G02X428210Y237710I733J-679D01*
G01X428320D01*
X428680Y237860D01*
X431000Y240170D01*
G03X431290Y240880I-711J705D01*
G01Y271120D01*
G03X431000Y271830I-1001J5D01*
G01X428830Y274000D01*
G03X428120Y274290I-705J-711D01*
G01X419880D01*
G03X419170Y274000I-5J-1001D01*
G01X417000Y271830D01*
G03X416710Y271120I711J-705D01*
G01Y240880D01*
G03X417000Y240170I1001J-5D01*
G01X417450Y239720D01*
G02X417670Y238630I-704J-709D01*
G01X417550Y238350D01*
X417060Y238020D01*
X415540D01*
X415360Y238080D01*
G03X414350Y238270I-1026J-2677D01*
G01X411650D01*
G03X410640Y238080I16J-2867D01*
G01X410460Y238020D01*
X407080D01*
G02X406370Y238310I-5J1001D01*
G01X406310Y238370D01*
G02X406020Y239080I711J705D01*
G01Y303130D01*
G03X405730Y303840I-1001J5D01*
G37*
G36*
G01X189550Y213100D02*
X189270Y213530D01*
G03X188980Y214230I-1000J-4D01*
G01X176360Y226850D01*
G02X176070Y227550I710J704D01*
G01Y231310D01*
G02X176690Y232240I1001J4D01*
G01X176970Y232350D01*
X177550Y232230D01*
X180770Y229020D01*
G03X181470Y228730I704J710D01*
G01X213530D01*
G03X214230Y229020I-4J1000D01*
G01X215850Y230640D01*
G02X216880Y230880I708J-708D01*
G01X218850Y230210D01*
X219210Y229780D01*
X219240Y229490D01*
G03X221280Y226620I3758J511D01*
G01X221420Y226550D01*
X221530Y226440D01*
G02Y225020I-703J-710D01*
G01X220710Y224200D01*
G02X220010Y223910I-704J710D01*
G01X202110D01*
G03X201410Y223620I4J-1000D01*
G01X190970Y213180D01*
G02X189880Y212970I-702J711D01*
G01X189550Y213100D01*
G37*
G36*
G01X190950Y184260D02*
X189560Y185650D01*
G02X189270Y186350I710J704D01*
G01Y187440D01*
G02X190270Y188440I1000J0D01*
G01X190430D01*
X190580Y188400D01*
G03X195510Y191500I1174J3603D01*
G01X195530Y191670D01*
X195680Y191970D01*
X196840Y193070D01*
X197150Y193210D01*
X197320Y193220D01*
G03X199590Y199770I-318J3779D01*
G02X199270Y200500I679J733D01*
G01Y209650D01*
G02X199560Y210350I1000J-4D01*
G01X204390Y215180D01*
G02X205090Y215470I704J-710D01*
G01X223790D01*
G03X224490Y215760I-4J1000D01*
G01X233980Y225250D01*
G03X234270Y225950I-710J704D01*
G01Y226210D01*
X236760Y227370D01*
X237330Y227290D01*
X237560Y227100D01*
G03X242380Y227050I2440J2900D01*
G02X243020Y227280I638J-771D01*
G01X243630Y227270D01*
G02X244330Y226980I-4J-1000D01*
G01X244690Y226620D01*
G02X244980Y225920I-710J-704D01*
G01Y214230D01*
G03X245270Y213530I1000J4D01*
G01X245730Y213070D01*
Y213060D01*
X261440Y197350D01*
G02X261730Y196650I-710J-704D01*
G01Y194500D01*
G02X261410Y193770I-999J3D01*
G03X266590I2590J-2770D01*
G02X266270Y194500I679J733D01*
G01Y198530D01*
G03X265980Y199230I-1000J-4D01*
G01X263930Y201280D01*
G02X263720Y202370I711J702D01*
G01X263830Y202650D01*
X264330Y202980D01*
X270980D01*
G02X271980Y201980I0J-1000D01*
G01Y200000D01*
G03X280020I4020J0D01*
G01Y201980D01*
G02X281020Y202980I1000J0D01*
G01X283630D01*
X284210Y202400D01*
Y201980D01*
G03X285410Y199230I3791J17D01*
G01X285570Y199080D01*
X285730Y198710D01*
Y198350D01*
G02X285440Y197650I-1000J4D01*
G01X272050Y184260D01*
G02X271350Y183970I-704J710D01*
G01X191650D01*
G02X190950Y184260I4J1000D01*
G37*
G36*
G01X228600Y394720D02*
X216760Y400170D01*
X212250Y392000D01*
X216760Y383830D01*
X228600Y389280D01*
G03Y394720I-1260J2720D01*
G37*
G36*
G01X186400Y439900D02*
Y501600D01*
X442200D01*
Y489500D01*
X278200D01*
Y471500D01*
X288200D01*
Y466480D01*
X297300Y453280D01*
Y432500D01*
X292700D01*
Y451850D01*
X287490Y459400D01*
X256200D01*
Y471500D01*
X266200D01*
Y479500D01*
X208200D01*
Y452800D01*
X288200D01*
Y432500D01*
X278200D01*
Y439900D01*
X266200D01*
Y432500D01*
X256200D01*
Y439900D01*
X186400D01*
G37*
G36*
G01X263100Y211310D02*
X256310Y218100D01*
G02X256020Y218810I711J705D01*
G01Y229220D01*
G02X256570Y230110I999J-3D01*
G01X258400Y231050D01*
X258970Y231000D01*
X259190Y230840D01*
G03X260880Y230290I1690J2320D01*
G01X263580D01*
G03X265640Y231160I1J2870D01*
G02X267260Y230030I718J-696D01*
G03X266970Y228770I2579J-1257D01*
G01X266990Y225970D01*
G03X267550Y224280I2869J13D01*
G02X267740Y223690I-811J-587D01*
G01Y223060D01*
G02X267550Y222470I-1000J-4D01*
G03X267000Y220850I2319J-1691D01*
G01Y220630D01*
X266980Y220600D01*
Y212020D01*
G02X265980Y211020I-1000J0D01*
G01X263810D01*
G02X263100Y211310I-5J1001D01*
G37*
G36*
G01X234270Y244750D02*
Y260650D01*
G02X234560Y261350I1000J-4D01*
G01X238650Y265440D01*
G02X239350Y265730I704J-710D01*
G01X248080D01*
G02X249000Y265110I-4J-999D01*
G01X249120Y264830D01*
X249000Y264250D01*
X246840Y262080D01*
G03X246550Y261370I708J-704D01*
G01Y260080D01*
X246320Y259650D01*
X246100Y259500D01*
G03X244820Y257110I1587J-2387D01*
G01Y254410D01*
G03X245010Y253390I2870J7D01*
G01X245080Y253210D01*
X245090Y250280D01*
Y245130D01*
G02X244090Y244130I-1000J0D01*
G01X240110D01*
G03X237550Y243210I0J-4022D01*
G01X237320Y243020D01*
X236750Y242950D01*
X234840Y243840D01*
G02X234270Y244750I431J903D01*
G37*
G36*
G01X249470Y329630D02*
Y332430D01*
G03X246600Y335300I-2870J0D01*
G01X243900D01*
G03X241030Y332430I0J-2870D01*
G01Y329630D01*
G03X242290Y327250I2871J-4D01*
G01X242500Y327110D01*
X242730Y326680D01*
Y324020D01*
G02X241730Y323020I-1000J0D01*
G01X237020D01*
G02X236310Y323310I-5J1001D01*
G01X235170Y324450D01*
X235020Y324810D01*
Y325010D01*
G03X234220Y327410I-4021J-7D01*
G02X234020Y328010I799J600D01*
G01Y340920D01*
G02X234310Y341630I1001J5D01*
G01X236370Y343690D01*
G02X237080Y343980I705J-711D01*
G01X266800D01*
G02X267510Y343690I5J-1001D01*
G01X268300Y342900D01*
G02X268590Y342190I-712J-705D01*
G01X268600Y338300D01*
X268530Y338130D01*
G03X268350Y337120I2691J-1001D01*
G01Y334420D01*
G03X268970Y332640I2870J2D01*
G02X269180Y332040I-790J-613D01*
G01X269200Y331400D01*
G02X269010Y330790I-1002J-23D01*
G03X268470Y329120I2329J-1675D01*
G01Y326420D01*
G03X270700Y323620I2871J-2D01*
G01X271050Y323540D01*
X271480Y323000D01*
Y321520D01*
G02X270480Y320520I-1000J0D01*
G01X258460D01*
G02X257750Y320810I-5J1001D01*
G01X253340Y325230D01*
G03X252630Y325520I-705J-711D01*
G01X250990D01*
G02X250140Y325990I-2J1000D01*
G01X249100Y327640D01*
X249070Y328150D01*
X249190Y328390D01*
G03X249470Y329630I-2591J1237D01*
G37*
G36*
G01X274650Y256030D02*
G03X273300Y256510I-1658J-2526D01*
G01X273120Y256520D01*
X272820Y256670D01*
X271670Y257820D01*
X271520Y258120D01*
X271510Y258300D01*
G03X271030Y259650I-3006J-308D01*
G02X270860Y260200I831J558D01*
G01Y260800D01*
G02X271030Y261350I1001J-8D01*
G03Y264650I-2530J1650D01*
G02X270860Y265200I831J558D01*
G01Y265800D01*
G02X271030Y266350I1001J-8D01*
G03Y269650I-2530J1650D01*
G02X270860Y270200I831J558D01*
G01Y270800D01*
G02X271030Y271350I1001J-8D01*
G03Y274650I-2530J1650D01*
G02X270860Y275200I831J558D01*
G01Y275800D01*
G02X271030Y276350I1001J-8D01*
G03Y279650I-2530J1650D01*
G02X270860Y280200I831J558D01*
G01Y280800D01*
G02X271030Y281350I1001J-8D01*
G03Y284650I-2530J1650D01*
G02X270860Y285200I831J558D01*
G01Y285800D01*
G02X271030Y286350I1001J-8D01*
G03Y289650I-2530J1650D01*
G02X270860Y290200I831J558D01*
G01Y290800D01*
G02X271030Y291350I1001J-8D01*
G03Y294650I-2530J1650D01*
G02X270860Y295200I831J558D01*
G01Y295800D01*
G02X271030Y296350I1001J-8D01*
G03Y299650I-2530J1650D01*
G02X270860Y300200I831J558D01*
G01Y300800D01*
G02X271030Y301350I1001J-8D01*
G03X271510Y302700I-2526J1658D01*
G01X271520Y302880D01*
X271670Y303180D01*
X272820Y304330D01*
X273120Y304480D01*
X273300Y304490D01*
G03X274650Y304970I-308J3006D01*
G02X275200Y305140I558J-831D01*
G01X275800D01*
G02X276350Y304970I-8J-1001D01*
G03X279650I1650J2530D01*
G02X280200Y305140I558J-831D01*
G01X280800D01*
G02X281350Y304970I-8J-1001D01*
G03X284650I1650J2530D01*
G02X285200Y305140I558J-831D01*
G01X285800D01*
G02X286350Y304970I-8J-1001D01*
G03X289650I1650J2530D01*
G02X290200Y305140I558J-831D01*
G01X290800D01*
G02X291350Y304970I-8J-1001D01*
G03X294650I1650J2530D01*
G02X295200Y305140I558J-831D01*
G01X295800D01*
G02X296350Y304970I-8J-1001D01*
G03X299650I1650J2530D01*
G02X300200Y305140I558J-831D01*
G01X300800D01*
G02X301350Y304970I-8J-1001D01*
G03X304650I1650J2530D01*
G02X305200Y305140I558J-831D01*
G01X305800D01*
G02X306350Y304970I-8J-1001D01*
G03X309650I1650J2530D01*
G02X310200Y305140I558J-831D01*
G01X310800D01*
G02X311350Y304970I-8J-1001D01*
G03X314650I1650J2530D01*
G02X315200Y305140I558J-831D01*
G01X315800D01*
G02X316350Y304970I-8J-1001D01*
G03X317700Y304490I1658J2526D01*
G01X317880Y304480D01*
X318180Y304330D01*
X319330Y303180D01*
X319480Y302880D01*
X319490Y302700D01*
G03X319970Y301350I3006J308D01*
G02X320140Y300800I-831J-558D01*
G01Y300200D01*
G02X319970Y299650I-1001J8D01*
G03Y296350I2530J-1650D01*
G02X320140Y295800I-831J-558D01*
G01Y295200D01*
G02X319970Y294650I-1001J8D01*
G03Y291350I2530J-1650D01*
G02X320140Y290800I-831J-558D01*
G01Y290200D01*
G02X319970Y289650I-1001J8D01*
G03Y286350I2530J-1650D01*
G02X320140Y285800I-831J-558D01*
G01Y285200D01*
G02X319970Y284650I-1001J8D01*
G03Y281350I2530J-1650D01*
G02X320140Y280800I-831J-558D01*
G01Y280200D01*
G02X319970Y279650I-1001J8D01*
G03Y276350I2530J-1650D01*
G02X320140Y275800I-831J-558D01*
G01Y275200D01*
G02X319970Y274650I-1001J8D01*
G03Y271350I2530J-1650D01*
G02X320140Y270800I-831J-558D01*
G01Y270200D01*
G02X319970Y269650I-1001J8D01*
G03Y266350I2530J-1650D01*
G02X320140Y265800I-831J-558D01*
G01Y265200D01*
G02X319970Y264650I-1001J8D01*
G03Y261350I2530J-1650D01*
G02X320140Y260800I-831J-558D01*
G01Y260200D01*
G02X319970Y259650I-1001J8D01*
G03X319490Y258300I2526J-1658D01*
G01X319480Y258120D01*
X319330Y257820D01*
X318180Y256670D01*
X317880Y256520D01*
X317700Y256510D01*
G03X316350Y256030I308J-3006D01*
G02X315800Y255860I-558J831D01*
G01X315200D01*
G02X314650Y256030I8J1001D01*
G03X311350I-1650J-2530D01*
G02X310800Y255860I-558J831D01*
G01X310200D01*
G02X309650Y256030I8J1001D01*
G03X306350I-1650J-2530D01*
G02X305800Y255860I-558J831D01*
G01X305200D01*
G02X304650Y256030I8J1001D01*
G03X301350I-1650J-2530D01*
G02X300800Y255860I-558J831D01*
G01X300200D01*
G02X299650Y256030I8J1001D01*
G03X296350I-1650J-2530D01*
G02X295800Y255860I-558J831D01*
G01X295200D01*
G02X294650Y256030I8J1001D01*
G03X291350I-1650J-2530D01*
G02X290800Y255860I-558J831D01*
G01X290200D01*
G02X289650Y256030I8J1001D01*
G03X286350I-1650J-2530D01*
G02X285800Y255860I-558J831D01*
G01X285200D01*
G02X284650Y256030I8J1001D01*
G03X281350I-1650J-2530D01*
G02X280800Y255860I-558J831D01*
G01X280200D01*
G02X279650Y256030I8J1001D01*
G03X276350I-1650J-2530D01*
G02X275800Y255860I-558J831D01*
G01X275200D01*
G02X274650Y256030I8J1001D01*
G37*
G36*
G01X328230Y229610D02*
X327090Y230890D01*
X326960Y231290D01*
X326990Y231510D01*
G03X327020Y232000I-3987J490D01*
G01Y233960D01*
G03X326730Y234660I-1000J-4D01*
G01X326200Y235200D01*
G02X325910Y235910I711J705D01*
G01X325930Y238220D01*
G03X325640Y238930I-1001J5D01*
G01X325090Y239480D01*
X324950Y239770D01*
X324930Y239940D01*
G03X323150Y242230I-2846J-375D01*
G01X322860Y242350D01*
X322520Y242860D01*
Y243630D01*
G03X322230Y244340I-1001J5D01*
G01X320810Y245750D01*
G02X320520Y246460I711J705D01*
G01Y246690D01*
X320580Y246930D01*
X320640Y247040D01*
G03X321020Y248500I-2638J1466D01*
G01Y253500D01*
G03X321000Y253890I-3022J41D01*
G02X322110Y255000I989J121D01*
G03X322500Y254980I349J3002D01*
G01X327500D01*
G03X329260Y255540I7J3022D01*
G01X329390Y255640D01*
X329680Y255730D01*
X338650D01*
G02X339350Y255440I-4J-1000D01*
G01X340440Y254350D01*
G02X340730Y253650I-710J-704D01*
G01Y239630D01*
G02X340440Y238930I-1000J4D01*
G01X331070Y229560D01*
G02X330370Y229270I-704J710D01*
G01X328980D01*
G02X328230Y229610I1J999D01*
G37*
G36*
G01X361590Y324880D02*
Y327580D01*
G03X360990Y329340I-2871J4D01*
G01X360880Y329480D01*
X360770Y329820D01*
X360870Y331330D01*
G02X361160Y331970I995J-65D01*
G01X361260Y332070D01*
X362840Y333680D01*
G02X363550Y333970I704J-710D01*
G01X367100Y333990D01*
G03X370560Y337540I-56J3515D01*
G01X370540Y342510D01*
G03X367010Y346030I-3518J2D01*
G01X362980Y346010D01*
G03X359520Y342460I56J-3515D01*
G01X359540Y337920D01*
G02X359250Y337210I-1001J-5D01*
G01X357680Y335630D01*
Y335620D01*
X355080Y333030D01*
G03X354790Y332320I711J-705D01*
G01Y330950D01*
Y330550D01*
X354560Y330120D01*
X354340Y329980D01*
G03X353540Y329180I1590J-2390D01*
G01X353400Y328970D01*
X352960Y328740D01*
X352290D01*
X343380D01*
G02X342380Y329740I0J1000D01*
G01Y340080D01*
G03Y340090I-1000J5D01*
G01Y340510D01*
X342610Y340950D01*
X342810Y341090D01*
G03X343720Y342100I-1617J2372D01*
G02X344090Y342490I883J-467D01*
G01X344210Y342560D01*
X344460Y342630D01*
X345420D01*
G03X346130Y342920I5J1001D01*
G01X347160Y343950D01*
Y343960D01*
X351260Y348110D01*
G02X351960Y348400I704J-710D01*
G01X355520Y348420D01*
G03X358980Y351970I-56J3515D01*
G01X358960Y356940D01*
G03X355430Y360460I-3518J2D01*
G01X351400Y360440D01*
G03X347940Y356890I56J-3515D01*
G01X347960Y352350D01*
G02X347670Y351640I-1002J-5D01*
G01X344200Y348130D01*
X343400Y348110D01*
X343100Y348380D01*
G03X341150Y349130I-1934J-2119D01*
G01X338450Y349110D01*
G03X335600Y346220I20J-2870D01*
G01X335620Y343420D01*
G03X336890Y341050I2872J14D01*
G01X337100Y340920D01*
X337340Y340480D01*
Y340080D01*
Y331320D01*
G02X337050Y330610I-1001J-5D01*
G01X335250Y328810D01*
G02X334540Y328520I-705J711D01*
G01X319250D01*
G02X318250Y329520I0J1000D01*
G01Y329900D01*
X318480Y330340D01*
X318700Y330480D01*
G03X320000Y332880I-1565J2400D01*
G01Y335580D01*
G03X319810Y336590I-2867J-16D01*
G01X319750Y336770D01*
Y342650D01*
G02X320040Y343360I1001J5D01*
G01X324730Y348040D01*
G03X325020Y348750I-711J705D01*
G01Y361920D01*
G02X325310Y362630I1001J5D01*
G01X327370Y364690D01*
G02X328080Y364980I705J-711D01*
G01X372920D01*
G02X373630Y364690I5J-1001D01*
G01X375690Y362630D01*
G02X375980Y361920I-711J-705D01*
G01Y322020D01*
G02X374980Y321020I-1000J0D01*
G01X363220D01*
G02X362390Y321460I-1J1001D01*
G01X361320Y323060D01*
X361280Y323550D01*
X361370Y323780D01*
G03X361590Y324880I-2650J1102D01*
G37*
G36*
G01X366420Y298640D02*
Y295940D01*
G03X369290Y293070I2870J0D01*
G01X372090D01*
G03X373780Y293620I0J2870D01*
G02X374370Y293810I586J-808D01*
G01X375010D01*
G02X375600Y293620I4J-998D01*
G03X377290Y293070I1690J2320D01*
G01X380090D01*
G03X382470Y294330I4J2871D01*
G01X382610Y294540D01*
X383040Y294770D01*
X388250D01*
G02X388960Y294480I5J-1001D01*
G01X392190Y291250D01*
G02X392480Y290540I-711J-705D01*
G01Y214370D01*
G03X392770Y213660I1001J-5D01*
G01X397660Y208770D01*
G03X398370Y208480I705J711D01*
G01X412250D01*
G02X412930Y208210I-3J-999D01*
G03X417120Y207580I2562J2792D01*
G01X417360Y207690D01*
X417870Y207660D01*
X419510Y206610D01*
G02X419980Y205770I-528J-847D01*
G01Y202080D01*
G02X419690Y201370I-1001J-5D01*
G01X412630Y194310D01*
G02X411920Y194020I-705J711D01*
G01X353200D01*
G02X352490Y194310I-5J1001D01*
G01X349080Y197730D01*
G03X348370Y198020I-705J-711D01*
G01X346140D01*
G02X345210Y198640I-4J1001D01*
G01X345100Y198920D01*
X345220Y199500D01*
X369770Y224060D01*
Y224310D01*
X369980Y224520D01*
G03X370270Y225220I-710J704D01*
G01Y280530D01*
G03X369980Y281230I-1000J-4D01*
G01X352430Y298780D01*
G02X352220Y299870I711J702D01*
G01X352330Y300150D01*
X352830Y300480D01*
X361630D01*
G03X362340Y300770I5J1001D01*
G01X364750Y303190D01*
G02X365460Y303480I705J-711D01*
G01X367060D01*
X367460Y303290D01*
X367600Y303120D01*
G03X367850Y302850I2227J1812D01*
G02X368170Y302120I-679J-733D01*
G01Y301620D01*
X367940Y301180D01*
X367720Y301040D01*
G03X366420Y298640I1569J-2402D01*
G37*
G36*
G01X375490Y304940D02*
Y307640D01*
G03X372620Y310510I-2870J0D01*
G01X369820D01*
G03X367440Y309250I-4J-2871D01*
G01X367300Y309040D01*
X366870Y308810D01*
X365360D01*
X365000Y308660D01*
X364860Y308520D01*
X363370D01*
G03X362660Y308230I-5J-1001D01*
G01X360250Y305810D01*
G02X359540Y305520I-705J711D01*
G01X346860D01*
G02X346000Y306010I0J1000D01*
G01X344990Y307730D01*
X344980Y308250D01*
X345110Y308490D01*
G03X345470Y309880I-2503J1390D01*
G01Y312580D01*
G03X345360Y313360I-2869J-7D01*
G01X345280Y313630D01*
X345420Y314150D01*
X345960Y314690D01*
G02X346670Y314980I704J-710D01*
G01X376990D01*
G02X377590Y314780I0J-999D01*
G03X380000Y313980I2410J3230D01*
G01X383800D01*
G02X384510Y313690I5J-1001D01*
G01X397690Y300510D01*
G02X397980Y299800I-711J-705D01*
G01Y294990D01*
G02X397360Y294070I-999J4D01*
G01X397080Y293950D01*
X396500Y294070D01*
X391050Y299520D01*
G03X390340Y299810I-705J-711D01*
G01X383040D01*
X382610Y300040D01*
X382470Y300250D01*
G03X380090Y301510I-2376J-1611D01*
G01X377290D01*
G03X375600Y300960I0J-2870D01*
G02X375010Y300770I-586J808D01*
G01X374020D01*
G03X373940Y300840I-1932J-2127D01*
G02X374070Y302470I640J769D01*
G03X375490Y304940I-1448J2476D01*
G37*
G36*
G01X417360Y214310D02*
X417120Y214420D01*
G03X412930Y213790I-1628J-3422D01*
G02X412250Y213520I-683J729D01*
G01X400460D01*
G02X399750Y213810I-5J1001D01*
G01X397810Y215750D01*
G02X397520Y216460I711J705D01*
G01Y233390D01*
G02X398140Y234310I999J-5D01*
G01X398420Y234430D01*
X399000Y234310D01*
X403040Y230270D01*
G03X403750Y229980I705J711D01*
G01X410460D01*
X410640Y229920D01*
G03X411650Y229730I1026J2677D01*
G01X414350D01*
G03X415360Y229920I-16J2867D01*
G01X415540Y229980D01*
X416980D01*
G02X417980Y228980I0J-1000D01*
G01Y226220D01*
G03X418270Y225510I1001J-5D01*
G01X419690Y224100D01*
G02X419980Y223390I-711J-705D01*
G01Y216230D01*
G02X419510Y215390I-998J7D01*
G01X417870Y214340D01*
X417360Y214310D01*
G37*
G36*
G01X427590Y273000D02*
G02X428290Y272710I-4J-1000D01*
G01X429710Y271290D01*
G02X430000Y270590I-710J-704D01*
G01Y241410D01*
G02X429710Y240710I-1000J4D01*
G01X428290Y239290D01*
G02X427590Y239000I-704J710D01*
G01X420410D01*
G02X419710Y239290I4J1000D01*
G01X418290Y240710D01*
G02X418000Y241410I710J704D01*
G01Y270590D01*
G02X418290Y271290I1000J-4D01*
G01X419710Y272710D01*
G02X420410Y273000I704J-710D01*
G01X427590D01*
G37*
%LPC*%
G75*
G36*
G01X477500Y429020D02*
X478500D01*
G02X478000Y408980I-507J-10014D01*
G02X477500Y429020I7J10026D01*
G37*
G36*
G01X121500D02*
X122500D01*
G02X122000Y408980I-507J-10014D01*
G02X121500Y429020I7J10026D01*
G37*
G36*
G01X477500Y162020D02*
X478500D01*
G02X478000Y141980I-507J-10014D01*
G02X477500Y162020I7J10026D01*
G37*
G54D52*
X149020Y315880D03*
X453820D03*
%LPD*%
G75*
G54D10*
G01X192000Y325000D02*
X231000D01*
G01X271000Y207000D02*
X261730D01*
X252000Y216730D01*
Y240110D01*
G01X240110D02*
X252000D01*
G01D02*
X249110Y243000D01*
Y250290D01*
X249090Y255770D01*
G01X231000Y325000D02*
X230000Y326000D01*
Y343000D01*
X235000Y348000D01*
X268880D01*
X272620Y344260D01*
Y341260D01*
X272610Y341250D01*
X272620Y335770D01*
G01X271000Y207000D02*
Y219160D01*
X271230Y219390D01*
G01X287230Y219510D02*
X287240Y212980D01*
X287000Y212740D01*
Y210200D01*
X283800Y207000D01*
X276000D01*
G01D02*
X271000D01*
G01X276000Y200000D02*
Y207000D01*
G01X295000Y427000D02*
X304790D01*
X305020Y427230D01*
G01X422000Y234000D02*
Y227470D01*
X424000Y225470D01*
Y200000D01*
X414000Y190000D01*
X351120D01*
X347120Y194000D01*
X340750D01*
G01X323000Y232000D02*
Y232720D01*
X321880Y233860D01*
X321900Y236990D01*
X320670Y238230D01*
G01X380000Y318000D02*
Y364000D01*
X375000Y369000D01*
X326000D01*
X321000Y364000D01*
Y350000D01*
X315730Y344730D01*
Y334230D01*
G01X413000Y234000D02*
X405000D01*
X402000Y237000D01*
Y301880D01*
X384880Y319000D01*
X383880Y318000D01*
X380000D01*
G01X422000Y234000D02*
X413000D01*
X117000Y143000D03*
X116610Y177970D03*
Y208470D03*
Y238970D03*
X125000Y230980D03*
X124000Y242000D03*
X125000Y256000D03*
X116610Y269470D03*
Y299970D03*
Y330470D03*
Y360970D03*
Y391470D03*
X145000Y143000D03*
X148700Y205400D03*
X165000Y178000D03*
X149000Y217000D03*
Y230000D03*
X147450Y255000D03*
X174000Y218840D03*
X149000Y293000D03*
Y268000D03*
X147110Y330470D03*
X136110Y309970D03*
X138110Y342970D03*
X165110Y344970D03*
X166000Y315000D03*
X158110Y380970D03*
X169610Y360970D03*
X138110Y383470D03*
X144000Y361000D03*
X147110Y421970D03*
X170610D03*
X159610Y428970D03*
X132610D03*
X156110Y400970D03*
X175000Y143000D03*
X205000D03*
X204000Y187000D03*
Y204000D03*
X181750Y211100D03*
X197000Y197000D03*
X191750Y192000D03*
X184000Y225000D03*
X196000D03*
X197000Y260000D03*
Y250000D03*
X208000Y260000D03*
Y250000D03*
X179000Y249000D03*
X185000Y236000D03*
X177610Y299970D03*
X197000Y281000D03*
Y270000D03*
X208000D03*
X177000Y274000D03*
X178000Y287300D03*
X177610Y330470D03*
X197940Y314010D03*
X191000Y343000D03*
X204000Y337000D03*
X192000Y325000D03*
X203000Y352000D03*
X197000Y387000D03*
X202000Y376000D03*
X212000Y372000D03*
X215000Y361000D03*
X177610Y391470D03*
X208110Y421970D03*
X198610Y426970D03*
X212000Y410000D03*
X201000D03*
X198000Y400000D03*
X235000Y143000D03*
X224000Y187000D03*
X244000D03*
X223000Y204000D03*
X243000D03*
X240340Y248720D03*
X237000Y219000D03*
X240110Y240110D03*
X240000Y230000D03*
X223000D03*
X237000Y303000D03*
X247000D03*
X257610Y327970D03*
Y335970D03*
X237610Y338970D03*
X218110Y336970D03*
X230610Y311470D03*
X224000Y317000D03*
X253000Y382000D03*
X243000D03*
X233000D03*
X223000Y372000D03*
Y352000D03*
X255610Y424970D03*
X251610Y405970D03*
X220610Y427970D03*
X241000Y402000D03*
X232000D03*
X222000Y410000D03*
X273000Y143000D03*
X303000D03*
X301390Y165360D03*
X276000Y200000D03*
X288000Y202000D03*
X264000Y191000D03*
X289760Y175990D03*
X262250Y219810D03*
X271000Y238000D03*
X287000Y239000D03*
X280550Y265960D03*
X290550D03*
X300550D03*
X280550Y275960D03*
X290550D03*
X300550D03*
X280550Y285960D03*
X290550D03*
X300550D03*
X301000Y296000D03*
X291000D03*
X281000D03*
X282000Y325000D03*
Y334000D03*
Y343000D03*
X285000Y379000D03*
X275000D03*
X264000D03*
X283000Y363000D03*
X264000Y369000D03*
Y359000D03*
X274000D03*
Y369000D03*
X270110Y425970D03*
X282610Y426970D03*
X285000Y409000D03*
Y399000D03*
Y389000D03*
X275000D03*
Y399000D03*
X264000Y389000D03*
X260610Y415970D03*
X330110Y147470D03*
X331860Y161140D03*
X337000Y166000D03*
X342000Y171000D03*
X340750Y194000D03*
X342000Y179000D03*
X341500Y186500D03*
X336000Y238000D03*
X337000Y250000D03*
X323000Y232000D03*
X318000Y222000D03*
X310550Y265960D03*
Y275960D03*
Y285960D03*
X311000Y296000D03*
X324000Y342000D03*
X308000Y329000D03*
Y338000D03*
X340000Y360000D03*
X304000Y388000D03*
X308000Y364000D03*
Y372000D03*
Y380000D03*
X336000Y379000D03*
X318000Y375000D03*
X308000Y348000D03*
X308110Y420470D03*
X315110Y421470D03*
X318610Y427970D03*
X319000Y395000D03*
X308000Y413000D03*
Y406000D03*
X327000Y413000D03*
X331000Y429000D03*
X342000Y423000D03*
X327000Y395000D03*
X360610Y147470D03*
X361000Y166000D03*
X375170Y208680D03*
X359000Y208000D03*
X367000Y198000D03*
X383000D03*
X375170Y248680D03*
Y228680D03*
X375000Y289000D03*
X375170Y268680D03*
X386470Y306000D03*
X357000Y311000D03*
X345840Y333970D03*
X372070Y326250D03*
X371000Y362000D03*
X383000Y375000D03*
X369000Y379000D03*
X353000D03*
X376610Y428970D03*
X360610Y422970D03*
X353000Y429000D03*
X357000Y413000D03*
X387000D03*
X357000Y395000D03*
X387000D03*
X391110Y147470D03*
X421610D03*
X391500Y166000D03*
X422000D03*
X411000Y204000D03*
X389170Y208680D03*
X401000Y198000D03*
X426110Y182890D03*
X415500Y211000D03*
X411000Y218000D03*
X389170Y248680D03*
Y228680D03*
X413000Y256000D03*
Y248000D03*
X427000Y256000D03*
X421000D03*
X427000Y249000D03*
X421000D03*
X389000Y289000D03*
X389170Y268680D03*
X413000Y264000D03*
X412000Y280000D03*
Y292000D03*
X427000Y263000D03*
X421000D03*
X412000Y306000D03*
X402000Y317000D03*
X391000Y327000D03*
Y343000D03*
X425000Y330000D03*
X406000D03*
X391000Y359000D03*
X403000Y375000D03*
Y350000D03*
X391110Y421970D03*
X423610Y420970D03*
X406610Y428970D03*
X417000Y413000D03*
Y395000D03*
X452110Y147470D03*
X467610Y176970D03*
X442000Y177000D03*
X432000Y178680D03*
X455000Y217000D03*
Y230950D03*
X453610Y293970D03*
X454000Y281000D03*
X452110Y330470D03*
X466610Y308970D03*
X441610Y309970D03*
X433000Y375000D03*
X463000D03*
X433000Y350000D03*
X463000D03*
X436610Y428970D03*
X465610D03*
X447000Y413000D03*
Y395000D03*
X482610Y177970D03*
X484000Y215000D03*
Y245000D03*
X482610Y299970D03*
X484000Y275000D03*
X482610Y330470D03*
X479610Y311970D03*
X482610Y360970D03*
X485000Y387000D03*
X477000Y395000D03*
X484000Y408000D03*
G54D11*
X122000Y419000D03*
X478000Y152000D03*
Y419000D03*
G54D20*
X245250Y331030D03*
Y339030D03*
G54D30*
X264620Y335760D03*
X272620Y335770D03*
G54D12*
X149020Y169820D03*
Y315880D03*
X453820Y169820D03*
Y315880D03*
G54D21*
X261200Y430000D03*
X283200D03*
G54D31*
X299780Y371550D03*
X299770Y363550D03*
G54D13*
X204640Y280800D03*
X212640Y280770D03*
G54D22*
X262240Y226560D03*
X262230Y234560D03*
G54D40*
X328670Y238170D03*
X320670Y238230D03*
G54D50*
G01X286000Y418000D02*
X276000D01*
X250000Y392000D01*
X213000D01*
G54D32*
X282850Y355760D03*
X290850D03*
G54D41*
X339830Y344850D03*
X339770Y352850D03*
G54D23*
X266000Y258000D03*
Y263000D03*
Y268000D03*
Y273000D03*
Y278000D03*
Y283000D03*
Y288000D03*
Y293000D03*
Y298000D03*
Y303000D03*
X325000Y258000D03*
Y298000D03*
Y293000D03*
Y288000D03*
Y283000D03*
Y278000D03*
Y273000D03*
Y268000D03*
Y263000D03*
Y303000D03*
G54D14*
X208000Y290000D03*
Y305000D03*
G54D51*
G01X325000Y298000D02*
X350000D01*
X368000Y280000D01*
Y225750D01*
X367500Y225250D01*
Y225000D01*
X344500Y202000D01*
X334850D01*
X333000Y200150D01*
Y173250D01*
X307750Y148000D01*
X140000D01*
X127000Y161000D01*
Y195000D01*
X128750Y196750D01*
Y227230D01*
X125000Y230980D01*
G01X124000Y242000D02*
X131750Y234250D01*
Y195500D01*
X130000Y193750D01*
Y162250D01*
X141250Y151000D01*
X306500D01*
X329840Y174340D01*
Y201240D01*
X333600Y205000D01*
X343250D01*
X364500Y226250D01*
Y276500D01*
X348000Y293000D01*
X325000D01*
G01Y288000D02*
X346000D01*
X361500Y272500D01*
Y227500D01*
X342000Y208000D01*
X332350D01*
X326840Y202490D01*
Y175590D01*
X305250Y154000D01*
X142500D01*
X133000Y163500D01*
Y192500D01*
X134750Y194250D01*
Y246250D01*
X125000Y256000D01*
G01X147450Y255000D02*
X140000Y247550D01*
Y195250D01*
X136000Y191250D01*
Y164750D01*
X143750Y157000D01*
X304000D01*
X323840Y176840D01*
Y203740D01*
X331100Y211000D01*
X340000D01*
X358000Y229000D01*
Y270000D01*
X345000Y283000D01*
X325000D01*
G01Y278000D02*
X344000D01*
X355000Y267000D01*
Y231000D01*
X338000Y214000D01*
X329850D01*
X320840Y204990D01*
Y178090D01*
X302810Y160060D01*
X144980D01*
X139260Y165780D01*
Y190260D01*
X143000Y194000D01*
Y241000D01*
X152200Y250200D01*
Y256970D01*
X149000Y260170D01*
Y268000D01*
G01X325000D02*
X342000D01*
X349000Y261000D01*
Y235000D01*
X334000Y220000D01*
X329850D01*
X329840Y220010D01*
X327360D01*
X314840Y207490D01*
Y185840D01*
X292060Y163060D01*
X166750D01*
X162000Y167810D01*
Y168000D01*
X160000Y170000D01*
Y194100D01*
X148700Y205400D01*
G01X165000Y178000D02*
Y169060D01*
X168000Y166060D01*
X290810D01*
X311840Y187090D01*
Y208740D01*
X327100Y224000D01*
X332970D01*
X346000Y237030D01*
Y258000D01*
X341000Y263000D01*
X325000D01*
G01X149000Y217000D02*
X154000Y212000D01*
X167780D01*
X171000Y208780D01*
Y181000D01*
X182940Y169060D01*
X289560D01*
X308840Y188340D01*
Y209990D01*
X309000Y210150D01*
Y210160D01*
X313000Y214160D01*
Y251000D01*
G01X303000D02*
Y212650D01*
X302840Y212490D01*
Y196840D01*
X278060Y172060D01*
X184940D01*
X174000Y183000D01*
Y210030D01*
X169250Y214780D01*
Y278550D01*
X178000Y287300D01*
G01X169610Y360970D02*
X181970D01*
X185000Y364000D01*
G01X288000Y202000D02*
Y197000D01*
X272700Y181700D01*
X190300D01*
X187000Y185000D01*
Y213000D01*
X173800Y226200D01*
Y270800D01*
X177000Y274000D01*
G01X298000Y251000D02*
Y197000D01*
X276700Y175700D01*
X186300D01*
X177000Y185000D01*
Y211280D01*
X174000Y214280D01*
Y218840D01*
G01X181750Y211100D02*
Y185250D01*
X188300Y178700D01*
X274700D01*
X293000Y197000D01*
Y251000D01*
G01X197000Y197000D02*
Y211000D01*
X203740Y217740D01*
X223260D01*
X232000Y226480D01*
Y262000D01*
X238000Y268000D01*
X266000D01*
G01X191750Y192000D02*
Y210750D01*
X202640Y221640D01*
X221360D01*
X227750Y228030D01*
Y264000D01*
X236750Y273000D01*
X266000D01*
G01X179000Y249000D02*
Y234000D01*
X182000Y231000D01*
X213000D01*
X219000Y237000D01*
Y268000D01*
X234000Y283000D01*
X266000D01*
G01X185000Y236000D02*
X212000D01*
X215000Y239000D01*
Y271000D01*
X232000Y288000D01*
X266000D01*
G01X185000Y420000D02*
X197260D01*
X198610Y421350D01*
Y426970D01*
G01X286200Y417740D02*
Y417800D01*
X286000Y418000D01*
G01X240000Y230000D02*
X244520D01*
X247250Y227270D01*
Y214760D01*
X248000Y214010D01*
Y214000D01*
X264000Y198000D01*
Y191000D01*
G01X223000Y230000D02*
Y266000D01*
X235000Y278000D01*
X266000D01*
G01X243000Y382000D02*
Y366000D01*
X241000Y364000D01*
G01X261200Y430000D02*
X256170Y424970D01*
X255610D01*
G01X241000Y420000D02*
X256580D01*
X260610Y415970D01*
G01X289760Y175990D02*
X292960Y179190D01*
X292970D01*
X305840Y192060D01*
Y211240D01*
X306000Y211400D01*
Y211410D01*
X308000Y213410D01*
Y251000D01*
G01X271000Y238000D02*
X271200Y238200D01*
G01X287000Y239000D02*
Y240720D01*
G01X283200Y430000D02*
X282610Y429410D01*
Y426970D01*
G01X295220Y426720D02*
Y429780D01*
X295000Y430000D01*
G01D02*
Y427000D01*
G01X301390Y165360D02*
X317840Y181810D01*
Y206240D01*
X328600Y217000D01*
X336000D01*
X352000Y233000D01*
Y264000D01*
X343000Y273000D01*
X325000D01*
G01X331860Y161140D02*
X348140D01*
X359620Y172620D01*
X437620D01*
X442000Y177000D01*
G01X337000Y166000D02*
X347000D01*
X356620Y175620D01*
X428620D01*
X431680Y178680D01*
X432000D01*
G01X342000Y171000D02*
X346520D01*
X354140Y178620D01*
X421840D01*
X426110Y182890D01*
G01X342000Y179000D02*
X347000D01*
X350000Y182000D01*
X418000D01*
X440000Y204000D01*
X454000D01*
X460000Y210000D01*
Y219470D01*
X455000Y224470D01*
Y230950D01*
G01Y217000D02*
Y209500D01*
X453500Y208000D01*
X439000D01*
X416000Y185000D01*
X347520D01*
X346020Y186500D01*
X341500D01*
G01X318000Y222000D02*
X323000Y227000D01*
X331720D01*
X343000Y238280D01*
Y255000D01*
X340000Y258000D01*
X325000D01*
G54D15*
X204690Y313780D03*
X212690Y313770D03*
G54D42*
X370690Y297290D03*
X378690D03*
G54D24*
X298000Y251000D03*
X293000D03*
X288000D03*
X283000D03*
X278000D03*
X273000D03*
Y310000D03*
X278000D03*
X283000D03*
X288000D03*
X293000D03*
X298000D03*
X318000Y251000D03*
X313000D03*
X308000D03*
X303000D03*
Y310000D03*
X308000D03*
X313000D03*
X318000D03*
G54D33*
X299840Y356230D03*
X341200Y311230D03*
X323730Y334230D03*
X315730D03*
X307840Y356230D03*
X311430Y395230D03*
X303430D03*
X313020Y427230D03*
X305020D03*
X349200Y311230D03*
G54D16*
X185000Y364000D03*
Y420000D03*
X241000Y364000D03*
Y420000D03*
G54D34*
X290750Y371900D03*
X290740Y363900D03*
G54D25*
X287230Y219510D03*
X287220Y227510D03*
G54D43*
X365320Y326240D03*
X357320Y326230D03*
G54D44*
X371220Y306290D03*
X379220Y306280D03*
G54D35*
X294770Y383080D03*
X294760Y391080D03*
G54D17*
X213000Y392000D03*
G54D26*
X271230Y219390D03*
X271200Y227390D03*
G54D45*
X353540Y339930D03*
X365040Y340000D03*
X353460Y354430D03*
X364960Y354500D03*
G54D36*
X294750Y407960D03*
X294770Y399960D03*
G54D18*
X241090Y255740D03*
X249090Y255770D03*
G54D27*
X295500Y280500D03*
G54D37*
X295220Y426720D03*
G54D19*
X238200Y311750D03*
X246200Y311780D03*
G54D28*
X300000Y339000D03*
Y331000D03*
X291000Y339000D03*
Y331000D03*
X413000Y242000D03*
Y234000D03*
G54D46*
X422000D03*
Y242000D03*
G54D47*
G01X219000Y290000D02*
X218770Y289770D01*
Y281850D01*
X217670Y280750D01*
X212640Y280770D01*
G01X219000Y290000D02*
X208000D01*
G01X219000Y305000D02*
X208000D01*
G01X212690Y313770D02*
X217230D01*
X219000Y312000D01*
Y305000D01*
G01X266000Y263000D02*
X251320D01*
X249070Y260750D01*
X249090Y255770D01*
G01X266000Y293000D02*
X228000D01*
X225000Y290000D01*
X219000D01*
G01X266000Y298000D02*
X229000D01*
X222000Y305000D01*
X219000D01*
G01X246200Y311780D02*
X251230Y311800D01*
X251680D01*
X258000Y305480D01*
Y303000D01*
X266000D01*
G01X273000Y310000D02*
Y316000D01*
X271000Y318000D01*
X257000D01*
X252000Y323000D01*
X247000D01*
X245250Y324750D01*
Y331030D01*
G01X271200Y227390D02*
Y238200D01*
G01D02*
X278000Y245000D01*
Y251000D01*
G01X283000D02*
Y244720D01*
X287000Y240720D01*
G01D02*
X287220Y240500D01*
Y232550D01*
X287210Y232540D01*
X287220Y227510D01*
G01X262230Y234560D02*
Y240230D01*
X266000Y244000D01*
Y258000D01*
G01X272740Y327770D02*
Y335650D01*
X272620Y335770D01*
G01X288000Y310000D02*
Y316000D01*
X285930Y318070D01*
X283000D01*
G01Y310000D02*
Y318070D01*
G01X279070D02*
X278000Y317000D01*
Y310000D01*
G01X283000Y318070D02*
X279070D01*
G01D02*
X277930D01*
X274000Y322000D01*
Y326510D01*
X272740Y327770D01*
G01X320670Y238230D02*
X320000Y238900D01*
Y243000D01*
X318000Y245000D01*
Y251000D01*
G01X371220Y306290D02*
X366190D01*
X365900Y306000D01*
X364000D01*
X361000Y303000D01*
X325000D01*
G01X315730Y334230D02*
Y329510D01*
X303000Y316780D01*
Y310000D01*
G01X318000D02*
X334940D01*
X336170Y311230D01*
X341200D01*
G01X357320Y326230D02*
X352290Y326220D01*
X343220D01*
X338000Y321000D01*
X319000D01*
X313000Y315000D01*
Y310000D01*
G01X308000D02*
Y316020D01*
X317980Y326000D01*
X336000D01*
X339860Y329860D01*
Y340080D01*
X339830Y344850D01*
G01X353460Y354430D02*
Y353920D01*
X345370Y345730D01*
X344790Y345150D01*
X343640D01*
X343130Y344850D01*
X339830D01*
G01X370690Y297290D02*
Y305760D01*
X371220Y306290D01*
G01X415500Y211000D02*
X399000D01*
X395000Y215000D01*
Y292000D01*
X389710Y297290D01*
X378690D01*
G01X365040Y340000D02*
Y339490D01*
X359470Y333850D01*
X357310Y331690D01*
Y330950D01*
X357320Y326230D01*
G01X413000Y248000D02*
Y242000D01*
G54D38*
X286200Y417740D03*
X295200Y417720D03*
G54D29*
X264740Y327780D03*
X272740Y327770D03*
G54D48*
G01X197000Y281000D02*
X204440D01*
X204640Y280800D01*
G01X197940Y314010D02*
X204460D01*
X204690Y313780D01*
G01X240340Y248720D02*
Y254990D01*
X241090Y255740D01*
G01X257610Y327970D02*
X264550D01*
X264740Y327780D01*
G01X257610Y335970D02*
X264410D01*
X264620Y335760D01*
G01X237610Y338970D02*
X245190D01*
X245250Y339030D01*
G01X230610Y311470D02*
X237920D01*
X238200Y311750D01*
G01X246200Y311780D02*
X246180Y317260D01*
X243440Y320000D01*
X233000D01*
X231000Y322000D01*
Y325000D01*
G01X262250Y219810D02*
Y226550D01*
X262240Y226560D01*
G01X300000Y331000D02*
Y324000D01*
X298000Y322000D01*
Y310000D01*
G01X291000Y331000D02*
Y324000D01*
X293000Y322000D01*
Y310000D01*
G01X300000Y339000D02*
Y351350D01*
X299840Y351510D01*
Y356230D01*
G01X291000Y339000D02*
Y350890D01*
X290850Y351040D01*
Y355760D01*
G01X282850D02*
X283000Y355910D01*
Y363000D01*
G01X299840Y356230D02*
Y363480D01*
X299770Y363550D01*
G01X290850Y355760D02*
Y363790D01*
X290740Y363900D01*
G01X294770Y383080D02*
X290750Y379060D01*
Y376680D01*
X290760Y376670D01*
X290750Y371900D01*
G01X294770Y383080D02*
X295480D01*
X299780Y378780D01*
Y371550D01*
G01X294760Y391080D02*
Y396000D01*
G01D02*
X295530Y395230D01*
X303430D01*
G01X294760Y396000D02*
Y399950D01*
X294770Y399960D01*
G01X294750Y407960D02*
Y417270D01*
X295200Y417720D01*
G01X336000Y238000D02*
X328840D01*
X328670Y238170D01*
G01X323730Y334230D02*
X324000Y334500D01*
Y342000D01*
G01X341200Y311230D02*
Y314200D01*
X345000Y318000D01*
X380000D01*
G01X339770Y352850D02*
X340000Y353080D01*
Y360000D01*
G01X307840Y356230D02*
X308000Y356390D01*
Y364000D01*
G01X313020Y427230D02*
Y423560D01*
X315110Y421470D01*
G01X318610Y427970D02*
X317870Y427230D01*
X313020D01*
G01X311430Y395230D02*
X311660Y395000D01*
X319000D01*
G01X386470Y306000D02*
X379500D01*
X379220Y306280D01*
G01X353540Y339930D02*
Y337540D01*
X349000Y333000D01*
X346810D01*
X345840Y333970D01*
G01X372070Y326250D02*
X365330D01*
X365320Y326240D01*
G01X349200Y311230D02*
X349430Y311000D01*
X357000D01*
G01X364960Y354500D02*
Y355960D01*
X371000Y362000D01*
G54D39*
X295000Y430000D03*
G54D49*
G01X99500Y129000D02*
X501000D01*
Y510000D01*
X99500D01*
Y129000D01*
M02*
