G04 ================== begin FILE IDENTIFICATION RECORD ==================*
G04 Layout Name:  CC2541EM.brd*
G04 Film Name:    paste_top*
G04 File Format:  Gerber RS274X*
G04 File Origin:  Cadence Allegro 16.5-P002*
G04 Origin Date:  Fri Apr 12 14:10:24 2013*
G04 *
G04 Layer:  PIN/FILMMASKTOP*
G04 Layer:  BOARD GEOMETRY/OUTLINE*
G04 *
G04 Offset:    (0.000 0.000)*
G04 Mirror:    No*
G04 Mode:      Positive*
G04 Rotation:  0*
G04 FullContactRelief:  No*
G04 UndefLineWidth:     0.020*
G04 ================== end FILE IDENTIFICATION RECORD ====================*
%FSLAX44Y44*MOMM*%
%IR0*IPPOS*OFA0.00000B0.00000*MIA0B0*SFA1.00000B1.00000*%
%AMMACRO29*
4,1,40,.275,.135,
.275,-.135,
.272949,-.158443,
.266859,-.181173,
.256913,-.2025,
.243416,-.221776,
.226776,-.238416,
.2075,-.251913,
.186173,-.261859,
.163443,-.267949,
.14,-.27,
-.14,-.27,
-.163443,-.267949,
-.186173,-.261859,
-.2075,-.251913,
-.226776,-.238416,
-.243416,-.221776,
-.256913,-.2025,
-.266859,-.181173,
-.272949,-.158443,
-.275,-.135,
-.275,.135,
-.272949,.158443,
-.266859,.181173,
-.256913,.2025,
-.243416,.221776,
-.226776,.238416,
-.2075,.251913,
-.186173,.261859,
-.163443,.267949,
-.14,.27,
.14,.27,
.163443,.267949,
.186173,.261859,
.2075,.251913,
.226776,.238416,
.243416,.221776,
.256913,.2025,
.266859,.181173,
.272949,.158443,
.275,.135,
0.0*
%
%ADD29MACRO29*%
%AMMACRO41*
4,1,40,.135,-.275,
-.135,-.275,
-.158443,-.272949,
-.181173,-.266859,
-.2025,-.256913,
-.221776,-.243416,
-.238416,-.226776,
-.251913,-.2075,
-.261859,-.186173,
-.267949,-.163443,
-.27,-.14,
-.27,.14,
-.267949,.163443,
-.261859,.186173,
-.251913,.2075,
-.238416,.226776,
-.221776,.243416,
-.2025,.256913,
-.181173,.266859,
-.158443,.272949,
-.135,.275,
.135,.275,
.158443,.272949,
.181173,.266859,
.2025,.256913,
.221776,.243416,
.238416,.226776,
.251913,.2075,
.261859,.186173,
.267949,.163443,
.27,.14,
.27,-.14,
.267949,-.163443,
.261859,-.186173,
.251913,-.2075,
.238416,-.226776,
.221776,-.243416,
.2025,-.256913,
.181173,-.266859,
.158443,-.272949,
.135,-.275,
0.0*
%
%ADD41MACRO41*%
%AMMACRO17*
4,1,42,.135,-.275,
-.135,-.275,
-.158442,-.272955,
-.181172,-.266863,
-.202499,-.256917,
-.221775,-.243418,
-.238413,-.226778,
-.25191,-.207501,
-.261854,-.186173,
-.267943,-.163442,
-.27,-.14,
-.27,.14,
-.267955,.163442,
-.261863,.186172,
-.251917,.207499,
-.238419,.226775,
-.221778,.243413,
-.202501,.25691,
-.181173,.266854,
-.158443,.272943,
-.135,.274993,
-.135,.275,
.135,.275,
.158442,.272955,
.181172,.266863,
.202499,.256917,
.221775,.243418,
.238413,.226778,
.25191,.207501,
.261854,.186173,
.267943,.163442,
.27,.14,
.27,-.14,
.267955,-.163442,
.261863,-.186172,
.251917,-.207499,
.238419,-.226775,
.221778,-.243413,
.202501,-.25691,
.181173,-.266854,
.158443,-.272943,
.135,-.274993,
.135,-.275,
0.0*
%
%ADD17MACRO17*%
%AMMACRO22*
4,1,42,.136,-.274,
-.134,-.276,
-.157451,-.27354,
-.180202,-.267528,
-.201564,-.257657,
-.220887,-.244226,
-.237584,-.227644,
-.251148,-.208414,
-.261167,-.187122,
-.267336,-.164413,
-.269,-.141,
-.271,.139,
-.268562,.162451,
-.262553,.185203,
-.252685,.206566,
-.239257,.225891,
-.222677,.242591,
-.20345,.256157,
-.182158,.266179,
-.15945,.272351,
-.136015,.274487,
-.136,.274,
.134,.276,
.157451,.27354,
.180202,.267528,
.201564,.257657,
.220887,.244226,
.237584,.227644,
.251148,.208414,
.261167,.187122,
.267336,.164413,
.269,.141,
.271,-.139,
.268562,-.162451,
.262553,-.185203,
.252685,-.206566,
.239257,-.225891,
.222677,-.242591,
.20345,-.256157,
.182158,-.266179,
.15945,-.272351,
.136015,-.274487,
.136,-.274,
0.0*
%
%ADD22MACRO22*%
%ADD14C,1.801*%
%AMMACRO38*
4,1,42,.275,.135,
.275,-.135,
.273097,-.15844,
.266975,-.181162,
.257,-.202475,
.243476,-.221732,
.226813,-.238349,
.207518,-.251819,
.186177,-.261735,
.163438,-.267793,
.14,-.27,
-.14,-.27,
-.16344,-.268105,
-.186162,-.261984,
-.207476,-.25201,
-.226734,-.238487,
-.243351,-.221825,
-.256823,-.202531,
-.266739,-.18119,
-.272799,-.158451,
-.274818,-.135006,
-.275,-.135,
-.275,.135,
-.273097,.15844,
-.266975,.181162,
-.257,.202475,
-.243476,.221732,
-.226813,.238349,
-.207518,.251819,
-.186177,.261735,
-.163438,.267793,
-.14,.27,
.14,.27,
.16344,.268105,
.186162,.261984,
.207476,.25201,
.226734,.238487,
.243351,.221825,
.256823,.202531,
.266739,.18119,
.272799,.158451,
.274818,.135006,
.275,.135,
0.0*
%
%ADD38MACRO38*%
%ADD23R,4.6X4.6*%
%AMMACRO35*
4,1,42,.276,.133,
.274,-.137,
.271723,-.160428,
.26548,-.183117,
.255393,-.204377,
.241767,-.223563,
.225017,-.240091,
.205651,-.253459,
.184257,-.263262,
.161487,-.2692,
.138031,-.271095,
.138,-.271,
-.142,-.269,
-.165427,-.266676,
-.188114,-.260427,
-.209372,-.250334,
-.228553,-.236702,
-.245077,-.219947,
-.258439,-.200577,
-.268236,-.179181,
-.274168,-.156409,
-.276,-.133,
-.274,.137,
-.271723,.160428,
-.26548,.183117,
-.255393,.204377,
-.241767,.223563,
-.225017,.240091,
-.205651,.253459,
-.184257,.263262,
-.161487,.2692,
-.138031,.271095,
-.138,.271,
.142,.269,
.165427,.266676,
.188114,.260427,
.209372,.250334,
.228553,.236702,
.245077,.219947,
.258439,.200577,
.268236,.179181,
.274168,.156409,
.276,.133,
0.0*
%
%ADD35MACRO35*%
%AMMACRO11*
4,1,41,.701,0.0,
.701,.175,
.698278,.205441,
.690312,.234948,
.677343,.262622,
.659765,.287624,
.638113,.309194,
.613044,.326677,
.58532,.33954,
.555784,.347394,
.526,.35,
-.526,.35,
-.556441,.347278,
-.585948,.339312,
-.613622,.326343,
-.638624,.308765,
-.660194,.287113,
-.677677,.262044,
-.69054,.23432,
-.698394,.204784,
-.701,.175,
-.701,-.175,
-.698278,-.205441,
-.690312,-.234948,
-.677343,-.262622,
-.659765,-.287624,
-.638113,-.309194,
-.613044,-.326677,
-.58532,-.33954,
-.555784,-.347394,
-.526,-.35,
.526,-.35,
.556441,-.347278,
.585948,-.339312,
.613622,-.326343,
.638624,-.308765,
.660194,-.287113,
.677677,-.262044,
.69054,-.23432,
.698394,-.204784,
.701,-.175,
.701,0.0,
0.0*
%
%ADD11MACRO11*%
%AMMACRO24*
4,1,40,-.135,.275,
.135,.275,
.158443,.272949,
.181173,.266859,
.2025,.256913,
.221776,.243416,
.238416,.226776,
.251913,.2075,
.261859,.186173,
.267949,.163443,
.27,.14,
.27,-.14,
.267949,-.163443,
.261859,-.186173,
.251913,-.2075,
.238416,-.226776,
.221776,-.243416,
.2025,-.256913,
.181173,-.266859,
.158443,-.272949,
.135,-.275,
-.135,-.275,
-.158443,-.272949,
-.181173,-.266859,
-.2025,-.256913,
-.221776,-.243416,
-.238416,-.226776,
-.251913,-.2075,
-.261859,-.186173,
-.267949,-.163443,
-.27,-.14,
-.27,.14,
-.267949,.163443,
-.261859,.186173,
-.251913,.2075,
-.238416,.226776,
-.221776,.243416,
-.2025,.256913,
-.181173,.266859,
-.158443,.272949,
-.135,.275,
0.0*
%
%ADD24MACRO24*%
%AMMACRO31*
4,1,42,-.135,.275,
.135,.275,
.15844,.273065,
.181164,.26695,
.20248,.256981,
.221742,.243463,
.238364,.226805,
.25184,.207514,
.261762,.186176,
.267828,.163439,
.27,.14,
.27,-.14,
.268071,-.16344,
.261957,-.186164,
.251989,-.207481,
.238471,-.226743,
.221814,-.243366,
.202524,-.256843,
.181186,-.266765,
.15845,-.272832,
.135005,-.274858,
.135,-.275,
-.135,-.275,
-.15844,-.273065,
-.181164,-.26695,
-.20248,-.256981,
-.221742,-.243463,
-.238364,-.226805,
-.25184,-.207514,
-.261762,-.186176,
-.267828,-.163439,
-.27,-.14,
-.27,.14,
-.268071,.16344,
-.261957,.186164,
-.251989,.207481,
-.238471,.226743,
-.221814,.243366,
-.202524,.256843,
-.181186,.266765,
-.15845,.272832,
-.135005,.274858,
-.135,.275,
0.0*
%
%ADD31MACRO31*%
%ADD19O,.8X.3*%
%ADD20O,.3X.8*%
%AMMACRO15*
4,1,42,-.275,-.136,
-.275,.134,
-.273517,.157448,
-.267511,.180201,
-.257645,.201565,
-.244219,.220891,
-.227641,.237592,
-.208415,.251161,
-.187124,.261185,
-.164417,.26736,
-.141,.269,
.139,.27,
.162448,.268538,
.185202,.262535,
.206567,.252672,
.225895,.239248,
.242598,.222673,
.25617,.203448,
.266196,.182159,
.272374,.159453,
.274515,.136018,
.275,.136,
.275,-.134,
.273517,-.157448,
.267511,-.180201,
.257645,-.201565,
.244219,-.220891,
.227641,-.237592,
.208415,-.251161,
.187124,-.261185,
.164417,-.26736,
.141,-.269,
-.139,-.27,
-.162448,-.268538,
-.185202,-.262535,
-.206567,-.252672,
-.225895,-.239248,
-.242598,-.222673,
-.25617,-.203448,
-.266196,-.182159,
-.272374,-.159453,
-.274515,-.136018,
-.275,-.136,
0.0*
%
%ADD15MACRO15*%
%AMMACRO32*
4,1,42,-.136,.275,
.134,.275,
.157452,.273345,
.180214,.267375,
.201594,.257544,
.220942,.244149,
.237669,.227598,
.251269,.208394,
.261328,.18712,
.267539,.164422,
.27,.141,
.27,-.139,
.268357,-.162452,
.262389,-.185214,
.252559,-.206595,
.239166,-.225944,
.222616,-.242673,
.203413,-.256274,
.182139,-.266334,
.159442,-.272547,
.136011,-.274724,
.136,-.275,
-.134,-.275,
-.157452,-.273345,
-.180214,-.267375,
-.201594,-.257544,
-.220942,-.244149,
-.237669,-.227598,
-.251269,-.208394,
-.261328,-.18712,
-.267539,-.164422,
-.27,-.141,
-.27,.139,
-.268357,.162452,
-.262389,.185214,
-.252559,.206595,
-.239166,.225944,
-.222616,.242673,
-.203413,.256274,
-.182139,.266334,
-.159442,.272547,
-.136011,.274724,
-.136,.275,
0.0*
%
%ADD32MACRO32*%
%AMMACRO16*
4,1,42,-.274,-.136,
-.276,.134,
-.273588,.15745,
-.267566,.180198,
-.257685,.201555,
-.244246,.220872,
-.227656,.237562,
-.20842,.251117,
-.187123,.261126,
-.164411,.267285,
-.141,.269,
.139,.271,
.16245,.268613,
.1852,.262594,
.206558,.252717,
.225877,.23928,
.242569,.222693,
.256128,.20346,
.26614,.182164,
.272303,.159453,
.274428,.136017,
.274,.136,
.276,-.134,
.273588,-.15745,
.267566,-.180198,
.257685,-.201555,
.244246,-.220872,
.227656,-.237562,
.20842,-.251117,
.187123,-.261126,
.164411,-.267285,
.141,-.269,
-.139,-.271,
-.16245,-.268613,
-.1852,-.262594,
-.206558,-.252717,
-.225877,-.23928,
-.242569,-.222693,
-.256128,-.20346,
-.26614,-.182164,
-.272303,-.159453,
-.274428,-.136017,
-.274,-.136,
0.0*
%
%ADD16MACRO16*%
%AMMACRO40*
4,1,42,.198,.451,
-.204,.449,
-.238616,.445223,
-.272086,.435677,
-.30339,.420464,
-.331576,.400046,
-.355789,.375045,
-.375292,.346218,
-.389494,.314443,
-.397962,.280684,
-.4,.247,
-.398,-.251,
-.39459,-.285681,
-.385666,-.319322,
-.371035,-.350902,
-.351144,-.379462,
-.326595,-.404134,
-.298134,-.424168,
-.266627,-.438956,
-.233031,-.448048,
-.198367,-.451168,
-.198,-.451,
.204,-.449,
.238616,-.445223,
.272086,-.435677,
.30339,-.420464,
.331576,-.400046,
.355789,-.375045,
.375292,-.346218,
.389494,-.314443,
.397962,-.280684,
.4,-.247,
.398,.251,
.39459,.285681,
.385666,.319322,
.371035,.350902,
.351144,.379462,
.326595,.404134,
.298134,.424168,
.266627,.438956,
.233031,.448048,
.198367,.451168,
.198,.451,
0.0*
%
%ADD40MACRO40*%
%AMMACRO21*
4,1,42,.135,-.275,
-.135,-.275,
-.15844,-.273069,
-.181164,-.266953,
-.20248,-.256983,
-.221741,-.243464,
-.238362,-.226806,
-.251838,-.207515,
-.261759,-.186176,
-.267824,-.163439,
-.27,-.14,
-.27,.14,
-.268075,.16344,
-.26196,.186164,
-.251992,.207481,
-.238473,.226742,
-.221816,.243364,
-.202525,.25684,
-.181187,.266762,
-.15845,.272828,
-.135005,.274854,
-.135,.275,
.135,.275,
.15844,.273069,
.181164,.266953,
.20248,.256983,
.221741,.243464,
.238362,.226806,
.251838,.207515,
.261759,.186176,
.267824,.163439,
.27,.14,
.27,-.14,
.268075,-.16344,
.26196,-.186164,
.251992,-.207481,
.238473,-.226742,
.221816,-.243364,
.202525,-.25684,
.181187,-.266762,
.15845,-.272828,
.135005,-.274854,
.135,-.275,
0.0*
%
%ADD21MACRO21*%
%AMMACRO18*
4,1,42,.135,-.275,
-.135,-.275,
-.158441,-.273022,
-.181167,-.266916,
-.202488,-.256956,
-.221755,-.243446,
-.238383,-.226795,
-.251867,-.207509,
-.261797,-.186175,
-.267872,-.16344,
-.27,-.14,
-.27,.14,
-.268026,.163441,
-.261921,.186167,
-.251961,.207488,
-.238451,.226755,
-.2218,.243384,
-.202515,.256869,
-.181181,.2668,
-.158447,.272875,
-.135003,.27491,
-.135,.275,
.135,.275,
.158441,.273022,
.181167,.266916,
.202488,.256956,
.221755,.243446,
.238383,.226795,
.251867,.207509,
.261797,.186175,
.267872,.16344,
.27,.14,
.27,-.14,
.268026,-.163441,
.261921,-.186167,
.251961,-.207488,
.238451,-.226755,
.2218,-.243384,
.202515,-.256869,
.181181,-.2668,
.158447,-.272875,
.135003,-.27491,
.135,-.275,
0.0*
%
%ADD18MACRO18*%
%AMMACRO26*
4,1,42,-.275,-.135,
-.275,.135,
-.273101,.15844,
-.266978,.181161,
-.257003,.202474,
-.243478,.221731,
-.226814,.238347,
-.207518,.251817,
-.186177,.261731,
-.163438,.267789,
-.14,.27,
.14,.27,
.16344,.268109,
.186162,.261987,
.207475,.252013,
.226733,.238489,
.24335,.221826,
.25682,.202531,
.266736,.18119,
.272795,.158452,
.274814,.135006,
.275,.135,
.275,-.135,
.273101,-.15844,
.266978,-.181161,
.257003,-.202474,
.243478,-.221731,
.226814,-.238347,
.207518,-.251817,
.186177,-.261731,
.163438,-.267789,
.14,-.27,
-.14,-.27,
-.16344,-.268109,
-.186162,-.261987,
-.207475,-.252013,
-.226733,-.238489,
-.24335,-.221826,
-.25682,-.202531,
-.266736,-.18119,
-.272795,-.158452,
-.274814,-.135006,
-.275,-.135,
0.0*
%
%ADD26MACRO26*%
%AMMACRO30*
4,1,42,-.135,.275,
.135,.275,
.158445,.272814,
.181183,.266752,
.202523,.256834,
.221816,.243361,
.238477,.226742,
.251999,.207483,
.261971,.186168,
.26809,.163446,
.270171,.140006,
.27,.14,
.27,-.14,
.267806,-.163445,
.261744,-.186183,
.251825,-.207522,
.238351,-.226815,
.221731,-.243475,
.202471,-.256996,
.181156,-.266967,
.158433,-.273085,
.135,-.275,
-.135,-.275,
-.158445,-.272814,
-.181183,-.266752,
-.202523,-.256834,
-.221816,-.243361,
-.238477,-.226742,
-.251999,-.207483,
-.261971,-.186168,
-.26809,-.163446,
-.270171,-.140006,
-.27,-.14,
-.27,.14,
-.267806,.163445,
-.261744,.186183,
-.251825,.207522,
-.238351,.226815,
-.221731,.243475,
-.202471,.256996,
-.181156,.266967,
-.158433,.273085,
-.135,.275,
0.0*
%
%ADD30MACRO30*%
%AMMACRO10*
4,1,42,-.275,-.134,
-.275,.136,
-.272413,.159432,
-.266231,.182138,
-.2562,.203425,
-.242625,.222647,
-.225919,.23922,
-.206589,.25264,
-.185222,.262499,
-.162467,.268498,
-.139017,.270455,
-.139,.27,
.141,.27,
.164432,.267393,
.187137,.261209,
.208423,.251176,
.227643,.237599,
.244214,.22089,
.257631,.201558,
.267488,.18019,
.273485,.157435,
.275,.134,
.275,-.136,
.272413,-.159432,
.266231,-.182138,
.2562,-.203425,
.242625,-.222647,
.225919,-.23922,
.206589,-.25264,
.185222,-.262499,
.162467,-.268498,
.139017,-.270455,
.139,-.27,
-.141,-.27,
-.164432,-.267393,
-.187137,-.261209,
-.208423,-.251176,
-.227643,-.237599,
-.244214,-.22089,
-.257631,-.201558,
-.267488,-.18019,
-.273485,-.157435,
-.275,-.134,
0.0*
%
%ADD10MACRO10*%
%AMMACRO36*
4,1,42,-.137,.274,
.133,.276,
.156458,.274059,
.179233,.268141,
.200635,.258357,
.220013,.245006,
.236778,.228493,
.250421,.209319,
.260527,.188068,
.26679,.165384,
.269,.142,
.271,-.138,
.2691,-.161458,
.263188,-.184235,
.25341,-.20564,
.240063,-.225021,
.223554,-.24179,
.204384,-.255438,
.183136,-.26555,
.160454,-.271818,
.137028,-.274052,
.137,-.274,
-.133,-.276,
-.156458,-.274059,
-.179233,-.268141,
-.200635,-.258357,
-.220013,-.245006,
-.236778,-.228493,
-.250421,-.209319,
-.260527,-.188068,
-.26679,-.165384,
-.269,-.142,
-.271,.138,
-.2691,.161458,
-.263188,.184235,
-.25341,.20564,
-.240063,.225021,
-.223554,.24179,
-.204384,.255438,
-.183136,.26555,
-.160454,.271818,
-.137028,.274052,
-.137,.274,
0.0*
%
%ADD36MACRO36*%
%AMMACRO27*
4,1,42,-.135,.275,
.135,.275,
.158445,.272835,
.181182,.266769,
.202519,.256846,
.22181,.243369,
.238468,.226747,
.251985,.207486,
.261953,.186169,
.268068,.163445,
.270144,.140005,
.27,.14,
.27,-.14,
.267829,-.163445,
.261762,-.186181,
.251839,-.207519,
.238361,-.226809,
.221738,-.243466,
.202476,-.256983,
.181159,-.26695,
.158435,-.273064,
.135,-.275,
-.135,-.275,
-.158445,-.272835,
-.181182,-.266769,
-.202519,-.256846,
-.22181,-.243369,
-.238468,-.226747,
-.251985,-.207486,
-.261953,-.186169,
-.268068,-.163445,
-.270144,-.140005,
-.27,-.14,
-.27,.14,
-.267829,.163445,
-.261762,.186181,
-.251839,.207519,
-.238361,.226809,
-.221738,.243466,
-.202476,.256983,
-.181159,.26695,
-.158435,.273064,
-.135,.275,
0.0*
%
%ADD27MACRO27*%
%AMMACRO39*
4,1,42,-.275,-.135,
-.275,.135,
-.272872,.158444,
-.266798,.181179,
-.256868,.202513,
-.243384,.221799,
-.226757,.238451,
-.20749,.251962,
-.18617,.261923,
-.163444,.26803,
-.140003,.270098,
-.14,.27,
.14,.27,
.163444,.267868,
.186178,.261793,
.207513,.251863,
.226798,.238379,
.24345,.221751,
.256961,.202484,
.26692,.181163,
.273027,.158437,
.275,.135,
.275,-.135,
.272872,-.158444,
.266798,-.181179,
.256868,-.202513,
.243384,-.221799,
.226757,-.238451,
.20749,-.251962,
.18617,-.261923,
.163444,-.26803,
.140003,-.270098,
.14,-.27,
-.14,-.27,
-.163444,-.267868,
-.186178,-.261793,
-.207513,-.251863,
-.226798,-.238379,
-.24345,-.221751,
-.256961,-.202484,
-.26692,-.181163,
-.273027,-.158437,
-.275,-.135,
0.0*
%
%ADD39MACRO39*%
%AMMACRO37*
4,1,42,-.275,-.135,
-.275,.135,
-.272891,.158444,
-.266813,.181177,
-.256879,.20251,
-.243392,.221793,
-.226762,.238442,
-.207493,.25195,
-.186171,.261907,
-.163444,.26801,
-.140003,.270073,
-.14,.27,
.14,.27,
.163444,.267888,
.186177,.261809,
.207509,.251875,
.226793,.238388,
.243441,.221757,
.256949,.202488,
.266905,.181166,
.273007,.158439,
.275,.135,
.275,-.135,
.272891,-.158444,
.266813,-.181177,
.256879,-.20251,
.243392,-.221793,
.226762,-.238442,
.207493,-.25195,
.186171,-.261907,
.163444,-.26801,
.140003,-.270073,
.14,-.27,
-.14,-.27,
-.163444,-.267888,
-.186177,-.261809,
-.207509,-.251875,
-.226793,-.238388,
-.243441,-.221757,
-.256949,-.202488,
-.266905,-.181166,
-.273007,-.158439,
-.275,-.135,
0.0*
%
%ADD37MACRO37*%
%AMMACRO25*
4,1,42,-.275,-.135,
-.275,.135,
-.272812,.158445,
-.26675,.181183,
-.256833,.202523,
-.24336,.221817,
-.226742,.238478,
-.207483,.252,
-.186168,.261973,
-.163446,.268092,
-.140006,.270173,
-.14,.27,
.14,.27,
.163445,.267804,
.186183,.261742,
.207523,.251823,
.226816,.23835,
.243476,.221731,
.256997,.202471,
.266968,.181156,
.273087,.158433,
.275,.135,
.275,-.135,
.272812,-.158445,
.26675,-.181183,
.256833,-.202523,
.24336,-.221817,
.226742,-.238478,
.207483,-.252,
.186168,-.261973,
.163446,-.268092,
.140006,-.270173,
.14,-.27,
-.14,-.27,
-.163445,-.267804,
-.186183,-.261742,
-.207523,-.251823,
-.226816,-.23835,
-.243476,-.221731,
-.256997,-.202471,
-.266968,-.181156,
-.273087,-.158433,
-.275,-.135,
0.0*
%
%ADD25MACRO25*%
%AMMACRO28*
4,1,42,-.275,-.135,
-.275,.135,
-.272937,.158443,
-.266849,.181174,
-.256907,.202502,
-.243411,.22178,
-.226773,.238421,
-.207499,.251921,
-.186172,.261868,
-.163443,.267961,
-.140001,.270015,
-.14,.27,
.14,.27,
.163443,.267937,
.186174,.261849,
.207502,.251906,
.22678,.23841,
.243421,.221772,
.25692,.202498,
.266868,.181171,
.272961,.158442,
.275,.135,
.275,-.135,
.272937,-.158443,
.266849,-.181174,
.256907,-.202502,
.243411,-.22178,
.226773,-.238421,
.207499,-.251921,
.186172,-.261868,
.163443,-.267961,
.140001,-.270015,
.14,-.27,
-.14,-.27,
-.163443,-.267937,
-.186174,-.261849,
-.207502,-.251906,
-.22678,-.23841,
-.243421,-.221772,
-.25692,-.202498,
-.266868,-.181171,
-.272961,-.158442,
-.275,-.135,
0.0*
%
%ADD28MACRO28*%
%AMMACRO12*
4,1,42,-.275,-.135,
-.275,.135,
-.272868,.158444,
-.266795,.181179,
-.256866,.202514,
-.243383,.2218,
-.226756,.238453,
-.20749,.251965,
-.18617,.261926,
-.163444,.268034,
-.140004,.270103,
-.14,.27,
.14,.27,
.163444,.267864,
.186179,.26179,
.207513,.25186,
.2268,.238377,
.243451,.221749,
.256963,.202483,
.266924,.181163,
.273031,.158437,
.275,.135,
.275,-.135,
.272868,-.158444,
.266795,-.181179,
.256866,-.202514,
.243383,-.2218,
.226756,-.238453,
.20749,-.251965,
.18617,-.261926,
.163444,-.268034,
.140004,-.270103,
.14,-.27,
-.14,-.27,
-.163444,-.267864,
-.186179,-.26179,
-.207513,-.25186,
-.2268,-.238377,
-.243451,-.221749,
-.256963,-.202483,
-.266924,-.181163,
-.273031,-.158437,
-.275,-.135,
0.0*
%
%ADD12MACRO12*%
%AMMACRO34*
4,1,42,-.275,-.135,
-.275,.135,
-.272748,.158447,
-.2667,.181188,
-.256795,.202534,
-.243333,.221836,
-.226725,.238507,
-.207474,.25204,
-.186166,.262025,
-.163447,.268159,
-.140008,.270254,
-.14,.27,
.14,.27,
.163447,.267737,
.186188,.261688,
.207533,.251781,
.226834,.238319,
.243504,.221709,
.257036,.202457,
.26702,.181148,
.273151,.158429,
.275,.135,
.275,-.135,
.272748,-.158447,
.2667,-.181188,
.256795,-.202534,
.243333,-.221836,
.226725,-.238507,
.207474,-.25204,
.186166,-.262025,
.163447,-.268159,
.140008,-.270254,
.14,-.27,
-.14,-.27,
-.163447,-.267737,
-.186188,-.261688,
-.207533,-.251781,
-.226834,-.238319,
-.243504,-.221709,
-.257036,-.202457,
-.26702,-.181148,
-.273151,-.158429,
-.275,-.135,
0.0*
%
%ADD34MACRO34*%
%AMMACRO33*
4,1,42,-.135,.275,
.135,.275,
.158447,.272748,
.181188,.2667,
.202534,.256795,
.221836,.243333,
.238507,.226725,
.25204,.207474,
.262025,.186166,
.268159,.163447,
.270254,.140008,
.27,.14,
.27,-.14,
.267737,-.163447,
.261688,-.186188,
.251781,-.207533,
.238319,-.226834,
.221709,-.243504,
.202457,-.257036,
.181148,-.26702,
.158429,-.273151,
.135,-.275,
-.135,-.275,
-.158447,-.272748,
-.181188,-.2667,
-.202534,-.256795,
-.221836,-.243333,
-.238507,-.226725,
-.25204,-.207474,
-.262025,-.186166,
-.268159,-.163447,
-.270254,-.140008,
-.27,-.14,
-.27,.14,
-.267737,.163447,
-.261688,.186188,
-.251781,.207533,
-.238319,.226834,
-.221709,.243504,
-.202457,.257036,
-.181148,.26702,
-.158429,.273151,
-.135,.275,
0.0*
%
%ADD33MACRO33*%
%AMMACRO13*
4,1,41,0.0,-1.,
.519,-1.,
.602564,-.992645,
.683582,-.970892,
.759592,-.9354,
.828283,-.887248,
.88757,-.8279,
.93565,-.759158,
.971063,-.683112,
.992732,-.602072,
1.,-.519,
1.,.519,
.992645,.602564,
.970892,.683582,
.9354,.759592,
.887248,.828283,
.8279,.88757,
.759158,.93565,
.683112,.971063,
.602072,.992732,
.519,1.,
-.519,1.,
-.602564,.992645,
-.683582,.970892,
-.759592,.9354,
-.828283,.887248,
-.88757,.8279,
-.93565,.759158,
-.971063,.683112,
-.992732,.602072,
-1.,.519,
-1.,-.519,
-.992645,-.602564,
-.970892,-.683582,
-.9354,-.759592,
-.887248,-.828283,
-.8279,-.88757,
-.759158,-.93565,
-.683112,-.971063,
-.602072,-.992732,
-.519,-1.,
0.0,-1.,
0.0*
%
%ADD13MACRO13*%
%ADD42C,.02*%
G75*
%LPD*%
G75*
G54D10*
X204640Y280800D03*
X212640Y280770D03*
G54D20*
X298000Y251000D03*
X293000D03*
X288000D03*
X283000D03*
X278000D03*
X273000D03*
Y310000D03*
X278000D03*
X283000D03*
X288000D03*
X293000D03*
X298000D03*
X318000Y251000D03*
X313000D03*
X308000D03*
X303000D03*
Y310000D03*
X308000D03*
X313000D03*
X318000D03*
G54D11*
X208000Y290000D03*
Y305000D03*
G54D12*
X204690Y313780D03*
X212690Y313770D03*
G54D30*
X290750Y371900D03*
X290740Y363900D03*
G54D21*
X287230Y219510D03*
X287220Y227510D03*
G54D13*
X185000Y364000D03*
Y420000D03*
X241000Y364000D03*
Y420000D03*
G54D40*
X353540Y339930D03*
X365040Y340000D03*
X353460Y354430D03*
X364960Y354500D03*
G54D31*
X294770Y383080D03*
X294760Y391080D03*
G54D22*
X271230Y219390D03*
X271200Y227390D03*
G54D32*
X294750Y407960D03*
X294770Y399960D03*
G54D23*
X295500Y280500D03*
G54D14*
X213000Y392000D03*
G54D41*
X422000Y234000D03*
Y242000D03*
G54D42*
G01X99500Y129000D02*
X501000D01*
Y510000D01*
X99500D01*
Y129000D01*
G54D33*
X295220Y426720D03*
G54D15*
X241090Y255740D03*
X249090Y255770D03*
G54D24*
X300000Y339000D03*
Y331000D03*
X291000Y339000D03*
Y331000D03*
X413000Y242000D03*
Y234000D03*
G54D34*
X286200Y417740D03*
X295200Y417720D03*
G54D25*
X264740Y327780D03*
X272740Y327770D03*
G54D16*
X238200Y311750D03*
X246200Y311780D03*
G54D26*
X264620Y335760D03*
X272620Y335770D03*
G54D35*
X328670Y238170D03*
X320670Y238230D03*
G54D17*
X245250Y331030D03*
Y339030D03*
G54D27*
X299780Y371550D03*
X299770Y363550D03*
G54D36*
X339830Y344850D03*
X339770Y352850D03*
G54D18*
X262240Y226560D03*
X262230Y234560D03*
G54D28*
X282850Y355760D03*
X290850D03*
G54D37*
X370690Y297290D03*
X378690D03*
G54D19*
X266000Y258000D03*
Y263000D03*
Y268000D03*
Y273000D03*
Y278000D03*
Y283000D03*
Y288000D03*
Y293000D03*
Y298000D03*
Y303000D03*
X325000Y258000D03*
Y298000D03*
Y293000D03*
Y288000D03*
Y283000D03*
Y278000D03*
Y273000D03*
Y268000D03*
Y263000D03*
Y303000D03*
G54D38*
X365320Y326240D03*
X357320Y326230D03*
G54D29*
X299840Y356230D03*
X341200Y311230D03*
X323730Y334230D03*
X315730D03*
X307840Y356230D03*
X311430Y395230D03*
X303430D03*
X313020Y427230D03*
X305020D03*
X349200Y311230D03*
G54D39*
X371220Y306290D03*
X379220Y306280D03*
M02*
