G04 ================== begin FILE IDENTIFICATION RECORD ==================*
G04 Layout Name:  CC2541EM.brd*
G04 Film Name:    soldmask_bottom*
G04 File Format:  Gerber RS274X*
G04 File Origin:  Cadence Allegro 16.5-P002*
G04 Origin Date:  Fri Apr 12 14:10:24 2013*
G04 *
G04 Layer:  VIA CLASS/SOLDERMASK_BOTTOM*
G04 Layer:  PIN/SOLDERMASK_BOTTOM*
G04 Layer:  BOARD GEOMETRY/OUTLINE*
G04 *
G04 Offset:    (0.000 0.000)*
G04 Mirror:    No*
G04 Mode:      Positive*
G04 Rotation:  0*
G04 FullContactRelief:  No*
G04 UndefLineWidth:     0.020*
G04 ================== end FILE IDENTIFICATION RECORD ====================*
%FSLAX44Y44*MOMM*%
%IR0*IPPOS*OFA0.00000B0.00000*MIA0B0*SFA1.00000B1.00000*%
%ADD10O,2.2X.8*%
%ADD11C,1.699*%
%ADD12C,.6*%
%ADD13C,.02*%
G75*
%LPD*%
G75*
G54D10*
X136000Y185700D03*
Y198400D03*
Y211100D03*
Y223800D03*
Y236500D03*
Y249200D03*
Y261900D03*
Y274600D03*
Y287300D03*
Y300000D03*
X162040Y185700D03*
Y198400D03*
Y211100D03*
Y223800D03*
Y236500D03*
Y249200D03*
Y261900D03*
Y274600D03*
Y287300D03*
Y300000D03*
X466840Y185700D03*
Y198400D03*
Y211100D03*
X440800Y185700D03*
Y198400D03*
Y211100D03*
X466840Y223800D03*
Y236500D03*
Y249200D03*
X440800Y223800D03*
Y236500D03*
Y249200D03*
X466840Y261900D03*
Y274600D03*
Y287300D03*
Y300000D03*
X440800Y261900D03*
Y274600D03*
Y287300D03*
Y300000D03*
G54D11*
X149020Y169820D03*
Y315880D03*
X453820Y169820D03*
Y315880D03*
G54D12*
X280550Y265960D03*
X290550D03*
X300550D03*
X280550Y275960D03*
X290550D03*
X300550D03*
X280550Y285960D03*
X290550D03*
X300550D03*
X301000Y296000D03*
X291000D03*
X281000D03*
X310550Y265960D03*
Y275960D03*
Y285960D03*
X311000Y296000D03*
G54D13*
G01X99500Y129000D02*
X501000D01*
Y510000D01*
X99500D01*
Y129000D01*
M02*
