M48
FMAT,2
T1C0.0118
T2C0.0276
T3C0.0354
T4C0.0394
%
T1
X000031826Y000046535
X00003656Y000047535
X000041426Y000046735
X000042276Y000045985
X000042526Y000046735
X000042926Y000045985
X000043626Y000046735
X000050076Y000047535
X000053276Y000047385
X000031826Y000049485
Y000052435
X000033126Y000051935
X000035226Y000050885
X000035926
X000036376Y000049335
X000036676Y000049835
X000036726Y000048485
X000037826Y000049685
X000038426Y000049835
X000038776Y000051635
Y000049785
Y000052185
X000039226Y000052835
X000039376Y000049785
X000039726Y000050185
X000039776Y000048285
Y000051135
X000040026Y000052385
X000040176Y000048485
X000040476Y000049885
X000041426Y000048935
X000041476Y000050285
X000041526Y000050635
Y000052185
X000041576Y000051785
X000041826Y000050685
X000041876Y000051585
Y000052285
X000041976Y000048935
X000042161Y000050635
X000042176Y000052035
X000042426Y000051385
X000042526Y000048935
Y000052335
X000042576Y000050685
X000042926Y000050935
X000043076Y000048935
X000043126Y000050685
X000043176Y000051185
X000043426Y000051735
X000043476Y000051335
X000043501Y000052085
X000043626Y000048935
X000044176
X000044876Y000051535
X000045676Y000048585
X000045776Y000048285
X000046476Y000052785
X000046576Y000051985
X000046776Y000051485
X000047026Y000049335
Y000049835
X000047476Y000052285
X000048076Y000052085
X000048526Y000051635
X000048626Y000051035
X000048726Y000049335
X000049376Y000051635
X000050351Y000048385
X000053276Y000051485
Y000048485
X000031826Y000055435
X000034676Y000054835
X000035276Y000055585
X000035576Y000054485
X000035826Y000054185
X000036076Y000055135
X000036326Y000054035
X000036526Y000053185
X000036726Y000054335
X000037726Y000054585
X000038626Y000053185
X000039126Y000054835
X000041176Y000053785
X000041476Y000053885
X000041626Y000055485
X000042026Y000053835
X000042326Y000054585
Y000055135
X000043376Y000054371
X000044576Y000054085
X000045126Y000053785
X000045726Y000055585
X000046476Y000053435
Y000054335
X000047726Y000053735
X000047826Y000055035
X000048476Y00005341
X000048526Y000054585
X000048926Y000054935
X000049476Y000054385
Y000053135
X000049576Y000055185
X000053276Y000054435
X000031826Y000058435
X000034826Y000055985
X000035326Y000056935
X000036526Y000055785
X000037676Y000056835
X000038126Y000056735
X000038276Y000059385
X000038626Y000055835
X000039026Y000056485
Y000055885
X000039276Y000059385
X000039476Y000056135
X000039626Y000060085
X000039976Y000056785
X000041376Y000059385
X000041626Y000056385
Y000055835
X000041826Y000056085
X000042276Y000056585
X000042376Y000059385
X000042976Y00005651
X000043176Y000060585
Y00005571
X000043326Y000056835
X000043676Y000057885
X000044326Y000055835
X000044476Y000059385
X000045376
X000045826Y000059685
Y000060135
X000046176Y000056335
X000046676Y000056835
X000047526Y000059335
Y000057135
X000048426Y000056235
Y000059535
X000053276Y000060385
X000053326Y000057385
X000031826Y000061435
Y000064435
X000033576Y000061435
X000033626Y000063485
X000035576Y000061935
X000036226Y000062635
X000037476Y000065235
X000037576Y000062985
Y000063335
Y000062635
X000037626Y000060835
Y000061585
Y000062285
X000038376Y000063685
X000038426Y000064185
X000038476Y000063035
Y000062535
X000038526Y000062035
X000038926Y000064835
X000039226Y000061535
X000039876Y000065835
X000040026Y000064485
X000040176Y000062785
X000040476Y000065535
X000040526Y000062585
X000040876Y000061585
X000041126Y000065835
X000041626Y000063935
X000041776Y000064985
X000041876Y000062735
X000042126Y000063335
Y000064385
X000042226Y000061535
X000042426Y000062785
X000042626Y000064235
X000042726Y000064585
X000042926Y000062985
X000043126Y000064635
X000043226Y000065035
Y000063635
X000043376Y000062735
X000043626Y000064185
X000044276Y000061885
X000044376Y000065485
X000044976Y000063735
X000045276Y000061335
X000045426Y000065435
X000045526Y000064285
X000045826Y000062885
X000046176Y000061635
X000046426Y000062235
X000046976Y000063885
Y000063335
X000047376Y000062735
X000047426Y000061785
Y000063485
X000047576Y000064335
X000047726Y000064785
X000048526Y000060985
X000049226Y000063585
X000049926Y000065185
X000050026Y000063435
Y000064435
X000053326Y000063435
X000031826Y000067435
Y000070435
X000033676Y000066435
Y000069435
X000034476Y000067435
X000035326Y000066585
X000035426Y000067085
X000035676Y000070685
X000036076Y000068985
X000036226Y000067585
X000036926Y000068535
X000037226Y000067285
X000037326Y000069435
Y000070135
X000037336Y000070835
X000037476Y000066985
X000037576Y000066485
X000037626Y000067535
X000039026Y000070135
X000039176Y000069485
X000039676Y000068435
X000040376
X000040576Y000067485
X000040976
X000041026Y000066685
X000041076Y000068435
X000041726Y000066335
X000041776Y000068435
X000042276Y000066535
X000042326Y000068435
Y000070285
X000043476Y000070085
X000043626Y000069135
X000043976Y000068335
X000044526Y000069235
X000044576Y000066585
X000045276Y000068835
X000045326Y00006814
X000045376Y000066035
X000046576Y000070885
X000046826Y000069635
X000046876Y000068085
X000046926Y000070235
X000047626Y000070935
X000048151Y00007091
X000048626Y000069085
X000048826Y000070035
X000048876Y000069335
Y000068835
Y000067285
X000049026Y000067685
X000049176Y000069635
X000049326Y000065935
X000049426Y000068085
X000049676Y000069685
X000049976Y000066835
X000051876Y000067435
X000053326Y000066435
Y000069385
X000031826Y000073385
X000032626Y000072835
X000032726Y000074035
X000032776Y000071435
X000032826Y000074385
X000033876Y000074035
Y000074385
X000034376Y000071585
X000035526Y000071785
Y000075285
X000036026Y000074435
X000036226Y000073635
X000036276Y000072735
X000036326Y000075085
X000036676Y000071485
X000037076Y000072435
Y000073635
Y000075085
X000037276Y000075485
X000037376Y000071285
X000038176Y000074135
X000038276Y000076035
X000038726Y000072535
X000038826Y000075335
X000038876Y000071285
X000040376Y000072585
Y000074035
X000040476Y00007146
X000041176Y000071935
X000041626Y000071285
X000042026Y000072585
Y000074035
X000042276Y000071935
X000042376Y000071235
X000042726
X000043126
X000043476
Y000074035
X000043776Y000071935
X000043876Y000072585
X000044101Y00007146
X000044926Y000074035
X000046076Y000076085
Y000071385
X000046326Y000074135
X000046576Y000075385
X000046776Y000072635
X000047326Y000075885
X000047426Y000074285
X000047726Y000075885
X000048176Y000073885
X000048326Y000075485
X000048926Y000073835
Y000075885
X000049126Y000074285
X000049826Y000074085
X000050476Y000076035
X000051126Y000074335
X000051626Y000072885
X000051976Y000074885
X000053326Y000075385
Y000072435
X000031826Y000076435
X000034726Y000077335
X000034876Y000078335
X000034976Y000076435
X000035624Y000077885
X000035726Y00007641
X000035876Y000076935
X000035926Y000078585
X000036326Y000077035
X000037176Y000077585
X000037551Y000076985
X000038676Y000077535
X000038926Y000077085
X000039676Y000077435
X000040181Y00007858
X000040976Y000076985
X000041276Y000077435
X000042026Y000078285
X000042676
X000043126Y000078235
Y000077135
X000044126Y000077035
X000044826Y00007721
X000044876Y000077685
Y000078035
X000046276Y000077585
X000046676Y000078285
X000046726Y000076835
X000048626Y000078035
X000050476Y000078085
X000050826Y000077685
Y000076485
X000051326Y000076535
X000051676Y000076485
X000052026
X000052476Y000078085
X000053276Y000078635
X000031826Y000079435
X000034126Y000080985
X000035916Y000079935
X000036176Y000080235
X000038026Y000081035
X000038476Y000081185
X000038676Y000078835
X000038776Y000080785
X000039176Y000079535
Y000081185
X000039626Y000078835
X000040826Y000079835
X000041326Y000080435
X000041626Y000079985
X000041676Y00008036
X000042376Y000078885
X000042876Y000079985
X000042951Y000081085
X000043076Y000078935
X000043426Y00008036
X000043476Y000080985
X000043676Y000079385
X000044426Y000079585
X000044576Y000080035
X000044776Y000080585
X000044876Y000079135
X000045126Y000079685
X000045376Y000080385
X000045926Y000080335
X000046126Y000080935
X000046176Y000079935
X000047276Y000079135
X000050476Y000079285
X000051126Y000079635
X000052526Y000079585
X000031826Y000082435
X000033776Y000082135
X000034626Y000082985
X000035376Y000081485
X000036026Y000083085
X000036426Y000081585
X000036676Y000081285
X000036826Y000083085
X000037526Y000081435
X000038776Y000081635
X000039376Y000081985
X000040426Y000083685
X000040776Y000082785
X000041126Y000082135
X000041576Y000082385
X000041626Y000081235
X000041726Y000083535
X000041976Y000081535
X000042576Y000081235
Y000082435
X000043426Y000082085
X000044026Y000083535
X000044626Y000081985
X000044676Y000081435
X000045276Y000083035
X000045476Y000081435
X000045526Y000082585
X000051276Y000081435
X000051876Y000083435
Y000082235
Y000081735
X000052476Y000083385
Y000081435
X000053326Y000081485
X000031826Y000085435
X000032076Y000087635
X000033176Y000084942
X000035076Y000087635
X000035626Y000086085
X000036076Y000084735
X000036876
X000037026Y000085535
X000037076Y000087685
X000038376Y000086385
X000038676Y000084135
X000038976Y000087685
Y000086985
X000039826
Y000085285
X000040676Y000086185
X000041576Y000086985
X000041926Y000085985
X000042576Y000086985
X000043576
X000043776Y000083935
Y000084385
X000044126Y000084035
X000044476Y000086235
X000045136Y000085985
Y000084935
X000045276Y000087685
X000045626Y000086835
X000045726Y000083935
X000047326Y000084935
X000048626Y000086285
X000048926Y000084135
X000049376Y000085285
X000049976Y000087035
X000050376Y000086235
X000050626Y000084535
X000050776Y000083935
X000050876Y000086235
X000051626Y000087185
X000052476Y000086185
X000052726Y000084335
X000053276Y000087485
Y000084435
X000047826Y000087685
T2
X000040229Y000077337
X000042229
T3
X000034076Y000084935
Y000085935
Y000083935
X000035076Y000085935
Y000083935
Y000084935
X000034076Y000086935
X000035076
T4
X000034076Y000046935
Y000047935
X000051076Y000046935
Y000047935
X000034076Y000048935
Y000049935
Y000052935
Y000053935
Y000054935
Y000050935
Y000051935
X000051076
Y000052935
Y000048935
Y000049935
Y000050935
Y000053935
Y000054935
X000034076Y000058935
Y000061935
Y000055935
Y000056935
Y000062935
Y000059935
Y000057935
Y000060935
X000035576Y000062935
Y000060935
Y000058935
Y000059935
X000051076Y000055935
Y000061935
Y000058935
Y000062935
Y000057935
Y000059935
Y000060935
Y000056935
X000034076Y000070935
Y000069935
Y000063935
Y000068935
Y000065935
Y000067935
Y000064935
Y000066935
X000035576Y000064935
Y000063935
Y000065935
X000051076Y000070935
Y000065935
Y000069935
Y000063935
Y000064935
Y000068935
Y000067935
Y000066935
X000034076Y000073435
Y000072435
X000034091Y000079921
Y000075921
Y000077921
Y000076921
Y000078921
Y000074921
X000037576Y000078935
Y000079935
X000048067Y000080928
Y000079928
X000037576Y000082435
Y000083435
X000039076Y000082485
X000048067Y000081928
Y000082928
X000039076Y000083435
M30
