G70*
%FSLAX55Y55*%
%ADD11C,0.00984*%
%ADD12C,0.02000*%
%ADD13C,0.00800*%
%ADD14C,0.00394*%
%ADD15C,0.04331*%
%ADD16R,0.07394X0.07394*%
%ADD17C,0.07394*%
%ADD18R,0.05394X0.04394*%
%ADD19C,0.00100*%
%ADD20R,0.08268X0.10630*%
%ADD21R,0.03394X0.04094*%
%ADD22C,0.06394*%
%ADD23O,0.07494X0.01406*%
%ADD24O,0.07494X0.01394*%
%ADD25O,0.01406X0.07494*%
%ADD26O,0.01394X0.07494*%
%ADD27R,0.06800X0.02600*%
%ADD28R,0.05118X0.02756*%
%ADD29R,0.05118X0.04724*%
%ADD30R,0.04094X0.03394*%
%ADD31C,0.06594*%
%ADD32R,0.04724X0.05118*%
%ADD33R,0.04331X0.02756*%
%ADD34R,0.02756X0.02165*%
%ADD35R,0.05512X0.08268*%
%ADD36R,0.02794X0.06394*%
%ADD37R,0.06299X0.06299*%
%ADD38C,0.06299*%
%ADD39R,0.06394X0.02794*%
%ADD40R,0.02756X0.05118*%
%ADD41R,0.07000X0.06000*%
%ADD42R,0.01969X0.05906*%
%ADD43R,0.08268X0.12205*%
%ADD44R,0.04394X0.05394*%
%ADD45R,0.06598X0.02000*%
%ADD46R,0.06299X0.14173*%
%ADD47R,0.06394X0.05394*%
%ADD48R,0.05394X0.06394*%
%ADD49C,0.02480*%
%ADD50C,0.01575*%
D11*
X315758Y406846D02*
X535758Y406846D01*
X535758Y879346*
X315758Y879346*
X315758Y406846*
X396230Y742814D02*
X455286Y742814D01*
G75*
G03X455286Y754625I00068J05906*
G01X396230Y754625*
G75*
G03X396230Y742814I-00068J-05906*
D12*
G01X807005Y19738D02*
X807005Y1149659D01*
X57005Y19738D02*
X57005Y179738D01*
X67005Y79738D02*
X187005Y79738D01*
X637005Y29738D02*
X637005Y119738D01*
X647005Y29738D02*
X797005Y29738D01*
X19604Y19738D02*
X807005Y19738D01*
X197005Y119738D02*
X637005Y119738D01*
X797005Y29738D02*
X797005Y169738D01*
X187005Y29738D02*
X187005Y169738D01*
X647005Y29738D02*
X647005Y169738D01*
X797005Y169738*
D13*
X202005Y84738D02*
X632005Y84738D01*
D12*
X67005Y29738D02*
X67005Y169738D01*
X19604Y19738D02*
X19604Y1149659D01*
X637005Y129738D02*
X637005Y169738D01*
X197005Y129738D02*
X637005Y129738D01*
X197005Y129738D02*
X197005Y169738D01*
X67005Y29738D02*
X187005Y29738D01*
X197005Y29738D02*
X197005Y119738D01*
X19604Y1149659D02*
X807005Y1149659D01*
X67005Y169738D02*
X187005Y169738D01*
X197005Y169738D02*
X637005Y169738D01*
D13*
X202005Y49738D02*
X632005Y49738D01*
D12*
X197005Y29738D02*
X637005Y29738D01*
X57005Y179738D02*
X807005Y179738D01*
X67005Y124738D02*
X187005Y124738D01*
D14*
X775142Y128794D02*
X703636Y128787D01*
X702579Y128787*
X702579Y128783*
X701363Y128730*
X700170Y128579*
X699003Y128332*
X697869Y127993*
X696772Y127564*
X695718Y127049*
X694711Y126450*
X693756Y125772*
X692859Y125018*
X692025Y124191*
X691259Y123293*
X690565Y122329*
X689950Y121302*
X689418Y120215*
X671339Y76685*
X671072Y76041*
X671053Y75995*
X671035Y75949*
X671018Y75902*
X671003Y75855*
X670989Y75808*
X670977Y75761*
X670966Y75713*
X670956Y75665*
X670948Y75616*
X670941Y75568*
X670936Y75519*
X670933Y75470*
X670930Y75421*
X670930Y75371*
X670941Y75174*
X670975Y74984*
X671029Y74802*
X671104Y74629*
X671196Y74467*
X671305Y74316*
X671431Y74178*
X671570Y74054*
X671723Y73946*
X671887Y73854*
X672062Y73781*
X672246Y73727*
X672438Y73694*
X672637Y73682*
X744728Y73689*
X745794Y73689*
X745806Y73690*
X745837Y73692*
X745885Y73695*
X745947Y73700*
X746018Y73704*
X746096Y73710*
X746178Y73715*
X746260Y73721*
X746338Y73726*
X746410Y73731*
X746471Y73735*
X746519Y73739*
X746551Y73741*
X746562Y73742*
X747684Y73888*
X748781Y74118*
X749848Y74429*
X750883Y74818*
X751880Y75284*
X752835Y75822*
X753746Y76431*
X754607Y77107*
X755414Y77849*
X756164Y78654*
X756852Y79518*
X757475Y80439*
X758027Y81415*
X758507Y82442*
X758772Y83084*
X776717Y126452*
X776735Y126496*
X776752Y126541*
X776767Y126585*
X776781Y126631*
X776794Y126676*
X776805Y126722*
X776815Y126769*
X776823Y126815*
X776831Y126863*
X776836Y126910*
X776841Y126958*
X776844Y127006*
X776846Y127055*
X776847Y127104*
X776835Y127300*
X776802Y127491*
X776747Y127673*
X776674Y127846*
X776581Y128009*
X776472Y128160*
X776347Y128298*
X776208Y128422*
X776056Y128530*
X775892Y128621*
X775717Y128695*
X775533Y128749*
X775341Y128782*
X775142Y128794*
X690291Y119856D02*
X690772Y120840D01*
X691331Y121776*
X691963Y122661*
X692665Y123491*
X693432Y124262*
X694260Y124969*
X695144Y125608*
X696082Y126176*
X697068Y126667*
X698099Y127079*
X699170Y127406*
X700278Y127645*
X701417Y127791*
X702579Y127846*
X775142Y127852*
X775316Y127832*
X775399Y127808*
X775476Y127776*
X775549Y127735*
X775679Y127633*
X775734Y127572*
X775782Y127505*
X775823Y127433*
X775856Y127356*
X775895Y127191*
X775899Y127082*
X775895Y127018*
X775882Y126935*
X775866Y126876*
X775853Y126838*
X775846Y126819*
X775809Y126729*
X775342Y125603*
X774846Y124405*
X774576Y123752*
X774047Y122474*
X773811Y121902*
X773344Y120775*
X773307Y120686*
X773283Y120624*
X773253Y120565*
X773218Y120510*
X773178Y120457*
X773134Y120409*
X773086Y120364*
X773034Y120323*
X772979Y120287*
X772920Y120256*
X772858Y120230*
X772794Y120209*
X772727Y120194*
X772659Y120184*
X772589Y120181*
X708446Y120181*
X705791Y119969*
X703452Y119367*
X701425Y118423*
X699709Y117187*
X698299Y115708*
X697193Y114035*
X696389Y112218*
X695882Y110307*
X695669Y108350*
X695749Y106396*
X696117Y104496*
X696771Y102698*
X697708Y101051*
X698924Y99606*
X709537Y89676*
X710292Y88970*
X710783Y88511*
X710958Y88347*
X711305Y87957*
X711568Y87560*
X711751Y87161*
X711857Y86765*
X711890Y86379*
X711853Y86009*
X711750Y85660*
X711582Y85339*
X711355Y85051*
X711071Y84802*
X710733Y84598*
X710345Y84445*
X709910Y84349*
X709432Y84316*
X676666Y84314*
X676492Y84334*
X676332Y84390*
X676191Y84478*
X676129Y84533*
X676074Y84594*
X676025Y84661*
X675984Y84733*
X675951Y84809*
X675927Y84890*
X675912Y84975*
X675907Y85062*
X675912Y85149*
X675927Y85232*
X675968Y85352*
X690291Y119856*
X714471Y74616D02*
X714450Y74620D01*
X714429Y74626*
X714410Y74634*
X714391Y74644*
X714374Y74656*
X714359Y74669*
X714345Y74685*
X714333Y74701*
X714323Y74720*
X714315Y74739*
X714309Y74759*
X714305Y74780*
X714304Y74802*
X714304Y74817*
X714309Y74846*
X714319Y74874*
X714333Y74900*
X714342Y74912*
X714361Y74934*
X714372Y74944*
X714397Y74962*
X714414Y74970*
X714418Y74971*
X715006Y75260*
X715617Y75614*
X716242Y76032*
X716874Y76516*
X717503Y77064*
X718122Y77677*
X718722Y78356*
X719294Y79098*
X719830Y79906*
X720323Y80778*
X720762Y81715*
X721140Y82716*
X721449Y83781*
X721680Y84911*
X721812Y86202*
X721793Y87431*
X721645Y88592*
X721391Y89681*
X721054Y90691*
X720657Y91617*
X720221Y92455*
X719770Y93198*
X719327Y93842*
X718913Y94381*
X718552Y94809*
X718266Y95121*
X718078Y95313*
X718010Y95378*
X717842Y95534*
X706639Y105958*
X706096Y106517*
X705826Y106927*
X705653Y107341*
X705570Y107750*
X705568Y108150*
X705642Y108533*
X705782Y108895*
X705983Y109228*
X706235Y109527*
X706532Y109785*
X706866Y109997*
X707230Y110155*
X707616Y110255*
X708017Y110290*
X742940Y110290*
X743029Y110285*
X743114Y110270*
X743196Y110246*
X743274Y110214*
X743347Y110174*
X743415Y110126*
X743477Y110071*
X743533Y110011*
X743582Y109944*
X743623Y109872*
X743656Y109795*
X743680Y109714*
X743695Y109629*
X743700Y109542*
X743700Y109522*
X743699Y109502*
X743698Y109483*
X743696Y109463*
X743694Y109444*
X743691Y109425*
X743687Y109406*
X743683Y109387*
X743679Y109368*
X743674Y109349*
X743669Y109331*
X743663Y109312*
X743656Y109294*
X743650Y109276*
X729999Y76320*
X729797Y75832*
X729727Y75682*
X729645Y75538*
X729552Y75403*
X729447Y75276*
X729333Y75158*
X729209Y75050*
X729076Y74953*
X728935Y74866*
X728786Y74791*
X728631Y74729*
X728469Y74679*
X728302Y74642*
X728129Y74620*
X727953Y74612*
X714690Y74615*
X714471Y74616*
X739951Y75708D02*
X739929Y75663D01*
X739902Y75592*
X739882Y75518*
X739869Y75441*
X739865Y75363*
X739870Y75276*
X739885Y75192*
X739909Y75111*
X739983Y74963*
X740032Y74896*
X740087Y74835*
X740149Y74780*
X740217Y74733*
X740290Y74692*
X740367Y74660*
X740449Y74636*
X740534Y74621*
X740622Y74616*
X745154Y74615*
X746403Y74670*
X747560Y74820*
X748683Y75065*
X749770Y75401*
X750816Y75823*
X751816Y76327*
X752766Y76909*
X753661Y77565*
X754496Y78289*
X755268Y79079*
X755972Y79929*
X756604Y80835*
X757158Y81793*
X757634Y82797*
X757647Y82788*
X763934Y97968*
X768616Y109265*
X768623Y109284*
X768630Y109303*
X768636Y109322*
X768642Y109341*
X768647Y109360*
X768652Y109380*
X768660Y109419*
X768663Y109439*
X768666Y109459*
X768668Y109480*
X768669Y109500*
X768670Y109521*
X768670Y109542*
X768665Y109629*
X768650Y109714*
X768626Y109795*
X768593Y109872*
X768552Y109944*
X768504Y110011*
X768448Y110071*
X768386Y110126*
X768319Y110174*
X768246Y110214*
X768168Y110246*
X768086Y110270*
X768001Y110285*
X767913Y110290*
X767733Y110290*
X755775Y110277*
X755595Y110277*
X755419Y110269*
X755247Y110247*
X755080Y110211*
X754919Y110161*
X754764Y110098*
X754615Y110023*
X754474Y109936*
X754341Y109839*
X754217Y109731*
X754103Y109613*
X753998Y109486*
X753905Y109351*
X753822Y109208*
X753752Y109057*
X753551Y108571*
X739951Y75708*
X672068Y73779D02*
X746851Y73779D01*
X671549Y74073D02*
X748567Y74073D01*
X671269Y74367D02*
X749635Y74367D01*
X671090Y74660D02*
X714369Y74660D01*
X728385Y74660D02*
X740367Y74660D01*
X746190Y74660D02*
X750463Y74660D01*
X670984Y74954D02*
X714386Y74954D01*
X729078Y74954D02*
X739990Y74954D01*
X748174Y74954D02*
X751174Y74954D01*
X670937Y75248D02*
X714981Y75248D01*
X729420Y75248D02*
X739875Y75248D01*
X749274Y75248D02*
X751803Y75248D01*
X670939Y75541D02*
X715492Y75541D01*
X729647Y75541D02*
X739888Y75541D01*
X750118Y75541D02*
X752338Y75541D01*
X670997Y75835D02*
X715948Y75835D01*
X729798Y75835D02*
X740004Y75835D01*
X750840Y75835D02*
X752855Y75835D01*
X671108Y76129D02*
X716369Y76129D01*
X729920Y76129D02*
X740125Y76129D01*
X751422Y76129D02*
X753294Y76129D01*
X671230Y76423D02*
X716752Y76423D01*
X730041Y76423D02*
X740247Y76423D01*
X751971Y76423D02*
X753734Y76423D01*
X671352Y76716D02*
X717104Y76716D01*
X730163Y76716D02*
X740369Y76716D01*
X752450Y76716D02*
X754109Y76716D01*
X671474Y77010D02*
X717441Y77010D01*
X730285Y77010D02*
X740490Y77010D01*
X752903Y77010D02*
X754483Y77010D01*
X671596Y77304D02*
X717745Y77304D01*
X730406Y77304D02*
X740612Y77304D01*
X753304Y77304D02*
X754820Y77304D01*
X671718Y77597D02*
X718041Y77597D01*
X730528Y77597D02*
X740733Y77597D01*
X753698Y77597D02*
X755140Y77597D01*
X671840Y77891D02*
X718311Y77891D01*
X730650Y77891D02*
X740855Y77891D01*
X754037Y77891D02*
X755453Y77891D01*
X671962Y78185D02*
X718571Y78185D01*
X730771Y78185D02*
X740976Y78185D01*
X754376Y78185D02*
X755727Y78185D01*
X672084Y78478D02*
X718817Y78478D01*
X730893Y78478D02*
X741098Y78478D01*
X754681Y78478D02*
X756001Y78478D01*
X672206Y78772D02*
X719043Y78772D01*
X731015Y78772D02*
X741219Y78772D01*
X754969Y78772D02*
X756258Y78772D01*
X672328Y79066D02*
X719269Y79066D01*
X731136Y79066D02*
X741341Y79066D01*
X755256Y79066D02*
X756492Y79066D01*
X672450Y79360D02*
X719468Y79360D01*
X731258Y79360D02*
X741462Y79360D01*
X755501Y79360D02*
X756726Y79360D01*
X672572Y79653D02*
X719663Y79653D01*
X731380Y79653D02*
X741584Y79653D01*
X755744Y79653D02*
X756944Y79653D01*
X672694Y79947D02*
X719854Y79947D01*
X731501Y79947D02*
X741705Y79947D01*
X755985Y79947D02*
X757142Y79947D01*
X672816Y80241D02*
X720019Y80241D01*
X731623Y80241D02*
X741827Y80241D01*
X756190Y80241D02*
X757341Y80241D01*
X672938Y80534D02*
X720185Y80534D01*
X731745Y80534D02*
X741949Y80534D01*
X756394Y80534D02*
X757529Y80534D01*
X673060Y80828D02*
X720346Y80828D01*
X731866Y80828D02*
X742070Y80828D01*
X756599Y80828D02*
X757695Y80828D01*
X673182Y81122D02*
X720484Y81122D01*
X731988Y81122D02*
X742192Y81122D01*
X756770Y81122D02*
X757862Y81122D01*
X673304Y81415D02*
X720622Y81415D01*
X732110Y81415D02*
X742313Y81415D01*
X756940Y81415D02*
X758028Y81415D01*
X673426Y81709D02*
X720759Y81709D01*
X732231Y81709D02*
X742435Y81709D01*
X757110Y81709D02*
X758165Y81709D01*
X673548Y82003D02*
X720871Y82003D01*
X732353Y82003D02*
X742556Y82003D01*
X757258Y82003D02*
X758302Y82003D01*
X673670Y82297D02*
X720982Y82297D01*
X732475Y82297D02*
X742678Y82297D01*
X757397Y82297D02*
X758439Y82297D01*
X673792Y82590D02*
X721093Y82590D01*
X732596Y82590D02*
X742799Y82590D01*
X757536Y82590D02*
X758568Y82590D01*
X673914Y82884D02*
X721189Y82884D01*
X732718Y82884D02*
X742921Y82884D01*
X757686Y82884D02*
X758689Y82884D01*
X674036Y83178D02*
X721274Y83178D01*
X732840Y83178D02*
X743042Y83178D01*
X757808Y83178D02*
X758811Y83178D01*
X674158Y83471D02*
X721359Y83471D01*
X732961Y83471D02*
X743164Y83471D01*
X757930Y83471D02*
X758932Y83471D01*
X674280Y83765D02*
X721445Y83765D01*
X733083Y83765D02*
X743286Y83765D01*
X758051Y83765D02*
X759054Y83765D01*
X674402Y84059D02*
X721506Y84059D01*
X733205Y84059D02*
X743407Y84059D01*
X758173Y84059D02*
X759175Y84059D01*
X674524Y84352D02*
X676438Y84352D01*
X709926Y84352D02*
X721566Y84352D01*
X733326Y84352D02*
X743529Y84352D01*
X758294Y84352D02*
X759297Y84352D01*
X674646Y84646D02*
X676036Y84646D01*
X710813Y84646D02*
X721626Y84646D01*
X733448Y84646D02*
X743650Y84646D01*
X758416Y84646D02*
X759419Y84646D01*
X674768Y84940D02*
X675918Y84940D01*
X711228Y84940D02*
X721683Y84940D01*
X733569Y84940D02*
X743772Y84940D01*
X758538Y84940D02*
X759540Y84940D01*
X674890Y85234D02*
X675928Y85234D01*
X711499Y85234D02*
X721713Y85234D01*
X733691Y85234D02*
X743893Y85234D01*
X758659Y85234D02*
X759662Y85234D01*
X675012Y85527D02*
X676040Y85527D01*
X711680Y85527D02*
X721743Y85527D01*
X733813Y85527D02*
X744015Y85527D01*
X758781Y85527D02*
X759783Y85527D01*
X675134Y85821D02*
X676162Y85821D01*
X711797Y85821D02*
X721773Y85821D01*
X733934Y85821D02*
X744136Y85821D01*
X758903Y85821D02*
X759905Y85821D01*
X675256Y86115D02*
X676284Y86115D01*
X711864Y86115D02*
X721803Y86115D01*
X734056Y86115D02*
X744258Y86115D01*
X759024Y86115D02*
X760026Y86115D01*
X675377Y86408D02*
X676406Y86408D01*
X711888Y86408D02*
X721809Y86408D01*
X734178Y86408D02*
X744379Y86408D01*
X759146Y86408D02*
X760148Y86408D01*
X675499Y86702D02*
X676528Y86702D01*
X711863Y86702D02*
X721804Y86702D01*
X734299Y86702D02*
X744501Y86702D01*
X759268Y86702D02*
X760269Y86702D01*
X675621Y86996D02*
X676650Y86996D01*
X711795Y86996D02*
X721800Y86996D01*
X734421Y86996D02*
X744622Y86996D01*
X759389Y86996D02*
X760391Y86996D01*
X675743Y87289D02*
X676772Y87289D01*
X711692Y87289D02*
X721795Y87289D01*
X734543Y87289D02*
X744744Y87289D01*
X759511Y87289D02*
X760512Y87289D01*
X675865Y87583D02*
X676894Y87583D01*
X711553Y87583D02*
X721773Y87583D01*
X734664Y87583D02*
X744866Y87583D01*
X759633Y87583D02*
X760634Y87583D01*
X675987Y87877D02*
X677016Y87877D01*
X711358Y87877D02*
X721736Y87877D01*
X734786Y87877D02*
X744987Y87877D01*
X759754Y87877D02*
X760755Y87877D01*
X676109Y88171D02*
X677138Y88171D01*
X711115Y88171D02*
X721699Y88171D01*
X734908Y88171D02*
X745109Y88171D01*
X759876Y88171D02*
X760877Y88171D01*
X676231Y88464D02*
X677260Y88464D01*
X710833Y88464D02*
X721661Y88464D01*
X735029Y88464D02*
X745230Y88464D01*
X759998Y88464D02*
X760998Y88464D01*
X676353Y88758D02*
X677382Y88758D01*
X710519Y88758D02*
X721606Y88758D01*
X735151Y88758D02*
X745352Y88758D01*
X760119Y88758D02*
X761120Y88758D01*
X676475Y89052D02*
X677503Y89052D01*
X710205Y89052D02*
X721538Y89052D01*
X735273Y89052D02*
X745473Y89052D01*
X760241Y89052D02*
X761241Y89052D01*
X676597Y89345D02*
X677625Y89345D01*
X709891Y89345D02*
X721469Y89345D01*
X735394Y89345D02*
X745595Y89345D01*
X760363Y89345D02*
X761363Y89345D01*
X676719Y89639D02*
X677747Y89639D01*
X709577Y89639D02*
X721401Y89639D01*
X735516Y89639D02*
X745716Y89639D01*
X760484Y89639D02*
X761485Y89639D01*
X676841Y89933D02*
X677869Y89933D01*
X709263Y89933D02*
X721307Y89933D01*
X735638Y89933D02*
X745838Y89933D01*
X760606Y89933D02*
X761606Y89933D01*
X676963Y90226D02*
X677991Y90226D01*
X708949Y90226D02*
X721209Y90226D01*
X735759Y90226D02*
X745959Y90226D01*
X760727Y90226D02*
X761728Y90226D01*
X677085Y90520D02*
X678113Y90520D01*
X708635Y90520D02*
X721111Y90520D01*
X735881Y90520D02*
X746081Y90520D01*
X760849Y90520D02*
X761849Y90520D01*
X677207Y90814D02*
X678235Y90814D01*
X708321Y90814D02*
X721001Y90814D01*
X736003Y90814D02*
X746203Y90814D01*
X760971Y90814D02*
X761971Y90814D01*
X677329Y91108D02*
X678357Y91108D01*
X708007Y91108D02*
X720875Y91108D01*
X736124Y91108D02*
X746324Y91108D01*
X761092Y91108D02*
X762092Y91108D01*
X677451Y91401D02*
X678479Y91401D01*
X707694Y91401D02*
X720749Y91401D01*
X736246Y91401D02*
X746446Y91401D01*
X761214Y91401D02*
X762214Y91401D01*
X677573Y91695D02*
X678601Y91695D01*
X707380Y91695D02*
X720616Y91695D01*
X736368Y91695D02*
X746567Y91695D01*
X761336Y91695D02*
X762335Y91695D01*
X677695Y91989D02*
X678723Y91989D01*
X707066Y91989D02*
X720464Y91989D01*
X736489Y91989D02*
X746689Y91989D01*
X761457Y91989D02*
X762457Y91989D01*
X677817Y92282D02*
X678845Y92282D01*
X706752Y92282D02*
X720311Y92282D01*
X736611Y92282D02*
X746810Y92282D01*
X761579Y92282D02*
X762578Y92282D01*
X677939Y92576D02*
X678966Y92576D01*
X706438Y92576D02*
X720148Y92576D01*
X736733Y92576D02*
X746932Y92576D01*
X761701Y92576D02*
X762700Y92576D01*
X678061Y92870D02*
X679088Y92870D01*
X706124Y92870D02*
X719969Y92870D01*
X736854Y92870D02*
X747053Y92870D01*
X761822Y92870D02*
X762821Y92870D01*
X678183Y93163D02*
X679210Y93163D01*
X705810Y93163D02*
X719791Y93163D01*
X736976Y93163D02*
X747175Y93163D01*
X761944Y93163D02*
X762943Y93163D01*
X678305Y93457D02*
X679332Y93457D01*
X705496Y93457D02*
X719592Y93457D01*
X737097Y93457D02*
X747296Y93457D01*
X762066Y93457D02*
X763064Y93457D01*
X678427Y93751D02*
X679454Y93751D01*
X705182Y93751D02*
X719389Y93751D01*
X737219Y93751D02*
X747418Y93751D01*
X762187Y93751D02*
X763186Y93751D01*
X678549Y94045D02*
X679576Y94045D01*
X704868Y94045D02*
X719171Y94045D01*
X737341Y94045D02*
X747539Y94045D01*
X762309Y94045D02*
X763307Y94045D01*
X678671Y94338D02*
X679698Y94338D01*
X704555Y94338D02*
X718945Y94338D01*
X737462Y94338D02*
X747661Y94338D01*
X762431Y94338D02*
X763429Y94338D01*
X678793Y94632D02*
X679820Y94632D01*
X704241Y94632D02*
X718701Y94632D01*
X737584Y94632D02*
X747783Y94632D01*
X762552Y94632D02*
X763550Y94632D01*
X678915Y94926D02*
X679942Y94926D01*
X703927Y94926D02*
X718445Y94926D01*
X737706Y94926D02*
X747904Y94926D01*
X762674Y94926D02*
X763672Y94926D01*
X679037Y95219D02*
X680064Y95219D01*
X703613Y95219D02*
X718170Y95219D01*
X737827Y95219D02*
X748026Y95219D01*
X762795Y95219D02*
X763794Y95219D01*
X679159Y95513D02*
X680186Y95513D01*
X703299Y95513D02*
X717865Y95513D01*
X737949Y95513D02*
X748147Y95513D01*
X762917Y95513D02*
X763915Y95513D01*
X679281Y95807D02*
X680308Y95807D01*
X702985Y95807D02*
X717549Y95807D01*
X738071Y95807D02*
X748269Y95807D01*
X763039Y95807D02*
X764037Y95807D01*
X679403Y96100D02*
X680430Y96100D01*
X702671Y96100D02*
X717233Y96100D01*
X738192Y96100D02*
X748390Y96100D01*
X763160Y96100D02*
X764158Y96100D01*
X679525Y96394D02*
X680551Y96394D01*
X702357Y96394D02*
X716918Y96394D01*
X738314Y96394D02*
X748512Y96394D01*
X763282Y96394D02*
X764280Y96394D01*
X679647Y96688D02*
X680673Y96688D01*
X702043Y96688D02*
X716602Y96688D01*
X738436Y96688D02*
X748633Y96688D01*
X763404Y96688D02*
X764401Y96688D01*
X679769Y96982D02*
X680795Y96982D01*
X701729Y96982D02*
X716286Y96982D01*
X738557Y96982D02*
X748755Y96982D01*
X763525Y96982D02*
X764523Y96982D01*
X679891Y97275D02*
X680917Y97275D01*
X701416Y97275D02*
X715971Y97275D01*
X738679Y97275D02*
X748876Y97275D01*
X763647Y97275D02*
X764644Y97275D01*
X680013Y97569D02*
X681039Y97569D01*
X701102Y97569D02*
X715655Y97569D01*
X738801Y97569D02*
X748998Y97569D01*
X763769Y97569D02*
X764766Y97569D01*
X680135Y97863D02*
X681161Y97863D01*
X700788Y97863D02*
X715339Y97863D01*
X738922Y97863D02*
X749119Y97863D01*
X763890Y97863D02*
X764887Y97863D01*
X680257Y98156D02*
X681283Y98156D01*
X700474Y98156D02*
X715024Y98156D01*
X739044Y98156D02*
X749241Y98156D01*
X764012Y98156D02*
X765009Y98156D01*
X680379Y98450D02*
X681405Y98450D01*
X700160Y98450D02*
X714708Y98450D01*
X739166Y98450D02*
X749363Y98450D01*
X764134Y98450D02*
X765130Y98450D01*
X680501Y98744D02*
X681527Y98744D01*
X699846Y98744D02*
X714393Y98744D01*
X739287Y98744D02*
X749484Y98744D01*
X764255Y98744D02*
X765252Y98744D01*
X680622Y99037D02*
X681649Y99037D01*
X699532Y99037D02*
X714077Y99037D01*
X739409Y99037D02*
X749606Y99037D01*
X764377Y99037D02*
X765373Y99037D01*
X680744Y99331D02*
X681771Y99331D01*
X699218Y99331D02*
X713761Y99331D01*
X739531Y99331D02*
X749727Y99331D01*
X764499Y99331D02*
X765495Y99331D01*
X680866Y99625D02*
X681893Y99625D01*
X698909Y99625D02*
X713446Y99625D01*
X739652Y99625D02*
X749849Y99625D01*
X764621Y99625D02*
X765616Y99625D01*
X680988Y99919D02*
X682014Y99919D01*
X698661Y99919D02*
X713130Y99919D01*
X739774Y99919D02*
X749970Y99919D01*
X764742Y99919D02*
X765738Y99919D01*
X681110Y100212D02*
X682136Y100212D01*
X698414Y100212D02*
X712814Y100212D01*
X739896Y100212D02*
X750092Y100212D01*
X764864Y100212D02*
X765860Y100212D01*
X681232Y100506D02*
X682258Y100506D01*
X698167Y100506D02*
X712499Y100506D01*
X740017Y100506D02*
X750213Y100506D01*
X764986Y100506D02*
X765981Y100506D01*
X681354Y100800D02*
X682380Y100800D01*
X697920Y100800D02*
X712183Y100800D01*
X740139Y100800D02*
X750335Y100800D01*
X765108Y100800D02*
X766103Y100800D01*
X681476Y101093D02*
X682502Y101093D01*
X697684Y101093D02*
X711867Y101093D01*
X740260Y101093D02*
X750456Y101093D01*
X765229Y101093D02*
X766224Y101093D01*
X681598Y101387D02*
X682624Y101387D01*
X697517Y101387D02*
X711552Y101387D01*
X740382Y101387D02*
X750578Y101387D01*
X765351Y101387D02*
X766346Y101387D01*
X681720Y101681D02*
X682746Y101681D01*
X697350Y101681D02*
X711236Y101681D01*
X740504Y101681D02*
X750700Y101681D01*
X765473Y101681D02*
X766467Y101681D01*
X681842Y101974D02*
X682868Y101974D01*
X697183Y101974D02*
X710921Y101974D01*
X740625Y101974D02*
X750821Y101974D01*
X765594Y101974D02*
X766589Y101974D01*
X681964Y102268D02*
X682990Y102268D01*
X697016Y102268D02*
X710605Y102268D01*
X740747Y102268D02*
X750943Y102268D01*
X765716Y102268D02*
X766710Y102268D01*
X682086Y102562D02*
X683112Y102562D01*
X696849Y102562D02*
X710289Y102562D01*
X740869Y102562D02*
X751064Y102562D01*
X765838Y102562D02*
X766832Y102562D01*
X682208Y102856D02*
X683234Y102856D01*
X696714Y102856D02*
X709974Y102856D01*
X740990Y102856D02*
X751186Y102856D01*
X765960Y102856D02*
X766953Y102856D01*
X682330Y103149D02*
X683356Y103149D01*
X696607Y103149D02*
X709658Y103149D01*
X741112Y103149D02*
X751307Y103149D01*
X766081Y103149D02*
X767075Y103149D01*
X682452Y103443D02*
X683478Y103443D01*
X696500Y103443D02*
X709342Y103443D01*
X741234Y103443D02*
X751429Y103443D01*
X766203Y103443D02*
X767196Y103443D01*
X682574Y103737D02*
X683599Y103737D01*
X696394Y103737D02*
X709027Y103737D01*
X741355Y103737D02*
X751550Y103737D01*
X766325Y103737D02*
X767318Y103737D01*
X682696Y104030D02*
X683721Y104030D01*
X696287Y104030D02*
X708711Y104030D01*
X741477Y104030D02*
X751672Y104030D01*
X766447Y104030D02*
X767439Y104030D01*
X682818Y104324D02*
X683843Y104324D01*
X696180Y104324D02*
X708395Y104324D01*
X741599Y104324D02*
X751793Y104324D01*
X766568Y104324D02*
X767561Y104324D01*
X682940Y104618D02*
X683965Y104618D01*
X696094Y104618D02*
X708080Y104618D01*
X741720Y104618D02*
X751915Y104618D01*
X766690Y104618D02*
X767682Y104618D01*
X683062Y104911D02*
X684087Y104911D01*
X696037Y104911D02*
X707764Y104911D01*
X741842Y104911D02*
X752036Y104911D01*
X766812Y104911D02*
X767804Y104911D01*
X683184Y105205D02*
X684209Y105205D01*
X695980Y105205D02*
X707448Y105205D01*
X741964Y105205D02*
X752158Y105205D01*
X766933Y105205D02*
X767925Y105205D01*
X683306Y105499D02*
X684331Y105499D01*
X695923Y105499D02*
X707133Y105499D01*
X742085Y105499D02*
X752280Y105499D01*
X767055Y105499D02*
X768047Y105499D01*
X683428Y105793D02*
X684453Y105793D01*
X695866Y105793D02*
X706817Y105793D01*
X742207Y105793D02*
X752401Y105793D01*
X767177Y105793D02*
X768169Y105793D01*
X683550Y106086D02*
X684575Y106086D01*
X695809Y106086D02*
X706515Y106086D01*
X742329Y106086D02*
X752523Y106086D01*
X767299Y106086D02*
X768290Y106086D01*
X683672Y106380D02*
X684697Y106380D01*
X695752Y106380D02*
X706229Y106380D01*
X742450Y106380D02*
X752644Y106380D01*
X767420Y106380D02*
X768412Y106380D01*
X683794Y106674D02*
X684819Y106674D01*
X695738Y106674D02*
X705993Y106674D01*
X742572Y106674D02*
X752766Y106674D01*
X767542Y106674D02*
X768533Y106674D01*
X683916Y106967D02*
X684941Y106967D01*
X695726Y106967D02*
X705809Y106967D01*
X742694Y106967D02*
X752887Y106967D01*
X767664Y106967D02*
X768655Y106967D01*
X684038Y107261D02*
X685063Y107261D01*
X695714Y107261D02*
X705686Y107261D01*
X742815Y107261D02*
X753009Y107261D01*
X767786Y107261D02*
X768776Y107261D01*
X684160Y107555D02*
X685184Y107555D01*
X695702Y107555D02*
X705609Y107555D01*
X742937Y107555D02*
X753130Y107555D01*
X767907Y107555D02*
X768898Y107555D01*
X684282Y107849D02*
X685306Y107849D01*
X695690Y107849D02*
X705569Y107849D01*
X743059Y107849D02*
X753252Y107849D01*
X768029Y107849D02*
X769019Y107849D01*
X684404Y108142D02*
X685428Y108142D01*
X695678Y108142D02*
X705568Y108142D01*
X743180Y108142D02*
X753373Y108142D01*
X768151Y108142D02*
X769141Y108142D01*
X684526Y108436D02*
X685550Y108436D01*
X695679Y108436D02*
X705623Y108436D01*
X743302Y108436D02*
X753495Y108436D01*
X768272Y108436D02*
X769262Y108436D01*
X684648Y108730D02*
X685672Y108730D01*
X695711Y108730D02*
X705718Y108730D01*
X743424Y108730D02*
X753617Y108730D01*
X768394Y108730D02*
X769384Y108730D01*
X684770Y109023D02*
X685794Y109023D01*
X695742Y109023D02*
X705860Y109023D01*
X743545Y109023D02*
X753738Y109023D01*
X768516Y109023D02*
X769505Y109023D01*
X684892Y109317D02*
X685916Y109317D01*
X695774Y109317D02*
X706058Y109317D01*
X743664Y109317D02*
X753885Y109317D01*
X768634Y109317D02*
X769627Y109317D01*
X685014Y109611D02*
X686038Y109611D01*
X695806Y109611D02*
X706332Y109611D01*
X743696Y109611D02*
X754101Y109611D01*
X768666Y109611D02*
X769748Y109611D01*
X685136Y109904D02*
X686160Y109904D01*
X695838Y109904D02*
X706721Y109904D01*
X743604Y109904D02*
X754431Y109904D01*
X768575Y109904D02*
X769870Y109904D01*
X685258Y110198D02*
X686282Y110198D01*
X695870Y110198D02*
X707395Y110198D01*
X743303Y110198D02*
X755039Y110198D01*
X768275Y110198D02*
X769991Y110198D01*
X685380Y110492D02*
X686404Y110492D01*
X695931Y110492D02*
X770113Y110492D01*
X685502Y110786D02*
X686526Y110786D01*
X696009Y110786D02*
X770235Y110786D01*
X685624Y111079D02*
X686647Y111079D01*
X696086Y111079D02*
X770356Y111079D01*
X685746Y111373D02*
X686769Y111373D01*
X696164Y111373D02*
X770478Y111373D01*
X685867Y111667D02*
X686891Y111667D01*
X696242Y111667D02*
X770599Y111667D01*
X685989Y111960D02*
X687013Y111960D01*
X696320Y111960D02*
X770721Y111960D01*
X686111Y112254D02*
X687135Y112254D01*
X696404Y112254D02*
X770842Y112254D01*
X686233Y112548D02*
X687257Y112548D01*
X696534Y112548D02*
X770964Y112548D01*
X686355Y112841D02*
X687379Y112841D01*
X696665Y112841D02*
X771085Y112841D01*
X686477Y113135D02*
X687501Y113135D01*
X696795Y113135D02*
X771207Y113135D01*
X686599Y113429D02*
X687623Y113429D01*
X696925Y113429D02*
X771328Y113429D01*
X686721Y113723D02*
X687745Y113723D01*
X697055Y113723D02*
X771450Y113723D01*
X686843Y114016D02*
X687867Y114016D01*
X697185Y114016D02*
X771571Y114016D01*
X686965Y114310D02*
X687989Y114310D01*
X697375Y114310D02*
X771693Y114310D01*
X687087Y114604D02*
X688111Y114604D01*
X697569Y114604D02*
X771814Y114604D01*
X687209Y114897D02*
X688232Y114897D01*
X697763Y114897D02*
X771936Y114897D01*
X687331Y115191D02*
X688354Y115191D01*
X697958Y115191D02*
X772057Y115191D01*
X687453Y115485D02*
X688476Y115485D01*
X698152Y115485D02*
X772179Y115485D01*
X687575Y115778D02*
X688598Y115778D01*
X698366Y115778D02*
X772300Y115778D01*
X687697Y116072D02*
X688720Y116072D01*
X698646Y116072D02*
X772422Y116072D01*
X687819Y116366D02*
X688842Y116366D01*
X698926Y116366D02*
X772544Y116366D01*
X687941Y116660D02*
X688964Y116660D01*
X699206Y116660D02*
X772665Y116660D01*
X688063Y116953D02*
X689086Y116953D01*
X699486Y116953D02*
X772787Y116953D01*
X688185Y117247D02*
X689208Y117247D01*
X699792Y117247D02*
X772908Y117247D01*
X688307Y117541D02*
X689330Y117541D01*
X700200Y117541D02*
X773030Y117541D01*
X688429Y117834D02*
X689452Y117834D01*
X700608Y117834D02*
X773151Y117834D01*
X688551Y118128D02*
X689574Y118128D01*
X701016Y118128D02*
X773273Y118128D01*
X688673Y118422D02*
X689696Y118422D01*
X701424Y118422D02*
X773394Y118422D01*
X688795Y118715D02*
X689817Y118715D01*
X702053Y118715D02*
X773516Y118715D01*
X688917Y119009D02*
X689939Y119009D01*
X702684Y119009D02*
X773637Y119009D01*
X689039Y119303D02*
X690061Y119303D01*
X703314Y119303D02*
X773759Y119303D01*
X689161Y119597D02*
X690183Y119597D01*
X704343Y119597D02*
X773880Y119597D01*
X689283Y119890D02*
X690308Y119890D01*
X705484Y119890D02*
X774002Y119890D01*
X689405Y120184D02*
X690451Y120184D01*
X772649Y120184D02*
X774123Y120184D01*
X689546Y120478D02*
X690595Y120478D01*
X773194Y120478D02*
X774245Y120478D01*
X689690Y120771D02*
X690739Y120771D01*
X773343Y120771D02*
X774366Y120771D01*
X689834Y121065D02*
X690906Y121065D01*
X773464Y121065D02*
X774488Y121065D01*
X689984Y121359D02*
X691082Y121359D01*
X773586Y121359D02*
X774610Y121359D01*
X690160Y121652D02*
X691257Y121652D01*
X773707Y121652D02*
X774731Y121652D01*
X690336Y121946D02*
X691452Y121946D01*
X773829Y121946D02*
X774853Y121946D01*
X690512Y122240D02*
X691662Y122240D01*
X773950Y122240D02*
X774974Y122240D01*
X690712Y122534D02*
X691872Y122534D01*
X774072Y122534D02*
X775096Y122534D01*
X690924Y122827D02*
X692103Y122827D01*
X774194Y122827D02*
X775217Y122827D01*
X691135Y123121D02*
X692351Y123121D01*
X774315Y123121D02*
X775339Y123121D01*
X691363Y123415D02*
X692600Y123415D01*
X774437Y123415D02*
X775460Y123415D01*
X691613Y123708D02*
X692881Y123708D01*
X774558Y123708D02*
X775582Y123708D01*
X691864Y124002D02*
X693173Y124002D01*
X774680Y124002D02*
X775703Y124002D01*
X692131Y124296D02*
X693471Y124296D01*
X774801Y124296D02*
X775825Y124296D01*
X692427Y124589D02*
X693815Y124589D01*
X774923Y124589D02*
X775946Y124589D01*
X692723Y124883D02*
X694159Y124883D01*
X775044Y124883D02*
X776068Y124883D01*
X693048Y125177D02*
X694547Y125177D01*
X775166Y125177D02*
X776189Y125177D01*
X693397Y125471D02*
X694954Y125471D01*
X775287Y125471D02*
X776311Y125471D01*
X693746Y125764D02*
X695402Y125764D01*
X775409Y125764D02*
X776432Y125764D01*
X694158Y126058D02*
X695887Y126058D01*
X775531Y126058D02*
X776554Y126058D01*
X694572Y126352D02*
X696435Y126352D01*
X775652Y126352D02*
X776675Y126352D01*
X695039Y126645D02*
X697024Y126645D01*
X775774Y126645D02*
X776785Y126645D01*
X695533Y126939D02*
X697749Y126939D01*
X775883Y126939D02*
X776839Y126939D01*
X696095Y127233D02*
X698604Y127233D01*
X775885Y127233D02*
X776839Y127233D01*
X696696Y127526D02*
X699730Y127526D01*
X775767Y127526D02*
X776791Y127526D01*
X697427Y127820D02*
X702030Y127820D01*
X775358Y127820D02*
X776685Y127820D01*
X698273Y128114D02*
X776505Y128114D01*
X699358Y128408D02*
X776224Y128408D01*
X701137Y128701D02*
X775695Y128701D01*
D15*
X434397Y863598D03*
X417097Y863598D03*
D16*
X375758Y789346D03*
D17*
X375758Y799346D03*
D18*
X462258Y589846D03*
X462258Y581846D03*
D19*
G36*
X498091Y817310D02*
X488249Y817310D01*
X488249Y821247*
X498091Y821247*
X498091Y817310*
G37*
X488249Y817310*
X488249Y821247*
X498091Y821247*
X498091Y817310*
D20*
X524758Y823826D03*
X524758Y806897D03*
D15*
X513981Y863674D03*
X496681Y863674D03*
D21*
X386258Y562983D03*
X386258Y567708D03*
X430258Y815983D03*
X430258Y820708D03*
D16*
X340758Y734346D03*
D17*
X340758Y724346D03*
D22*
X390758Y834346D03*
D23*
X440581Y525672D03*
D24*
X440581Y523704D03*
X440581Y521735D03*
X440581Y519767D03*
X440581Y517798D03*
X440581Y515830D03*
X440581Y513861D03*
X440581Y511893D03*
X440581Y509924D03*
X440581Y507956D03*
X440581Y505987D03*
D23*
X440581Y504019D03*
D25*
X434085Y497523D03*
D26*
X432116Y497523D03*
X430148Y497523D03*
X428179Y497523D03*
X426211Y497523D03*
X424242Y497523D03*
X422274Y497523D03*
X420305Y497523D03*
X418337Y497523D03*
X416368Y497523D03*
X414400Y497523D03*
D25*
X412431Y497523D03*
D23*
X405935Y504019D03*
D24*
X405935Y505987D03*
X405935Y507956D03*
X405935Y509924D03*
X405935Y511893D03*
X405935Y513861D03*
X405935Y515830D03*
X405935Y517798D03*
X405935Y519767D03*
X405935Y521735D03*
X405935Y523704D03*
D23*
X405935Y525672D03*
D25*
X412431Y532169D03*
D26*
X414400Y532169D03*
X416368Y532169D03*
X418337Y532169D03*
X420305Y532169D03*
X422274Y532169D03*
X424242Y532169D03*
X426211Y532169D03*
X428179Y532169D03*
X430148Y532169D03*
X432116Y532169D03*
D25*
X434085Y532169D03*
D27*
X438537Y568523D03*
X438537Y565964D03*
X438537Y563405D03*
X438537Y560846D03*
X438537Y558287D03*
X438537Y555728D03*
X438537Y553169D03*
X410978Y553169D03*
X410978Y555728D03*
X410978Y558287D03*
X410978Y560846D03*
X410978Y563405D03*
X410978Y565964D03*
X410978Y568523D03*
D22*
X390758Y824846D03*
D19*
G36*
X473091Y827310D02*
X463249Y827310D01*
X463249Y831247*
X473091Y831247*
X473091Y827310*
G37*
X463249Y827310*
X463249Y831247*
X473091Y831247*
X473091Y827310*
G36*
X498091Y807310D02*
X488249Y807310D01*
X488249Y811247*
X498091Y811247*
X498091Y807310*
G37*
X488249Y807310*
X488249Y811247*
X498091Y811247*
X498091Y807310*
G36*
X473091Y817310D02*
X463249Y817310D01*
X463249Y821247*
X473091Y821247*
X473091Y817310*
G37*
X463249Y817310*
X463249Y821247*
X473091Y821247*
X473091Y817310*
G36*
X473091Y807310D02*
X463249Y807310D01*
X463249Y811247*
X473091Y811247*
X473091Y807310*
G37*
X463249Y807310*
X463249Y811247*
X473091Y811247*
X473091Y807310*
G36*
X473091Y797310D02*
X463249Y797310D01*
X463249Y801247*
X473091Y801247*
X473091Y797310*
G37*
X463249Y797310*
X463249Y801247*
X473091Y801247*
X473091Y797310*
D21*
X474508Y495483D03*
X474508Y500208D03*
D16*
X480670Y829278D03*
D17*
X480670Y819278D03*
X480670Y809278D03*
X480670Y799278D03*
D19*
G36*
X498091Y797310D02*
X488249Y797310D01*
X488249Y801247*
X498091Y801247*
X498091Y797310*
G37*
X488249Y797310*
X488249Y801247*
X498091Y801247*
X498091Y797310*
G36*
X498091Y827310D02*
X488249Y827310D01*
X488249Y831247*
X498091Y831247*
X498091Y827310*
G37*
X488249Y827310*
X488249Y831247*
X498091Y831247*
X498091Y827310*
D21*
X367258Y488483D03*
X367258Y493208D03*
X410258Y787983D03*
X410258Y792708D03*
X415258Y787983D03*
X415258Y792708D03*
X512758Y771983D03*
X512758Y776708D03*
X425258Y802708D03*
X425258Y797983D03*
X372758Y488483D03*
X372758Y493208D03*
X449258Y510708D03*
X449258Y505983D03*
D28*
X490730Y773106D03*
X490730Y776846D03*
X490730Y780586D03*
X499786Y780586D03*
X499786Y776846D03*
X499786Y773106D03*
D21*
X425758Y820708D03*
X425758Y815983D03*
D16*
X340915Y799210D03*
D17*
X340915Y789210D03*
X340915Y779210D03*
X340915Y769210D03*
X340915Y759210D03*
X340915Y749210D03*
D19*
G36*
X462929Y532377D02*
X453087Y532377D01*
X453087Y536314*
X462929Y536314*
X462929Y532377*
G37*
X453087Y532377*
X453087Y536314*
X462929Y536314*
X462929Y532377*
G36*
X386226Y495767D02*
X386226Y485924D01*
X382289Y485924*
X382289Y495767*
X386226Y495767*
G37*
X386226Y485924*
X382289Y485924*
X382289Y495767*
X386226Y495767*
D21*
X378258Y493208D03*
X378258Y488483D03*
D19*
G36*
X386179Y514377D02*
X376337Y514377D01*
X376337Y518314*
X386179Y518314*
X386179Y514377*
G37*
X376337Y514377*
X376337Y518314*
X386179Y518314*
X386179Y514377*
D21*
X426258Y545708D03*
X426258Y540983D03*
X369758Y600708D03*
X369758Y595983D03*
X399258Y557708D03*
X399258Y552983D03*
D29*
X496758Y700999D03*
X496758Y707692D03*
D30*
X442620Y546846D03*
X437896Y546846D03*
X433396Y540346D03*
X438120Y540346D03*
D21*
X394758Y552983D03*
X394758Y557708D03*
D16*
X375758Y834346D03*
D17*
X375758Y824346D03*
D31*
X422294Y773365D03*
X402294Y773365D03*
D19*
G36*
X445179Y773377D02*
X435337Y773377D01*
X435337Y777314*
X445179Y777314*
X445179Y773377*
G37*
X435337Y773377*
X435337Y777314*
X445179Y777314*
X445179Y773377*
G36*
X363837Y761314D02*
X373679Y761314D01*
X373679Y757377*
X363837Y757377*
X363837Y761314*
G37*
X373679Y761314*
X373679Y757377*
X363837Y757377*
X363837Y761314*
D30*
X442120Y780346D03*
X437396Y780346D03*
D21*
X434258Y843708D03*
X434258Y838983D03*
D30*
X437396Y784846D03*
X442120Y784846D03*
D32*
X485604Y676846D03*
X478911Y676846D03*
D18*
X465758Y713846D03*
X465758Y721846D03*
D33*
X472321Y716287D03*
X472321Y721405D03*
X480195Y718846D03*
D21*
X420258Y802708D03*
X420258Y797983D03*
D19*
G36*
X463179Y510127D02*
X453337Y510127D01*
X453337Y514064*
X463179Y514064*
X463179Y510127*
G37*
X453337Y510127*
X453337Y514064*
X463179Y514064*
X463179Y510127*
D32*
X473911Y545846D03*
X480604Y545846D03*
D30*
X350396Y759346D03*
X355120Y759346D03*
X350396Y799346D03*
X355120Y799346D03*
X350396Y749346D03*
X355120Y749346D03*
D21*
X420258Y787983D03*
X420258Y792708D03*
D34*
X350258Y805346D03*
X359258Y805346D03*
D32*
X473911Y516346D03*
X480604Y516346D03*
D30*
X350396Y769346D03*
X355120Y769346D03*
D20*
X477258Y766865D03*
X477258Y783794D03*
D19*
G36*
X485726Y502767D02*
X485726Y492924D01*
X481789Y492924*
X481789Y502767*
X485726Y502767*
G37*
X485726Y492924*
X481789Y492924*
X481789Y502767*
X485726Y502767*
D21*
X479008Y500208D03*
X479008Y495483D03*
X445758Y537208D03*
X445758Y532483D03*
D29*
X466008Y501442D03*
X466008Y494749D03*
D21*
X511758Y786483D03*
X511758Y791208D03*
X404258Y832708D03*
X404258Y827983D03*
D18*
X431758Y581846D03*
X431758Y589846D03*
D30*
X350396Y788846D03*
X355120Y788846D03*
D19*
G36*
X462929Y525877D02*
X453087Y525877D01*
X453087Y529814*
X462929Y529814*
X462929Y525877*
G37*
X453087Y525877*
X453087Y529814*
X462929Y529814*
X462929Y525877*
D30*
X456146Y522846D03*
X460870Y522846D03*
X456146Y539596D03*
X460870Y539596D03*
D35*
X470181Y537645D03*
X491835Y537645D03*
X491835Y525046D03*
X470181Y525046D03*
D19*
G36*
X428789Y477924D02*
X428789Y487767D01*
X432726Y487767*
X432726Y477924*
X428789Y477924*
G37*
X428789Y487767*
X432726Y487767*
X432726Y477924*
X428789Y477924*
D28*
X409230Y586106D03*
X409230Y589846D03*
X409230Y593586D03*
X418286Y593586D03*
X418286Y589846D03*
X418286Y586106D03*
D16*
X340758Y709346D03*
D17*
X340758Y699346D03*
X340758Y689346D03*
X340758Y679346D03*
X340758Y669346D03*
X340758Y659346D03*
X340758Y649346D03*
X340758Y639346D03*
X340758Y629346D03*
X340758Y619346D03*
X340758Y609346D03*
X340758Y599346D03*
X340758Y589346D03*
X340758Y579346D03*
X340758Y569346D03*
X340758Y559346D03*
X340758Y549346D03*
X340758Y539346D03*
X340758Y529346D03*
X340758Y519346D03*
X340758Y509346D03*
X340758Y499346D03*
X340758Y489346D03*
X340758Y479346D03*
X340758Y469346D03*
D32*
X380104Y531846D03*
X373411Y531846D03*
D21*
X401758Y493708D03*
X401758Y488983D03*
D19*
G36*
X463179Y515377D02*
X453337Y515377D01*
X453337Y519314*
X463179Y519314*
X463179Y515377*
G37*
X453337Y515377*
X453337Y519314*
X463179Y519314*
X463179Y515377*
G36*
X423289Y477924D02*
X423289Y487767D01*
X427226Y487767*
X427226Y477924*
X423289Y477924*
G37*
X423289Y487767*
X427226Y487767*
X427226Y477924*
X423289Y477924*
G36*
X386179Y519877D02*
X376337Y519877D01*
X376337Y523814*
X386179Y523814*
X386179Y519877*
G37*
X376337Y519877*
X376337Y523814*
X386179Y523814*
X386179Y519877*
G36*
X416226Y487767D02*
X416226Y477924D01*
X412289Y477924*
X412289Y487767*
X416226Y487767*
G37*
X416226Y477924*
X412289Y477924*
X412289Y487767*
X416226Y487767*
G36*
X417789Y477924D02*
X417789Y487767D01*
X421726Y487767*
X421726Y477924*
X417789Y477924*
G37*
X417789Y487767*
X421726Y487767*
X421726Y477924*
X417789Y477924*
G36*
X434289Y477924D02*
X434289Y487767D01*
X438226Y487767*
X438226Y477924*
X434289Y477924*
G37*
X434289Y487767*
X438226Y487767*
X438226Y477924*
X434289Y477924*
G36*
X439789Y477924D02*
X439789Y487767D01*
X443726Y487767*
X443726Y477924*
X439789Y477924*
G37*
X439789Y487767*
X443726Y487767*
X443726Y477924*
X439789Y477924*
D21*
X400758Y600708D03*
X400758Y595983D03*
D30*
X479396Y668846D03*
X484120Y668846D03*
D18*
X400758Y589846D03*
X400758Y581846D03*
D32*
X380104Y541346D03*
X373411Y541346D03*
D21*
X403758Y557708D03*
X403758Y552983D03*
D16*
X510758Y709346D03*
D17*
X510758Y699346D03*
X510758Y689346D03*
X510758Y679346D03*
X510758Y669346D03*
X510758Y659346D03*
X510758Y649346D03*
X510758Y639346D03*
X510758Y629346D03*
X510758Y619346D03*
X510758Y609346D03*
X510758Y599346D03*
X510758Y589346D03*
X510758Y579346D03*
X510758Y569346D03*
X510758Y559346D03*
X510758Y549346D03*
X510758Y539346D03*
X510758Y529346D03*
X510758Y519346D03*
X510758Y509346D03*
X510758Y499346D03*
X510758Y489346D03*
X510758Y479346D03*
X510758Y469346D03*
D21*
X431758Y601208D03*
X431758Y596483D03*
X461758Y601208D03*
X461758Y596483D03*
D16*
X355758Y659346D03*
D17*
X355758Y649346D03*
X355758Y639346D03*
X355758Y629346D03*
D20*
X512758Y823826D03*
X512758Y806897D03*
D36*
X377758Y600096D03*
X382758Y600096D03*
X387758Y600096D03*
X392758Y600096D03*
X392758Y578596D03*
X387758Y578596D03*
X382758Y578596D03*
X377758Y578596D03*
X408758Y600096D03*
X413758Y600096D03*
X418758Y600096D03*
X423758Y600096D03*
X423758Y578596D03*
X418758Y578596D03*
X413758Y578596D03*
X408758Y578596D03*
X489758Y787096D03*
X494758Y787096D03*
X499758Y787096D03*
X504758Y787096D03*
X504758Y765596D03*
X499758Y765596D03*
X494758Y765596D03*
X489758Y765596D03*
D16*
X355758Y609346D03*
D17*
X355758Y599346D03*
X355758Y589346D03*
D21*
X503758Y866483D03*
X503758Y871208D03*
X508758Y866483D03*
X508758Y871208D03*
D37*
X350758Y869346D03*
D38*
X340758Y869346D03*
X350758Y859346D03*
X340758Y859346D03*
X350758Y849346D03*
X340758Y849346D03*
X350758Y839346D03*
X340758Y839346D03*
D19*
G36*
X457837Y640814D02*
X467679Y640814D01*
X467679Y636877*
X457837Y636877*
X457837Y640814*
G37*
X467679Y640814*
X467679Y636877*
X457837Y636877*
X457837Y640814*
D39*
X482198Y663138D03*
X482198Y658138D03*
X482198Y653138D03*
X482198Y648138D03*
X460698Y648138D03*
X460698Y653138D03*
X460698Y658138D03*
X460698Y663138D03*
D40*
X469018Y661873D03*
X472758Y661873D03*
X476498Y661873D03*
X476498Y652818D03*
X472758Y652818D03*
X469018Y652818D03*
D36*
X439758Y600096D03*
X444758Y600096D03*
X449758Y600096D03*
X454758Y600096D03*
X454758Y578596D03*
X449758Y578596D03*
X444758Y578596D03*
X439758Y578596D03*
D21*
X454258Y630708D03*
X454258Y625983D03*
D30*
X394120Y634346D03*
X389396Y634346D03*
X448620Y660346D03*
X443896Y660346D03*
D21*
X398758Y667708D03*
X398758Y662983D03*
D18*
X405758Y670846D03*
X405758Y662846D03*
D30*
X394120Y625346D03*
X389396Y625346D03*
X394120Y621346D03*
X389396Y621346D03*
X394120Y629846D03*
X389396Y629846D03*
D21*
X413758Y674208D03*
X413758Y669483D03*
X418258Y674208D03*
X418258Y669483D03*
X422758Y669483D03*
X422758Y674208D03*
D25*
X414931Y656669D03*
D26*
X416900Y656669D03*
X418868Y656669D03*
X420837Y656669D03*
X422805Y656669D03*
X424774Y656669D03*
X426742Y656669D03*
X428711Y656669D03*
X430679Y656669D03*
X432648Y656669D03*
X434616Y656669D03*
D25*
X436585Y656668D03*
D23*
X443081Y650172D03*
D24*
X443081Y648204D03*
X443081Y646235D03*
X443081Y644267D03*
X443081Y642298D03*
X443081Y640330D03*
X443081Y638361D03*
X443081Y636393D03*
X443081Y634424D03*
X443081Y632456D03*
X443081Y630487D03*
D23*
X443081Y628519D03*
D25*
X436585Y622023D03*
D26*
X434616Y622023D03*
X432648Y622023D03*
X430679Y622023D03*
X428711Y622023D03*
X426742Y622023D03*
X424774Y622023D03*
X422805Y622023D03*
X420837Y622023D03*
X418868Y622023D03*
X416900Y622023D03*
D25*
X414931Y622022D03*
D23*
X408435Y628519D03*
D24*
X408435Y630487D03*
X408435Y632456D03*
X408435Y634424D03*
X408435Y636393D03*
X408435Y638361D03*
X408435Y640330D03*
X408435Y642298D03*
X408435Y644267D03*
X408435Y646235D03*
X408435Y648204D03*
D23*
X408435Y650172D03*
D32*
X377911Y701346D03*
X384604Y701346D03*
D41*
X364258Y695346D03*
X364258Y709346D03*
D32*
X377911Y694346D03*
X384604Y694346D03*
X377911Y708346D03*
X384604Y708346D03*
D42*
X448396Y707098D03*
X446427Y707098D03*
X444459Y707098D03*
X442490Y707098D03*
X440522Y707098D03*
X438553Y707098D03*
X436585Y707098D03*
X434616Y707098D03*
X432648Y707098D03*
X430679Y707098D03*
X428711Y707098D03*
X426742Y707098D03*
X424774Y707098D03*
X422805Y707098D03*
X420837Y707098D03*
X418868Y707098D03*
X416900Y707098D03*
X414931Y707098D03*
X412963Y707098D03*
X410994Y707098D03*
X409026Y707098D03*
X407057Y707098D03*
X405089Y707098D03*
X403120Y707098D03*
D43*
X454459Y716251D03*
X397057Y716251D03*
D18*
X368758Y589846D03*
X368758Y581846D03*
D28*
X378230Y586106D03*
X378230Y589846D03*
X378230Y593586D03*
X387286Y593586D03*
X387286Y589846D03*
X387286Y586106D03*
D40*
X384998Y715302D03*
X377518Y715302D03*
X381258Y722389D03*
D32*
X370604Y719846D03*
X363911Y719846D03*
D30*
X418620Y614846D03*
X413896Y614846D03*
D29*
X424758Y688999D03*
X424758Y695692D03*
X417758Y688999D03*
X417758Y695692D03*
X410758Y688999D03*
X410758Y695692D03*
X403758Y688999D03*
X403758Y695692D03*
X396758Y688999D03*
X396758Y695692D03*
D30*
X427396Y664846D03*
X432120Y664846D03*
D21*
X439758Y691483D03*
X439758Y696208D03*
X432758Y696208D03*
X432758Y691483D03*
X400258Y653708D03*
X400258Y648983D03*
D30*
X394120Y644346D03*
X389396Y644346D03*
X394120Y639346D03*
X389396Y639346D03*
D32*
X463604Y688346D03*
X456911Y688346D03*
X463604Y695346D03*
X456911Y695346D03*
X463604Y681346D03*
X456911Y681346D03*
X463604Y702346D03*
X456911Y702346D03*
D44*
X465258Y672346D03*
X457258Y672346D03*
D19*
G36*
X457837Y635314D02*
X467679Y635314D01*
X467679Y631377*
X457837Y631377*
X457837Y635314*
G37*
X467679Y635314*
X467679Y631377*
X457837Y631377*
X457837Y635314*
D29*
X520258Y792192D03*
X520258Y785499D03*
D21*
X520258Y771983D03*
X520258Y776708D03*
X396258Y522483D03*
X396258Y527208D03*
D45*
X471537Y685507D03*
X471537Y688066D03*
X471537Y690625D03*
X471537Y693184D03*
X493978Y693184D03*
X493978Y690625D03*
X493978Y688066D03*
X493978Y685507D03*
D46*
X496179Y718846D03*
X486337Y718846D03*
D21*
X457258Y562483D03*
X457258Y567208D03*
X452758Y562483D03*
X452758Y567208D03*
X448258Y567208D03*
X448258Y562483D03*
X403758Y567708D03*
X403758Y562983D03*
D30*
X453120Y555846D03*
X448396Y555846D03*
D28*
X470730Y586106D03*
X470730Y589846D03*
X470730Y593586D03*
X479786Y593586D03*
X479786Y589846D03*
X479786Y586106D03*
D36*
X470258Y600096D03*
X475258Y600096D03*
X480258Y600096D03*
X485258Y600096D03*
X485258Y578596D03*
X480258Y578596D03*
X475258Y578596D03*
X470258Y578596D03*
D28*
X440230Y586106D03*
X440230Y589846D03*
X440230Y593586D03*
X449286Y593586D03*
X449286Y589846D03*
X449286Y586106D03*
D21*
X450758Y815983D03*
X450758Y820708D03*
D29*
X428758Y672999D03*
X428758Y679692D03*
D47*
X456758Y501596D03*
X456758Y490596D03*
D48*
X438258Y672846D03*
X449258Y672846D03*
D49*
X80758Y41846D02*
X80758Y48735*
X82136Y46767D01*
X89026Y46767*
X90404Y48735*
X90404Y54641*
X89026Y56609*
X82136Y56609*
X80758Y58578*
X80758Y63499*
X82136Y65468*
X89026Y65468*
X90404Y63499*
X99360Y46767D02*
X99016Y46767D01*
X99016Y47751*
X99360Y47751*
X99360Y46767*
X105561Y46767D02*
X105561Y65468D01*
X111762Y46767*
X117963Y65468*
X117963Y46767*
X124163Y46767D02*
X123819Y46767D01*
X123819Y47751*
X124163Y47751*
X124163Y46767*
X140010Y46767D02*
X130364Y46767D01*
X130364Y65468*
X140010Y65468*
X140010Y56609D02*
X130364Y56609D01*
X148967Y46767D02*
X148622Y46767D01*
X148622Y47751*
X148967Y47751*
X148967Y46767*
X164813Y46767D02*
X155167Y46767D01*
X155167Y65468*
X164813Y65468*
X164813Y56609D02*
X155167Y56609D01*
X173770Y46767D02*
X173425Y46767D01*
X173425Y47751*
X173770Y47751*
X173770Y46767*
D50*
X74258Y126846D02*
X74258Y135868*
X75078Y136688D01*
X79179Y136688*
X79999Y135868*
X79999Y134228*
X79179Y133407*
X74258Y128896*
X79999Y128896*
X84100Y135868D02*
X84920Y136688D01*
X89021Y136688*
X89841Y135868*
X89841Y133817*
X89021Y132997*
X86560Y132997*
X89021Y132997*
X89841Y132177*
X89841Y130126*
X89021Y128896*
X84920Y128896*
X84100Y129716*
X93942Y128896D02*
X100503Y136688D01*
X109525Y129716D02*
X108705Y128896D01*
X104604Y128896*
X103784Y129716*
X103784Y135868*
X104604Y136688*
X108705Y136688*
X109525Y135868*
X109525Y129716*
X103784Y129716D02*
X109525Y135868D01*
X117727Y128896D02*
X117727Y136688D01*
X113626Y131767*
X119367Y131767*
X123467Y128896D02*
X130029Y136688D01*
X133309Y135868D02*
X134129Y136688D01*
X138231Y136688*
X139051Y135868*
X139051Y134228*
X138231Y133407*
X133309Y128896*
X139051Y128896*
X148893Y129716D02*
X148072Y128896D01*
X143971Y128896*
X143151Y129716*
X143151Y135868*
X143971Y136688*
X148072Y136688*
X148893Y135868*
X148893Y129716*
X143151Y129716D02*
X148893Y135868D01*
X154428Y128896D02*
X154428Y136688D01*
X153608Y135048*
X162015Y128896D02*
X162015Y136688D01*
X157914Y131767*
X163655Y131767*
X207097Y141688D02*
X207097Y145707*
X208245Y144559D01*
X213986Y144559*
X215135Y145707*
X215135Y149152*
X213986Y150300*
X208245Y150300*
X207097Y151449*
X207097Y154319*
X208245Y155468*
X213986Y155468*
X215135Y154319*
X230062Y146281D02*
X228340Y144559D01*
X222598Y144559*
X220876Y146281*
X220876Y153745*
X222598Y155468*
X228340Y155468*
X230062Y153745*
X230062Y146281*
X242693Y144559D02*
X234655Y144559D01*
X234655Y155468*
X248434Y155468D02*
X254176Y155468D01*
X256472Y154319*
X257621Y152023*
X257621Y148004*
X256472Y145707*
X254176Y144559*
X248434Y144559*
X250731Y144559D02*
X250731Y155468D01*
X270251Y144559D02*
X262213Y144559D01*
X262213Y155468*
X270251Y155468*
X270251Y150300D02*
X262213Y150300D01*
X275993Y144559D02*
X275993Y155468D01*
X284031Y155468*
X285179Y154319*
X285179Y151449*
X284031Y150300*
X275993Y150300*
X282882Y150300D02*
X284031Y150300D01*
X285179Y144559*
X298958Y141688D02*
X303551Y144559*
X303551Y155468D01*
X308718Y144559*
X313886Y155468*
X313886Y144559*
X317330Y144559D02*
X321923Y155468D01*
X326517Y144559*
X319053Y148578D02*
X324794Y148578D01*
X331109Y145707D02*
X332258Y144559D01*
X337999Y144559*
X339147Y145707*
X339147Y149152*
X337999Y150300*
X332258Y150300*
X331109Y151449*
X331109Y154319*
X332258Y155468*
X337999Y155468*
X339147Y154319*
X344889Y144559D02*
X344889Y155468D01*
X344889Y150300D02*
X345463Y150300D01*
X352927Y155468*
X345463Y150300D02*
X352927Y144559D01*
X367854Y141688D02*
X372447Y144559*
X372447Y155468D01*
X380485Y155468*
X381633Y154319*
X381633Y151449*
X380485Y150300*
X372447Y150300D02*
X380485Y150300D01*
X381633Y149152*
X381633Y145707*
X380485Y144559*
X372447Y144559*
X395413Y146281D02*
X393690Y144559D01*
X387949Y144559*
X386226Y146281*
X386226Y153745*
X387949Y155468*
X393690Y155468*
X395413Y153745*
X395413Y146281*
X400006Y155468D02*
X409192Y155468D01*
X404599Y155468D02*
X404599Y144559D01*
X413785Y155468D02*
X422971Y155468D01*
X418378Y155468D02*
X418378Y144559D01*
X436750Y146281D02*
X435028Y144559D01*
X429286Y144559*
X427564Y146281*
X427564Y153745*
X429286Y155468*
X435028Y155468*
X436750Y153745*
X436750Y146281*
X441343Y144559D02*
X441343Y155468D01*
X446510Y144559*
X451678Y155468*
X451678Y144559*
X464309Y141688D02*
X476940Y144559*
X468902Y144559D01*
X468902Y155468*
X482681Y144559D02*
X487274Y155468D01*
X491867Y144559*
X484403Y148578D02*
X490145Y148578D01*
X496460Y155468D02*
X501053Y150300D01*
X505646Y155468*
X501053Y150300D02*
X501053Y144559D01*
X518277Y144559D02*
X510239Y144559D01*
X510239Y155468*
X518277Y155468*
X518277Y150300D02*
X510239Y150300D01*
X524018Y144559D02*
X524018Y155468D01*
X532056Y155468*
X533205Y154319*
X533205Y151449*
X532056Y150300*
X524018Y150300*
X530908Y150300D02*
X532056Y150300D01*
X533205Y144559*
X70558Y140355D02*
X70558Y150198*
X74659Y150198D01*
X76300Y149377*
X77120Y147737*
X77120Y144866*
X76300Y143226*
X74659Y142406*
X70558Y142406*
X72199Y142406D02*
X72199Y150198D01*
X80400Y142406D02*
X83681Y150198D01*
X86962Y142406*
X81630Y145276D02*
X85731Y145276D01*
X90242Y150198D02*
X96804Y150198D01*
X93523Y150198D02*
X93523Y142406D01*
X105825Y142406D02*
X100084Y142406D01*
X100084Y150198*
X105825Y150198*
X105825Y146507D02*
X100084Y146507D01*
X111156Y142406D02*
X110951Y142406D01*
X110951Y142816*
X111156Y142816*
X111156Y142406*
X111156Y146507D02*
X110951Y146507D01*
X110951Y146917*
X111156Y146917*
X111156Y146507*
X206611Y88636D02*
X206611Y92655*
X207760Y91506D01*
X213501Y91506*
X214649Y92655*
X214649Y96099*
X213501Y97248*
X207760Y97248*
X206611Y98396*
X206611Y101267*
X207760Y102415*
X213501Y102415*
X214649Y101267*
X220391Y102415D02*
X229577Y102415D01*
X224984Y102415D02*
X224984Y91506D01*
X234170Y91506D02*
X234170Y102415D01*
X239337Y91506*
X244504Y102415*
X244504Y91506*
X247949Y101267D02*
X249097Y102415D01*
X254839Y102415*
X255987Y101267*
X255987Y98396*
X254839Y97248*
X251394Y97248*
X254839Y97248*
X255987Y96099*
X255987Y93229*
X254839Y91506*
X249097Y91506*
X247949Y92655*
X261728Y101267D02*
X262876Y102415D01*
X268618Y102415*
X269766Y101267*
X269766Y98970*
X268618Y97822*
X261728Y91506*
X269766Y91506*
X283545Y91506D02*
X275507Y91506D01*
X275507Y102415*
X297325Y92655D02*
X296176Y91506D01*
X290435Y91506*
X289287Y92655*
X289287Y101267*
X290435Y102415*
X296176Y102415*
X297325Y101267*
X297325Y92655*
X289287Y92655D02*
X297325Y101267D01*
X303066Y92655D02*
X304214Y91506D01*
X309956Y91506*
X311104Y92655*
X311104Y96674*
X309956Y97822*
X304214Y97822*
X303066Y96674*
X303066Y102415*
X311104Y102415*
X316845Y101267D02*
X317993Y102415D01*
X323735Y102415*
X324883Y101267*
X324883Y98396*
X323735Y97248*
X320290Y97248*
X323735Y97248*
X324883Y96099*
X324883Y93229*
X323735Y91506*
X317993Y91506*
X316845Y92655*
X330624Y92655D02*
X330624Y96099D01*
X331773Y97248*
X337514Y97248*
X338662Y98396*
X338662Y101267*
X337514Y102415*
X331773Y102415*
X330624Y101267*
X330624Y98396*
X331773Y97248*
X337514Y97248*
X338662Y96099*
X338662Y92655*
X337514Y91506*
X331773Y91506*
X330624Y92655*
X345552Y97248D02*
X352442Y97248D01*
X358183Y102415D02*
X363924Y102415D01*
X366221Y101267*
X367369Y98970*
X367369Y94951*
X366221Y92655*
X363924Y91506*
X358183Y91506*
X360479Y91506D02*
X360479Y102415D01*
X374259Y91506D02*
X374259Y102415D01*
X373110Y91506D02*
X375407Y91506D01*
X373110Y102415D02*
X375407Y102415D01*
X378852Y92655D02*
X380000Y91506D01*
X385741Y91506*
X386890Y92655*
X386890Y96099*
X385741Y97248*
X380000Y97248*
X378852Y98396*
X378852Y101267*
X380000Y102415*
X385741Y102415*
X386890Y101267*
X401817Y92655D02*
X400669Y91506D01*
X393779Y91506*
X392631Y92655*
X392631Y101267*
X393779Y102415*
X400669Y102415*
X401817Y101267*
X415596Y93229D02*
X413874Y91506D01*
X408132Y91506*
X406410Y93229*
X406410Y100693*
X408132Y102415*
X413874Y102415*
X415596Y100693*
X415596Y93229*
X420189Y102415D02*
X424782Y91506D01*
X429376Y102415*
X442006Y91506D02*
X433968Y91506D01*
X433968Y102415*
X442006Y102415*
X442006Y97248D02*
X433968Y97248D01*
X447748Y91506D02*
X447748Y102415D01*
X455786Y102415*
X456934Y101267*
X456934Y98396*
X455786Y97248*
X447748Y97248*
X454637Y97248D02*
X455786Y97248D01*
X456934Y91506*
X461527Y102415D02*
X466120Y97248D01*
X470713Y102415*
X466120Y97248D02*
X466120Y91506D01*
X206611Y53203D02*
X206611Y56073*
X206611Y66982D01*
X211779Y56073*
X216946Y66982*
X216946Y56073*
X220391Y56073D02*
X220391Y66982D01*
X228429Y66982*
X229577Y65834*
X229577Y62963*
X228429Y61815*
X220391Y61815D02*
X228429Y61815D01*
X229577Y60666*
X229577Y57222*
X228429Y56073*
X220391Y56073*
X236179Y56073D02*
X236179Y66982D01*
X235031Y64685*
X243069Y56073D02*
X243069Y66982D01*
X241921Y64685*
X253690Y56073D02*
X253690Y66982D01*
X247949Y60092*
X255987Y60092*
X261728Y65834D02*
X262876Y66982D01*
X268618Y66982*
X269766Y65834*
X269766Y62963*
X268618Y61815*
X265173Y61815*
X268618Y61815*
X269766Y60666*
X269766Y57796*
X268618Y56073*
X262876Y56073*
X261728Y57222*
X275507Y56073D02*
X275507Y66982D01*
X283545Y66982*
X284694Y65834*
X284694Y62963*
X283545Y61815*
X275507Y61815D02*
X283545Y61815D01*
X284694Y60666*
X284694Y57222*
X283545Y56073*
X275507Y56073*
M02*
